<svg xmlns="http://www.w3.org/2000/svg" viewBox="0 0 36 56">
	<path fill="#6e6e73" d="M31,12H25.931a7.99,7.99,0,0,0-15.861,0H5a5,5,0,0,0-5,4.99V41.012A5,5,0,0,0,5,46H31a5,5,0,0,0,5-4.988V16.99A5,5,0,0,0,31,12ZM18,6.985A6.015,6.015,0,0,1,23.91,12H12.09A6.015,6.015,0,0,1,18,6.985ZM34,41.012a3,3,0,0,1-3,3H5a3,3,0,0,1-3-3V16.99a3,3,0,0,1,3-3H31a3,3,0,0,1,3,3ZM23.6,24.833a3.383,3.383,0,0,0-1.568,2.822A3.222,3.222,0,0,0,24,30.639a6.884,6.884,0,0,1-1.008,2.1c-.624.9-1.312,1.812-2.3,1.812-1.008,0-1.248-.593-2.416-.593-1.12,0-1.52.609-2.432.609-.928,0-1.568-.834-2.3-1.876A9.18,9.18,0,0,1,12,27.8c0-2.87,1.872-4.394,3.7-4.394.992,0,1.792.641,2.4.641.592,0,1.488-.674,2.592-.674A3.415,3.415,0,0,1,23.6,24.833Zm-5.424-1.62c-.08,0-.144-.016-.208-.016,0-.048-.016-.16-.016-.273a3.287,3.287,0,0,1,.816-2,3.186,3.186,0,0,1,2.16-1.123,1.563,1.563,0,0,1,.016.289,3.387,3.387,0,0,1-.768,2.069A2.86,2.86,0,0,1,18.176,23.214Z"/>
</svg>
