<svg xmlns="http://www.w3.org/2000/svg" viewBox="0 0 36 56">
	<path fill="#86868b" d="M28,46H8a8.009,8.009,0,0,1-8-8V18a8.009,8.009,0,0,1,8-8H28a8.009,8.009,0,0,1,8,8V38A8.009,8.009,0,0,1,28,46ZM8,12a6.007,6.007,0,0,0-6,6V38a6.007,6.007,0,0,0,6,6H28a6.007,6.007,0,0,0,6-6V18a6.007,6.007,0,0,0-6-6Z"/>
	<path fill="#86868b" d="M26,20H23c0-1.734-2.429-4-5-4s-5,2.266-5,4H10a1.74,1.74,0,0,0-2,2V36.75A1.986,1.986,0,0,0,10,39H26c1.367,0,2-.883,2-2.25V22A1.773,1.773,0,0,0,26,20ZM21.319,30.71a5.468,5.468,0,0,1-.452.832,3.723,3.723,0,0,1-.581.719,1.107,1.107,0,0,1-.743.339,1.838,1.838,0,0,1-.687-.17,1.924,1.924,0,0,0-.743-.17,2,2,0,0,0-.759.17,2.083,2.083,0,0,1-.662.178,1.068,1.068,0,0,1-.759-.347,4.262,4.262,0,0,1-.606-.743,5.332,5.332,0,0,1-.638-1.308,4.941,4.941,0,0,1-.267-1.559,2.916,2.916,0,0,1,.363-1.486,2.164,2.164,0,0,1,.759-.792,2.047,2.047,0,0,1,1.034-.3,2.3,2.3,0,0,1,.8.186,2.341,2.341,0,0,0,.63.194,3.37,3.37,0,0,0,.7-.226,2.243,2.243,0,0,1,.953-.17,2,2,0,0,1,1.583.856,1.827,1.827,0,0,0-.937,1.648,1.858,1.858,0,0,0,.573,1.365,1.928,1.928,0,0,0,.581.388C21.424,30.451,21.368,30.58,21.319,30.71ZM17.927,25.8a1.748,1.748,0,0,1,.468-1.171,1.886,1.886,0,0,1,.6-.452,1.625,1.625,0,0,1,.678-.2,1.192,1.192,0,0,1,.008.17,1.879,1.879,0,0,1-.46,1.211,1.469,1.469,0,0,1-1.284.606A1.029,1.029,0,0,1,17.927,25.8ZM14,20c0-1.342,1.666-3,4-3s4,1.714,4,3Z"/>
</svg>
