<svg xmlns="http://www.w3.org/2000/svg" viewBox="0 0 47 56">
	<path fill="#86868b" d="M18.244,33.03c-.55.045-1.108.073-1.677.073-.419,0-.845-.013-1.266-.038l-.67-.04-.558.372a27.9,27.9,0,0,1-5.46,2.851A20.272,20.272,0,0,0,10,34.049l.965-1.843-1.879-.892C5.021,29.389,2.5,25.782,2.5,21.9c0-6.186,6.468-11.219,14.417-11.219,7.9,0,14.33,4.971,14.41,11.1a18.2,18.2,0,0,1,1.993-.123c-.157-7.2-7.367-12.981-16.4-12.981C7.782,8.683.5,14.594.5,21.9c0,4.794,3.075,9.014,7.723,11.219a28.187,28.187,0,0,1-2.457,3.6c-.75.941-.368,2,.956,2,1.824,0,5.546-1.72,8.459-3.661q.7.042,1.385.041c.557,0,1.106-.022,1.649-.062-.019-.26-.047-.518-.047-.782A10.553,10.553,0,0,1,18.244,33.03Z"/>
	<path fill="#86868b" d="M46.5,34.26c0-5.858-5.839-10.6-13.165-10.6-.052,0-.1.006-.155.006a16.518,16.518,0,0,0-2.069.154c-5.63.763-9.985,4.365-10.792,8.914a8.684,8.684,0,0,0-.149,1.521c0,.183.023.359.033.539.346,5.839,6.227,10.043,13.413,10.043.367,0,.738-.011,1.111-.033,2.336,1.556,5.32,2.935,6.783,2.935,1.062,0,1.368-.849.767-1.6a22.578,22.578,0,0,1-1.97-2.888C44.034,41.484,46.5,38.1,46.5,34.26Zm-7.05,7.186-1.88.892.965,1.843c.122.233.26.472.406.71a23.465,23.465,0,0,1-3.106-1.747l-.558-.372-.67.04c-.333.02-.664.03-.992.03-6.371,0-11.366-3.715-11.44-8.476,0-.036-.007-.07-.007-.105a6.711,6.711,0,0,1,.343-2.075c.97-3,3.979-5.371,7.829-6.2a14.165,14.165,0,0,1,2.323-.3c.223-.01.445-.026.671-.026,6.157,0,11.165,3.856,11.165,8.6A8.188,8.188,0,0,1,39.45,41.445Z"/>
</svg>
