<svg xmlns="http://www.w3.org/2000/svg" viewBox="0 0 36 56"><path d="M28,12a6.0068,6.0068,0,0,1,6,6V38a6.0068,6.0068,0,0,1-6,6H8a6.0068,6.0068,0,0,1-6-6V18a6.0068,6.0068,0,0,1,6-6H28m0-2H8a8,8,0,0,0-8,8V38a8,8,0,0,0,8,8H28a8,8,0,0,0,8-8V18a8,8,0,0,0-8-8Z" fill="#86868b"/><path d="M13.35382,28.96576a3.04337,3.04337,0,0,1,0-2.09711,2.36194,2.36194,0,0,1,1.14154-1.36126,2.72216,2.72216,0,0,0-2.37353-1.21418c-1.14057,0-1.8028.58869-2.37354.58869-.47729,0-.99237-.55188-1.91321-.55188A2.8771,2.8771,0,0,0,5.51825,25.397a4.18648,4.18648,0,0,0-.883,2.70417,7.59073,7.59073,0,0,0,1.78388,4.67254c.533.62549.97449.93817,1.48956.93817.7547,0,1.17731-.55188,2.07923-.55188a2.88906,2.88906,0,0,1,.9566.2392,2.54464,2.54464,0,0,0,1.06695.27588,1.409,1.409,0,0,0,1.048-.40466,6.52392,6.52392,0,0,0,1.73016-2.86976A2.50646,2.50646,0,0,1,13.35382,28.96576Z" fill="#86868b"/><path d="M12.25012,21.20276A2.735,2.735,0,0,0,9.6936,23.9989C11.18414,24.16449,12.36145,22.50885,12.25012,21.20276Z" fill="#86868b"/><path d="M19.848,22.10413H17.93488v2.18908H16.61041v1.49012h1.32447v5.37152c0,1.858.73584,2.5202,2.649,2.5202a5.97872,5.97872,0,0,0,1.01129-.07355V32.03784a1.8846,1.8846,0,0,1-.60656.05518c-.75373,0-1.14057-.31269-1.14057-1.15894V25.78333h1.78491V24.29321H19.848Z" fill="#86868b"/><polygon points="29.212 24.293 26.931 31.78 24.538 24.293 22.497 24.293 25.937 33.602 27.942 33.602 31.308 24.293 29.212 24.293" fill="#86868b"/></svg>