<svg xmlns="http://www.w3.org/2000/svg" viewBox="0 0 36 56">
	<path fill="#6e6e73" d="M33.905,17.063l-14-7.581a3.991,3.991,0,0,0-3.811,0l-14,7.581A4,4,0,0,0,0,20.581V35.419a4,4,0,0,0,2.095,3.518l14,7.581a3.989,3.989,0,0,0,3.811,0l14-7.581A4,4,0,0,0,36,35.419V20.581A4,4,0,0,0,33.905,17.063ZM17.048,11.241a1.993,1.993,0,0,1,1.9,0l13.8,7.47-6.383,3.645L11.943,14.005ZM18,27.133,3.253,18.711l6.629-3.589L24.355,23.5ZM3.048,37.178A2,2,0,0,1,2,35.419V20.581a1.955,1.955,0,0,1,.036-.262L17,28.865V44.733ZM34,35.419a2,2,0,0,1-1.048,1.759L19,44.733V28.865l14.964-8.545a1.955,1.955,0,0,1,.036.262Z"/>
</svg>
