<svg id="Layer_1" data-name="Layer 1" xmlns="http://www.w3.org/2000/svg" viewBox="0 0 85 85"><defs><style>.cls-1,.cls-2{fill:none;}.cls-2{stroke:#fff;stroke-linecap:round;stroke-linejoin:round;stroke-width:4px;}.cls-2,.cls-3{fill-rule:evenodd;}.cls-3{fill:#fff;}</style></defs><title>play-buffer-pause-LMS-01-jorge</title><path class="cls-1" d="M0,0H85V85H0Z"/><path class="cls-1" d="M0,0H85V85H0Z"/><path class="cls-2" d="M42.5,2.5a40,40,0,1,1-40,40A40,40,0,0,1,42.5,2.5Z"/><path class="cls-3" d="M50,28.25a2,2,0,0,1,2,2v24a2,2,0,1,1-4,0v-24A2,2,0,0,1,50,28.25Z"/><path class="cls-3" d="M35,28.25a2,2,0,0,1,2,2v24a2,2,0,1,1-4,0v-24A2,2,0,0,1,35,28.25Z"/></svg>