<svg id="Layer_1" data-name="Layer 1" xmlns="http://www.w3.org/2000/svg" xmlns:xlink="http://www.w3.org/1999/xlink" viewBox="0 0 85 85"><defs><style>.cls-1,.cls-2{fill:none;}.cls-2{stroke:#fff;stroke-linecap:round;stroke-linejoin:round;stroke-width:4px;fill-rule:evenodd;}.cls-3{clip-path:url(#clip-path);}.cls-4{fill:#fff;}</style><clipPath id="clip-path"><rect class="cls-1" x="33.05" y="28.25" width="22.9" height="28"/></clipPath></defs><title>play_icon_large</title><path class="cls-2" d="M42.5,2.5a40,40,0,1,1-40,40A40,40,0,0,1,42.5,2.5Z"/><path class="cls-1" d="M0,0H85V85H0Z"/><path class="cls-1" d="M0,0H85V85H0Z"/><g class="cls-3"><path class="cls-4" d="M55.73,41.55a1.34,1.34,0,0,1,0,1.48,1.16,1.16,0,0,1-.52.52L35.27,56.1a1.33,1.33,0,0,1-.74.15,1.54,1.54,0,0,1-1.48-1.48v-25a1.25,1.25,0,0,1,.22-.74,1.16,1.16,0,0,1,.52-.52,1.25,1.25,0,0,1,.74-.22,2.19,2.19,0,0,1,.74.15L55.21,41a2,2,0,0,1,.52.59"/></g></svg>