<svg xmlns="http://www.w3.org/2000/svg" viewBox="0 0 43 56"><path d="M22.45752,24.5708a1.505,1.505,0,0,0-1.9043.001L17.5,27.08069V32.68A1.32,1.32,0,0,0,18.82,34h5.36a1.32,1.32,0,0,0,1.32-1.32v-5.6087ZM23.5,32h-4V28.02557l2.00586-1.64813L23.5,28.01611Z" fill="#86868b"/><path d="M23.0874,16.92041a2.50274,2.50274,0,0,0-3.17431,0L11.5,23.83276V38a2,2,0,0,0,2,2h16a2,2,0,0,0,2-2V23.8327ZM29.5,24.77753V38h-16V24.77765l7.68311-6.31232a.501.501,0,0,1,.63427,0Z" fill="#86868b"/><path d="M42.02637,24.47168,37.5,20.75226V14a1,1,0,0,0-1-1h-2a1,1,0,0,0-1,1v3.46539L23.419,9.18164a3.0082,3.0082,0,0,0-3.80909.00049L1.00195,24.47168A.99981.99981,0,1,0,2.27148,26.0166L5.5,23.36389V42a4,4,0,0,0,4,4h24a4,4,0,0,0,4-4V23.34052l3.25684,2.67608a.99981.99981,0,0,0,1.26953-1.54492ZM35.5,42a2.0023,2.0023,0,0,1-2,2H9.5a2.0023,2.0023,0,0,1-2-2V21.72064l13.37939-10.9931a1.004,1.004,0,0,1,1.27-.00049L35.5,21.69708Z" fill="#86868b"/></svg>