<?xml version="1.0" encoding="UTF-8"?>
<svg width="36px" height="42px" viewBox="0 0 36 42" version="1.1" xmlns="http://www.w3.org/2000/svg" xmlns:xlink="http://www.w3.org/1999/xlink">
    <title>bag_icon_large</title>
    <defs>
        <radialGradient cx="-2.22044605e-14%" cy="50%" fx="-2.22044605e-14%" fy="50%" r="100%" gradientTransform="translate(-0.000000,0.500000),scale(1.000000,0.877691),translate(0.000000,-0.500000)" id="radialGradient-1">
            <stop stop-color="#FDDE5C" offset="0%"></stop>
            <stop stop-color="#F8AB5E" offset="15.9333512%"></stop>
            <stop stop-color="#A176C8" offset="49.992688%"></stop>
            <stop stop-color="#759BEB" offset="66.0020854%"></stop>
            <stop stop-color="#65BEB3" offset="83.0063375%"></stop>
            <stop stop-color="#70DB96" offset="100%"></stop>
        </radialGradient>
    </defs>
    <g id="Page-1" stroke="none" stroke-width="1" fill="none" fill-rule="evenodd">
        <g id="icon_large" transform="translate(0.000000, 0.000000)" fill="url(#radialGradient-1)" fill-rule="nonzero">
            <path d="M31,7.01672216 L25.931,7.01672216 C25.4393226,3.01041726 22.0368629,0 18.0005,0 C13.9641371,0 10.5616774,3.01041726 10.07,7.01672216 L5,7.01672216 C2.24247678,7.01671665 0.00551504643,9.24920446 0,12.0067222 L0,36.0287222 C0.00661618616,38.7854585 2.24325576,41.0167222 5,41.0167222 L31,41.0167222 C33.7567442,41.0167222 35.9933838,38.7854585 36,36.0287222 L36,12.0067222 C35.994485,9.24920446 33.7575232,7.01671665 31,7.01672216 Z M18,2.00172216 C20.9280447,2.01209007 23.4232248,4.12940455 23.91,7.01672216 L12.09,7.01672216 C12.5767752,4.12940455 15.0719553,2.01209007 18,2.00172216 L18,2.00172216 Z M34,36.0287222 C34,37.6855764 32.6568542,39.0287222 31,39.0287222 L5,39.0287222 C3.34314575,39.0287222 2,37.6855764 2,36.0287222 L2,12.0067222 C2,10.3498679 3.34314575,9.00672216 5,9.00672216 L31,9.00672216 C32.6568542,9.00672216 34,10.3498679 34,12.0067222 L34,36.0287222 Z" id="Shape"></path>
        </g>
    </g>
</svg>