<?xml version="1.0" encoding="UTF-8"?>
<svg width="38px" height="38px" viewBox="0 0 38 38" version="1.1" xmlns="http://www.w3.org/2000/svg" xmlns:xlink="http://www.w3.org/1999/xlink">
    <title>call_icon_dark_large</title>
    <defs>
        <radialGradient cx="-2.22044605e-14%" cy="50%" fx="-2.22044605e-14%" fy="50%" r="100%" gradientTransform="translate(-0.000000,0.500000),scale(1.000000,0.999407),translate(0.000000,-0.500000)" id="radialGradient-1">
            <stop stop-color="#FDDE5C" offset="0%"></stop>
            <stop stop-color="#F8AB5E" offset="15.9333512%"></stop>
            <stop stop-color="#A176C8" offset="49.992688%"></stop>
            <stop stop-color="#759BEB" offset="66.0020854%"></stop>
            <stop stop-color="#65BEB3" offset="83.0063375%"></stop>
            <stop stop-color="#70DB96" offset="100%"></stop>
        </radialGradient>
    </defs>
    <g id="Page-1" stroke="none" stroke-width="1" fill="none" fill-rule="evenodd">
        <g id="icon_dark_large" fill="url(#radialGradient-1)" fill-rule="nonzero">
            <path d="M7.19378848,1.999 C7.44178848,2.007 8.19378848,2.03 9.11978848,3.377 L13.0907885,9.136 C13.4495606,9.51088374 13.6362326,10.0181077 13.6060732,10.5361286 C13.5759138,11.0541495 13.331641,11.5362837 12.9317885,11.867 L11.5117885,13.307 C10.4435801,14.3022724 10.2187008,15.9098048 10.9727885,17.16 C12.1579454,19.0591569 13.5942713,20.7894755 15.2427885,22.304 C16.8471507,23.922139 18.5983385,25.387767 20.4737885,26.682 L20.5097885,26.704 L20.5457885,26.724 C21.0288142,27.000894 21.5750433,27.1486445 22.1317885,27.153 C22.9794015,27.1463086 23.7879096,26.7954738 24.3717885,26.181 L25.8117885,24.76 C26.1609768,24.3598673 26.6557468,24.1160832 27.1857885,24.083 C27.682985,24.1178031 28.1591712,24.297155 28.5557885,24.599 L34.3147885,28.571 C35.2147885,29.185 35.6657885,29.811 35.6657885,30.432 C35.5744564,31.3704667 35.1421703,32.2428663 34.4507885,32.884 L34.4147885,32.923 L34.3807885,32.964 C34.3507885,33 34.3177885,33.035 34.2807885,33.072 C34.2177885,33.14 34.1537885,33.21 34.0887885,33.285 C32.5590165,34.9612671 30.3438856,35.8417152 28.0807885,35.673 C23.1667885,35.673 17.0007885,32.335 11.1627885,26.516 C5.34678848,20.716 2.01078848,14.524 2.01078848,9.523 C1.86464308,7.27451489 2.75369503,5.08245308 4.42478848,3.571 L4.45278848,3.545 L4.47978848,3.518 C4.52478848,3.473 4.56678848,3.426 4.60178848,3.396 L4.71178848,3.318 L4.81178848,3.226 C5.43177285,2.54391369 6.27737154,2.10886186 7.19278848,2.001 L7.19278848,2.001 M7.19278848,0.001 C5.76493947,0.092033804 4.42525853,0.723081802 3.44578848,1.766 C3.31090382,1.86757471 3.18479344,1.98030468 3.06878848,2.103 C0.983618601,3.98866176 -0.13895573,6.71480872 0.0137884785,9.522 C0.0137884785,15.097 3.60478848,21.802 9.75378848,27.932 C15.8637885,34.022 22.5297885,37.673 28.0837885,37.672 C30.9167685,37.8379906 33.6731061,36.7152424 35.5837885,34.617 C35.7017885,34.478 35.8217885,34.359 35.9207885,34.24 C36.9619392,33.2378438 37.5853434,31.8788585 37.6657885,30.436 C37.5780777,28.9590937 36.7372555,27.6310026 35.4397885,26.92 L29.6867885,22.952 C28.9603624,22.412867 28.0860308,22.1095559 27.1817885,22.083 C26.1282559,22.109278 25.1296002,22.5583307 24.4107885,23.329 L22.9627885,24.757 C22.7507866,24.9988042 22.4490786,25.143335 22.1277885,25.157 C21.9113265,25.1516506 21.6998817,25.0906967 21.5137885,24.98 C19.7732339,23.7674197 18.1462369,22.3994837 16.6527885,20.893 C15.1368013,19.4982604 13.809867,17.9111165 12.7057885,16.172 C12.4027843,15.7034471 12.496259,15.0825693 12.9237885,14.724 L14.3517885,13.276 C15.8574925,11.8955568 16.0229585,9.57947214 14.7287885,7.999 L10.7607885,2.246 C10.0397571,0.959546274 8.72486093,0.117202656 7.25478848,0 L7.19278848,0.001 Z" id="Shape"></path>
        </g>
    </g>
</svg>