<?xml version="1.0" encoding="UTF-8"?>
<svg width="40px" height="40px" viewBox="0 0 40 40" version="1.1" xmlns="http://www.w3.org/2000/svg" xmlns:xlink="http://www.w3.org/1999/xlink">
    <title>financing_icon_large</title>
    <defs>
        <radialGradient cx="-2.22044605e-14%" cy="50%" fx="-2.22044605e-14%" fy="50%" r="100%" id="radialGradient-1">
            <stop stop-color="#FDDE5C" offset="0%"></stop>
            <stop stop-color="#F8AB5E" offset="15.9333512%"></stop>
            <stop stop-color="#A176C8" offset="49.992688%"></stop>
            <stop stop-color="#759BEB" offset="66.0020854%"></stop>
            <stop stop-color="#65BEB3" offset="83.0063375%"></stop>
            <stop stop-color="#70DB96" offset="100%"></stop>
        </radialGradient>
    </defs>
    <g id="Page-1" stroke="none" stroke-width="1" fill="none" fill-rule="evenodd">
        <g id="icon_large" transform="translate(0.500000, 0.500000)" fill="url(#radialGradient-1)" fill-rule="nonzero">
            <path d="M19.5,2.2 C29.0545262,2.2 36.8,9.94547383 36.8,19.5 C36.8,29.0545262 29.0545262,36.8 19.5,36.8 C9.94547383,36.8 2.2,29.0545262 2.2,19.5 C2.21102131,9.95004273 9.95004273,2.21102131 19.5,2.2 M19.5,0 C8.73044738,0 0,8.73044738 0,19.5 C0,30.2695526 8.73044738,39 19.5,39 C30.2695526,39 39,30.2695526 39,19.5 C39,8.73044738 30.2695526,0 19.5,0 Z M18.75,29.56 L18.75,28.07 C16.03,27.86 13.9,26.36 13.4,24.07 C13.3552236,23.8897608 13.3284259,23.7055265 13.32,23.52 C13.3028377,23.2684389 13.393186,23.021404 13.5685971,22.840273 C13.7440082,22.6591419 13.9880179,22.560916 14.24,22.57 C14.7101108,22.5858851 15.1056001,22.9272548 15.19,23.39 C15.47,24.93 16.76,26.04 18.75,26.28 L18.75,20.03 L18.53,20.03 C15.33,19.27 13.71,17.82 13.71,15.48 C13.71,12.94 15.84,11.12 18.71,10.83 L18.71,9.44 C18.6955603,9.2325579 18.7702734,9.02880313 18.9153903,8.87986744 C19.0605071,8.73093175 19.2622529,8.6509524 19.47,8.66 C19.6793749,8.65144323 19.8827816,8.73087034 20.0309556,8.87904437 C20.1791297,9.0272184 20.2585568,9.23062506 20.25,9.44 L20.25,10.79 C22.79,11.04 24.78,12.51 25.25,14.56 C25.2962016,14.7433505 25.3230154,14.9310471 25.33,15.12 C25.3388408,15.3701317 25.2419504,15.6124251 25.0630775,15.7874922 C24.8842046,15.9625594 24.6398838,16.0542173 24.39,16.04 C23.9072392,16.0497357 23.4864736,15.7131232 23.39,15.24 C22.9947028,13.7713521 21.7077763,12.7176811 20.19,12.62 L20.19,18.5 L20.6,18.58 C23.92,19.25 25.6,20.75 25.6,23.27 C25.6,26.04 23.32,27.86 20.21,28.09 L20.21,29.56 C20.2185568,29.7693749 20.1391297,29.9727816 19.9909556,30.1209556 C19.8427816,30.2691297 19.6393749,30.3485568 19.43,30.34 C19.2362219,30.3271841 19.0555372,30.2376838 18.9279206,30.0913 C18.8003039,29.9449162 18.7362752,29.7537159 18.75,29.56 Z M18.75,12.62 C16.89,12.86 15.62,13.95 15.62,15.36 C15.62,16.77 16.62,17.53 18.62,18.07 L18.76,18.07 L18.75,12.62 Z M20.29,26.3 C22.5,26.1 23.75,24.93 23.75,23.37 C23.75,21.81 22.89,21.08 20.75,20.52 L20.32,20.42 L20.29,26.3 Z" id="Shape"></path>
        </g>
    </g>
</svg>