<?xml version="1.0" encoding="UTF-8"?>
<svg width="36px" height="36px" viewBox="0 0 36 36" version="1.1" xmlns="http://www.w3.org/2000/svg" xmlns:xlink="http://www.w3.org/1999/xlink">
    <title>giftwrap_icon_dark_large</title>
    <defs>
        <radialGradient cx="-2.22044605e-14%" cy="50%" fx="-2.22044605e-14%" fy="50%" r="100%" id="radialGradient-1">
            <stop stop-color="#FDDE5C" offset="0%"></stop>
            <stop stop-color="#F8AB5E" offset="15.9333512%"></stop>
            <stop stop-color="#A176C8" offset="49.992688%"></stop>
            <stop stop-color="#759BEB" offset="66.0020854%"></stop>
            <stop stop-color="#65BEB3" offset="83.0063375%"></stop>
            <stop stop-color="#70DB96" offset="100%"></stop>
        </radialGradient>
    </defs>
    <g id="Page-1" stroke="none" stroke-width="1" fill="none" fill-rule="evenodd">
        <g id="icon_dark_large" fill="url(#radialGradient-1)" fill-rule="nonzero">
            <path d="M29,-1.77635684e-15 L7,-1.77635684e-15 C3.1386882,-1.77635684e-15 0.00661939166,3.12669387 0,6.988 L0,29.012 C0.00661939166,32.8733061 3.1386882,36 7,36 L29,36 C32.8613118,36 35.9933806,32.8733061 36,29.012 L36,6.988 C35.9933806,3.12669387 32.8613118,-1.77635684e-15 29,-1.77635684e-15 Z M34,6.988 L34,17 L25.641,17 C26.7183909,16.6661029 27.7270656,16.141443 28.619,15.451 C30.8647823,13.4254352 31.0494481,9.96507661 29.032,7.712 C28.0463816,6.65447963 26.6675982,6.05121665 25.222,6.045 L25.153,6.045 C23.7149516,6.04829772 22.332176,6.59933395 21.286,7.586 C20.2679176,8.81310326 19.4921706,10.222411 19,11.739 L19,1.989 L29,1.989 C31.7596633,1.99230493 33.9961431,4.22833738 34,6.988 Z M19.463,16.642 C20.318,13.721 21.651,9.981 22.651,9.042 C23.3401897,8.39412822 24.2521219,8.03608654 25.198,8.0419279 C26.096655,8.04417985 26.9545524,8.41722593 27.569,9.073 C28.8349502,10.5183202 28.694128,12.7151464 27.254,13.987 C26.254,14.922 22.435,15.991 19.463,16.642 Z M7,1.988 L17,1.988 L17,11.788 C16.5079672,10.2710484 15.7322127,8.86138792 14.714,7.634 C13.6493357,6.63291482 12.2382997,6.0831233 10.777,6.1 C9.33140177,6.10621665 7.95261836,6.70947963 6.967,7.767 C4.95439305,10.0197172 5.13937996,13.4750404 7.381,15.5 C8.2313728,16.16423 9.19297758,16.6721199 10.221,17 L2,17 L2,6.988 C2.00330612,4.22794685 4.23994685,1.99130612 7,1.988 Z M16.537,16.694 C13.565,16.043 9.745,14.974 8.746,14.041 C7.30640458,12.7688854 7.16561135,10.572511 8.431,9.127 C9.04566253,8.47320716 9.90264152,8.10169284 10.8,8.1 L10.844,8.1 C11.7740291,8.10405665 12.6677329,8.46153818 13.344,9.1 C14.349,10.033 15.682,13.773 16.537,16.694 Z M2,29.012 L2,19 L16.284,19 C14.923,21.43 11.784,25.917 6.841,26.707 C6.32707276,26.7906816 5.96336422,27.2547302 6.00489758,27.7737666 C6.04643094,28.292803 6.47930524,28.693109 7,28.694 C7.05326359,28.6939553 7.10643653,28.6896078 7.159,28.681 C11.915,27.921 15.143,24.417 17.001,21.661 L17.001,34.011 L7,34.011 C4.24033666,34.0076951 2.00385692,31.7716626 2,29.012 Z M29,34.012 L19,34.012 L19,21.612 C20.967,24.555 24.2,27.996 28.854,28.684 C29.4004858,28.7649097 29.9090903,28.3874858 29.99,27.841 C30.0709097,27.2945142 29.6934858,26.7859097 29.147,26.705 C24.415,26.005 21.314,21.805 19.739,19 L34,19 L34,29.012 C33.9966939,31.7720532 31.7600532,34.0086939 29,34.012 Z" id="Shape"></path>
        </g>
    </g>
</svg>