<?xml version="1.0" encoding="UTF-8"?>
<svg width="46px" height="40px" viewBox="0 0 46 40" version="1.1" xmlns="http://www.w3.org/2000/svg" xmlns:xlink="http://www.w3.org/1999/xlink">
    <title>help_icon_dark_large</title>
    <defs>
        <radialGradient cx="-2.22044605e-14%" cy="50%" fx="-2.22044605e-14%" fy="50%" r="109.247054%" gradientTransform="translate(-0.000000,0.500000),scale(0.915356,1.000000),translate(0.000000,-0.500000)" id="radialGradient-1">
            <stop stop-color="#FDDE5C" offset="0%"></stop>
            <stop stop-color="#F8AB5E" offset="15.9333512%"></stop>
            <stop stop-color="#A176C8" offset="49.992688%"></stop>
            <stop stop-color="#759BEB" offset="66.0020854%"></stop>
            <stop stop-color="#65BEB3" offset="83.0063375%"></stop>
            <stop stop-color="#70DB96" offset="100%"></stop>
        </radialGradient>
        <radialGradient cx="-2.22044605e-14%" cy="50%" fx="-2.22044605e-14%" fy="50%" r="109.348395%" gradientTransform="translate(-0.000000,0.500000),scale(0.914508,1.000000),translate(0.000000,-0.500000)" id="radialGradient-2">
            <stop stop-color="#FDDE5C" offset="0%"></stop>
            <stop stop-color="#F8AB5E" offset="15.9333512%"></stop>
            <stop stop-color="#A176C8" offset="49.992688%"></stop>
            <stop stop-color="#759BEB" offset="66.0020854%"></stop>
            <stop stop-color="#65BEB3" offset="83.0063375%"></stop>
            <stop stop-color="#70DB96" offset="100%"></stop>
        </radialGradient>
    </defs>
    <g id="Page-1" stroke="none" stroke-width="1" fill="none" fill-rule="evenodd">
        <g id="icon_dark_large" fill-rule="nonzero">
            <path d="M17.744,24.353 C17.194,24.398 16.636,24.426 16.067,24.426 C15.648,24.426 15.222,24.413 14.801,24.388 L14.131,24.348 L13.573,24.72 C11.8638031,25.8689386 10.0326466,26.8250974 8.113,27.571 C8.62190903,26.8684327 9.08519488,26.1339225 9.5,25.372 L10.465,23.529 L8.586,22.637 C4.521,20.712 2,17.105 2,13.223 C2,7.037 8.468,2.004 16.417,2.004 C24.317,2.004 30.747,6.975 30.827,13.104 C31.488582,13.0265602 32.1539164,12.9854984 32.82,12.981 C32.663,5.781 25.453,-1.77635684e-15 16.42,-1.77635684e-15 C7.282,0.006 0,5.917 0,13.223 C0,18.017 3.075,22.237 7.723,24.442 C6.99814425,25.703617 6.17668909,26.9072143 5.266,28.042 C4.516,28.983 4.898,30.042 6.222,30.042 C8.046,30.042 11.768,28.322 14.681,26.381 C15.1476667,26.409 15.6093333,26.4226667 16.066,26.422 C16.623,26.422 17.172,26.4 17.715,26.36 C17.696,26.1 17.668,25.842 17.668,25.578 C17.6695464,25.168538 17.6949226,24.7595131 17.744,24.353 Z" id="Path" fill="url(#radialGradient-1)"></path>
            <path d="M46,25.583 C46,19.725 40.161,14.983 32.835,14.983 C32.783,14.983 32.735,14.989 32.68,14.989 C31.9877877,14.9969275 31.2967583,15.0483622 30.611,15.143 C24.981,15.906 20.626,19.508 19.819,24.057 C19.7247302,24.5586359 19.6748705,25.0676064 19.67,25.578 C19.67,25.761 19.693,25.937 19.703,26.117 C20.049,31.956 25.93,36.16 33.116,36.16 C33.483,36.16 33.854,36.149 34.227,36.127 C36.563,37.683 39.547,39.062 41.01,39.062 C42.072,39.062 42.378,38.213 41.777,37.462 C41.0466799,36.5516948 40.3880394,35.5861345 39.807,34.574 C43.534,32.807 46,29.423 46,25.583 Z M38.95,32.769 L37.07,33.661 L38.035,35.504 C38.157,35.737 38.295,35.976 38.441,36.214 C37.3628804,35.7112396 36.3245535,35.1272225 35.335,34.467 L34.777,34.095 L34.107,34.135 C33.774,34.155 33.443,34.165 33.115,34.165 C26.744,34.165 21.749,30.45 21.675,25.689 C21.675,25.653 21.668,25.619 21.668,25.584 C21.6725686,24.8786052 21.7883231,24.1783413 22.011,23.509 C22.981,20.509 25.99,18.138 29.84,17.309 C30.6047234,17.1450407 31.3817124,17.0446978 32.163,17.009 C32.386,16.999 32.608,16.983 32.834,16.983 C38.991,16.983 43.999,20.839 43.999,25.583 C43.8512416,28.7542961 41.8836013,31.5543546 38.95,32.768 L38.95,32.769 Z" id="Shape" fill="url(#radialGradient-2)"></path>
        </g>
    </g>
</svg>