<?xml version="1.0" encoding="UTF-8"?>
<svg width="50px" height="33px" viewBox="0 0 50 33" version="1.1" xmlns="http://www.w3.org/2000/svg" xmlns:xlink="http://www.w3.org/1999/xlink">
    <title>personal_setup_icon_dark_large</title>
    <defs>
        <radialGradient cx="-2.22044605e-14%" cy="50%" fx="-2.22044605e-14%" fy="50%" r="153.938368%" gradientTransform="translate(-0.000000,0.500000),scale(0.649611,1.000000),translate(0.000000,-0.500000)" id="radialGradient-1">
            <stop stop-color="#FDDE5C" offset="0%"></stop>
            <stop stop-color="#F8AB5E" offset="15.9333512%"></stop>
            <stop stop-color="#A176C8" offset="49.992688%"></stop>
            <stop stop-color="#759BEB" offset="66.0020854%"></stop>
            <stop stop-color="#65BEB3" offset="83.0063375%"></stop>
            <stop stop-color="#70DB96" offset="100%"></stop>
        </radialGradient>
        <radialGradient cx="-2.22044605e-14%" cy="50%" fx="-2.22044605e-14%" fy="50%" r="100%" gradientTransform="translate(-0.000000,0.500000),scale(1.000000,0.929182),translate(0.000000,-0.500000)" id="radialGradient-2">
            <stop stop-color="#FDDE5C" offset="0%"></stop>
            <stop stop-color="#F8AB5E" offset="15.9333512%"></stop>
            <stop stop-color="#A176C8" offset="49.992688%"></stop>
            <stop stop-color="#759BEB" offset="66.0020854%"></stop>
            <stop stop-color="#65BEB3" offset="83.0063375%"></stop>
            <stop stop-color="#70DB96" offset="100%"></stop>
        </radialGradient>
        <radialGradient cx="-2.22044605e-14%" cy="50%" fx="-2.22044605e-14%" fy="50%" r="216.66608%" gradientTransform="translate(-0.000000,0.500000),scale(0.461540,1.000000),translate(0.000000,-0.500000)" id="radialGradient-3">
            <stop stop-color="#FDDE5C" offset="0%"></stop>
            <stop stop-color="#F8AB5E" offset="15.9333512%"></stop>
            <stop stop-color="#A176C8" offset="49.992688%"></stop>
            <stop stop-color="#759BEB" offset="66.0020854%"></stop>
            <stop stop-color="#65BEB3" offset="83.0063375%"></stop>
            <stop stop-color="#70DB96" offset="100%"></stop>
        </radialGradient>
        <radialGradient cx="-2.22044605e-14%" cy="50%" fx="-2.22044605e-14%" fy="50%" r="100%" gradientTransform="translate(-0.000000,0.500000),scale(1.000000,0.936227),translate(0.000000,-0.500000)" id="radialGradient-4">
            <stop stop-color="#FDDE5C" offset="0%"></stop>
            <stop stop-color="#F8AB5E" offset="15.9333512%"></stop>
            <stop stop-color="#A176C8" offset="49.992688%"></stop>
            <stop stop-color="#759BEB" offset="66.0020854%"></stop>
            <stop stop-color="#65BEB3" offset="83.0063375%"></stop>
            <stop stop-color="#70DB96" offset="100%"></stop>
        </radialGradient>
    </defs>
    <g id="Page-1" stroke="none" stroke-width="1" fill="none" fill-rule="evenodd">
        <g id="icon_dark_large" fill-rule="nonzero">
            <path d="M4,31 C2.025,31 2,30.387 2,29.8 C2,26.124 6.262,20.806 13.969,20.806 C16.155886,20.7794609 18.3188295,21.2632727 20.286,22.219 C20.7699953,21.7363186 21.2858196,21.2866428 21.83,20.873 C19.4211957,19.5438346 16.7200467,18.8335847 13.969,18.806 C7.361,18.81 0,23.325 0,29.8 C0,31.915 1.337,32.987 3.975,32.987 L18.032,32.987 C17.5755485,32.4041311 17.2587707,31.724393 17.106,31 L4,31 Z" id="Path" fill="url(#radialGradient-1)"></path>
            <path d="M13.962,16.9 C17.727,16.9 20.676,13.691 20.676,9.594 C20.7842863,5.77290155 17.7826376,2.58348216 13.962,2.46 C12.2285957,2.46966927 10.5715181,3.17428751 9.362,4.416 C7.99463173,5.79662244 7.23815538,7.66800084 7.262,9.611 C7.264,13.628 10.269,16.9 13.962,16.9 Z M9.262,9.6 C9.24145192,8.18864864 9.78792777,6.82804264 10.779,5.823 C11.6141068,4.95943848 12.7607419,4.46699417 13.962,4.456 C16.6778025,4.57980788 18.7838696,6.8735178 18.676,9.59 C18.676,12.566 16.606,14.896 13.962,14.896 C11.371,14.896 9.262,12.522 9.262,9.604 L9.262,9.6 Z" id="Shape" fill="url(#radialGradient-2)"></path>
            <path d="M34.487,18.686 C30.5988251,18.6073084 26.7856964,19.7625898 23.595,21.986 C23.0532694,22.3791887 22.5409125,22.8113332 22.062,23.279 C20.2037672,24.9501803 19.0917363,27.2956004 18.973958,29.792 C18.9720254,30.1929532 19.0396975,30.5912035 19.174,30.969 C19.602,32.169 20.761,32.843 22.637,32.969 C22.854,32.984 23.065,33.002 23.3,33.002 L45.671,33.002 C48.544,33 50,31.92 50,29.79 C50,24.427 43.767,18.686 34.487,18.686 Z M45.671,31 L23.3,31 C23,31 22.738,30.988 22.508,30.967 C20.974,30.827 20.971,30.259 20.971,29.79 C21.1285158,27.7921369 22.065231,25.9363057 23.579,24.623 C24.0658416,24.1559454 24.5906468,23.7301475 25.148,23.35 C27.9168791,21.5345068 31.172986,20.6052868 34.483,20.686 C43.183,20.686 47.996,26.069 47.996,29.786 C48,30.329 48,31 45.671,31 Z" id="Shape" fill="url(#radialGradient-3)"></path>
            <path d="M34.479,15.995 C38.679,15.995 41.972,12.44 41.972,7.901 C42.0772686,3.65290485 38.7267073,0.119902683 34.479,1.77635684e-15 C32.5369725,0.00946386511 30.67993,0.797671212 29.324,2.188 C27.8124231,3.7095705 26.9751168,5.77437359 27,7.919 C27,12.372 30.357,15.995 34.479,15.995 Z M29,7.912 C28.9788688,6.29959686 29.6057175,4.74616479 30.74,3.6 C31.72179,2.58749277 33.0686955,2.0111224 34.479,2 C37.6216571,2.11989483 40.0766592,4.75679859 39.972,7.9 C39.972,11.317 37.559,13.994 34.479,13.994 C31.459,13.994 29.003,11.267 29.003,7.916 L29,7.912 Z" id="Shape" fill="url(#radialGradient-4)"></path>
        </g>
    </g>
</svg>