<?xml version="1.0" encoding="UTF-8"?>
<svg width="36px" height="38px" viewBox="0 0 36 38" version="1.1" xmlns="http://www.w3.org/2000/svg" xmlns:xlink="http://www.w3.org/1999/xlink">
    <title>shipping_icon_dark_large</title>
    <defs>
        <radialGradient cx="-2.22044605e-14%" cy="50%" fx="-2.22044605e-14%" fy="50%" r="100%" gradientTransform="translate(-0.000000,0.500000),scale(1.000000,0.947248),translate(0.000000,-0.500000)" id="radialGradient-1">
            <stop stop-color="#FDDE5C" offset="0%"></stop>
            <stop stop-color="#F8AB5E" offset="15.9333512%"></stop>
            <stop stop-color="#A176C8" offset="49.992688%"></stop>
            <stop stop-color="#759BEB" offset="66.0020854%"></stop>
            <stop stop-color="#65BEB3" offset="83.0063375%"></stop>
            <stop stop-color="#70DB96" offset="100%"></stop>
        </radialGradient>
    </defs>
    <g id="Page-1" stroke="none" stroke-width="1" fill="none" fill-rule="evenodd">
        <g id="icon_dark_large" fill="url(#radialGradient-1)" fill-rule="nonzero">
            <path d="M33.9050004,8.06527065 L19.9050004,0.484270648 C18.7167166,-0.161423549 17.2822842,-0.161423549 16.0940004,0.484270648 L2.09400043,8.06527065 C0.803299093,8.76481223 -0.000477436172,10.1151875 2.1276615e-07,11.5832706 L2.1276615e-07,26.4212706 C2.1276615e-07,27.8895674 0.803912511,29.2399943 2.09500043,29.9392706 L16.0950004,37.5202706 C17.2831906,38.1663333 18.7178103,38.1663333 19.9060004,37.5202706 L33.9060004,29.9392706 C35.1967018,29.2397291 36.0004783,27.8893538 36.0000002,26.4212706 L36.0000002,11.5832706 C36.0000002,10.1149739 35.1960883,8.76454695 33.9050004,8.06527065 Z M17.0480004,2.24327065 C17.6405795,1.92195444 18.3554213,1.92195444 18.9480004,2.24327065 L32.7480004,9.71327065 L26.3650004,13.3582706 L11.9430004,5.00727065 L17.0480004,2.24327065 Z M18.0000004,18.1352706 L3.25300043,9.71327065 L9.88200043,6.12427065 L24.3550004,14.5022706 L18.0000004,18.1352706 Z M3.04800043,28.1802706 C2.40226317,27.8307652 2.00000043,27.1555258 2.00000043,26.4212706 L2.00000043,11.5832706 C2.00607291,11.4952248 2.01810042,11.4076913 2.03600043,11.3212706 L17.0000004,19.8672706 L17.0000004,35.7352706 L3.04800043,28.1802706 Z M34.0000004,26.4212706 C34.0000004,27.1555258 33.5977377,27.8307652 32.9520004,28.1802706 L19.0000004,35.7352706 L19.0000004,19.8672706 L33.9640004,11.3222706 C33.9819004,11.4086913 33.9939279,11.4962248 34.0000004,11.5842706 L34.0000004,26.4212706 Z" id="Shape"></path>
        </g>
    </g>
</svg>