<svg xmlns="http://www.w3.org/2000/svg" viewBox="0 0 40 56">
	<path fill="#6e6e73" d="M20,10.7A17.3,17.3,0,1,1,2.7,28,17.32,17.32,0,0,1,20,10.7m0-2.2A19.5,19.5,0,1,0,39.5,28,19.5,19.5,0,0,0,20,8.5Z"/>
	<path fill="#6e6e73" d="M19.25,38.06V36.57c-2.72-.21-4.85-1.71-5.35-4a2.81,2.81,0,0,1-.08-.55.89.89,0,0,1,.92-.95,1,1,0,0,1,.95.82c.28,1.54,1.57,2.65,3.56,2.89V28.53l-.22,0c-3.2-.76-4.82-2.21-4.82-4.55,0-2.54,2.13-4.36,5-4.65V17.94a.73.73,0,0,1,.76-.78.75.75,0,0,1,.78.78v1.35c2.54.25,4.53,1.72,5,3.77a2.7,2.7,0,0,1,.08.56.89.89,0,0,1-.94.92,1,1,0,0,1-1-.8,3.55,3.55,0,0,0-3.2-2.62V27l.41.08c3.32.67,5,2.17,5,4.69,0,2.77-2.28,4.59-5.39,4.82v1.47a.75.75,0,0,1-.78.78A.73.73,0,0,1,19.25,38.06Zm0-16.94c-1.86.24-3.13,1.33-3.13,2.74s1,2.17,3,2.71l.14,0ZM20.79,34.8c2.21-.2,3.46-1.37,3.46-2.93s-.86-2.29-3-2.85l-.43-.1Z"/>
</svg>
