<svg enable-background="new 0 0 1468 416" height="416" viewBox="0 0 1468 416" width="1468" xmlns="http://www.w3.org/2000/svg"><path d="m0 0h1468v416h-1468z" fill="none"/><path d="m1468 413.59v-411.59l-459.2 229.2-188.85 33.09-121.06 10.49s-48.42 6.46-79.9-2.42-20.98-8.88-50.84-16.95c0 0-193.69-66.18-226.78-62.14 0 0-29.86 0-87.16-33.9 0 0-29.05-15.33-56.49-16.95s-197.72-39.54-197.72-39.54 8.07 244.53 11.3 242.92 146.88-81.51 146.88-81.51 232.02 33.49 261.08 34.3c0 0 117.83 23.4 209.02 23.4h102.49s39.54-4.04 64.56 1.61c0 0 50.84 12.91 91.2 12.11 0 0 58.91-1.61 257.44 33.09 0 0 89.58 16.95 204.18 23.4.01 0 37.94-.8 119.85 21.39z" fill="#44148D"/></svg>