<svg enable-background="new 0 0 4124 382" height="382" viewBox="0 0 4124 382" width="4124" xmlns="http://www.w3.org/2000/svg"><path d="m0 0h4124v382h-4124z" fill="none"/><path d="m4122 2 2 371s-66 28-429-30l-343-4-108 4-440-36s-193-26-384-16l-369 10s-4 6-339-24c0 0-634-26-1081-18l-517 6s-127 14-109-43c0 0 2-60 87-76l78-19s35-16 118-18c0 0 52-4 75-13 0 0 17.5-24.5 395.5 7.5l736 61 400 38s50 0 187-10c0 0 88-8 91-8s259-9 259-9l110-8s72-8 168-30l127-4s327-13 331-13 228 5 228 5 104-10 200-13c0 0 120-20 123-21s119-30 119-30z" fill="#44148D"/></svg>