<svg enable-background="new 0 0 2136 360" height="360" viewBox="0 0 2136 360" width="2136" xmlns="http://www.w3.org/2000/svg"><path d="m0 0h2136v364h-2136z" fill="none"/><path d="m2136 111.41v251.23l-91.3-42.19c-63.32-28.94-89.78-26.46-89.78-26.46l-191.83 4.14-138.92-19.02c-103-16.54-198.45-19.84-198.45-19.84l-176.71-1.66c-48.2 0-198.45-9.92-198.45-9.92-103.01-10.75-311.85 6.62-311.85 6.62-165.38 11.57-304.29.82-304.29.82l-340.2-19.84-94.22 5.45v-238.74l95.16 101c71.82-1.65 368.55 67.8 368.55 67.8l121.91 7.44 167.26 4.14c114.35.82 209.79 9.92 209.79 9.92l128.52 12.4 148.37-9.92 125.68-4.14 92.61-5.78s72.77-13.23 76.55-13.23 137.02-3.31 137.02-3.31l44.42-4.13 64.26-8.27 127.57-19.85 67.1-13.22s73.33-5.21 161.23-11.44z" fill="#44148D"/></svg>