<svg enable-background="new 0 0 1468 238" height="238" viewBox="0 0 1468 238" width="1468" xmlns="http://www.w3.org/2000/svg"><path d="m0 0h1468v238h-1468z" fill="none"/><path d="m1468 9.58v92.27c0 4.57-3.23 8.5-7.71 9.4l-123.09 24.59c-.29.06-.57.13-.85.21-5.33 1.59-61.73 18-98.76 11.53-38.89-6.8-206.1-44.67-206.1-44.67l-136.98-31.8c-.71-.16-1.43-.25-2.15-.25-14.35-.01-167.89-.32-266.98-6.78-.16-.01-.32-.02-.48-.04-3.15-.37-38.91-4.31-64.91 6.82-27.19 11.64-45.65 13.59-137.66 67.74-.25.15-.49.31-.73.48-4.33 3.13-52.25 36.48-151.34 52.2l-259.09 43.75c-5.84.99-11.17-3.52-11.17-9.44v-225.59h1458.4c2.83-.01 9.6 0 9.6 0s0 7.11 0 9.58z" fill="#2CF023"/></svg>