<svg enable-background="new 0 0 570 659" height="659" viewBox="0 0 570 659" width="570" xmlns="http://www.w3.org/2000/svg"><path d="m563.35 16.25c0 2 1 7-7 9.5s-12 1-23 5-57.5 10-79.5 11-129 7-129 7-13.5-1-36 1.5-54 11-66.5 12-124.5 11.5-126.5 12-72 2.5-72 2.5 11 139 12 141 7.5 120 5.5 125.5 1.5 46.5 3.5 53 3 32.5 3 35 .5 59.5 0 66-2 65.5-2 65.5 1.75 45.75-1.25 54.75-3 18-7.5 22-17 6-22.5 8-12.5 8-12.5 8l-2.1 1.29v-642.28c9.27-.38 22.77-.8 32.1-.51 15.5.5 14 2.5 28.5 1.5s36-4.5 49-4.5 61 2 82.5 2.5 56.5 4 73.5 5c0 0 68 4.5 83 3s38.5-3 40.5-3 81.5-8 89.5-8.5 34.5-3 43.5-3.5 37.5-4.5 39-4.5 7.25 2.75 7.25 2.75-5 9.5-5 11.5z" fill="#2CF023"/><path d="m0 0h570v659h-570z" fill="none"/></svg>