<svg enable-background="new 0 0 500 569" height="569" viewBox="0 0 500 569" width="500" xmlns="http://www.w3.org/2000/svg"><path d="m500 2v557.38c-12.5 1.36-47.31 5.19-53.04 6.01-7 1-42 2-42 2l-67.5-6.5-74.5.5-46.5-2s-10.5-15-10.5-16.5-7.5-15-7.5-15-9.5-16-15.5-17.5-36-4.5-42.5-5-72.5 4-109.5-1c-11.52-1.55-17.38-2.15-20.11-2.29-.01 0-.01 0-.01 0-.11-.07-.23-.14-.38-.21-5-2.5-9.5-22.5-7.5-23s11.5-1.5 25.5-.5 32 .5 40.5-.5 117-4.5 120-4.5 89.5.5 107-1.5 71 .5 82.5 1.5 49.5-9 49.5-9 0 0 4.5-9 6-61 3.5-87 3-47 3-72 3.5-33 5.5-45.5 4-54.5 4-54.5 6-129.5 6-131.5 2-12 4-22.5 2.5-13.5 2.5-13.5 9.5-7.5 11.5-10.5 14-9 14-9z" fill="#2CF023"/><path d="m0 0h500v569h-500z" fill="none"/></svg>