<svg enable-background="new 0 0 292.05 549" height="549" viewBox="0 0 292.05 549" width="292.05" xmlns="http://www.w3.org/2000/svg"><path d="m0 0h292v549h-292z" fill="none"/><path d="m292.05.91c-.37.33-.67.64-.85.91-1.43 2.17-8.24 7.61-8.24 7.61s-.36 2.17-1.79 9.78-2.87 14.85-2.87 16.3-4.3 95.27-4.3 95.27-1.43 178.95-2.87 188.01c-1.43 9.06-3.94 14.85-3.94 32.96s-3.94 33.33-2.15 52.16.72 56.51-2.51 63.03c-3.22 6.52-3.22 6.52-3.22 6.52s-27.23 7.24-35.47 6.52-46.58-2.54-59.12-1.09-27.95 1.09-30.1 1.09-79.9 2.54-85.99 3.26-18.99 1.09-29.02.36c-10.03-.72-16.84 0-18.27.36-1.43.36 1.79 14.85 5.37 16.66.11.06.2.11.28.15 1.97.11 6.16.53 14.41 1.66 26.51 3.62 73.81.36 78.47.72s26.16 2.54 30.46 3.62c4.3 1.09 11.11 12.68 11.11 12.68s5.37 9.78 5.37 10.87 7.52 11.95 7.52 11.95l15.41 1.45 24.72-.36 48.37 4.71s25.08-.72 30.1-1.45c2.22-.32 10.53-1.28 19.12-2.25z" fill="#2CF023"/></svg>