<svg enable-background="new 0 0 816 116" height="116" viewBox="0 0 816 116" width="816" xmlns="http://www.w3.org/2000/svg"><path d="m816 0v114.32c-2.56-.45-4.32-.76-4.86-.83-3.33-.48-11.79-7.48-28.96-7.65s-86.61-11.33-86.61-11.33-49.57-13.27-51.8-13.78c-2.22-.51-58.77-4.21-74.3-5.53-15.53-1.31-94.84-7.82-97.07-8.33s-154.05-6.49-162.94-7.95c-8.89-1.47-88.14-5.22-94.22-5.08-6.09.14-68.59 2.65-72.98 4.41s-13.17 5.28-24.65 11.62c-11.48 6.35-17.58 5.93-24.19 7.74-6.6 1.81-20.67 5.96-29.67 10.08-7.55 3.45-25.26 7.82-28.56 10.05-4.4 2.97-21.9 1.32-29.05 3.69-1.27.42-3.44.89-6.15 1.38v-102.81z" fill="#2CF023"/><path d="m0 0h816v116h-816z" fill="none"/></svg>