<svg enable-background="new 0 0 326 366" height="366" viewBox="0 0 326 366" width="326" xmlns="http://www.w3.org/2000/svg"><path d="m0 0h326v366h-326z" fill="none"/><path d="m323.71 366h-323.71v-360.1l16.61-4.25s1.8 22.29 2.71 24.52c.9 2.23 4.06 27.19 4.06 36.1 0 8.92.45 69.53-.45 73.54-.9 4.02 4.52 93.6 3.61 99.39-.9 5.8 4.07 73.1 4.07 73.1s6.32 9.81 11.74 10.7 66.83 10.7 81.28 11.59 37.03 4.01 43.8 4.46c6.77.44 99.34 19.61 108.38 20.05 9.03.45 33.41 5.35 37.02 5.35 2.34 0 7.59 2.65 10.88 5.55z" fill="#2CF023"/></svg>