<svg enable-background="new 0 0 692 351" height="351" viewBox="0 0 692 351" width="692" xmlns="http://www.w3.org/2000/svg"><path d="m692 18.57v330.74c-3.58-.62-7.22-1.4-10.95-2.39-10.83-2.87-31.52-10.78-38.65-12.72-40.38-10.98-156.91-34.68-160.36-34.68-3.46 0-117.68 32.37-117.68 32.37l-118.25-16.19s-168.2 21.68-246.11 32.57v-346.27c4.2 1.07 7.35 1.88 9.02 2.16 6.92 1.16 62.88 3.47 67.49 3.47s100.95 6.36 115.94 7.51c15 1.15 57.11 1.74 88.84.58 31.73-1.15 73.84-2.31 80.76-3.46s85.38-5.21 116.53-7.52 49.03 1.74 65.18 1.74 103.83 8.09 103.83 8.09 27.36 2.44 44.41 4z" fill="#44148D"/><path d="m0 0h692v351h-692z" fill="none"/></svg>