<svg enable-background="new 0 0 475 547" height="547" viewBox="0 0 475 547" width="475" xmlns="http://www.w3.org/2000/svg"><path d="m468.58 13.79c0 1.66.83 5.79-5.79 7.85-6.61 2.07-9.92.83-19.01 4.14-9.1 3.31-47.55 8.27-65.74 9.09-18.2.83-106.67 5.79-106.67 5.79s-11.17-.83-29.77 1.24c-18.61 2.07-44.65 9.09-54.99 9.92-10.33.83-102.94 9.51-104.6 9.92-1.65.42-59.54 2.07-59.54 2.07s9.1 114.93 9.92 116.59c.83 1.65 6.2 99.23 4.55 103.77-1.65 4.55 1.24 38.45 2.89 43.83s2.49 26.88 2.49 28.94c0 2.07.41 49.2 0 54.58-.42 5.38-1.65 54.16-1.65 54.16s1.44 37.83-1.04 45.27-2.48 14.89-6.2 18.19c-3.72 3.31-14.06 4.96-18.6 6.61-4.55 1.65-10.34 6.61-10.34 6.61l-4.49 2.78v-532.68c7.51-.34 20.59-.82 29.3-.53 12.81.41 11.57 2.06 23.56 1.24 11.99-.83 29.77-3.72 40.52-3.72s50.44 1.65 68.22 2.06c17.77.42 46.72 3.31 60.77 4.14 0 0 56.23 3.72 68.64 2.48 12.4-1.24 31.83-2.48 33.48-2.48s67.4-6.61 74.01-7.03c6.61-.41 28.53-2.48 35.97-2.89 7.45-.42 31.01-3.73 32.26-3.73 1.24 0 5.99 2.28 5.99 2.28s-4.14 7.85-4.14 9.51z" fill="#2CF023"/><path d="m0 0h475v547h-475z" fill="none"/></svg>