<svg xmlns="http://www.w3.org/2000/svg" viewBox="0 0 36 56">
	<path fill="#86868b" d="M29,10H7a7,7,0,0,0-7,6.988V39.012A7,7,0,0,0,7,46H29a7,7,0,0,0,7-6.988V16.988A7,7,0,0,0,29,10Zm5,6.988V27H25.641a9.421,9.421,0,0,0,2.978-1.549,5.49,5.49,0,0,0,.413-7.739,5.239,5.239,0,0,0-3.81-1.667h-.069a5.655,5.655,0,0,0-3.867,1.541A12.591,12.591,0,0,0,19,21.739v-9.75H29A5.006,5.006,0,0,1,34,16.988ZM19.463,26.642c.855-2.921,2.188-6.661,3.188-7.6a3.685,3.685,0,0,1,2.547-1,3.26,3.26,0,0,1,2.371,1.031,3.489,3.489,0,0,1-.315,4.914C26.254,24.922,22.435,25.991,19.463,26.642ZM7,11.988H17v9.8a12.59,12.59,0,0,0-2.286-4.154A5.652,5.652,0,0,0,10.777,16.1a5.239,5.239,0,0,0-3.81,1.667A5.491,5.491,0,0,0,7.381,25.5a9.111,9.111,0,0,0,2.84,1.5H2V16.988A5.006,5.006,0,0,1,7,11.988Zm9.537,14.706c-2.972-.651-6.792-1.72-7.791-2.653a3.49,3.49,0,0,1-.315-4.914A3.26,3.26,0,0,1,10.8,18.1h.044a3.665,3.665,0,0,1,2.5,1C14.349,20.033,15.682,23.773,16.537,26.694ZM2,39.012V29H16.284c-1.361,2.43-4.5,6.917-9.443,7.707A1,1,0,0,0,7,38.694a.989.989,0,0,0,.159-.013c4.756-.76,7.984-4.264,9.842-7.02v12.35H7A5.006,5.006,0,0,1,2,39.012Zm27,5H19v-12.4c1.967,2.943,5.2,6.384,9.854,7.072a1,1,0,0,0,.293-1.979c-4.732-.7-7.833-4.9-9.408-7.705H34V39.012A5.006,5.006,0,0,1,29,44.012Z"/>
</svg>
