<svg id="icons" xmlns="http://www.w3.org/2000/svg" width="62" height="43" viewBox="0 0 62 43"><style>.st0{fill:none}.st1{fill:#fff}</style><path class="st0" d="M0 0h62v43H0z"/><path class="st1" d="M2.5 23.9c.2 1.2 1.4 2 3.1 2 1.6 0 2.8-.9 2.8-2.1 0-1-.8-1.7-2.4-2.1l-1.5-.4c-2.2-.5-3.1-1.5-3.1-3.2 0-2 1.7-3.4 4.2-3.4 2.3 0 4 1.4 4.2 3.3H8.2C8 16.8 7 16 5.5 16c-1.6 0-2.7.8-2.7 2 0 .9.7 1.5 2.3 1.9l1.2.3c2.5.6 3.5 1.6 3.5 3.4 0 2.2-1.7 3.6-4.5 3.6-2.5 0-4.3-1.3-4.4-3.4h1.6zM19.1 27h-1.4v-1.4h-.1c-.5 1-1.4 1.6-2.8 1.6-2 0-3.1-1.2-3.1-3.3v-5.8h1.4v5.5c0 1.6.6 2.4 2 2.4 1.6 0 2.4-.9 2.4-2.5v-5.3h1.4l.2 8.8zm10.4-4.5c0 2.8-1.5 4.6-3.8 4.6-1.3 0-2.3-.6-2.8-1.5h-.1V30h-1.4V18h1.4v1.5h.1c.6-1 1.6-1.6 2.9-1.6 2.3 0 3.7 1.8 3.7 4.6zm-1.4 0c0-2.1-1-3.3-2.6-3.3s-2.6 1.3-2.6 3.3 1 3.4 2.6 3.4 2.6-1.3 2.6-3.4zm11.5 0c0 2.8-1.5 4.6-3.8 4.6-1.3 0-2.3-.6-2.8-1.5h-.1V30h-1.4V18h1.4v1.5h.1c.6-1 1.6-1.6 2.9-1.6 2.2 0 3.7 1.8 3.7 4.6zm-1.5 0c0-2.1-1-3.3-2.6-3.3s-2.6 1.3-2.6 3.3 1 3.4 2.6 3.4 2.6-1.3 2.6-3.4zm2.9 0c0-2.9 1.6-4.6 4.1-4.6s4.1 1.8 4.1 4.6c0 2.9-1.6 4.6-4.1 4.6S41 25.4 41 22.5zm6.8 0c0-2.1-1-3.3-2.7-3.3s-2.7 1.2-2.7 3.3 1 3.4 2.7 3.4 2.7-1.3 2.7-3.4zm3.3-4.5h1.4v1.3h.1c.3-.9 1.3-1.5 2.5-1.5h.7v1.4c-.1 0-.6-.1-.9-.1-1.4 0-2.3.9-2.3 2.2V27h-1.4l-.1-9zm8.7-2.3V18h2v1.2h-2v5.1c0 1 .4 1.5 1.3 1.5h.7V27c-.3 0-.6.1-.8.1-1.8 0-2.6-.7-2.6-2.4v-5.4H57V18h1.4v-2.3h1.4z"/></svg>