<svg xmlns="http://www.w3.org/2000/svg" width="52" height="44" viewBox="0 0 52 44"><path d="M1.76 24.42c.15 1.03 1.13 1.69 2.54 1.69 1.33 0 2.3-.72 2.3-1.7 0-.84-.62-1.37-1.98-1.72l-1.26-.33C1.58 21.91.8 21.1.8 19.7c0-1.67 1.4-2.81 3.49-2.81 1.91 0 3.33 1.13 3.43 2.73H6.49c-.17-1.01-1-1.61-2.24-1.61-1.31 0-2.18.66-2.18 1.65 0 .77.54 1.22 1.9 1.57l1.03.28c2.04.51 2.86 1.31 2.86 2.75 0 1.81-1.43 2.97-3.68 2.97-2.09 0-3.53-1.11-3.66-2.81h1.24zM15.58 27h-1.12v-1.16h-.11c-.37.82-1.16 1.29-2.28 1.29-1.65 0-2.52-.98-2.52-2.73v-4.77h1.18v4.48c0 1.33.49 1.94 1.67 1.94 1.3 0 2.01-.77 2.01-2.06v-4.36h1.18V27zm8.76-3.68c0 2.3-1.22 3.81-3.1 3.81-1.05 0-1.9-.46-2.3-1.24h-.11v3.57h-1.18v-9.83h1.12v1.23h.11c.47-.85 1.35-1.36 2.36-1.36 1.88 0 3.1 1.5 3.1 3.82zm-1.22 0c0-1.72-.81-2.75-2.15-2.75-1.33 0-2.17 1.06-2.17 2.75s.84 2.75 2.17 2.75c1.35 0 2.15-1.03 2.15-2.75zm9.61 0c0 2.3-1.22 3.81-3.1 3.81-1.05 0-1.9-.46-2.3-1.24h-.11v3.57h-1.18v-9.83h1.12v1.23h.11c.47-.85 1.35-1.36 2.36-1.36 1.89 0 3.1 1.5 3.1 3.82zm-1.21 0c0-1.72-.81-2.75-2.15-2.75-1.33 0-2.17 1.06-2.17 2.75s.84 2.75 2.17 2.75c1.34 0 2.15-1.03 2.15-2.75zm2.55 0c0-2.37 1.3-3.81 3.4-3.81s3.4 1.44 3.4 3.81-1.3 3.81-3.4 3.81-3.4-1.45-3.4-3.81zm5.58 0c0-1.75-.79-2.75-2.18-2.75s-2.18 1-2.18 2.75c0 1.74.79 2.75 2.18 2.75s2.18-1.01 2.18-2.75zm2.92-3.69h1.12v1.09h.11c.22-.72 1.07-1.22 2.04-1.22.19 0 .44.01.59.03v1.18c-.1-.03-.52-.07-.75-.07-1.12 0-1.93.75-1.93 1.79V27h-1.18v-7.37zm7.27-1.91v1.91h1.64v.98h-1.64v4.17c0 .87.33 1.24 1.09 1.24.21 0 .33-.01.55-.03v.99c-.23.04-.46.07-.69.07-1.52 0-2.13-.56-2.13-1.97v-4.47h-1.19v-.98h1.19v-1.91h1.18z" fill="#fff"/><path fill="none" d="M0 0h52v44H0z"/></svg>