<?xml version="1.0" encoding="UTF-8"?>
<svg width="18px" height="23px" viewBox="0 0 18 23" version="1.1" xmlns="http://www.w3.org/2000/svg" xmlns:xlink="http://www.w3.org/1999/xlink">
    <title>globalnav_apple_image__cxwwnrj0urau_small</title>
    <defs>
        <linearGradient x1="50%" y1="100%" x2="50%" y2="-93.6500727%" id="linearGradient-1">
            <stop stop-color="#10457C" offset="0%"></stop>
            <stop stop-color="#306CA9" offset="28.5875123%"></stop>
            <stop stop-color="#3775B1" offset="100%"></stop>
        </linearGradient>
        <filter x="-50.0%" y="-40.0%" width="200.0%" height="180.0%" filterUnits="objectBoundingBox" id="filter-2">
            <feOffset dx="-0" dy="1" in="SourceAlpha" result="shadowOffsetOuter1"></feOffset>
            <feGaussianBlur stdDeviation="0.5" in="shadowOffsetOuter1" result="shadowBlurOuter1"></feGaussianBlur>
            <feColorMatrix values="0 0 0 0 0   0 0 0 0 0   0 0 0 0 0  0 0 0 0.12 0" type="matrix" in="shadowBlurOuter1" result="shadowMatrixOuter1"></feColorMatrix>
            <feMerge>
                <feMergeNode in="shadowMatrixOuter1"></feMergeNode>
                <feMergeNode in="SourceGraphic"></feMergeNode>
            </feMerge>
        </filter>
        <linearGradient x1="50%" y1="100%" x2="50%" y2="1.49075255%" id="linearGradient-3">
            <stop stop-color="#109F32" offset="0%"></stop>
            <stop stop-color="#36AF53" offset="100%"></stop>
        </linearGradient>
        <linearGradient x1="-1.11022302e-14%" y1="50%" x2="95.7541356%" y2="50%" id="linearGradient-4">
            <stop stop-color="#12A034" offset="0%"></stop>
            <stop stop-color="#3EB259" offset="100%"></stop>
        </linearGradient>
        <filter x="-50.0%" y="-40.0%" width="200.0%" height="180.0%" filterUnits="objectBoundingBox" id="filter-5">
            <feOffset dx="-0" dy="1" in="SourceAlpha" result="shadowOffsetOuter1"></feOffset>
            <feGaussianBlur stdDeviation="0.5" in="shadowOffsetOuter1" result="shadowBlurOuter1"></feGaussianBlur>
            <feColorMatrix values="0 0 0 0 0   0 0 0 0 0   0 0 0 0 0  0 0 0 0.12 0" type="matrix" in="shadowBlurOuter1" result="shadowMatrixOuter1"></feColorMatrix>
            <feMerge>
                <feMergeNode in="shadowMatrixOuter1"></feMergeNode>
                <feMergeNode in="SourceGraphic"></feMergeNode>
            </feMerge>
        </filter>
        <linearGradient x1="50%" y1="98.3936543%" x2="50%" y2="3.32083459%" id="linearGradient-6">
            <stop stop-color="#EFB61F" offset="0%"></stop>
            <stop stop-color="#F1BE38" offset="100%"></stop>
        </linearGradient>
        <linearGradient x1="50%" y1="3.8803412%" x2="50%" y2="99.6858334%" id="linearGradient-7">
            <stop stop-color="#EFB824" offset="0%"></stop>
            <stop stop-color="#F1C348" offset="100%"></stop>
        </linearGradient>
    </defs>
    <g id="Page-3" stroke="none" stroke-width="1" fill="none" fill-rule="evenodd">
        <rect id="globalnav_apple_image__cxwwnrj0urau_small" x="0" y="0" width="18" height="23"></rect>
        <g id="Logotype">
            <g id="N-Center" transform="translate(9.045287, 11.145742) scale(1, -1) translate(-9.045287, -11.145742) translate(4.545287, 6.645742)" fill="#FFFFFF">
                <polygon id="Triangle" transform="translate(6.741221, 2.098813) scale(-1, 1) rotate(90.000000) translate(-6.741221, -2.098813) " points="6.74122127 0.173019217 8.66045189 4.02460608 4.82199065 4.02460608"></polygon>
                <polygon id="Triangle" transform="translate(6.421349, 4.345572) rotate(90.000000) translate(-6.421349, -4.345572) " points="6.4213495 2.41977822 8.34058012 6.27136508 4.50211888 6.27136508"></polygon>
                <polygon id="Triangle" transform="translate(2.263016, 4.345572) scale(-1, 1) rotate(90.000000) translate(-2.263016, -4.345572) " points="2.26301649 2.41977822 4.18224711 6.27136508 0.343785872 6.27136508"></polygon>
                <polygon id="Triangle" transform="translate(1.943145, 6.592331) rotate(90.000000) translate(-1.943145, -6.592331) " points="1.94314472 4.66653722 3.86237534 8.51812408 0.0239141017 8.51812408"></polygon>
            </g>
            <g id="N-Sides" transform="translate(0.081588, 2.475115)" fill="#FFFFFF">
                <polygon id="Triangle" transform="translate(15.765915, 8.825055) scale(-1, 1) rotate(90.000000) translate(-15.765915, -8.825055) " points="15.7659151 6.90502498 17.6964353 10.7450845 13.8353948 10.7450845"></polygon>
                <polygon id="Triangle" transform="translate(15.765915, 13.305124) scale(-1, 1) rotate(90.000000) translate(-15.765915, -13.305124) " points="15.7659151 11.3850944 17.6964353 15.2251538 13.8353948 15.2251538"></polygon>
                <polygon id="Triangle" transform="translate(15.444162, 11.065089) rotate(90.000000) translate(-15.444162, -11.065089) " points="15.4441617 9.14505967 17.3746819 12.9851191 13.5136415 12.9851191"></polygon>
                <polygon id="Triangle" transform="translate(15.444162, 15.545159) rotate(90.000000) translate(-15.444162, -15.545159) " points="15.4441617 13.6251291 17.3746819 17.4651885 13.5136415 17.4651885"></polygon>
                <polygon id="Triangle" transform="translate(15.444162, 2.104951) rotate(90.000000) translate(-15.444162, -2.104951) " points="15.4441617 0.184920889 17.3746819 4.02498037 13.5136415 4.02498037"></polygon>
                <polygon id="Triangle" transform="translate(15.765915, 4.344985) scale(-1, 1) rotate(90.000000) translate(-15.765915, -4.344985) " points="15.7659151 2.42495558 17.6964353 6.26501506 13.8353948 6.26501506"></polygon>
                <polygon id="Triangle" transform="translate(15.444162, 6.585020) rotate(90.000000) translate(-15.444162, -6.585020) " points="15.4441617 4.66499028 17.3746819 8.50504976 13.5136415 8.50504976"></polygon>
                <polyline id="Triangle" points="0.321753369 2.10495063 4.18279379 4.02498037 4.18279379 0.184920889"></polyline>
                <polyline id="Triangle" points="0.321753369 6.58502002 4.18279379 8.50504976 4.18279379 4.66499028"></polyline>
                <polyline id="Triangle" points="3.86104042 4.34498532 1.31394195e-15 6.26501506 1.31394195e-15 2.42495558"></polyline>
                <polyline id="Triangle" points="3.86104042 8.82505471 1.31394195e-15 10.7450845 1.31394195e-15 6.90502498"></polyline>
                <polygon id="Triangle" transform="translate(2.252274, 11.065089) scale(-1, 1) rotate(90.000000) translate(-2.252274, -11.065089) " points="2.25227358 9.14505967 4.18279379 12.9851191 0.321753369 12.9851191"></polygon>
                <polygon id="Triangle" transform="translate(2.252274, 15.545159) scale(-1, 1) rotate(90.000000) translate(-2.252274, -15.545159) " points="2.25227358 13.6251291 4.18279379 17.4651885 0.321753369 17.4651885"></polygon>
                <polygon id="Triangle" transform="translate(1.930520, 13.305124) rotate(90.000000) translate(-1.930520, -13.305124) " points="1.93052021 11.3850944 3.86104042 15.2251538 1.31394195e-15 15.2251538"></polygon>
            </g>
            <g id="ArrowBottom" filter="url(#filter-2)" transform="translate(4.980475, 12.106549)" fill="#009925" stroke-width="0.5">
                <path d="M4.48276445,6.02730854 L6.00412983,9.06311492 L2.96139907,9.06311492 L4.48276445,6.02730854 Z" id="Triangle" stroke="url(#linearGradient-3)" transform="translate(4.482764, 7.391212) scale(-1, 1) rotate(90.000000) translate(-4.482764, -7.391212) "></path>
                <path d="M3.8646593,0.721001957 L7.31231129,7.60061421 L0.417007301,7.60061421 L3.8646593,0.721001957 Z" id="Triangle" stroke="url(#linearGradient-4)" transform="translate(3.864659, 4.006808) rotate(90.000000) translate(-3.864659, -4.006808) "></path>
            </g>
            <g id="ArrowTop" filter="url(#filter-5)" transform="translate(8.782379, 5.428744) scale(-1, -1) translate(-8.782379, -5.428744) translate(4.782379, 0.428744)" fill="#EEB211" stroke-width="0.5">
                <path d="M3.85635193,0.720072421 L7.29308438,7.58165505 L0.419619487,7.58165505 L3.85635193,0.720072421 Z" id="Triangle" stroke="url(#linearGradient-6)" transform="translate(3.856352, 3.996742) rotate(90.000000) translate(-3.856352, -3.996742) "></path>
                <path d="M4.4704561,6.00928862 L5.98641141,9.03595793 L2.9545008,9.03595793 L4.4704561,6.00928862 Z" id="Triangle" stroke="url(#linearGradient-7)" transform="translate(4.470456, 7.368501) scale(-1, 1) rotate(90.000000) translate(-4.470456, -7.368501) "></path>
            </g>
        </g>
    </g>
</svg>