<svg xmlns="http://www.w3.org/2000/svg" width="44" height="44" viewBox="0 0 44 44"><path d="M.5 17.31c0-.45.37-.82.82-.82s.82.37.82.82-.37.82-.82.82-.82-.36-.82-.82zm.23 2.32h1.18V27H.73v-7.37zm7.16-2.49c1.87 0 3.16 1.31 3.16 3.19 0 1.85-1.32 3.15-3.17 3.15H5.39V27H4.16v-9.86h3.73zm-2.5 5.25h2.17c1.4 0 2.21-.75 2.21-2.06 0-1.35-.79-2.1-2.21-2.1H5.39v4.16zm7.44-5.68h1.18v4.09h.11c.37-.81 1.14-1.29 2.27-1.29 1.56 0 2.54 1 2.54 2.73V27h-1.18v-4.48c0-1.31-.59-1.96-1.7-1.96-1.32 0-2.04.83-2.04 2.08V27h-1.18V16.71zm7.74 6.61c0-2.37 1.3-3.81 3.4-3.81s3.4 1.44 3.4 3.81-1.3 3.81-3.4 3.81-3.4-1.45-3.4-3.81zm5.58 0c0-1.75-.79-2.75-2.18-2.75s-2.18 1-2.18 2.75c0 1.74.79 2.75 2.18 2.75s2.18-1.01 2.18-2.75zm2.92-3.69h1.12v1.16h.11c.37-.81 1.09-1.29 2.21-1.29 1.65 0 2.58.98 2.58 2.73V27h-1.18v-4.48c0-1.33-.56-1.96-1.74-1.96s-1.93.79-1.93 2.08V27h-1.18v-7.37zm14.08 5.46c-.36 1.26-1.49 2.04-3.1 2.04-2.04 0-3.32-1.48-3.32-3.81 0-2.32 1.3-3.82 3.32-3.82 1.99 0 3.2 1.42 3.2 3.71v.45h-5.3v.05c.06 1.46.88 2.38 2.13 2.38.95 0 1.59-.35 1.9-1h1.17zm-5.2-2.38h4.06c-.03-1.31-.81-2.17-1.98-2.17s-1.99.86-2.08 2.17z" fill="#fff"/><path fill="none" d="M0 0h44v44H0z"/></svg>