<svg xmlns="http://www.w3.org/2000/svg" width="26" height="44" viewBox="0 0 26 44"><path d="M8.7 27v-7.53h-.08L5.5 26.93H4.47l-3.11-7.46h-.09V27H.12v-9.86h1.43l3.38 8.16h.11l3.38-8.16h1.43V27H8.7zm6.12-7.49c-1.57 0-2.73.78-2.89 1.96h1.19c.16-.58.78-.92 1.66-.92 1.1 0 1.67.5 1.67 1.41v.67l-2.13.13c-1.72.1-2.69.86-2.69 2.18 0 1.35 1.06 2.19 2.49 2.19.98 0 1.79-.43 2.27-1.22h.11V27h1.12v-5.04c0-1.53-1-2.45-2.8-2.45zm1.63 4.75c0 1.05-.9 1.85-2.11 1.85-.85 0-1.49-.44-1.49-1.19 0-.74.49-1.13 1.61-1.2l1.98-.13v.67zm8.11-2.37c-.19-.73-.84-1.33-1.9-1.33-1.33 0-2.16 1.06-2.16 2.73 0 1.7.85 2.78 2.16 2.78.99 0 1.68-.46 1.9-1.29h1.19c-.21 1.35-1.31 2.35-3.08 2.35-2.06 0-3.38-1.5-3.38-3.84 0-2.3 1.31-3.79 3.38-3.79 1.79 0 2.88 1.07 3.09 2.39h-1.2z" fill="#fff"/><path fill="none" d="M0 0h26v44H0z"/></svg>