<svg id="Layer_1" data-name="Layer 1" xmlns="http://www.w3.org/2000/svg" viewBox="0 0 17 48">
  <defs>
    <style>
      .cls-1 {
        fill: none;
      }

      .cls-2 {
        fill: #fff;
      }
    </style>
  </defs>
  <title>image_small</title>
  <g id="bag_small">
    <rect id="boundingbox" class="cls-1" width="17" height="48"/>
    <path id="bag" class="cls-2" d="M14.5,15.98H12.712a4.227,4.227,0,0,0-8.424,0H2.5A2.5,2.5,0,0,0,0,18.48v11a2.5,2.5,0,0,0,2.5,2.5h12a2.5,2.5,0,0,0,2.5-2.5v-11A2.5,2.5,0,0,0,14.5,15.98Zm-6-2.875a3.243,3.243,0,0,1,3.212,2.875H5.288A3.243,3.243,0,0,1,8.5,13.105ZM16,29.48a1.5,1.5,0,0,1-1.5,1.5H2.5A1.5,1.5,0,0,1,1,29.48v-11a1.5,1.5,0,0,1,1.5-1.5h12a1.5,1.5,0,0,1,1.5,1.5Z"/>
  </g>
</svg>
