<svg id="Layer_1" data-name="Layer 1" xmlns="http://www.w3.org/2000/svg" viewBox="0 0 17 44">
  <defs>
    <style>
      .cls-1 {
        fill: none;
      }

      .cls-2 {
        fill: #fff;
      }
    </style>
  </defs>
  <title>image_large_1</title>
  <g id="bag_large">
    <rect id="boundingbox" class="cls-1" width="17" height="44"/>
    <path id="bag" class="cls-2" d="M14.5,14H12.712a4.227,4.227,0,0,0-8.424,0H2.5A2.5,2.5,0,0,0,0,16.5v11A2.5,2.5,0,0,0,2.5,30h12A2.5,2.5,0,0,0,17,27.5v-11A2.5,2.5,0,0,0,14.5,14Zm-6-2.875A3.243,3.243,0,0,1,11.712,14H5.288A3.243,3.243,0,0,1,8.5,11.125ZM16,27.5A1.5,1.5,0,0,1,14.5,29H2.5A1.5,1.5,0,0,1,1,27.5v-11A1.5,1.5,0,0,1,2.5,15h12A1.5,1.5,0,0,1,16,16.5Z"/>
  </g>
</svg>
