<svg xmlns="http://www.w3.org/2000/svg" viewBox="0 0 18 88">
  <defs>
    <style>
      .a {
        fill: none;
      }

      .b {
        fill: #fff;
      }

      .c {
        fill: #86868b;
      }
    </style>
  </defs>
  <title>image_large_1</title>
  <g>
    <rect class="a" width="18" height="88"/>
    <path class="b" d="M17.512,29.417l-4.786-4.788a7.068,7.068,0,1,0-.777.778l4.785,4.788a.55.55,0,1,0,.777-.777ZM1.427,20.054a5.946,5.946,0,1,1,5.946,5.954A5.957,5.957,0,0,1,1.427,20.054Z"/>
    <path class="c" d="M17.512,73.417l-4.786-4.788a7.068,7.068,0,1,0-.777.778l4.785,4.788a.55.55,0,1,0,.777-.777ZM1.427,64.054a5.946,5.946,0,1,1,5.946,5.954A5.957,5.957,0,0,1,1.427,64.054Z"/>
  </g>
</svg>
