<?xml version="1.0" encoding="UTF-8"?>
<svg width="18px" height="23px" viewBox="0 0 18 23" version="1.1" xmlns="http://www.w3.org/2000/svg" xmlns:xlink="http://www.w3.org/1999/xlink">
    <title>globalnav_netexy_image__large</title>
    <defs>
        <linearGradient x1="67.3645673%" y1="16.5664849%" x2="100%" y2="83.4335151%" id="linearGradient-1">
            <stop stop-color="#00C418" offset="0%"></stop>
            <stop stop-color="#6390CA" offset="100%"></stop>
        </linearGradient>
        <path d="M10.3981208,18.7407691 L12.3041208,19.4997691 L12.3047707,23 L7.09612078,20.3930318 L10.3981208,18.7407691 Z" id="path-2"></path>
        <path d="M12.3047707,17.3116914 L12.3046014,19.0257761 L10.3966014,18.2657761 L12.3047707,17.3116914 Z M5.29060137,13.0447761 L12.1479841,16.4775494 L9.38160137,17.8617761 L5.29060137,16.2327761 L5.29060137,13.0447761 Z" id="path-3"></path>
        <linearGradient x1="50%" y1="0%" x2="50%" y2="100%" id="linearGradient-4">
            <stop stop-color="#6DD400" offset="0%"></stop>
            <stop stop-color="#F7B500" offset="100%"></stop>
        </linearGradient>
        <path d="M5.63507286,2.66453526e-15 L10.8483543,2.60367218 L7.30307286,4.374 L5.63507286,3.636 L5.63507286,2.66453526e-15 Z" id="path-5"></path>
        <path d="M5.63507286,2.66453526e-15 L10.8483543,2.60367218 L7.30307286,4.374 L5.63507286,3.636 L5.63507286,2.66453526e-15 Z" id="path-6"></path>
    </defs>
    <g id="Page-1" stroke="none" stroke-width="1" fill="none" fill-rule="evenodd">
        <g id="globalnav_netexy_image__large" fill-rule="nonzero">
            <polygon id="Triangle" transform="translate(8.709287, 6.300966) scale(-1, 1) rotate(90.000000) translate(-8.709287, -6.300966) " points="8.70928733 2.88227971 12.1266593 9.71965163 5.29191533 9.71965163"></polygon>
            <polygon id="Triangle" fill="#F0B824" transform="translate(9.236793, 6.537852) scale(-1, 1) rotate(90.000000) translate(-9.236793, -6.537852) " points="9.23679324 3.11916592 12.6541652 9.95653784 5.81942124 9.95653784"></polygon>
            <path d="M10.3981208,18.7407691 L12.3041208,19.4997691 L12.3047707,23 L7.09612078,20.3930318 L10.3981208,18.7407691 Z" id="Oval-2" fill="url(#linearGradient-1)"></path>
            <g id="Oval-2" style="mix-blend-mode: soft-light;">
                <use fill="url(#linearGradient-1)" xlink:href="#path-2"></use>
                <use fill="#FFFFFF" xlink:href="#path-2"></use>
            </g>
            <path d="M5.29060137,16.2331764 L9.38160137,17.8621764 L5.29060137,19.9103226 L5.29060137,16.2331764 Z" id="Oval-2" fill="#19A239"></path>
            <g id="Oval-2">
                <use fill="#FFFFFF" xlink:href="#path-3"></use>
                <use fill="#000000" xlink:href="#path-3"></use>
            </g>
            <polygon id="Triangle-2" fill="#009925" points="5.29060137 13.0447761 12.1479841 16.4775494 5.29060137 19.9103226"></polygon>
            <path d="M12.3047707,17.3116914 L12.3043066,19.0256914 L10.3973066,18.2656914 L12.3047707,17.3116914 Z" id="Oval-2" fill="#19A239"></path>
            <path d="M8.26906672,5.30989723 L12.6550667,7.24989723 L12.6554792,9.95522388 L5.81039132,6.53785188 L8.26906672,5.30989723 Z M5.63506672,4.14389723 L7.30306672,4.88189723 L5.6350722,5.71495772 L5.63506672,4.14389723 Z" id="Oval-2" fill="#F0B824"></path>
            <path d="M12.6554792,3.12047988 L12.6554176,7.24947988 L8.30041765,5.32247988 L12.6554792,3.12047988 Z" id="Oval-2" fill="#F0B824"></path>
            <g id="Oval-2">
                <use fill="#FFFFFF" xlink:href="#path-5"></use>
                <use fill="url(#linearGradient-4)" xlink:href="#path-5"></use>
            </g>
            <g id="Oval-2" style="mix-blend-mode: soft-light;">
                <use fill="url(#linearGradient-4)" xlink:href="#path-6"></use>
                <use fill="#FFFFFF" xlink:href="#path-6"></use>
            </g>
            <path d="M4.27726367,16.4437008 L4.27645141,20.3674632 L4.21145141,20.3674632 L0.394398666,18.4223438 L4.27726367,16.4437008 Z M13.7333376,16.4437011 L17.6162026,18.4223442 L13.7974514,20.3674632 L13.7324514,20.3674632 L13.7333376,16.4437011 Z M0.0690590386,14.147827 L3.95192404,16.12647 L0.0690590386,18.105113 L0.0690590386,14.147827 Z M17.9415434,14.1478275 L17.9415434,18.1051136 L14.0586784,16.1264706 L17.9415434,14.1478275 Z M13.7333382,11.8519559 L17.6162032,13.830599 L13.7333382,15.809242 L13.7333382,11.8519559 Z M4.27726297,11.8519556 L4.27726297,15.8092417 L0.394398075,13.8305986 L4.27726297,11.8519556 Z M13.3355345,11.8704186 L13.3355345,15.8045626 L9.44101367,13.8374906 L13.3355345,11.8704186 Z M17.9415428,9.55608229 L17.9414514,11.4424632 L16.8480715,11.4418408 L16.8480715,11.5568408 L17.9414514,11.5564632 L17.9415428,13.5133684 L14.0586778,11.5347254 L17.9415428,9.55608229 Z M0.0584514114,9.56683393 L3.96253122,11.534725 L0.0584514114,13.5026161 L0.0584514114,11.5564632 L1.21507152,11.5568408 L1.21507152,11.4418408 L0.0584514114,11.4424632 L0.0584514114,9.56683393 Z M9.11757662,9.56765449 L13.0120975,11.5347265 L9.11757662,13.5017985 L9.11757662,9.56765449 Z M8.80740997,9.56765418 L8.80740997,13.5017982 L4.91288909,11.5347262 L8.80740997,9.56765418 Z M13.7333377,7.2602096 L17.6162027,9.2388527 L13.7333377,11.2174957 L13.7333377,7.2602096 Z M4.28787122,7.27096103 L4.28787122,11.2067431 L0.383791396,9.23885211 L4.28787122,7.27096103 Z M4.58945214,7.26488897 L8.48397301,9.23196096 L4.58945214,11.199033 L4.58945214,7.26488897 Z M17.9415433,4.96433595 L17.9415433,8.92162209 L14.0586783,6.9429791 L17.9415433,4.96433595 Z M0.0584514114,4.97508813 L3.96253122,6.9429792 L0.0584514114,8.91087024 L0.0584514114,4.97508813 Z M13.7333372,2.6684632 L17.6162022,4.64710635 L13.7333372,6.62574935 L13.7333372,2.6684632 Z M4.28787122,2.67921524 L4.28787122,6.61499735 L0.383791396,4.6471063 L4.28787122,2.67921524 Z" id="netexy-icon" fill="#FFFFFF"></path>
            <path d="M4.33571564,16.3494119 L4.33571564,20.4252642 L4.19852384,20.4252642 L0.267797894,18.4223451 L4.33571564,16.3494119 Z M13.6748237,20.4252642 L13.6748876,16.3494131 L17.7427861,18.4223461 L13.8119924,20.4252642 L13.6748237,20.4252642 Z M4.21871939,16.5380299 L0.520966199,18.422199 L4.21871939,20.3064826 L4.21871939,16.5380299 Z M13.7917746,16.5380299 L13.7916577,20.3064826 L17.4895278,18.422199 L13.7917746,16.5380299 Z M17.9999948,14.0535387 L17.9999948,18.1994024 L13.9320986,16.1264706 L17.9999948,14.0535387 Z M0.0105934422,18.1994017 L0.0105934422,14.0535381 L4.07850404,16.1264699 L0.0105934422,18.1994017 Z M17.8830227,14.2421493 L14.1852695,16.1264328 L17.8830227,18.0107164 L17.8830227,14.2421493 Z M0.127471298,14.2421493 L0.127471298,18.0107164 L3.82522448,16.1264328 L0.127471298,14.2421493 Z M4.33571438,11.7576668 L4.33571438,15.9035305 L0.267818262,13.8305986 L4.33571438,11.7576668 Z M13.6748868,15.9035309 L13.6748868,11.7576671 L17.742783,13.830599 L13.6748868,15.9035309 Z M13.3939859,11.7765135 L13.3939859,15.8984677 L9.3135465,13.8374906 L13.3939859,11.7765135 Z M4.21871939,11.9462687 L0.520966199,13.8305522 L4.21871939,15.7148358 L4.21871939,11.9462687 Z M13.7917746,11.9462687 L13.7917746,15.7148358 L17.4895278,13.8305522 L13.7917746,11.9462687 Z M13.2770515,11.9642338 L9.56830946,13.8374179 L13.2770515,15.710602 L13.2770515,11.9642338 Z M13.932098,11.5347254 L18,9.46179052 L18,13.60766 L13.932098,11.5347254 Z M0,13.5964336 L0,9.47301639 L4.09020352,11.534725 L0,13.5964336 Z M8.86586138,9.47374911 L8.86586138,13.5957033 L4.78542192,11.5347262 L8.86586138,9.47374911 Z M9.05912521,13.5957036 L9.05912521,9.47374942 L13.1395647,11.5347265 L9.05912521,13.5957036 Z M17.8830227,9.65038806 L14.1852695,11.5346716 L17.8830227,13.4189552 L17.8829058,11.6143134 L16.7902151,11.6144337 L16.7902151,11.385578 L17.8829058,11.3854577 L17.8830227,9.65038806 Z M0.116833141,9.66057214 L0.116833141,11.3854577 L1.27417109,11.3855776 L1.27417109,11.6144334 L0.116833141,11.6143134 L0.116833141,13.4087711 L3.83481052,11.5346716 L0.116833141,9.66057214 Z M9.17598358,9.66148756 L9.17598358,13.4078557 L12.8847256,11.5346716 L9.17598358,9.66148756 Z M8.74893757,9.66148756 L5.04019552,11.5346716 L8.74893757,13.4078557 L8.74893757,9.66148756 Z M13.6748863,11.3117846 L13.6748863,7.16592078 L17.7427825,9.2388527 L13.6748863,11.3117846 Z M4.34632263,7.17714349 L4.34632263,11.3005607 L0.2561191,9.23885211 L4.34632263,7.17714349 Z M4.53100072,11.2929381 L4.53100072,7.1709839 L8.61144019,9.23196096 L4.53100072,11.2929381 Z M13.7917746,7.35450746 L13.7917746,11.1230746 L17.4895278,9.23879104 L13.7917746,7.35450746 Z M4.22935754,7.36469154 L0.511380168,9.23879104 L4.22935754,11.1128905 L4.22935754,7.36469154 Z M4.64786965,7.35874129 L4.64786965,11.1051095 L8.3564948,9.23192537 L4.64786965,7.35874129 Z M17.9999947,4.87004713 L17.9999947,9.01591091 L13.9320985,6.9429791 L17.9999947,4.87004713 Z M0,9.00468778 L0,4.88127059 L4.09020352,6.9429792 L0,9.00468778 Z M17.8830227,5.05862687 L14.1852695,6.94291045 L17.8830227,8.82719403 L17.8830227,5.05862687 Z M0.116833141,5.06881095 L0.116833141,8.81700995 L3.83481052,6.94291045 L0.116833141,5.06881095 Z M13.6748858,6.72003816 L13.6748858,2.57417438 L17.742782,4.64710636 L13.6748858,6.72003816 Z M4.34632263,2.58539769 L4.34632263,6.7088149 L0.2561191,4.6471063 L4.34632263,2.58539769 Z M13.7917746,2.76274627 L13.7917746,6.53131343 L17.4895278,4.64702985 L13.7917746,2.76274627 Z M4.22935754,2.77293035 L0.511380168,4.64702985 L4.22935754,6.52112935 L4.22935754,2.77293035 Z" id="netexy-icon" fill="#FFFFFF"></path>
        </g>
    </g>
</svg>