<svg xmlns="http://www.w3.org/2000/svg" width="49" height="43" viewBox="0 0 49 43"><path fill="none" d="M0 0h49v43H0z"/><path d="M6.17 27H4.76L1.5 15.02h1.56l2.38 9.74h.1l2.68-9.74h1.51l2.68 9.74h.1l2.38-9.74h1.56L13.19 27h-1.41l-2.76-9.46h-.1L6.17 27zm10.66-2.51c0-1.6 1.18-2.52 3.26-2.65l2.58-.16v-.81c0-1.1-.69-1.71-2.03-1.71-1.07 0-1.82.41-2.02 1.11h-1.44c.19-1.44 1.6-2.38 3.51-2.38 2.18 0 3.4 1.12 3.4 2.98V27h-1.36v-1.32h-.13c-.58.96-1.56 1.48-2.76 1.48-1.72 0-3.01-1.03-3.01-2.67zm5.84-.83v-.82l-2.4.16c-1.36.09-1.96.56-1.96 1.46 0 .91.77 1.44 1.81 1.44 1.46 0 2.55-.96 2.55-2.24zm5.74-7.92v2.32h1.99v1.2h-1.99v5.06c0 1.05.4 1.5 1.33 1.5.26 0 .4-.01.66-.03v1.2c-.28.05-.56.08-.84.08-1.84 0-2.58-.68-2.58-2.39v-5.43h-1.44v-1.2h1.44v-2.32h1.43zm9.63 5.05c-.23-.89-1.02-1.61-2.31-1.61-1.61 0-2.62 1.29-2.62 3.31 0 2.07 1.03 3.38 2.62 3.38 1.2 0 2.04-.56 2.31-1.57h1.44c-.26 1.64-1.59 2.86-3.74 2.86-2.51 0-4.11-1.82-4.11-4.67 0-2.79 1.59-4.6 4.1-4.6 2.17 0 3.5 1.3 3.75 2.9h-1.44zm3.28-6.29h1.43v4.96h.13c.45-.99 1.39-1.57 2.76-1.57 1.89 0 3.09 1.21 3.09 3.31V27H47.3v-5.45c0-1.59-.71-2.37-2.07-2.37-1.6 0-2.48 1.01-2.48 2.52V27h-1.43V14.5z" fill="#fff"/></svg>