<svg xmlns="http://www.w3.org/2000/svg" width="33" height="43" viewBox="0 0 33 43"><path fill="none" d="M0 0h33v43H0z"/><path d="M1.5 15.24c0-.55.45-1 1-1s1 .45 1 1-.45 1-1 1-1-.45-1-1zm.28 2.81h1.43V27H1.78v-8.95zm8.5-3.03c2.27 0 3.83 1.59 3.83 3.88 0 2.24-1.6 3.83-3.85 3.83H7.25V27H5.76V15.02h4.52zM7.25 21.4h2.64c1.7 0 2.69-.91 2.69-2.5 0-1.64-.95-2.55-2.69-2.55H7.25v5.05zm7.9 3.09c0-1.6 1.18-2.52 3.26-2.65l2.59-.15v-.81c0-1.1-.69-1.71-2.03-1.71-1.07 0-1.82.41-2.02 1.11h-1.44c.19-1.44 1.6-2.38 3.51-2.38 2.18 0 3.4 1.12 3.4 2.98V27h-1.36v-1.32h-.13c-.58.96-1.56 1.48-2.76 1.48-1.73 0-3.02-1.03-3.02-2.67zm5.85-.83v-.82l-2.41.16c-1.36.09-1.96.56-1.96 1.46 0 .91.77 1.44 1.81 1.44 1.47 0 2.56-.96 2.56-2.24zm3.26-1.13c0-2.8 1.49-4.63 3.76-4.63 1.25 0 2.3.59 2.81 1.57h.12V14.5h1.43V27h-1.36v-1.43h-.13c-.56 1-1.63 1.59-2.86 1.59-2.3 0-3.77-1.82-3.77-4.63zm1.48 0c0 2.09.98 3.35 2.61 3.35s2.63-1.28 2.63-3.35c0-2.05-1.01-3.34-2.63-3.34-1.62-.01-2.61 1.25-2.61 3.34z" fill="#fff"/></svg>