<?xml version="1.0" encoding="UTF-8"?>
<svg width="16px" height="21px" viewBox="0 0 16 21" version="1.1" xmlns="http://www.w3.org/2000/svg" xmlns:xlink="http://www.w3.org/1999/xlink">
    <title>globalnav_netexy_image__small</title>
    <defs>
        <linearGradient x1="67.3645673%" y1="14.724758%" x2="100%" y2="85.275242%" id="linearGradient-1">
            <stop stop-color="#00C418" offset="0%"></stop>
            <stop stop-color="#6390CA" offset="100%"></stop>
        </linearGradient>
        <path d="M9.24266292,17.111137 L10.9366629,17.803137 L10.937574,21 L6.30766292,18.6197247 L9.24266292,17.111137 Z" id="path-2"></path>
        <path d="M10.937574,15.806327 L10.9367568,17.3704478 L9.24175677,16.6774478 L10.937574,15.806327 Z M4.70275677,11.9104478 L10.798208,15.044719 L8.33975677,16.3084478 L4.70275677,14.8204478 L4.70275677,11.9104478 Z" id="path-3"></path>
        <linearGradient x1="50%" y1="0%" x2="50%" y2="100%" id="linearGradient-4">
            <stop stop-color="#6DD400" offset="0%"></stop>
            <stop stop-color="#F7B500" offset="100%"></stop>
        </linearGradient>
        <path d="M5.00895366,-5.77315973e-14 L9.64298162,2.37726591 L6.49195366,3.993 L5.00895366,3.319 L5.00895366,-5.77315973e-14 Z" id="path-5"></path>
        <path d="M5.00895366,-5.77315973e-14 L9.64298162,2.37726591 L6.49195366,3.993 L5.00895366,3.319 L5.00895366,-5.77315973e-14 Z" id="path-6"></path>
    </defs>
    <g id="Page-1" stroke="none" stroke-width="1" fill="none" fill-rule="evenodd">
        <g id="globalnav_netexy_image__small" fill-rule="nonzero">
            <polygon id="Triangle" transform="translate(7.741589, 5.753056) scale(-1, 1) rotate(90.000000) translate(-7.741589, -5.753056) " points="7.74158874 2.71422365 10.861798 8.79188758 4.62137952 8.79188758"></polygon>
            <polygon id="Triangle" fill="#F0B824" transform="translate(8.210483, 5.969343) scale(-1, 1) rotate(90.000000) translate(-8.210483, -5.969343) " points="8.21048288 2.93051106 11.3306921 9.00817499 5.09027366 9.00817499"></polygon>
            <path d="M9.24266292,17.111137 L10.9366629,17.803137 L10.937574,21 L6.30766292,18.6197247 L9.24266292,17.111137 Z" id="Oval-2" fill="url(#linearGradient-1)"></path>
            <g id="Oval-2" style="mix-blend-mode: soft-light;">
                <use fill="url(#linearGradient-1)" xlink:href="#path-2"></use>
                <use fill="#FFFFFF" xlink:href="#path-2"></use>
            </g>
            <path d="M4.70275677,14.8215958 L8.33875677,16.3085958 L4.70275677,18.1789902 L4.70275677,14.8215958 Z" id="Oval-2" fill="#19A239"></path>
            <g id="Oval-2">
                <use fill="#FFFFFF" xlink:href="#path-3"></use>
                <use fill="#000000" xlink:href="#path-3"></use>
            </g>
            <polygon id="Triangle-2" fill="#009925" points="4.70275677 11.9104478 10.798208 15.044719 4.70275677 18.1789902"></polygon>
            <path d="M10.937574,15.806327 L10.9370503,17.370327 L9.24205029,16.677327 L10.937574,15.806327 Z" id="Oval-2" fill="#19A239"></path>
            <path d="M7.3499482,4.84755834 L11.2489482,6.61955834 L11.2493148,9.08955224 L5.16479235,5.96934302 L7.3499482,4.84755834 Z M5.0089482,3.78355834 L6.4909482,4.45755834 L5.00895314,5.21800487 L5.0089482,3.78355834 Z" id="Oval-2" fill="#F0B824"></path>
            <path d="M11.2493148,2.84913381 L11.2490827,6.61913381 L7.36808273,4.85513381 L11.2493148,2.84913381 Z" id="Oval-2" fill="#F0B824"></path>
            <g id="Oval-2">
                <use fill="#FFFFFF" xlink:href="#path-5"></use>
                <use fill="url(#linearGradient-4)" xlink:href="#path-5"></use>
            </g>
            <g id="Oval-2" style="mix-blend-mode: soft-light;">
                <use fill="url(#linearGradient-4)" xlink:href="#path-6"></use>
                <use fill="#FFFFFF" xlink:href="#path-6"></use>
            </g>
            <path d="M3.80201215,15.0138138 L3.80195681,18.5964229 L3.74495681,18.5964229 L0.350576592,16.8204009 L3.80201215,15.0138138 Z M12.2074112,15.0138141 L15.6588467,16.8204012 L12.2639568,18.5964229 L12.2069568,18.5964229 L12.2074112,15.0138141 Z M0.0613858121,12.9175811 L3.51282137,14.7241682 L0.0613858121,16.5307554 L0.0613858121,12.9175811 Z M15.9480386,12.9175817 L15.9480386,16.5307559 L12.496603,14.7241688 L15.9480386,12.9175817 Z M12.2074118,10.821351 L15.6588473,12.6279382 L12.2074118,14.4345253 L12.2074118,10.821351 Z M3.80201153,10.8213508 L3.80201153,14.434525 L0.350576067,12.6279379 L3.80201153,10.8213508 Z M11.8538085,10.8382083 L11.8538085,14.4302528 L8.39201215,12.6342305 L11.8538085,10.8382083 Z M15.948038,8.72511862 L15.9479568,10.4474229 L14.9757302,10.4469851 L14.9757302,10.5519851 L15.9479568,10.5514229 L15.948038,12.3382929 L12.4966025,10.5317058 L15.948038,8.72511862 Z M0.0519568101,8.73493533 L3.52224998,10.5317054 L0.0519568101,12.3284755 L0.0519568101,10.5514229 L1.07973024,10.5519851 L1.07973024,10.4469851 L0.0519568101,10.4474229 L0.0519568101,8.73493533 Z M8.10451255,8.73568453 L11.5663089,10.5317068 L8.10451255,12.3277291 L8.10451255,8.73568453 Z M7.82880886,8.73568425 L7.82880886,12.3277288 L4.36701253,10.5317065 L7.82880886,8.73568425 Z M12.2074113,6.62888702 L15.6588468,8.4354742 L12.2074113,10.2420613 L12.2074113,6.62888702 Z M3.81144108,6.63870355 L3.81144108,10.2322437 L0.341147908,8.43547367 L3.81144108,6.63870355 Z M4.07951301,6.63315949 L7.54130934,8.42918175 L4.07951301,10.2252041 L4.07951301,6.63315949 Z M15.9480385,4.53265456 L15.9480385,8.14582887 L12.496603,6.33924179 L15.9480385,4.53265456 Z M0.0519568101,4.54247177 L3.52224998,6.33924188 L0.0519568101,8.13601196 L0.0519568101,4.54247177 Z M12.2074108,2.43642292 L15.6588464,4.24301015 L12.2074108,6.04959723 L12.2074108,2.43642292 Z M3.81144108,2.44624 L3.81144108,6.03978019 L0.341147908,4.2430101 L3.81144108,2.44624 Z" id="netexy-icon" fill="#FFFFFF"></path>
            <path d="M3.85396946,14.9277239 L3.85396946,18.6491543 L3.73202119,18.6491543 L0.238042572,16.8204021 L3.85396946,14.9277239 Z M12.1553988,18.6491543 L12.1554557,14.927725 L15.7713654,16.820403 L12.2773266,18.6491543 L12.1553988,18.6491543 Z M3.74997279,15.0999403 L0.463081066,16.8202687 L3.74997279,18.5407015 L3.74997279,15.0999403 Z M12.2593552,15.0999403 L12.2592513,18.5407015 L15.546247,16.8202687 L12.2593552,15.0999403 Z M15.9999954,12.8314919 L15.9999954,16.6168457 L12.3840876,14.7241688 L15.9999954,12.8314919 Z M0.00941639309,16.616845 L0.00941639309,12.8314913 L3.62533692,14.7241682 L0.00941639309,16.616845 Z M15.8960202,13.0037015 L12.6091285,14.7241343 L15.8960202,16.4445672 L15.8960202,13.0037015 Z M0.11330782,13.0037015 L0.11330782,16.4445672 L3.40019954,14.7241343 L0.11330782,13.0037015 Z M3.85396834,10.735261 L3.85396834,14.5206148 L0.238060677,12.6279379 L3.85396834,10.735261 Z M12.1554549,14.5206151 L12.1554549,10.7352612 L15.7713627,12.6279382 L12.1554549,14.5206151 Z M11.9057653,10.7524688 L11.9057653,14.5159922 L8.278708,12.6342305 L11.9057653,10.7524688 Z M3.74997279,10.9074627 L0.463081066,12.6278955 L3.74997279,14.3483284 L3.74997279,10.9074627 Z M12.2593552,10.9074627 L12.2593552,14.3483284 L15.546247,12.6278955 L12.2593552,10.9074627 Z M11.8018236,10.9238657 L8.50516396,12.6341642 L11.8018236,14.3444627 L11.8018236,10.9238657 Z M12.3840871,10.5317058 L16,8.63902613 L16,12.4243853 L12.3840871,10.5317058 Z M0,12.414135 L0,8.64927584 L3.63573646,10.5317054 L0,12.414135 Z M7.88076567,8.64994484 L7.88076567,12.4134682 L4.25370837,10.5317065 L7.88076567,8.64994484 Z M8.05255574,12.4134685 L8.05255574,8.64994512 L11.679613,10.5317068 L8.05255574,12.4134685 Z M15.8960202,8.81122388 L12.6091285,10.5316567 L15.8960202,12.2520896 L15.8959163,10.6043731 L14.9246357,10.6044829 L14.9246357,10.3955277 L15.8959163,10.3954179 L15.8960202,8.81122388 Z M0.103851681,8.82052239 L0.103851681,10.3954179 L1.13259652,10.3955274 L1.13259652,10.6044826 L0.103851681,10.6043731 L0.103851681,12.242791 L3.40872046,10.5316567 L0.103851681,8.82052239 Z M8.15642985,8.82135821 L8.15642985,12.2419552 L11.4530895,10.5316567 L8.15642985,8.82135821 Z M7.7768334,8.82135821 L4.4801738,10.5316567 L7.7768334,12.2419552 L7.7768334,8.82135821 Z M12.1554545,10.3281511 L12.1554545,6.54279723 L15.7713622,8.4354742 L12.1554545,10.3281511 Z M3.86339789,6.55304406 L3.86339789,10.3179032 L0.227661422,8.43547367 L3.86339789,6.55304406 Z M4.0275562,10.3109435 L4.0275562,6.54742008 L7.6546135,8.42918175 L4.0275562,10.3109435 Z M12.2593552,6.71498507 L12.2593552,10.1558507 L15.546247,8.43541791 L12.2593552,6.71498507 Z M3.75942893,6.72428358 L0.454560149,8.43541791 L3.75942893,10.1465522 L3.75942893,6.72428358 Z M4.13143969,6.71885075 L4.13143969,10.1394478 L7.42799537,8.42914925 L4.13143969,6.71885075 Z M15.9999953,4.44656477 L15.9999953,8.23191866 L12.3840876,6.33924179 L15.9999953,4.44656477 Z M0,8.22167145 L0,4.45681228 L3.63573646,6.33924188 L0,8.22167145 Z M15.8960202,4.61874627 L12.6091285,6.3391791 L15.8960202,8.05961194 L15.8960202,4.61874627 Z M0.103851681,4.62804478 L0.103851681,8.05031343 L3.40872046,6.3391791 L0.103851681,4.62804478 Z M12.155454,6.13568702 L12.155454,2.35033313 L15.7713618,4.24301015 L12.155454,6.13568702 Z M3.86339789,2.3605805 L3.86339789,6.12543969 L0.227661423,4.2430101 L3.86339789,2.3605805 Z M12.2593552,2.52250746 L12.2593552,5.96337313 L15.546247,4.2429403 L12.2593552,2.52250746 Z M3.75942893,2.53180597 L0.454560149,4.2429403 L3.75942893,5.95407463 L3.75942893,2.53180597 Z" id="netexy-icon" fill="#FFFFFF"></path>
        </g>
    </g>
</svg>