<svg xmlns="http://www.w3.org/2000/svg" viewBox="0 0 13 64">
  <defs>
    <style>
      .a {
        fill: none;
      }

      .b {
        fill: #86868b;
      }

      .c {
        fill: #06c;
      }
    </style>
  </defs>
  <title>suggestions_large</title>
  <g>
    <rect class="a" width="13" height="64"/>
    <path class="b" d="M12.826,21.546,9.4,18.12A5.279,5.279,0,1,0,5.3,20.1h0a5.248,5.248,0,0,0,3.32-1.2l3.426,3.426a.55.55,0,1,0,.813-.741q-.017-.019-.036-.036ZM1.1,14.8A4.2,4.2,0,1,1,5.3,19,4.2,4.2,0,0,1,1.1,14.8Z"/>
    <path class="c" d="M12.826,53.546,9.4,50.12A5.279,5.279,0,1,0,5.3,52.1h0a5.248,5.248,0,0,0,3.32-1.2l3.426,3.426a.55.55,0,0,0,.813-.741q-.017-.019-.036-.036ZM1.1,46.8A4.2,4.2,0,1,1,5.3,51,4.2,4.2,0,0,1,1.1,46.8Z"/>
  </g>
</svg>
