<svg enable-background="new 0 0 318 366" height="366" viewBox="0 0 318 366" width="318" xmlns="http://www.w3.org/2000/svg"><path d="m0 0h318v366h-318z" fill="none"/><path d="m306.17 360.26c-3.61 0-28-4.9-37.03-5.35s-101.6-19.61-108.37-20.06-29.35-3.57-43.8-4.46-75.86-10.7-81.28-11.59-11.74-10.7-11.74-10.7-4.97-67.3-4.06-73.09-4.52-95.38-3.61-99.39c.9-4.01.45-64.63.45-73.54s-3.16-33.87-4.06-36.1-2.71-24.51-2.71-24.51l-9.96 2.55v361.98h317.27c-3.28-2.97-8.69-5.74-11.1-5.74z" fill="#ef222a"/></svg>