<svg enable-background="new 0 0 375 653" height="653" viewBox="0 0 375 653" width="375" xmlns="http://www.w3.org/2000/svg"><path d="m0 0h375v653h-375z" fill="none"/><path d="m375 15.9c-.94-.06-1.69-.09-2.24-.09-7.55 0-29.72-1.89-29.72-1.89s-45.28-8.49-50-8.96-45.28-4.72-51.42-3.77-37.26.47-42.45.94c-5.18.47-126.88 3.3-130.66 1.89-3.77-1.42-38.68-4.25-50-2.83-4.55.57-11.38.83-18.51.94v382.31c.36.08.72.16 1.06.24 17.92 4.25 29.72 5.19 38.68 7.55s26.89 5.66 26.89 5.66l24.53 7.08s102.83 16.04 129.25 15.57 114.15 5.66 114.15 5.66l14.15 4.25s2.83 5.19 4.72 18.4 5.66 58.02 5.66 58.02-1.42 21.7-.47 27.83c.94 6.13 2.83 33.02 2.83 37.74s4.72 26.42 5.19 32.08 1.89 33.96 1.89 36.32-4.25 10.85 5.19 11.32c.41.02.85.04 1.3.07v-636.33z" fill="#148d45"/></svg>