<svg enable-background="new 0 0 816 351" height="351" viewBox="0 0 816 351" width="816" xmlns="http://www.w3.org/2000/svg"><path d="m816 30.56v312.93c-23.51-1.7-46.28 2.17-73.23-4.99-10.34-2.74-30.1-10.29-36.91-12.14-38.57-10.49-149.88-33.14-153.18-33.14s-112.41 30.92-112.41 30.92l-112.95-15.46s-248.5 32.03-270.54 36.45c-10.71 2.15-33.39 4.03-56.78 4.9v-346.99c13.35-.91 26.51-1.52 36.94-1.95 26.45-1.11 57.31 8.83 63.92 9.94 6.61 1.1 60.06 3.31 64.47 3.31 4.4 0 96.42 6.07 110.75 7.18s54.55 1.66 84.86.56c30.3-1.1 70.53-2.21 77.14-3.32 6.61-1.1 81.54-4.97 111.3-7.18 29.75-2.21 46.84 1.65 62.26 1.65 15.43 0 99.18 7.74 99.18 7.74s48.65 4.34 54.54 4.97c9.8 1.03 30.92 2.91 50.64 4.62z" fill="#148d45"/><path d="m0 0h816v351h-816z" fill="none"/></svg>