<svg enable-background="new 0 0 424 492" height="492" viewBox="0 0 424 492" width="424" xmlns="http://www.w3.org/2000/svg"><path d="m0 0h424v492h-424z" fill="none"/><path d="m423 2v483.6c-11.02 1.22-21.89 2.44-24.73 2.84-6.26.89-37.56 1.78-37.56 1.78l-60.36-5.76-66.62.45-41.59-1.77s-9.39-13.29-9.39-14.62c0-1.32-6.71-13.29-6.71-13.29s-8.5-14.18-13.86-15.51-32.2-3.99-38.01-4.43c-5.82-.44-64.84 3.54-97.93-.89-10.3-1.38-15.54-1.9-17.99-2.03-.1-.06-.21-.12-.34-.18-4.47-2.21-8.49-19.93-6.71-20.38 1.79-.45 10.29-1.33 22.8-.45 12.52.89 28.62.45 36.22-.45 7.6-.88 104.64-3.98 107.32-3.98s80.04.45 95.69-1.33c15.65-1.77 63.49.45 73.78 1.33s44.27-7.98 44.27-7.98 0 0 4.03-7.98c4.03-7.97 5.36-54.04 3.13-77.08s2.68-41.64 2.68-63.79 3.13-29.24 4.92-40.32c1.79-11.07 3.58-48.29 3.58-48.29s5.36-114.74 5.36-116.51c0-1.78 1.78-10.64 3.58-19.94 1.79-9.3 2.23-11.96 2.23-11.96s8.49-6.65 10.29-9.31c.34-.49 1.03-1.11 1.92-1.77z" fill="#f0232a"/></svg>