<svg xmlns="http://www.w3.org/2000/svg" viewBox="0 0 36 56">
	<path fill="#86868b" d="M23.6,23.883a3.383,3.383,0,0,0-1.568,2.822A3.222,3.222,0,0,0,24,29.689a6.884,6.884,0,0,1-1.008,2.1c-.624.9-1.312,1.812-2.3,1.812-1.008,0-1.248-.593-2.416-.593-1.12,0-1.52.609-2.432.609-.928,0-1.568-.834-2.3-1.876A9.18,9.18,0,0,1,12,26.85c0-2.87,1.872-4.394,3.7-4.394.992,0,1.792.641,2.4.641.592,0,1.488-.674,2.592-.674A3.415,3.415,0,0,1,23.6,23.883Zm-5.424-1.62c-.08,0-.144-.016-.208-.016,0-.048-.016-.16-.016-.273a3.287,3.287,0,0,1,.816-2,3.186,3.186,0,0,1,2.16-1.123,1.563,1.563,0,0,1,.016.289,3.387,3.387,0,0,1-.768,2.069A2.86,2.86,0,0,1,18.176,22.264Z"/>
	<path fill="#86868b" d="M18,51.016a1.977,1.977,0,0,1-1.708-.96l-2.874-4.044H7a7.012,7.012,0,0,1-7-7V16.988A7,7,0,0,1,7,10H29a7,7,0,0,1,7,6.992V39.011a7.008,7.008,0,0,1-7,7l-6.473.085-2.819,3.959A1.977,1.977,0,0,1,18,51.016Zm-2.874-6.045L18,49.016l.054-.085,2.819-3.959a2,2,0,0,1,1.708-.959H29a5.006,5.006,0,0,0,5-5V16.992a5.01,5.01,0,0,0-5-5H7a5.006,5.006,0,0,0-5,5v22.02a5.009,5.009,0,0,0,5,5h6.415A2,2,0,0,1,15.126,44.971Z"/>
</svg>
