<?xml version="1.0" encoding="UTF-8" standalone="no"?>
<svg width="33px" height="37px" viewBox="0 0 33 37" version="1.1" xmlns="http://www.w3.org/2000/svg" xmlns:xlink="http://www.w3.org/1999/xlink">
    <!-- Generator: Sketch 39.1 (31720) - http://www.bohemiancoding.com/sketch -->
    <title>Z</title>
    <desc>Created with Sketch.</desc>
    <defs></defs>
    <g id="Rock-it_Main" stroke="none" stroke-width="1" fill="none" fill-rule="evenodd">
        <g id="Mobile-Portrait-Copy-2" transform="translate(-27.000000, -22.000000)" fill="#FFFFFF">
            <path d="M36.8370427,47.6372784 C37.0326929,46.7764175 37.6979036,46.6198974 38.0109439,46.1503369 C39.106585,44.311225 40.8283068,43.0199337 42.1587281,41.3764721 C44.6630506,38.363459 47.8325838,36.0156567 50.8064668,33.5504642 C52.5673186,32.1026527 54.4064304,30.6157112 56.7151028,29.9505005 C57.2237933,29.7939804 57.4977036,29.4809401 57.3803134,28.9331195 C57.1455332,27.3679179 55.8542419,26.389667 55.0716411,25.1375057 C54.915121,24.8635954 54.5629506,25.0983757 54.3281704,25.3331559 C53.7412198,25.9592365 53.0760091,26.5853172 52.1760182,26.7027073 C51.0803771,26.8592274 49.984736,27.0157476 48.8890949,27.0157476 C46.6978127,27.0940077 44.5065305,27.446178 42.3152483,27.6418282 C38.9500649,27.9157385 35.6631415,29.2852899 32.180568,28.5809492 C32.2588281,29.7939804 32.8849087,30.7722314 33.3153392,31.8287424 C33.5501194,32.415693 33.8631597,32.6113432 34.4501103,32.5722132 C35.7414016,32.4939531 37.0326929,32.415693 38.2457241,32.0243926 C40.4761364,31.3200519 42.7848087,31.2026618 45.015221,30.4983211 C45.2891313,30.420061 45.6021716,30.420061 45.7586917,30.7722314 C45.4847814,31.437442 45.054351,32.0635227 44.5456605,32.6113432 C43.1761091,34.1374148 41.6109075,35.5069662 40.2413562,37.0721677 C36.8370427,40.9851717 32.6892585,44.272095 29.9110257,48.7720495 C29.206685,49.9068207 28.0719139,50.1807309 26.8588827,49.8676906 C26.2719321,49.7111705 25.7241115,49.7894306 25.176291,49.8285606 C24.2763001,49.9068207 24.19804,50.1416009 24.4328202,50.8850717 C24.6284704,51.4720223 25.8806317,51.9807128 24.6676005,52.8024436 C24.6284704,52.8024436 24.7067305,53.0372238 24.7849906,53.1154839 C25.9197617,54.3676452 27.0154028,55.6589365 28.9327748,55.6198064 C29.6371155,55.6198064 30.4197163,55.228506 31.0457969,55.9328467 C31.2414471,56.0893669 31.5544874,55.9719768 31.6718775,55.7763266 C32.7675186,53.8980847 34.8022807,53.4676543 36.6022625,52.7633136 C41.9239479,50.7676815 47.5978036,50.4155112 53.1542692,49.6720404 C55.0325111,49.4372602 56.7933629,49.20248 58.4368245,48.1459689 C58.1629142,46.8938076 57.3411834,46.4242472 56.0890221,46.267727 C54.7586008,46.1112068 53.4673095,46.0720768 52.1368882,46.1112068 C51.3151573,46.1503369 50.6108166,46.6981574 49.7499557,46.6198974 C47.7934538,46.4242472 45.8760818,47.1285879 43.8804498,47.1285879 C41.5717775,47.1677179 39.3022352,47.8329286 36.8370427,47.6372784 L36.8370427,47.6372784 Z" id="Z" transform="translate(41.378298, 40.509765) rotate(-13.000000) translate(-41.378298, -40.509765) "></path>
        </g>
    </g>
</svg>