<?xml version="1.0" standalone="no"?>
<!DOCTYPE svg PUBLIC "-//W3C//DTD SVG 20010904//EN"
 "http://www.w3.org/TR/2001/REC-SVG-20010904/DTD/svg10.dtd">
<svg version="1.0" xmlns="http://www.w3.org/2000/svg"
 width="1110.000000pt" height="1110.000000pt" viewBox="0 0 1110.000000 1110.000000"
 preserveAspectRatio="xMidYMid meet">
<metadata>
Created by potrace 1.14, written by Peter Selinger 2001-2017
</metadata>
<g transform="translate(0.000000,1110.000000) scale(0.100000,-0.100000)"
fill="#000000" stroke="none">
<path d="M4195 9710 c0 -525 4 -793 10 -799 6 -6 116 -58 245 -116 129 -58
258 -116 285 -129 28 -13 78 -36 113 -51 l63 -28 282 143 c155 80 399 204 542
277 143 73 356 181 472 240 117 60 212 112 210 116 -1 5 -133 75 -292 156
-535 272 -989 503 -1150 586 -306 157 -773 395 -777 395 -1 0 -3 -355 -3 -790z"/>
<path d="M3570 9331 c-41 -21 -140 -72 -220 -113 -80 -41 -239 -124 -355 -183
-115 -59 -268 -138 -340 -175 -71 -37 -224 -116 -340 -175 -189 -97 -386 -199
-409 -213 -5 -2 20 -19 55 -36 35 -18 154 -79 264 -135 110 -57 274 -142 365
-189 91 -46 228 -117 305 -157 77 -40 244 -125 370 -190 127 -65 263 -135 303
-156 39 -20 73 -34 74 -31 1 6 5 1792 4 1792 -1 0 -35 -18 -76 -39z"/>
<path d="M7639 9368 c-7 -15 -2 -1798 5 -1798 5 0 41 17 80 39 39 21 139 73
221 116 83 43 204 106 270 140 66 34 183 95 260 135 77 40 185 96 240 125 55
29 159 83 230 120 335 174 401 209 413 218 10 8 1 16 -35 34 -45 23 -202 105
-448 233 -60 32 -168 88 -240 125 -71 37 -179 94 -240 125 -279 146 -352 184
-530 275 -104 54 -194 102 -199 106 -9 9 -25 12 -27 7z"/>
<path d="M7090 9082 c-313 -160 -686 -351 -1242 -636 -112 -57 -392 -199 -623
-316 -231 -117 -474 -241 -540 -275 -66 -34 -184 -95 -262 -134 -79 -40 -143
-75 -143 -79 1 -4 24 -18 53 -32 76 -37 811 -412 952 -485 66 -34 273 -140
460 -235 187 -95 421 -214 520 -265 99 -51 342 -174 540 -275 198 -101 366
-187 373 -193 7 -5 15 -8 17 -5 3 3 4 675 3 1494 l-3 1489 -105 -53z"/>
<path d="M4199 8677 c-4 -65 -2 -651 2 -659 4 -6 154 65 357 168 193 99 349
180 348 182 -16 15 -706 317 -707 309z"/>
<path d="M9408 8332 c-40 -22 -145 -76 -233 -122 -88 -46 -196 -102 -240 -125
-44 -23 -168 -88 -275 -143 -107 -55 -215 -112 -240 -126 -25 -14 -52 -28 -60
-32 -18 -7 -18 -7 -160 -81 -63 -33 -191 -100 -283 -148 -93 -48 -167 -88
-165 -90 2 -2 46 -25 98 -53 394 -205 785 -409 970 -505 52 -27 127 -66 165
-86 247 -130 484 -251 492 -251 5 0 9 374 9 900 0 495 -1 900 -2 900 -1 0 -35
-17 -76 -38z"/>
<path d="M1789 8328 c-3 -127 0 -1750 3 -1754 4 -4 39 13 353 176 94 48 265
136 380 195 116 59 264 135 330 170 66 34 206 106 310 160 105 54 230 118 278
143 48 25 84 49 80 53 -4 4 -84 46 -178 94 -227 117 -487 251 -670 345 -82 43
-231 119 -330 170 -159 82 -444 230 -515 267 -36 19 -40 17 -41 -19z"/>
<path d="M3475 7276 c-88 -45 -243 -125 -345 -178 -102 -52 -284 -146 -405
-209 -121 -62 -301 -155 -400 -206 -99 -51 -235 -121 -302 -155 -68 -34 -119
-65 -115 -69 4 -3 90 -49 192 -101 102 -53 266 -137 365 -188 99 -51 263 -135
365 -188 102 -52 244 -125 315 -162 292 -152 486 -250 493 -250 9 0 10 1775 2
1783 -3 3 -77 -32 -165 -77z"/>
<path d="M3725 6465 c0 -492 2 -895 4 -895 6 0 383 193 586 300 50 26 185 96
300 155 116 59 273 140 350 180 77 40 221 114 320 165 99 51 181 93 182 95 2
1 -70 39 -160 85 -89 45 -198 102 -242 125 -44 23 -165 86 -270 140 -352 181
-812 418 -963 497 -52 26 -97 48 -100 48 -4 0 -7 -403 -7 -895z"/>
<path d="M7636 6467 c1 -490 2 -896 3 -900 0 -4 72 29 159 74 86 45 213 111
282 147 69 35 166 86 215 112 50 26 158 82 240 125 83 43 191 99 240 125 82
43 230 120 485 252 52 28 98 53 102 56 8 8 -19 23 -272 154 -85 44 -204 106
-265 138 -60 32 -173 90 -250 130 -77 40 -180 94 -230 120 -49 26 -157 82
-240 125 -82 43 -218 113 -301 156 -84 44 -156 79 -160 79 -5 0 -8 -395 -8
-893z"/>
<path d="M1789 6327 c-2 -119 -3 -1767 -1 -1767 1 0 71 35 155 79 382 198 971
501 1382 711 113 58 205 107 205 110 0 3 -78 44 -173 93 -94 48 -251 128 -347
178 -96 50 -290 149 -430 221 -140 72 -304 156 -365 188 -60 32 -181 94 -267
139 l-158 81 -1 -33z"/>
<path d="M5465 6302 c-60 -32 -221 -115 -356 -184 -135 -70 -302 -156 -370
-191 -68 -35 -205 -106 -304 -157 -99 -51 -247 -128 -330 -171 -82 -43 -176
-91 -208 -107 -45 -22 -55 -31 -45 -39 7 -6 112 -61 233 -123 121 -62 261
-134 310 -160 50 -26 185 -96 300 -155 116 -59 269 -138 340 -175 72 -37 223
-116 338 -174 l207 -107 0 900 c0 496 -1 901 -2 901 -2 0 -52 -26 -113 -58z"/>
<path d="M5661 5460 l0 -901 217 112 c279 144 515 265 672 347 202 104 503
259 682 351 93 47 168 89 168 92 0 3 -19 14 -42 25 -43 20 -314 159 -503 259
-55 29 -203 105 -330 170 -126 65 -279 143 -340 175 -60 31 -203 105 -317 164
l-207 107 0 -901z"/>
<path d="M9310 6274 c-91 -47 -230 -119 -310 -161 -80 -42 -194 -102 -255
-133 -60 -32 -166 -87 -235 -123 -127 -66 -196 -102 -515 -266 -99 -52 -195
-102 -213 -113 l-32 -20 67 -35 c38 -19 124 -64 193 -100 206 -108 337 -176
485 -253 77 -40 185 -96 240 -125 178 -93 327 -171 490 -255 88 -46 179 -93
203 -106 23 -13 46 -24 50 -24 4 0 8 405 8 900 0 495 -3 900 -6 900 -3 0 -79
-39 -170 -86z"/>
<path d="M3615 5351 c-6 -5 -77 -43 -160 -86 -82 -43 -195 -101 -250 -130 -55
-29 -163 -85 -240 -125 -77 -40 -185 -96 -240 -125 -145 -76 -328 -171 -510
-265 -246 -126 -307 -162 -298 -170 4 -4 89 -49 188 -100 99 -51 227 -118 285
-148 58 -30 161 -84 230 -119 69 -36 179 -93 245 -128 157 -81 315 -164 500
-260 83 -43 178 -93 213 -111 l62 -34 1 38 c0 49 0 1686 0 1735 -1 37 -8 45
-26 28z"/>
<path d="M7635 4460 c0 -806 2 -900 15 -900 9 0 20 4 25 9 6 4 82 46 170 91
161 83 297 154 500 260 61 32 178 92 260 135 83 43 186 97 230 120 94 50 312
163 443 230 52 26 90 51 85 55 -4 4 -66 38 -138 75 -71 37 -175 91 -230 120
-55 29 -161 84 -235 122 -74 39 -191 100 -260 136 -69 35 -179 93 -245 127
-66 34 -165 86 -220 115 -185 97 -394 205 -397 205 -2 0 -3 -405 -3 -900z"/>
<path d="M7345 5266 c-88 -45 -245 -127 -350 -181 -104 -53 -262 -135 -350
-180 -88 -46 -227 -118 -310 -160 -82 -43 -240 -124 -350 -180 -110 -57 -201
-107 -202 -112 -2 -4 14 -16 35 -25 20 -9 116 -58 212 -108 96 -50 265 -138
375 -194 560 -289 607 -313 995 -513 l115 -60 0 898 c0 495 -2 899 -5 899 -3
-1 -77 -38 -165 -84z"/>
<path d="M4050 3300 l0 -1501 348 177 c191 97 419 214 507 259 156 81 302 155
905 463 162 83 401 205 530 271 129 66 326 167 437 223 112 57 203 105 203
108 0 3 -87 49 -193 103 -105 53 -309 157 -452 230 -143 73 -395 202 -560 286
-165 85 -385 197 -490 251 -315 161 -624 319 -937 479 l-298 152 0 -1501z"/>
<path d="M1790 3455 c0 -498 1 -905 3 -905 3 0 184 92 277 142 47 25 157 82
245 128 88 46 196 102 240 125 44 23 141 74 215 112 395 205 612 318 713 371
26 14 46 26 45 27 -2 1 -66 35 -143 75 -77 40 -189 99 -250 130 -154 80 -561
292 -740 385 -143 74 -219 114 -487 254 l-118 61 0 -905z"/>
<path d="M9350 4289 c-63 -33 -185 -97 -270 -141 -85 -44 -200 -104 -255 -133
-55 -29 -170 -88 -255 -133 -85 -44 -191 -99 -235 -122 -44 -23 -161 -84 -260
-135 -341 -177 -325 -168 -307 -180 18 -12 161 -88 417 -220 83 -43 182 -94
220 -115 39 -20 147 -77 240 -125 94 -48 206 -107 250 -130 44 -23 152 -80
240 -125 88 -45 201 -104 252 -131 50 -27 93 -49 95 -49 2 0 4 405 4 900 0
617 -3 900 -11 900 -5 0 -62 -28 -125 -61z"/>
<path d="M3555 3312 c-38 -21 -151 -80 -250 -131 -99 -52 -225 -117 -280 -146
-96 -50 -159 -83 -510 -266 -88 -45 -214 -111 -280 -146 -66 -34 -166 -86
-222 -115 -57 -29 -103 -55 -103 -58 0 -5 57 -35 410 -217 102 -53 226 -117
275 -143 155 -82 274 -144 460 -240 99 -52 257 -134 350 -183 163 -85 219
-106 231 -85 3 5 6 393 6 861 -1 997 0 907 -9 907 -5 0 -39 -17 -78 -38z"/>
<path d="M7636 2468 c1 -486 2 -886 3 -889 0 -4 14 -5 30 -4 29 2 198 87 736
370 55 29 172 90 260 135 88 45 196 102 240 125 44 23 159 83 255 133 96 50
183 97 192 104 16 12 4 20 -105 76 -67 34 -183 94 -257 133 -174 91 -425 221
-565 294 -374 194 -594 309 -703 366 -41 22 -77 39 -80 39 -4 0 -6 -397 -6
-882z"/>
<path d="M6820 2820 c-118 -60 -297 -151 -397 -202 -101 -51 -183 -95 -183
-98 0 -3 12 -10 28 -16 15 -6 187 -76 382 -156 195 -80 365 -148 378 -152 l22
-7 0 370 c0 204 -3 371 -7 371 -5 -1 -105 -50 -223 -110z"/>
<path d="M6020 2204 c-113 -58 -347 -178 -520 -266 -571 -292 -670 -343 -670
-349 0 -4 78 -46 173 -94 94 -48 249 -127 342 -175 94 -48 283 -145 420 -215
138 -70 322 -165 410 -210 88 -45 321 -164 518 -264 l357 -182 -2 767 -3 768
-400 162 c-220 90 -404 163 -410 163 -5 0 -102 -47 -215 -105z"/>
</g>
</svg>
