<svg xmlns="http://www.w3.org/2000/svg" viewBox="0 0 23 23">
  <defs>
    <style>
      .a {
        fill: none;
      }

      .b {
        fill: #06c;
      }
    </style>
  </defs>
  <title>Gear_13px@1x</title>
  <g>
    <rect class="a" width="23" height="23"/>
    <path class="b" d="M19.306,11.117l-.794-.307a6.949,6.949,0,0,0-.184-1.052l.639-.558a.418.418,0,0,0-.266-.732L17.85,8.45c-.077-.16-.155-.32-.244-.475s-.19-.3-.29-.448l.411-.747a.418.418,0,0,0-.5-.6l-.806.275a6.986,6.986,0,0,0-.816-.683l.131-.845a.418.418,0,0,0-.675-.389l-.668.539a7.1,7.1,0,0,0-.993-.364l-.166-.843a.418.418,0,0,0-.767-.135l-.442.733a7.047,7.047,0,0,0-1.054.006l-.447-.741a.418.418,0,0,0-.767.136l-.166.848a6.983,6.983,0,0,0-.992.354L7.93,4.537a.418.418,0,0,0-.675.39l.133.845a7.034,7.034,0,0,0-.8.683l-.815-.28a.418.418,0,0,0-.5.6l.416.753a6.977,6.977,0,0,0-.532.915L4.3,8.456a.418.418,0,0,0-.267.732l.644.563A7.127,7.127,0,0,0,4.492,10.8l-.8.308a.417.417,0,0,0,0,.779l.794.307a6.948,6.948,0,0,0,.184,1.052l-.639.558a.418.418,0,0,0,.266.732l.851.017c.077.16.155.32.244.475s.2.294.295.439l-.416.756a.418.418,0,0,0,.5.6l.8-.273a6.974,6.974,0,0,0,.822.679l-.132.847a.418.418,0,0,0,.675.389l.672-.542a7.093,7.093,0,0,0,.988.364l.167.846a.418.418,0,0,0,.767.135l.449-.745c.176.013.352.034.529.034s.343-.02.515-.033l.45.746a.418.418,0,0,0,.767-.136l.165-.846a7.035,7.035,0,0,0,.983-.364l.677.546a.418.418,0,0,0,.675-.39l-.133-.845a7.03,7.03,0,0,0,.805-.683l.815.28a.417.417,0,0,0,.5-.6l-.416-.753a6.977,6.977,0,0,0,.532-.915l.853-.016a.418.418,0,0,0,.267-.732l-.644-.563a7.118,7.118,0,0,0,.182-1.046l.8-.308A.418.418,0,0,0,19.306,11.117ZM11.489,5.551a5.938,5.938,0,0,1,5.931,5.4H13.468A2,2,0,0,0,12.03,9.52a2.017,2.017,0,0,0-1.036,0L9.02,6.1A5.906,5.906,0,0,1,11.489,5.551ZM6.348,14.475A5.893,5.893,0,0,1,8.076,6.669l1.965,3.4a2.024,2.024,0,0,0-.316,2.453,2.057,2.057,0,0,0,.316.4L8.065,16.35A5.9,5.9,0,0,1,6.348,14.475Zm4.906-2.058A.95.95,0,0,1,11.5,10.55a.955.955,0,0,1,.247.033.95.95,0,0,1-.492,1.835ZM9.018,16.9l1.973-3.417a2.043,2.043,0,0,0,2.482-1.433H17.42a6.01,6.01,0,0,1-.173.99A5.941,5.941,0,0,1,9.018,16.9Z"/>
  </g>
</svg>
