<svg xmlns="http://www.w3.org/2000/svg" viewBox="0 0 23 23">
  <defs>
    <style>
      .a {
        fill: none;
      }

      .b {
        fill: #06c;
      }
    </style>
  </defs>
  <title>Bag_13px@1x</title>
  <g>
    <rect class="a" width="23" height="23"/>
    <path class="b" d="M15.952,5.643H14.779A3.373,3.373,0,0,0,11.5,2.667,3.373,3.373,0,0,0,8.221,5.643H7.048a2,2,0,0,0-2,2v8.309a2,2,0,0,0,2,2h8.9a2,2,0,0,0,2-2V7.643A2,2,0,0,0,15.952,5.643ZM11.5,3.667a2.372,2.372,0,0,1,2.279,1.977H9.221A2.372,2.372,0,0,1,11.5,3.667Zm5.452,12.286a1,1,0,0,1-1,1h-8.9a1,1,0,0,1-1-1V7.643a1,1,0,0,1,1-1h8.9a1,1,0,0,1,1,1Z"/>
  </g>
</svg>
