<svg xmlns="http://www.w3.org/2000/svg" viewBox="0 0 23 23">
  <defs>
    <style>
      .a {
        fill: none;
      }

      .b {
        fill: #06c;
      }
    </style>
  </defs>
  <title>Heart_13px@1x</title>
  <g>
    <rect class="a" width="23" height="23"/>
    <path class="b" d="M11.5,17.533a.9.9,0,0,1-.642-.266l-5.3-5.326A3.833,3.833,0,0,1,5.827,6.3a3.914,3.914,0,0,1,5.23.37l.442.444.442-.444a3.914,3.914,0,0,1,5.23-.37h0a3.834,3.834,0,0,1,.269,5.64l-5.3,5.326A.9.9,0,0,1,11.5,17.533ZM8.184,6.564a2.569,2.569,0,0,0-1.653.582,2.7,2.7,0,0,0-.978,1.967,2.735,2.735,0,0,0,.785,2.051L11.5,16.352l5.162-5.187a2.737,2.737,0,0,0,.785-2.051,2.7,2.7,0,0,0-.978-1.967,2.809,2.809,0,0,0-3.748.3l-.832.836a.567.567,0,0,1-.779,0l-.832-.836A2.97,2.97,0,0,0,8.184,6.564Z"/>
  </g>
</svg>
