<svg xmlns="http://www.w3.org/2000/svg" viewBox="0 0 23 23">
  <defs>
    <style>
      .a {
        fill: none;
      }

      .b {
        fill: #06c;
      }
    </style>
  </defs>
  <title>CubeBox_13px@1x</title>
  <g>
    <rect class="a" width="23" height="23"/>
    <path class="b" d="M18.077,6.924l-5.75-3.086a1.743,1.743,0,0,0-1.654,0L4.923,6.923A1.747,1.747,0,0,0,4,8.466v6.02a1.746,1.746,0,0,0,.923,1.542l5.75,3.086a1.732,1.732,0,0,0,.573.178.447.447,0,0,0,.508,0,1.732,1.732,0,0,0,.573-.178l5.75-3.086A1.747,1.747,0,0,0,19,14.485V8.466A1.746,1.746,0,0,0,18.077,6.924ZM11.146,4.718a.748.748,0,0,1,.709,0L17.4,7.694,14.99,9.051,9.1,5.818Zm.354,6.3L5.6,7.694,8.045,6.383l5.919,3.246ZM5.4,15.146a.748.748,0,0,1-.4-.661V8.5l6,3.381v6.272Zm12.209,0L12,18.155V11.883l3.224-1.817a.467.467,0,0,0,.045-.025L18,8.5v5.983A.749.749,0,0,1,17.6,15.146Z"/>
  </g>
</svg>
