<svg xmlns="http://www.w3.org/2000/svg" width="18" height="48" viewBox="0 0 18 48"><path d="M13.03 16.03C11.29 15.91 9.82 17 9 17c-.83 0-2.12-.94-3.48-.92-1.79.03-3.44 1.04-4.36 2.64C-.7 21.95.69 26.73 2.5 29.35c.89 1.28 1.94 2.72 3.33 2.67 1.34-.05 1.84-.86 3.46-.86 1.61 0 2.07.86 3.48.84 1.44-.03 2.35-1.31 3.23-2.59 1.02-1.48 1.44-2.92 1.46-3-.03-.01-2.8-1.07-2.83-4.27-.03-2.67 2.18-3.95 2.28-4.01-1.27-1.84-3.2-2.05-3.88-2.1m-1.07-1.72c.74-.89 1.23-2.13 1.1-3.37-1.06.04-2.34.71-3.11 1.6-.68.79-1.28 2.05-1.12 3.26 1.19.09 2.39-.6 3.13-1.49" fill="#fffffe"/></svg>