<svg xmlns="http://www.w3.org/2000/svg" viewBox="0 0 13 86">
  <defs>
    <style>
      .a {
        fill: none;
      }

      .b {
        fill: #6e6e73;
      }

      .c {
        fill: #2997ff;
      }
    </style>
  </defs>
  <title>suggestions_small</title>
  <g>
    <rect class="a" width="13" height="86"/>
    <path class="b" d="M12.826,27.536,9.4,24.11a5.279,5.279,0,1,0-4.1,1.98h0a5.248,5.248,0,0,0,3.32-1.2l3.426,3.426a.55.55,0,1,0,.813-.741q-.017-.019-.036-.036ZM1.1,20.789a4.2,4.2,0,1,1,4.2,4.2A4.2,4.2,0,0,1,1.1,20.789Z"/>
    <path class="c" d="M12.826,70.546,9.4,67.12A5.279,5.279,0,1,0,5.3,69.1h0a5.248,5.248,0,0,0,3.32-1.2l3.426,3.426a.55.55,0,0,0,.813-.741q-.017-.019-.036-.036ZM1.1,63.8A4.2,4.2,0,1,1,5.3,68,4.2,4.2,0,0,1,1.1,63.8Z"/>
  </g>
</svg>
