<svg xmlns="http://www.w3.org/2000/svg" width="46" height="43" viewBox="0 0 46 43"><path fill="none" d="M0 0h46v43H0z"/><path d="M12.03 27v-9.15h-.1l-3.78 9.06H6.9l-3.78-9.06h-.1V27h-1.4V15.02h1.73l4.1 9.91h.13l4.1-9.91h1.73V27h-1.38zm11.15 0h-1.36v-1.4h-.13c-.45 1-1.4 1.56-2.77 1.56-2.01 0-3.05-1.2-3.05-3.31v-5.79h1.43v5.45c0 1.61.6 2.36 2.03 2.36 1.58 0 2.44-.94 2.44-2.51v-5.3h1.43V27zm5.46-9.11c1.88 0 3.18.93 3.37 2.4H30.6c-.19-.71-.89-1.19-1.97-1.19-1.06 0-1.89.54-1.89 1.34 0 .61.5 1 1.55 1.25l1.38.33c1.69.41 2.5 1.14 2.5 2.42 0 1.6-1.55 2.71-3.59 2.71-1.99 0-3.36-.96-3.52-2.44h1.47c.24.76.95 1.24 2.1 1.24 1.2 0 2.07-.57 2.07-1.39 0-.61-.46-1.03-1.42-1.26l-1.54-.37c-1.68-.41-2.44-1.13-2.44-2.42.01-1.5 1.44-2.62 3.34-2.62zm5.17-2.65c0-.55.45-1 1-1s1 .45 1 1-.45 1-1 1-1-.45-1-1zm.28 2.81h1.43V27h-1.43v-8.95zm9.75 2.74c-.23-.89-1.02-1.61-2.31-1.61-1.61 0-2.62 1.29-2.62 3.31 0 2.07 1.03 3.38 2.62 3.38 1.2 0 2.04-.56 2.31-1.57h1.44c-.26 1.64-1.59 2.86-3.74 2.86-2.51 0-4.11-1.82-4.11-4.67 0-2.79 1.59-4.6 4.1-4.6 2.17 0 3.5 1.3 3.75 2.9h-1.44z" fill="#fff"/></svg>