<svg xmlns="http://www.w3.org/2000/svg" viewBox="0 0 15 16">
  <defs>
    <style>
      .a {
        fill: #86868b;
      }
    </style>
  </defs>
  <title>reset_small</title>
  <path class="a" d="M7.5.5A7.5,7.5,0,1,0,15,8,7.5,7.5,0,0,0,7.5.5Zm3.074,9.645a.689.689,0,0,1,.2.469.655.655,0,0,1-.656.656.642.642,0,0,1-.461-.2L7.5,8.91,5.34,11.074a.625.625,0,0,1-.461.2.655.655,0,0,1-.656-.656.608.608,0,0,1,.2-.453L6.574,8,4.418,5.832a.634.634,0,0,1-.2-.445.644.644,0,0,1,.656-.648.613.613,0,0,1,.445.188L7.5,7.09l2.18-2.164a.561.561,0,0,1,.445-.2.649.649,0,0,1,.656.648.587.587,0,0,1-.2.445L8.418,8Z"/>
</svg>
