<svg xmlns="http://www.w3.org/2000/svg" width="37" height="44" viewBox="0 0 37 44"><path d="M8.7 27v-7.53h-.08L5.5 26.93H4.47l-3.11-7.46h-.09V27H.12v-9.86h1.43l3.38 8.16h.11l3.38-8.16h1.43V27H8.7zm9.33.01h-1.12v-1.16h-.11c-.37.82-1.16 1.29-2.28 1.29-1.65 0-2.52-.98-2.52-2.73v-4.77h1.18v4.48c0 1.33.49 1.94 1.67 1.94 1.3 0 2.01-.77 2.01-2.06v-4.36h1.18v7.37zm4.65-7.5c1.54 0 2.62.77 2.78 1.98H24.3c-.16-.59-.73-.98-1.62-.98-.88 0-1.56.44-1.56 1.1 0 .51.41.82 1.28 1.03l1.13.27c1.39.33 2.06.94 2.06 2 0 1.32-1.28 2.23-2.95 2.23-1.64 0-2.77-.79-2.9-2.01h1.21c.2.62.79 1.02 1.73 1.02.99 0 1.7-.47 1.7-1.15 0-.51-.38-.85-1.17-1.04l-1.26-.31c-1.38-.33-2.01-.93-2.01-2 0-1.22 1.18-2.14 2.74-2.14zm4.41-2.2c0-.45.37-.82.82-.82s.82.37.82.82-.37.82-.82.82-.82-.37-.82-.82zm.23 2.32h1.18V27h-1.18v-7.37zm8.19 2.26c-.19-.73-.84-1.33-1.9-1.33-1.33 0-2.16 1.06-2.16 2.73 0 1.7.85 2.78 2.16 2.78.99 0 1.68-.46 1.9-1.29h1.19c-.21 1.35-1.31 2.35-3.08 2.35-2.06 0-3.38-1.5-3.38-3.84 0-2.3 1.31-3.79 3.38-3.79 1.79 0 2.88 1.07 3.09 2.39h-1.2z" fill="#fff"/><path fill="none" d="M0 0h37v44H0z"/></svg>