<svg xmlns="http://www.w3.org/2000/svg" width="27" height="44" viewBox="0 0 27 44"><path d="M.5 17.31c0-.45.37-.82.82-.82s.82.37.82.82-.37.82-.82.82-.82-.37-.82-.82zm.23 2.32h1.18V27H.73v-7.37zm7.16-2.49c1.87 0 3.16 1.31 3.16 3.19 0 1.85-1.32 3.15-3.17 3.15H5.39V27H4.16v-9.86h3.73zm-2.5 5.25h2.17c1.4 0 2.21-.75 2.21-2.06 0-1.35-.79-2.1-2.21-2.1H5.39v4.16zm6.66 2.55c0-1.32.97-2.08 2.69-2.18l2.13-.13v-.67c0-.91-.57-1.41-1.67-1.41-.88 0-1.5.33-1.66.92h-1.19c.16-1.18 1.32-1.96 2.89-1.96 1.8 0 2.8.92 2.8 2.45V27h-1.12v-1.09h-.11c-.48.79-1.29 1.22-2.27 1.22-1.43 0-2.49-.85-2.49-2.19zm4.82-.69v-.68l-1.98.13c-1.12.08-1.61.46-1.61 1.2 0 .75.64 1.19 1.49 1.19 1.2.01 2.1-.79 2.1-1.84zm2.84-.93c0-2.31 1.22-3.81 3.1-3.81 1.03 0 1.89.49 2.31 1.29h.1v-4.09h1.18V27h-1.12v-1.18h-.11c-.46.82-1.34 1.31-2.36 1.31-1.89 0-3.1-1.5-3.1-3.81zm1.21 0c0 1.72.81 2.75 2.15 2.75 1.34 0 2.17-1.05 2.17-2.75 0-1.69-.83-2.75-2.17-2.75-1.33-.01-2.15 1.03-2.15 2.75z" fill="#fff"/><path fill="none" d="M0 0h27v44H0z"/></svg>