<?xml version="1.0" encoding="utf-8"?>
<!-- Generator: Adobe Illustrator 21.1.0, SVG Export Plug-In . SVG Version: 6.00 Build 0)  -->
<svg version="1.1" xmlns="http://www.w3.org/2000/svg" xmlns:xlink="http://www.w3.org/1999/xlink" x="0px" y="0px" width="53px"
	 height="43px" viewBox="0 0 53 43" style="enable-background:new 0 0 53 43;" xml:space="preserve">
<g id="Assets_Small">
	<g id="iPhone_2_">
		<rect style="fill:none;" width="53" height="43"/>
		<path style="fill:#FFFFFF;" d="M1.53,15.24c0-0.55,0.45-1,1-1s1,0.45,1,1c0,0.55-0.45,1-1,1S1.53,15.79,1.53,15.24z M1.81,18.05
			h1.43V27H1.81V18.05z M10.31,15.02c2.27,0,3.83,1.59,3.83,3.88c0,2.24-1.6,3.83-3.85,3.83H7.28V27H5.78V15.02H10.31z M7.28,21.4
			h2.64c1.7,0,2.69-0.91,2.69-2.5c0-1.64-0.95-2.55-2.69-2.55H7.28V21.4z M16.13,14.5h1.43v4.96h0.13c0.45-0.99,1.39-1.57,2.76-1.57
			c1.89,0,3.09,1.21,3.09,3.31V27H22.1v-5.45c0-1.59-0.71-2.37-2.07-2.37c-1.6,0-2.48,1.01-2.48,2.52V27h-1.43V14.5z M25.33,22.53
			c0-2.88,1.58-4.63,4.13-4.63s4.13,1.75,4.13,4.63c0,2.87-1.58,4.63-4.13,4.63S25.33,25.4,25.33,22.53z M32.11,22.53
			c0-2.12-0.95-3.34-2.65-3.34s-2.65,1.22-2.65,3.34c0,2.12,0.95,3.35,2.65,3.35S32.11,24.64,32.11,22.53z M35.47,18.05h1.36v1.41
			h0.13c0.45-0.99,1.32-1.57,2.69-1.57c2.01,0,3.13,1.19,3.13,3.31V27h-1.43v-5.45c0-1.61-0.68-2.37-2.11-2.37s-2.35,0.95-2.35,2.52
			V27h-1.43V18.05z M52.63,24.63c-0.43,1.54-1.91,2.52-3.87,2.52c-2.48,0-4.03-1.79-4.03-4.62c0-2.81,1.58-4.64,4.03-4.64
			c2.42,0,3.83,1.72,3.83,4.5v0.55h-6.38v0.07c0.07,1.77,1.06,2.89,2.58,2.89c1.15,0,2.03-0.47,2.41-1.26H52.63z M46.22,21.79h4.93
			c-0.03-1.59-0.98-2.63-2.4-2.63C47.32,19.16,46.32,20.2,46.22,21.79z"/>
	</g>
</g>
<g id="Assets_Large">
</g>
</svg>
