<?xml version="1.0" standalone="no"?>
<!DOCTYPE svg PUBLIC "-//W3C//DTD SVG 1.1//EN" "http://www.w3.org/Graphics/SVG/1.1/DTD/svg11.dtd">
<svg xmlns="http://www.w3.org/2000/svg">
<defs >
<font id="Karla" horiz-adv-x="978" ><font-face
    font-family="Karla Light"
    units-per-em="2000"
    panose-1="2 11 0 4 3 5 3 3 0 3"
    ascent="1834"
    descent="-504"
    alphabetic="0" />
<glyph unicode=" " horiz-adv-x="413" />
<glyph unicode="!" horiz-adv-x="485" d="M233 306L306 1214H408L313 306H233ZM242 -18Q205 -18 184 9T165 69Q168 104 193 131T257 159Q294 159 315 133T332 69Q328 33 303 8T242 -18Z" />
<glyph unicode="&quot;" horiz-adv-x="474" d="M419 936L443 1357H557L501 936H419ZM150 936L174 1357H287L232 936H150Z" />
<glyph unicode="#" horiz-adv-x="1078" d="M258 60L311 347H122L139 430H326L399 808H208L222 886H413L466 1172H564L511 886H805L858 1172H953L900 886H1090L1078 808H885L813 430H1003L989 347H797L744 60H646L699 347H406L353 60H258ZM424 430H718L790 808H497L424
430Z" />
<glyph unicode="$" horiz-adv-x="1083" d="M477 -171L490 -16Q390 -7 312 39T193 167T160 363H258Q248 233 316 167T499 88L551 606L512 621Q372 672 304 740T250 936Q260 1066 353 1152T613 1251L626 1400H716L703 1249Q846 1240 921 1162T1002 959H900Q891 1042
839 1090T691 1149L649 683L754 646Q867 605 931 528T983 322Q974 240 926 166T791 42T581 -16L568 -171H477ZM591 87Q716 99 787 169T870 324Q876 409 833 466T707 552L638 576L591 87ZM562 714L601 1146Q492 1137 428 1077T358 931Q352 853 388 808T510 731L562
714Z" />
<glyph unicode="%" horiz-adv-x="1268" d="M450 1256Q537 1256 598 1184T646 976Q633 842 559 771T398 700Q339 700 292 731T220 824T203 976Q212 1066 248 1128T338 1223T450 1256ZM443 1174Q381 1174 339 1125T287 976Q278 878 310 832T405 785Q461 785 502
831T554 976Q564 1075 531 1124T443 1174ZM209 0L1066 1237H1178L317 0H209ZM984 537Q1073 537 1134 466T1181 257Q1168 123 1094 53T930 -18Q845 -18 786 52T739 257Q752 395 825 466T984 537ZM978 455Q918 455 877 406T822 257Q815 159 848 113T940 66Q999 66
1040 112T1089 257Q1100 356 1068 405T978 455Z" />
<glyph unicode="&amp;" horiz-adv-x="1600" d="M579 -18Q454 -18 363 29T225 156T188 336Q202 471 295 546T561 651L538 675Q473 741 444 815T421 973Q429 1055 476 1119T600 1219T777 1255Q867 1255 932 1218T1030 1118T1056 974Q1047 868 971 783T726 617L1015
312Q1090 401 1150 514T1261 752L1332 707Q1283 575 1220 457T1079 246L1172 149Q1205 113 1232 98T1304 82Q1348 82 1389 121T1444 254H1547Q1525 121 1462 52T1297 -18Q1253 -18 1222 -8T1162 26T1098 84T1011 169Q920 81 813 32T579 -18ZM592 81Q693 81 781
122T948 237L625 584Q470 564 390 503T300 338Q289 233 363 157T592 81ZM670 675Q779 730 836 779T917 876T946 975Q953 1054 904 1106T768 1159Q661 1159 601 1098T534 955Q528 897 547 843T619 729L670 675Z" />
<glyph unicode="&apos;" horiz-adv-x="201" d="M132 934L156 1354H270L214 934H132Z" />
<glyph unicode="(" horiz-adv-x="597" d="M610 1428L682 1369Q569 1257 488 1131T358 872T296 602Q284 468 306 334T386 74T536 -166L456 -220Q356 -107 292 27T201 308T187 602Q209 826 319 1041T610 1428Z" />
<glyph unicode=")" horiz-adv-x="597" d="M102 -220L31 -166Q143 -53 224 73T353 334T416 602Q427 738 405 871T325 1131T176 1369L256 1428Q407 1256 476 1041T522 602Q508 454 454 308T311 28T102 -220Z" />
<glyph unicode="*" horiz-adv-x="746" d="M297 768L234 833L419 1019L212 1102L259 1193L445 1081L451 1347H545L504 1081L714 1191L741 1101L518 1018L665 833L595 768L465 979L297 768Z" />
<glyph unicode="+" horiz-adv-x="931" d="M504 982H611L569 539H950L942 444H558L519 0H415L454 444H74L82 539H465L504 982Z" />
<glyph unicode="," horiz-adv-x="336" d="M119 -188L45 -147Q95 -123 129 -90T178 -10Q141 -8 119 13T101 73Q106 105 129 128T189 152Q218 152 237 136T267 91T274 27Q272 -7 255 -47T205 -124T119 -188Z" />
<glyph unicode="-" horiz-adv-x="604" d="M109 522L119 620H601L590 522H109Z" />
<glyph unicode="." horiz-adv-x="288" d="M139 -18Q102 -18 82 9T66 72Q70 109 95 134T158 159Q193 159 214 135T232 72Q228 37 202 10T139 -18Z" />
<glyph unicode="/" horiz-adv-x="739" d="M93 -137L689 1447H793L194 -137H93Z" />
<glyph unicode="0" horiz-adv-x="1032" d="M511 -18Q384 -18 298 53T173 266T156 620Q174 831 238 972T405 1185T636 1256Q763 1256 850 1185T976 973T996 620Q977 408 911 266T743 53T511 -18ZM525 85Q681 85 771 224T887 620Q913 874 847 1012T622 1150Q471
1150 380 1012T261 620Q237 364 304 225T525 85Z" />
<glyph unicode="1" horiz-adv-x="571" d="M408 1238H498L382 0H282L384 1101Q339 1067 287 1046T190 1021L201 1139Q255 1145 309 1169T408 1238Z" />
<glyph unicode="2" horiz-adv-x="1020" d="M239 180L232 108H882L874 0H121L134 167Q144 276 183 347T286 464T426 543L648 642Q741 681 795 746T857 912Q870 1020 809 1086T633 1152Q518 1152 440 1101T342 947H230Q246 1043 299 1112T440 1219T643 1256Q749
1256 825 1210T941 1085T971 906Q956 760 878 673T685 539L455 438Q356 394 303 334T239 180Z" />
<glyph unicode="3" horiz-adv-x="1034" d="M517 -18Q436 -18 363 7T236 81T155 204T138 374H242Q233 279 269 215T375 118T531 85Q661 85 740 160T831 343Q838 412 812 467T722 555T546 588H430L442 681H505Q649 681 739 743T840 913Q851 1014 790 1082T608 1150Q519
1150 445 1110T336 957H229Q267 1119 375 1187T620 1256Q724 1256 803 1213T923 1094T956 922Q945 823 887 754T727 646Q831 615 892 538T942 336Q931 231 877 151T732 27T517 -18Z" />
<glyph unicode="4" horiz-adv-x="972" d="M632 0L658 313H79L88 405L760 1257H850L771 413H964L952 313H759L731 0H632ZM214 405H668L729 1061L214 405Z" />
<glyph unicode="5" horiz-adv-x="999" d="M493 -18Q397 -18 316 21T190 137T157 330H258Q246 211 319 148T504 85Q635 85 716 173T811 395Q822 523 751 589T533 655H257L361 1237H950L939 1132H451L379 732Q422 740 468 745T554 750Q742 750 839 662T921 395Q908
276 853 182T705 35T493 -18Z" />
<glyph unicode="6" horiz-adv-x="1000" d="M517 -22Q387 -22 300 60T175 282T152 595Q171 799 238 947T414 1176T665 1256Q759 1256 826 1216T929 1104T966 939H854Q847 1036 801 1093T656 1150Q534 1150 437 1054T286 782T245 371Q264 509 318 589T446 703T601
738Q699 738 774 689T889 553T920 353Q908 241 854 157T713 25T517 -22ZM527 85Q641 85 720 157T811 357Q823 483 758 555T581 627Q508 627 447 591T346 493T300 357Q289 230 355 158T527 85Z" />
<glyph unicode="7" horiz-adv-x="819" d="M117 0L773 1126H150L160 1237H903L893 1134L258 0H117Z" />
<glyph unicode="8" horiz-adv-x="1075" d="M532 -18Q408 -18 315 27T174 150T136 329Q146 453 224 533T420 635Q372 660 325 700T248 798T228 933Q236 1024 290 1097T437 1213T657 1256Q771 1256 854 1212T980 1091T1013 918Q1004 814 934 729T738 623L780 606Q896
556 954 486T1000 298Q990 202 931 131T771 21T532 -18ZM546 85Q695 85 789 144T891 298Q899 371 854 421T729 503L524 590Q405 573 329 500T244 337Q232 216 319 151T546 85ZM620 675Q735 679 815 745T907 915Q918 1018 845 1084T643 1150Q562 1150 496 1120T389
1040T340 929Q334 852 375 809T495 730L620 675Z" />
<glyph unicode="9" horiz-adv-x="1018" d="M496 -18Q387 -18 309 32T193 169T166 366H277Q266 239 326 162T504 85Q670 85 759 242T876 666Q879 710 880 747T880 830Q861 723 812 650T691 538T531 499Q432 499 357 548T242 685T214 884Q225 996 279 1080T419 1210T612
1256Q737 1256 826 1181T958 969T983 642Q963 437 904 289T743 62T496 -18ZM553 607Q626 607 686 643T786 741T831 878Q843 1005 779 1076T602 1148Q492 1148 414 1077T323 878Q311 753 375 680T553 607Z" />
<glyph unicode=":" horiz-adv-x="378" d="M251 691Q218 691 196 715T176 778Q179 808 201 838T265 868Q303 868 324 841T341 778Q337 744 312 718T251 691ZM194 63Q158 63 137 89T119 150Q122 180 144 210T208 240Q247 240 267 213T284 150Q280 116 255 90T194 63Z" />
<glyph unicode=";" horiz-adv-x="428" d="M163 -188L90 -147Q140 -123 174 -90T223 -10Q186 -9 165 15T146 73Q149 105 173 128T234 152Q277 152 301 117T320 27Q314 -28 276 -89T163 -188ZM290 684Q256 684 234 709T214 771Q217 803 240 832T303 861Q341 861
362 834T379 771Q376 737 351 711T290 684Z" />
<glyph unicode="&lt;" horiz-adv-x="772" d="M721 1095L780 1008L224 592L702 184L628 93L117 544L124 641L721 1095Z" />
<glyph unicode="=" horiz-adv-x="861" d="M175 356H752L744 258H168L175 356ZM209 721H786L777 618H200L209 721Z" />
<glyph unicode="&gt;" horiz-adv-x="772" d="M163 93L102 184L652 592L180 1008L256 1095L763 641L755 544L163 93Z" />
<glyph unicode="?" horiz-adv-x="881" d="M347 286L355 382Q363 472 385 526T452 621T566 706Q626 746 668 778T735 850T762 949Q767 1046 708 1098T535 1150Q420 1150 355 1098T266 959H151Q174 1090 278 1173T544 1256Q660 1256 735 1214T844 1101T873 944Q867
861 831 804T744 708T642 637Q578 597 541 568T485 496T457 375L447 286H347ZM369 -18Q329 -18 311 8T297 70Q301 107 325 131T389 156Q431 156 448 129T463 69Q459 31 434 7T369 -18Z" />
<glyph unicode="@" horiz-adv-x="1608" d="M924 -322Q735 -322 587 -265T339 -102T193 147T163 463Q179 634 247 778T426 1030T680 1196T990 1256Q1136 1256 1252 1205T1446 1062T1561 852T1585 596Q1573 480 1534 385T1438 222T1312 117T1174 80Q1102 80 1063
117T1026 223L1023 255Q985 180 926 130T775 80Q703 80 645 120T554 235T531 412Q541 511 579 593T677 737T808 831T956 865Q1055 865 1107 797T1147 590L1115 263Q1112 210 1127 186T1182 161Q1223 161 1269 190T1358 276T1433 413T1476 596Q1489 756 1433 882T1262
1080T980 1152Q833 1152 710 1097T493 944T344 722T274 457Q253 249 326 95T555 -144T935 -229L924 -322ZM798 170Q874 170 929 221T1039 370L1056 588Q1066 687 1040 729T947 772Q885 772 816 729T695 605T634 413Q619 299 667 235T798 170Z" />
<glyph unicode="A" horiz-adv-x="984" d="M50 0L551 1237H675L934 0H828L757 342H297L159 0H50ZM333 437H735L597 1092L333 437Z" />
<glyph unicode="B" horiz-adv-x="1095" d="M190 0L306 1237H704Q823 1237 897 1192T1003 1074T1025 914Q1017 810 956 729T781 619Q852 609 901 566T974 461T994 336Q987 270 962 210T888 102T766 28T588 0H190ZM303 101H596Q740 101 806 167T883 337Q895 442
831 505T640 569H347L303 101ZM399 1137L355 667H648Q756 667 832 730T918 906Q928 1015 866 1076T691 1137H399Z" />
<glyph unicode="C" horiz-adv-x="1084" d="M560 -18Q413 -18 317 65T179 295T156 628Q174 831 249 971T438 1183T682 1256Q852 1256 952 1160T1086 910L967 882Q939 1008 860 1080T672 1153Q576 1153 489 1094T342 917T266 628Q252 474 279 351T378 156T571 83Q718
83 813 169T922 397H1032Q1022 268 958 175T790 32T560 -18Z" />
<glyph unicode="D" horiz-adv-x="1166" d="M304 1237H613Q782 1237 897 1160T1065 945T1100 620Q1083 433 1003 294T793 77T494 0H188L304 1237ZM397 1137L298 97H505Q639 97 744 165T913 351T991 620Q1004 769 962 885T829 1069T603 1137H397Z" />
<glyph unicode="E" horiz-adv-x="989" d="M188 0L304 1237H972L959 1137H397L353 672H883L876 576H345L301 101H865L853 0H188Z" />
<glyph unicode="F" horiz-adv-x="923" d="M190 0L306 1237H968L957 1137H399L355 678H879L871 578H347L294 0H190Z" />
<glyph unicode="G" horiz-adv-x="1129" d="M569 -18Q440 -18 339 55T187 267T154 599Q168 764 222 887T357 1091T536 1212T734 1253Q849 1253 939 1203T1095 1043L996 993Q936 1076 867 1113T721 1150Q612 1150 514 1085T347 896T261 599Q248 451 281 335T392
152T585 85Q670 85 746 127T871 260T922 492Q923 502 920 514T903 550L969 502L628 519L636 597H1034L982 0H896Q897 63 899 126T902 252L913 255Q868 126 784 54T569 -18Z" />
<glyph unicode="H" horiz-adv-x="1168" d="M190 0L306 1237H410L355 676H936L991 1237H1098L979 0H875L928 578H347L294 0H190Z" />
<glyph unicode="I" horiz-adv-x="480" d="M190 0L306 1237H410L294 0H190Z" />
<glyph unicode="J" horiz-adv-x="689" d="M14 67L22 192Q79 143 137 117T259 91Q363 91 411 158T473 343L557 1237H659L576 343Q562 217 519 137T409 20T254 -18Q181 -18 125 6T14 67Z" />
<glyph unicode="K" horiz-adv-x="1052" d="M306 1237H412L356 628L943 1237H1087L549 683L999 0H864L473 600L338 464L296 0H190L306 1237Z" />
<glyph unicode="L" horiz-adv-x="816" d="M190 0L306 1237H410L303 101H820L811 0H190Z" />
<glyph unicode="M" horiz-adv-x="1500" d="M190 0L306 1237H455L785 341L1281 1237H1430L1311 0H1208L1311 1103L1329 1105L804 167H731L378 1119L398 1114L294 0H190Z" />
<glyph unicode="N" horiz-adv-x="1201" d="M186 0L302 1237H432L942 130L918 133L1025 1237H1129L1013 0H889L370 1115L396 1111L293 0H186Z" />
<glyph unicode="O" horiz-adv-x="1125" d="M561 -18Q428 -18 330 51T183 261T156 616Q175 831 249 973T437 1185T683 1256Q815 1256 914 1185T1063 972T1092 616Q1070 400 994 260T806 51T561 -18ZM572 88Q737 88 847 221T983 615Q1009 875 924 1013T672 1152Q503
1152 396 1014T261 616Q237 354 321 221T572 88Z" />
<glyph unicode="P" horiz-adv-x="972" d="M187 0L303 1237H644Q764 1237 840 1189T949 1056T971 860Q956 696 854 595T572 494H337L290 0H187ZM345 592H583Q708 592 781 663T866 860Q877 988 818 1062T633 1137H395L345 592Z" />
<glyph unicode="Q" horiz-adv-x="1142" d="M864 -320Q787 -320 733 -279T634 -155L557 -18Q425 -17 327 52T182 262T156 616Q175 831 249 973T437 1185T683 1256Q815 1256 914 1185T1063 972T1092 616Q1065 339 949 186T672 -7L733 -116Q762 -162 789 -180T846
-200Q896 -200 936 -187T1027 -148L1015 -281Q972 -302 936 -311T864 -320ZM572 88Q737 88 847 221T983 615Q1009 875 924 1013T672 1152Q503 1152 396 1014T261 616Q237 354 321 221T572 88Z" />
<glyph unicode="R" horiz-adv-x="1074" d="M190 0L306 1237H679Q867 1237 949 1136T1015 876Q1003 732 917 636T673 520L956 0H825L560 519H343L294 0H190ZM351 603H612Q746 603 823 677T911 872Q923 995 860 1066T668 1137H399L351 603Z" />
<glyph unicode="S" horiz-adv-x="1056" d="M524 -18Q415 -18 330 26T199 156T160 363H258Q250 268 286 207T388 115T533 85Q624 85 693 119T802 206T847 322Q855 409 812 464T680 550L504 621Q367 671 301 739T247 936Q261 1076 364 1166T647 1256Q808 1256 892
1175T978 959H876Q873 1051 811 1100T636 1150Q513 1150 440 1088T358 930Q352 852 388 808T513 732L730 653Q843 611 907 534T959 323Q952 233 899 155T751 30T524 -18Z" />
<glyph unicode="T" horiz-adv-x="872" d="M385 0L489 1137H117L128 1237H978L967 1137H593L489 0H385Z" />
<glyph unicode="U" horiz-adv-x="1144" d="M565 -18Q381 -18 281 93T200 435L278 1237H382L304 435Q287 251 362 168T577 85Q713 85 803 168T910 435L988 1237H1092L1013 435Q1000 282 939 181T782 31T565 -18Z" />
<glyph unicode="V" horiz-adv-x="972" d="M149 1237H255L498 142L947 1237H1058L539 0H432L149 1237Z" />
<glyph unicode="W" horiz-adv-x="1541" d="M137 1237H251L435 161L817 1083H887L1080 157L1525 1237H1635L1120 0H1010L830 843L474 0H366L137 1237Z" />
<glyph unicode="X" horiz-adv-x="1115" d="M99 0L551 612L216 1237H337L627 698L1000 1237H1124L673 613L1014 0H884L595 525L228 0H99Z" />
<glyph unicode="Y" horiz-adv-x="934" d="M415 0L462 505L128 1237H253L527 626L918 1237H1038L569 505L522 0H415Z" />
<glyph unicode="Z" horiz-adv-x="1030" d="M132 0L141 109L912 1123L238 1132L248 1237H1052L1041 1127L269 113L945 105L933 0H132Z" />
<glyph unicode="[" horiz-adv-x="536" d="M135 -161L280 1398H587L580 1297H376L246 -62H451L443 -161H135Z" />
<glyph unicode="\" horiz-adv-x="739" d="M786 -138L190 1446H291L890 -138H786Z" />
<glyph unicode="]" horiz-adv-x="462" d="M-23 -161L-14 -62H190L334 1297H130L140 1398H450L285 -161H-23Z" />
<glyph unicode="^" horiz-adv-x="729" d="M86 520L441 1154H518L754 520H637L466 1016L205 520H86Z" />
<glyph unicode="_" horiz-adv-x="1265" d="M80 -1L87 97H1152L1145 -1H80Z" />
<glyph unicode="`" horiz-adv-x="526" d="M192 1572L251 1677L618 1410L579 1336L192 1572Z" />
<glyph unicode="a" horiz-adv-x="984" d="M430 -18Q336 -18 275 23T188 128T167 260Q178 359 228 420T355 511T517 540Q579 540 645 525T769 481L782 617Q797 760 746 821T591 882Q533 882 482 864T398 804T360 697H243Q252 800 305 860T434 945T591 970Q739 970
820 888T883 615L825 0H737Q738 45 739 88T742 175Q694 76 609 29T430 -18ZM439 72Q518 72 592 112T715 228T761 408Q699 429 637 440T518 452Q423 452 355 410T276 260Q269 182 307 127T439 72Z" />
<glyph unicode="b" horiz-adv-x="1023" d="M557 -18Q469 -18 403 29T304 168L266 0H190L318 1357H421L365 792Q413 876 488 923T650 970Q742 970 817 919T937 774T982 553Q982 464 956 365T878 178T745 37T557 -18ZM553 81Q639 81 700 126T799 243T856 396T874
548Q874 699 804 784T630 870Q559 870 496 829T391 709T338 518L331 433Q320 333 342 254T417 128T553 81Z" />
<glyph unicode="c" horiz-adv-x="911" d="M478 -18Q373 -18 291 41T166 211T137 477Q152 633 215 743T371 911T568 970Q632 970 683 949T773 891T836 803T871 694L766 675Q748 768 692 819T557 870Q482 870 416 824T303 690T246 477Q235 361 260 272T345 132T491
81Q588 81 654 140T727 309H837Q829 212 779 138T650 23T478 -18Z" />
<glyph unicode="d" horiz-adv-x="1051" d="M491 -18Q396 -18 320 33T201 178T157 395Q157 485 182 584T258 772T387 915T574 970Q666 970 730 926T829 797L882 1357H985L858 0H774V164Q725 75 650 29T491 -18ZM509 81Q569 81 630 114T737 212T790 371L811 608Q813
617 813 619T813 632Q813 713 779 765T690 844T577 870Q492 870 433 824T338 705T285 553T268 407Q268 257 337 169T509 81Z" />
<glyph unicode="e" horiz-adv-x="911" d="M470 -18Q357 -18 277 39T159 206T136 471Q151 626 209 738T358 910T560 970Q637 970 694 943T789 865T844 749T860 605Q859 572 855 532T842 453H194L243 484Q230 370 249 278T324 131T481 76Q573 76 638 127T725 275H834Q810
178 757 113T629 15T470 -18ZM243 512L207 530H803L754 518Q767 613 755 695T696 827T556 878Q465 878 400 827T295 693T243 512Z" />
<glyph unicode="f" horiz-adv-x="597" d="M179 867L186 948H332L347 1111Q356 1202 392 1260T485 1345T607 1373Q638 1373 671 1367T738 1346L711 1253Q684 1267 655 1274T598 1282Q567 1282 536 1268T482 1217T451 1109L435 948H622L615 867H429L345 0H245L325 867H179Z" />
<glyph unicode="g" horiz-adv-x="999" d="M435 -486Q307 -486 217 -448T83 -342T44 -192Q50 -112 98 -55T226 27Q175 53 152 97T133 193Q139 264 187 310T299 370Q261 417 243 481T232 624Q243 728 293 806T422 927T599 970Q664 970 719 950T813 891Q828 957 861
1007T946 1086T1069 1114L1040 996Q963 996 917 958T858 833Q883 791 894 739T900 624Q890 520 838 440T705 315T525 269Q474 269 427 283T343 324Q302 318 269 285T227 197Q221 148 253 116T386 83H742Q852 83 912 26T965 -125Q959 -216 890 -299T704 -434T435
-486ZM434 -394Q551 -394 645 -357T797 -261T860 -132Q864 -79 834 -41T735 -3H362Q270 -3 211 -58T148 -190Q144 -274 214 -334T434 -394ZM540 355Q611 355 667 390T758 487T801 624Q812 738 755 811T591 884Q485 884 415 812T334 624Q322 510 378 433T540 355Z"
/>
<glyph unicode="h" horiz-adv-x="1070" d="M190 0L318 1357H421L364 761Q413 858 492 914T676 970Q774 970 842 922T943 781T963 559L909 0H809L861 559Q876 711 817 790T649 870Q556 870 489 816T383 665T334 436L294 0H190Z" />
<glyph unicode="i" horiz-adv-x="510" d="M359 1201Q326 1201 309 1222T295 1277Q298 1306 317 1331T374 1356Q408 1356 425 1333T440 1277Q436 1241 414 1221T359 1201ZM192 0L281 950H385L296 0H192Z" />
<glyph unicode="j" horiz-adv-x="547" d="M394 1201Q364 1201 345 1221T329 1277Q333 1312 355 1334T411 1356Q444 1356 463 1334T477 1277Q474 1245 451 1223T394 1201ZM27 -486Q-31 -486 -87 -466T-199 -406L-182 -304Q-131 -343 -83 -364T18 -385Q101 -385
150 -329T213 -146L318 952H422L318 -144Q307 -268 265 -343T161 -452T27 -486Z" />
<glyph unicode="k" horiz-adv-x="1006" d="M786 0L468 524L333 411L294 0H190L318 1357H421L345 540L837 948H986L552 591L917 0H786Z" />
<glyph unicode="l" horiz-adv-x="480" d="M190 0L318 1357H421L294 0H190Z" />
<glyph unicode="m" horiz-adv-x="1668" d="M187 0L276 948H364Q363 899 361 850T358 751Q407 856 487 913T673 970Q786 970 858 908T953 730Q1003 851 1086 910T1276 970Q1375 970 1443 922T1543 782T1562 559L1510 0H1410L1463 559Q1477 708 1420 789T1249 870Q1160
870 1099 821T1001 684T949 477L906 0H806L858 559Q873 713 813 791T645 870Q511 870 431 758T334 462L291 0H187Z" />
<glyph unicode="n" horiz-adv-x="1067" d="M187 0L276 948H364L358 751Q407 856 487 913T673 970Q772 970 840 922T940 782T958 559L906 0H806L858 559Q873 713 813 791T645 870Q511 870 431 758T334 462L291 0H187Z" />
<glyph unicode="o" horiz-adv-x="963" d="M479 -18Q363 -18 281 38T160 205T136 475Q152 635 212 745T365 913T573 970Q690 970 772 912T892 743T915 475Q900 316 840 206T688 39T479 -18ZM484 80Q625 80 708 188T809 475Q827 655 766 763T563 871Q423 871 344
765T247 475Q236 358 256 269T333 130T484 80Z" />
<glyph unicode="p" horiz-adv-x="1055" d="M144 -468L279 948H363Q363 910 363 871T362 794Q414 880 488 925T647 970Q747 970 827 911T949 742T978 477Q964 323 900 212T744 42T549 -18Q465 -18 402 22T306 137L248 -468H144ZM558 81Q626 81 693 126T808 259T869
477Q881 603 852 690T764 824T629 870Q563 870 501 835T397 730T344 556L327 386Q319 287 351 219T438 116T558 81Z" />
<glyph unicode="q" horiz-adv-x="1027" d="M891 -486Q779 -450 742 -377T720 -163L750 168Q706 81 633 32T470 -18Q370 -18 290 42T168 213T140 477Q155 631 218 741T374 911T564 970Q651 970 717 922T813 785L850 948H927L821 -168Q814 -240 821 -281T856 -346T936
-391L891 -486ZM490 81Q555 81 616 116T719 220T771 386L793 603Q789 692 756 751T671 840T560 870Q488 870 422 825T309 692T250 477Q237 345 268 257T360 125T490 81Z" />
<glyph unicode="r" horiz-adv-x="653" d="M187 0L276 950H380L362 773Q405 873 465 919T610 966Q632 966 660 962T715 945L695 836Q667 847 637 853T578 860Q498 860 447 806T368 656T329 436L291 0H187Z" />
<glyph unicode="s" horiz-adv-x="945" d="M476 -18Q362 -18 287 21T176 127T144 275H246Q241 180 308 126T481 72Q584 72 655 120T736 248Q744 313 700 348T576 411L426 466Q319 504 264 565T219 721Q227 795 270 851T387 938T560 970Q708 970 787 904T861 735H757Q754
807 700 843T557 879Q481 879 432 856T358 796T327 722Q319 658 363 617T487 550L635 498Q742 464 799 404T846 248Q839 178 794 117T668 19T476 -18Z" />
<glyph unicode="t" horiz-adv-x="658" d="M437 -18Q369 -18 321 9T249 93T234 236L294 893L335 868H140L153 948H342L292 903L324 1219H428L396 903L356 948H688L678 868H346L395 893L332 235Q325 156 356 116T453 75Q491 75 529 85T612 113L619 30Q572 6 527
-6T437 -18Z" />
<glyph unicode="u" horiz-adv-x="1070" d="M477 -18Q378 -18 311 23T213 146T192 348L248 950H352L298 354Q283 220 334 152T499 83Q589 83 657 137T768 282T821 482L865 950H969L879 0H776L795 199Q742 97 660 40T477 -18Z" />
<glyph unicode="v" horiz-adv-x="891" d="M127 948H241L457 128L825 948H939L500 0H388L127 948Z" />
<glyph unicode="w" horiz-adv-x="1272" d="M127 948H234L388 152L680 906H760L913 140L1215 948H1319L950 0H852L700 718L420 0H322L127 948Z" />
<glyph unicode="x" horiz-adv-x="881" d="M56 0L420 475L145 950H271L498 564L788 950H913L545 475L821 0H696L471 389L182 0H56Z" />
<glyph unicode="y" horiz-adv-x="853" d="M164 -486Q112 -486 67 -467T-23 -413L-12 -304Q28 -347 70 -366T160 -385Q221 -385 264 -342T338 -232T390 -100L426 0L163 948H276L488 155L778 948H883L461 -197Q429 -284 386 -349T288 -450T164 -486Z" />
<glyph unicode="z" horiz-adv-x="835" d="M93 0L99 94L705 854H171L182 948H836L825 854L223 94H753L747 0H93Z" />
<glyph unicode="{" horiz-adv-x="587" d="M543 -256Q416 -256 348 -198T257 -39T247 192L263 377Q272 465 259 503T213 542H192L201 647H224Q258 647 277 685T307 812L322 993Q334 1123 376 1225T497 1386T704 1445L697 1348Q565 1348 503 1256T424 992L409 812Q400
721 373 671T307 598L304 591Q341 572 358 520T364 377L349 194Q334 25 376 -67T554 -159L543 -256Z" />
<glyph unicode="|" horiz-adv-x="480" d="M166 -244L327 1477H431L270 -244H166Z" />
<glyph unicode="}" horiz-adv-x="532" d="M-22 -256L-14 -159Q118 -159 181 -66T258 197L273 377Q282 468 311 520T378 594V598Q348 615 332 655T316 765Q316 775 316 788T318 812L333 995Q336 1029 336 1046T337 1076Q339 1207 292 1277T129 1348L139 1445Q252
1445 318 1400T412 1273T439 1084Q439 1064 438 1041T435 997L419 812Q418 795 417 782T415 756Q415 695 428 671T469 647H490L481 542H458Q425 542 404 504T375 377L360 196Q348 66 307 -36T185 -197T-22 -256Z" />
<glyph unicode="~" horiz-adv-x="872" d="M196 467L136 501Q173 596 223 643T327 691Q357 691 393 680T497 635Q572 603 603 592T660 580Q731 580 789 695L841 657Q803 559 753 513T646 467Q621 467 582 481T475 523Q402 558 370 570T312 583Q285 583 254 557T196 467Z" />
<glyph unicode="&#xa0;" horiz-adv-x="413" />
<glyph unicode="&#xa1;" horiz-adv-x="485" d="M393 890L320 -18H218L313 890H393ZM384 1214Q421 1214 442 1187T461 1127Q458 1092 433 1065T369 1037Q332 1037 311 1063T294 1127Q298 1163 323 1188T384 1214Z" />
<glyph unicode="&#xa2;" horiz-adv-x="911" d="M548 950L584 1139H678L642 950H548ZM367 -172L403 16H498L463 -172H367ZM469 -18Q364 -18 282 41T157 211T128 477Q143 633 206 743T362 911T559 970Q623 970 674 949T764 891T827 803T862 694L757 675Q739 768
683 819T548 870Q473 870 407 824T294 690T237 477Q226 361 251 272T336 132T482 81Q579 81 645 140T718 309H828Q820 212 770 138T641 23T469 -18Z" />
<glyph unicode="&#xa3;" horiz-adv-x="979" d="M34 0L42 97H88Q158 97 196 142T242 280L264 519H96L103 606H275L297 851Q310 975 351 1066T467 1206T649 1256Q762 1256 833 1186T911 984H811Q801 1068 753 1109T638 1150Q539 1150 478 1080T401 851L376 606H715L707
519H368L345 284Q338 215 319 169T258 97H636Q723 97 769 141T836 276H941Q918 150 849 75T625 0H34Z" />
<glyph unicode="&#xa4;" horiz-adv-x="1200" d="M575 256Q478 256 400 304T278 434T241 614Q249 710 301 790T438 920T623 970Q722 970 799 922T919 793T956 614Q950 514 896 433T757 304T575 256ZM206 207L152 266L335 432L388 373L206 207ZM916 203L774 363L836
423L981 261L916 203ZM581 366Q648 366 706 398T803 487T846 614Q851 685 821 740T738 828T616 860Q548 860 490 827T395 739T352 614Q347 544 376 488T460 399T581 366ZM382 810L232 978L296 1037L448 866L382 810ZM862 793L803 853L983 1014L1039 954L862 793Z"
/>
<glyph unicode="&#xa5;" horiz-adv-x="934" d="M818 419H196L205 499H830L818 419ZM804 268H182L194 348H815L804 268ZM415 0L462 505L128 1237H253L527 626L918 1237H1038L569 505L522 0H415Z" />
<glyph unicode="&#xa6;" horiz-adv-x="480" d="M166 -244L238 534H342L270 -244H166ZM254 700L327 1477H431L358 700H254Z" />
<glyph unicode="&#xa7;" horiz-adv-x="980" d="M552 225L558 315Q657 317 726 367T805 494Q812 559 769 594T645 657L494 712Q387 750 333 811T288 967Q296 1041 339 1097T456 1184T629 1216Q777 1216 856 1149T930 981H825Q822 1052 768 1088T626 1125Q550 1125
501 1102T427 1042T396 968Q387 904 431 863T555 796L703 744Q810 709 868 649T915 494Q907 422 862 362T738 264T552 225ZM449 -208Q336 -208 261 -169T150 -63T118 85H220Q215 -10 282 -64T455 -118Q557 -118 629 -70T710 58Q717 123 674 158T550 221L399 276Q292
314 238 375T193 531Q204 642 294 712T534 789L532 698Q418 692 363 641T301 532Q292 468 336 427T460 360L608 308Q715 274 772 214T820 58Q812 -12 767 -73T641 -171T449 -208Z" />
<glyph unicode="&#xa8;" horiz-adv-x="525" d="M200 1649Q205 1684 228 1708T283 1733Q317 1733 339 1709T356 1649Q354 1617 327 1593T265 1568Q233 1568 215 1592T200 1649ZM477 1648Q482 1684 505 1708T560 1732Q594 1732 616 1708T634 1648Q632 1617 605 1592T542
1567Q511 1567 493 1592T477 1648Z" />
<glyph unicode="&#xa9;" horiz-adv-x="1359" d="M634 -12Q503 -12 394 37T207 173T93 374T69 619Q83 749 144 863T301 1064T516 1200T766 1249Q896 1249 1005 1200T1192 1065T1307 864T1330 619Q1317 488 1256 374T1099 173T884 37T634 -12ZM641 53Q758 53 865
97T1058 219T1199 399T1266 619Q1278 736 1245 838T1142 1019T974 1141T759 1185Q642 1185 535 1141T342 1019T201 839T134 619Q122 502 155 400T258 219T426 97T641 53ZM654 234Q563 234 504 285T420 425T406 629Q417 754 463 839T579 969T729 1014Q832 1014 893
956T976 802L903 785Q886 862 837 906T722 951Q664 951 611 915T520 806T474 629Q465 535 481 460T542 340T661 295Q750 295 809 348T876 488H943Q937 409 898 352T795 265T654 234Z" />
<glyph unicode="&#xaa;" horiz-adv-x="984" d="M430 -18Q336 -18 275 23T188 128T167 260Q178 359 228 420T355 511T517 540Q579 540 645 525T769 481L782 617Q797 760 746 821T591 882Q533 882 482 864T398 804T360 697H243Q252 800 305 860T434 945T591 970Q739
970 820 888T883 615L825 0H737Q738 45 739 88T742 175Q694 76 609 29T430 -18ZM439 72Q518 72 592 112T715 228T761 408Q699 429 637 440T518 452Q423 452 355 410T276 260Q269 182 307 127T439 72Z" />
<glyph unicode="&#xab;" horiz-adv-x="1126" d="M489 98L142 525L610 953L698 900L248 497L247 552L584 149L489 98ZM931 98L584 525L1052 953L1140 900L690 497L689 552L1026 149L931 98Z" />
<glyph unicode="&#xac;" horiz-adv-x="1200" d="M257 612H928L883 291H790L828 563L855 522H245L257 612Z" />
<glyph unicode="&#xad;" horiz-adv-x="1200" d="M109 522L119 620H601L590 522H109Z" />
<glyph unicode="&#xae;" horiz-adv-x="1359" d="M634 -12Q503 -12 394 37T207 172T93 373T69 619Q83 749 144 863T301 1064T516 1200T765 1249Q896 1249 1005 1200T1192 1065T1307 864T1330 619Q1317 488 1256 374T1099 173T884 37T634 -12ZM641 53Q758 53 865
97T1058 219T1198 399T1266 619Q1278 736 1245 838T1142 1018T974 1140T758 1185Q642 1185 535 1141T342 1019T201 839T134 619Q122 502 155 400T258 219T426 97T641 53ZM448 218L524 1021H766Q888 1021 941 956T984 787Q976 693 920 631T762 556L945 218H861L689
555H547L515 218H448ZM552 609H722Q810 609 859 657T916 785Q924 865 883 911T759 957H584L552 609Z" />
<glyph unicode="&#xaf;" horiz-adv-x="776" d="M250 1265H840L823 1168H233L250 1265Z" />
<glyph unicode="&#xb0;" horiz-adv-x="619" d="M392 969Q326 969 273 1002T192 1090T170 1213Q175 1281 213 1335T309 1423T434 1456Q502 1456 554 1423T635 1336T657 1213Q651 1145 614 1090T518 1002T392 969ZM399 1042Q469 1042 523 1092T583 1213Q589 1284
544 1333T427 1383Q356 1383 303 1333T242 1213Q236 1143 282 1093T399 1042Z" />
<glyph unicode="&#xb1;" horiz-adv-x="879" d="M465 1016H569L540 688H876L869 593H531L504 269H400L428 593H99L106 688H436L465 1016ZM66 95H805L792 0H53L66 95Z" />
<glyph unicode="&#xb2;" horiz-adv-x="721" d="M252 595L248 550H648L643 484H179L187 587Q194 654 218 697T281 769T367 818L504 879Q561 903 594 943T632 1045Q640 1112 603 1152T495 1193Q424 1193 376 1162T315 1067H247Q256 1126 289 1168T375 1234T501 1257Q566
1257 613 1229T684 1151T703 1042Q693 952 645 899T527 816L385 754Q324 726 291 689T252 595Z" />
<glyph unicode="&#xb3;" horiz-adv-x="723" d="M419 473Q369 473 324 488T246 534T197 610T186 714H250Q244 656 266 616T331 556T428 536Q508 536 557 582T612 695Q617 738 601 771T545 825T437 846H366L373 903H412Q500 903 556 941T618 1046Q625 1108 587 1150T475
1192Q420 1192 375 1167T308 1073H242Q265 1173 332 1215T483 1257Q547 1257 595 1230T669 1157T689 1051Q683 990 647 948T548 882Q612 862 649 815T681 691Q674 626 641 577T551 501T419 473Z" />
<glyph unicode="&#xb4;" horiz-adv-x="618" d="M263 1097L233 1171L650 1438L692 1333L263 1097Z" />
<glyph unicode="&#xb5;" horiz-adv-x="1070" d="M478 -18Q379 -18 312 23T214 146T193 348L249 950H353L299 354Q284 220 335 152T500 83Q590 83 658 137T769 282T822 482L866 950H970L880 0H777L796 199Q743 97 661 40T478 -18ZM118 -407L249 950H352L222 -407H118Z" />
<glyph unicode="&#xb6;" horiz-adv-x="1200" d="M539 490Q338 490 246 591T171 861Q189 1028 302 1131T617 1235H967L957 1134H681L613 490H539ZM487 -252L643 1235H735L579 -252H487ZM750 -252L906 1235H998L842 -252H750Z" />
<glyph unicode="&#xb7;" horiz-adv-x="288" d="M205 450Q168 450 148 477T132 540Q136 577 161 602T224 627Q259 627 280 603T298 540Q294 505 268 478T205 450Z" />
<glyph unicode="&#xb8;" horiz-adv-x="578" d="M20 -350L40 -293Q120 -336 182 -342T281 -327T317 -268Q318 -230 283 -202T197 -155T101 -126L157 45L239 40L185 -122L143 -67Q231 -89 294 -118T392 -184T426 -271Q426 -328 385 -362T279 -406T146 -402T20 -350Z" />
<glyph unicode="&#xb9;" horiz-adv-x="440" d="M334 1239H389L318 477H257L319 1155Q292 1134 260 1121T200 1105L207 1178Q240 1182 273 1197T334 1239Z" />
<glyph unicode="&#xba;" horiz-adv-x="963" d="M479 -18Q363 -18 281 38T160 205T136 475Q152 635 212 745T365 913T573 970Q690 970 772 912T892 743T915 475Q900 316 840 206T688 39T479 -18ZM484 80Q625 80 708 188T809 475Q827 655 766 763T563 871Q423 871
344 765T247 475Q236 358 256 269T333 130T484 80Z" />
<glyph unicode="&#xbb;" horiz-adv-x="1125" d="M178 98L89 149L539 552L541 499L203 902L298 953L645 525L178 98ZM618 98L529 149L979 552L981 499L643 902L738 953L1085 525L618 98Z" />
<glyph unicode="&#xbc;" horiz-adv-x="1673" d="M701 1374H757L685 600H622L686 1288Q658 1267 626 1254T565 1238L572 1312Q605 1316 639 1331T701 1374ZM279 0L1243 1351H1322L355 0H279ZM1311 0L1327 196H965L971 253L1391 786H1447L1398 258H1518L1510 196H1390L1373
0H1311ZM1049 253H1333L1371 663L1049 253Z" />
<glyph unicode="&#xbd;" horiz-adv-x="1671" d="M701 1374H757L685 600H622L686 1288Q658 1267 626 1254T565 1238L572 1312Q605 1316 639 1331T701 1374ZM267 0L1231 1351H1310L343 0H267ZM1084 113L1080 68H1486L1481 0H1010L1019 104Q1027 207 1077 257T1201
340L1340 401Q1398 426 1432 467T1470 570Q1478 637 1440 679T1330 721Q1259 721 1210 689T1149 592H1078Q1089 652 1122 695T1209 762T1336 785Q1403 785 1451 757T1523 679T1542 566Q1532 476 1483 422T1362 337L1219 274Q1158 246 1125 209T1084 113Z" />
<glyph unicode="&#xbe;" horiz-adv-x="1792" d="M741 582Q673 582 616 609T528 692T504 827H569Q561 737 614 692T750 646Q831 646 880 693T937 808Q944 872 903 916T759 961H687L694 1019H734Q823 1019 880 1058T943 1164Q950 1226 912 1269T797 1312Q742 1312
696 1287T628 1191H561Q584 1293 652 1335T805 1378Q903 1378 963 1319T1015 1170Q1008 1108 972 1065T872 997Q937 978 975 930T1006 803Q999 737 966 687T876 610T741 582ZM460 0L1424 1351H1503L536 0H460ZM1430 0L1446 196H1084L1090 253L1510 786H1566L1517
258H1637L1629 196H1509L1492 0H1430ZM1168 253H1452L1490 663L1168 253Z" />
<glyph unicode="&#xbf;" horiz-adv-x="880" d="M577 908L569 812Q561 722 539 668T472 573T358 488Q298 448 256 416T189 344T162 245Q157 148 216 96T389 44Q504 44 569 96T658 235H773Q750 104 646 21T380 -62Q264 -62 189 -20T80 93T51 250Q57 333 93 390T180
486T282 557Q346 597 383 626T439 698T467 819L477 908H577ZM555 1212Q595 1212 613 1186T627 1124Q623 1087 599 1063T535 1038Q493 1038 476 1065T461 1125Q465 1163 490 1187T555 1212Z" />
<glyph unicode="&#xc0;" horiz-adv-x="984" d="M50 0L551 1237H675L934 0H828L757 342H297L159 0H50ZM333 437H735L597 1092L333 437ZM807 1377L422 1613L481 1718L847 1451L807 1377Z" />
<glyph unicode="&#xc1;" horiz-adv-x="984" d="M50 0L551 1237H675L934 0H828L757 342H297L159 0H50ZM333 437H735L597 1092L333 437ZM535 1386L505 1460L922 1727L964 1622L535 1386Z" />
<glyph unicode="&#xc2;" horiz-adv-x="984" d="M50 0L551 1237H675L934 0H828L757 342H297L159 0H50ZM333 437H735L597 1092L333 437ZM374 1403L314 1459L637 1766L904 1459L835 1403L625 1626L374 1403Z" />
<glyph unicode="&#xc3;" horiz-adv-x="984" d="M50 0L551 1237H675L934 0H828L757 342H297L159 0H50ZM333 437H735L597 1092L333 437ZM411 1464L370 1492Q402 1588 442 1631T531 1674Q552 1674 576 1663T655 1620Q709 1588 730 1578T770 1567Q800 1567 826 1590T878
1674L923 1639Q904 1581 878 1542T823 1484T764 1464Q742 1464 716 1477T627 1523Q574 1551 556 1559T521 1567Q493 1567 467 1545T411 1464Z" />
<glyph unicode="&#xc4;" horiz-adv-x="984" d="M50 0L551 1237H675L934 0H828L757 342H297L159 0H50ZM333 437H735L597 1092L333 437ZM496 1491Q462 1491 445 1515T430 1571Q433 1600 454 1628T514 1656Q543 1656 565 1636T586 1578Q584 1536 556 1514T496 1491ZM772
1489Q740 1489 722 1514T707 1570Q710 1600 732 1627T791 1655Q815 1655 840 1637T864 1577Q862 1531 830 1510T772 1489Z" />
<glyph unicode="&#xc5;" horiz-adv-x="984" d="M50 0L551 1237H675L934 0H828L757 342H297L159 0H50ZM333 437H735L597 1092L333 437ZM636 1381Q587 1381 546 1406T480 1472T455 1562Q455 1612 479 1653T545 1718T636 1743Q686 1743 727 1719T792 1653T817 1562Q817
1513 793 1472T727 1406T636 1381ZM636 1470Q675 1470 702 1497T729 1562Q729 1602 702 1628T636 1655Q597 1655 570 1629T543 1562Q543 1524 570 1497T636 1470Z" />
<glyph unicode="&#xc6;" horiz-adv-x="1450" d="M50 0L548 1237H1428L1419 1137H807L845 1176L796 639L765 672H1343L1336 576H755L794 618L743 72L713 101H1325L1315 0H628L663 376L705 352H263L312 383L159 0H50ZM665 401L737 1175L778 1137H581L628 1173L322
410L309 447H715L665 401Z" />
<glyph unicode="&#xc7;" horiz-adv-x="1084" d="M560 -18Q413 -18 317 65T179 295T156 628Q174 831 249 971T438 1183T682 1256Q852 1256 952 1160T1086 910L967 882Q939 1008 860 1080T672 1153Q576 1153 489 1094T342 917T266 628Q252 474 279 351T378 156T571
83Q718 83 813 169T922 397H1032Q1022 268 958 175T790 32T560 -18ZM398 -350L418 -293Q498 -336 560 -342T659 -327T695 -268Q696 -230 661 -202T575 -155T479 -126L535 45L617 40L563 -122L521 -67Q609 -89 672 -118T770 -184T804 -271Q804 -328 763 -362T657
-406T524 -402T398 -350Z" />
<glyph unicode="&#xc8;" horiz-adv-x="989" d="M188 0L304 1237H972L959 1137H397L353 672H883L876 576H345L301 101H865L853 0H188ZM810 1377L425 1613L484 1718L850 1451L810 1377Z" />
<glyph unicode="&#xc9;" horiz-adv-x="989" d="M188 0L304 1237H972L959 1137H397L353 672H883L876 576H345L301 101H865L853 0H188ZM537 1386L507 1460L924 1727L966 1622L537 1386Z" />
<glyph unicode="&#xca;" horiz-adv-x="989" d="M188 0L304 1237H972L959 1137H397L353 672H883L876 576H345L301 101H865L853 0H188ZM376 1403L316 1459L639 1766L906 1459L837 1403L627 1626L376 1403Z" />
<glyph unicode="&#xcb;" horiz-adv-x="989" d="M188 0L304 1237H972L959 1137H397L353 672H883L876 576H345L301 101H865L853 0H188ZM499 1491Q465 1491 448 1515T433 1571Q436 1600 457 1628T517 1656Q546 1656 568 1636T589 1578Q587 1536 559 1514T499 1491ZM775
1489Q743 1489 725 1514T710 1570Q713 1600 735 1627T794 1655Q818 1655 843 1637T867 1577Q865 1531 833 1510T775 1489Z" />
<glyph unicode="&#xcc;" horiz-adv-x="480" d="M190 0L306 1237H410L294 0H190ZM555 1377L170 1613L229 1718L595 1451L555 1377Z" />
<glyph unicode="&#xcd;" horiz-adv-x="480" d="M190 0L306 1237H410L294 0H190ZM283 1386L253 1460L670 1727L712 1622L283 1386Z" />
<glyph unicode="&#xce;" horiz-adv-x="480" d="M190 0L306 1237H410L294 0H190ZM122 1403L62 1459L385 1766L652 1459L583 1403L373 1626L122 1403Z" />
<glyph unicode="&#xcf;" horiz-adv-x="480" d="M190 0L306 1237H410L294 0H190ZM244 1491Q210 1491 193 1515T178 1571Q181 1600 202 1628T262 1656Q291 1656 313 1636T334 1578Q332 1536 304 1514T244 1491ZM520 1489Q488 1489 470 1514T455 1570Q458 1600 480
1627T539 1655Q563 1655 588 1637T612 1577Q610 1531 578 1510T520 1489Z" />
<glyph unicode="&#xd0;" horiz-adv-x="1166" d="M126 675H668L658 576H114L126 675ZM304 1237H613Q782 1237 897 1160T1065 945T1100 620Q1083 433 1003 294T793 77T494 0H188L304 1237ZM397 1137L298 97H505Q639 97 744 165T913 351T991 620Q1004 769 962 885T829
1069T603 1137H397Z" />
<glyph unicode="&#xd1;" horiz-adv-x="1201" d="M186 0L302 1237H432L942 130L918 133L1025 1237H1129L1013 0H889L370 1115L396 1111L293 0H186ZM520 1464L479 1492Q511 1588 551 1631T640 1674Q661 1674 685 1663T764 1620Q818 1588 839 1578T879 1567Q909 1567
935 1590T987 1674L1032 1639Q1013 1581 987 1542T932 1484T873 1464Q851 1464 825 1477T736 1523Q683 1551 665 1559T630 1567Q602 1567 576 1545T520 1464Z" />
<glyph unicode="&#xd2;" horiz-adv-x="1125" d="M561 -18Q428 -18 330 51T183 261T156 616Q175 831 249 973T437 1185T683 1256Q815 1256 914 1185T1063 972T1092 616Q1070 400 994 260T806 51T561 -18ZM572 88Q737 88 847 221T983 615Q1009 875 924 1013T672
1152Q503 1152 396 1014T261 616Q237 354 321 221T572 88ZM878 1377L493 1613L552 1718L918 1451L878 1377Z" />
<glyph unicode="&#xd3;" horiz-adv-x="1125" d="M561 -18Q428 -18 330 51T183 261T156 616Q175 831 249 973T437 1185T683 1256Q815 1256 914 1185T1063 972T1092 616Q1070 400 994 260T806 51T561 -18ZM572 88Q737 88 847 221T983 615Q1009 875 924 1013T672
1152Q503 1152 396 1014T261 616Q237 354 321 221T572 88ZM605 1386L575 1460L992 1727L1034 1622L605 1386Z" />
<glyph unicode="&#xd4;" horiz-adv-x="1125" d="M561 -18Q428 -18 330 51T183 261T156 616Q175 831 249 973T437 1185T683 1256Q815 1256 914 1185T1063 972T1092 616Q1070 400 994 260T806 51T561 -18ZM572 88Q737 88 847 221T983 615Q1009 875 924 1013T672
1152Q503 1152 396 1014T261 616Q237 354 321 221T572 88ZM444 1403L384 1459L707 1766L974 1459L905 1403L695 1626L444 1403Z" />
<glyph unicode="&#xd5;" horiz-adv-x="1125" d="M561 -18Q428 -18 330 51T183 261T156 616Q175 831 249 973T437 1185T683 1256Q815 1256 914 1185T1063 972T1092 616Q1070 400 994 260T806 51T561 -18ZM572 88Q737 88 847 221T983 615Q1009 875 924 1013T672
1152Q503 1152 396 1014T261 616Q237 354 321 221T572 88ZM482 1464L441 1492Q473 1588 513 1631T602 1674Q623 1674 647 1663T726 1620Q780 1588 801 1578T841 1567Q871 1567 897 1590T949 1674L994 1639Q975 1581 949 1542T894 1484T835 1464Q813 1464 787 1477T698
1523Q645 1551 627 1559T592 1567Q564 1567 538 1545T482 1464Z" />
<glyph unicode="&#xd6;" horiz-adv-x="1125" d="M561 -18Q428 -18 330 51T183 261T156 616Q175 831 249 973T437 1185T683 1256Q815 1256 914 1185T1063 972T1092 616Q1070 400 994 260T806 51T561 -18ZM572 88Q737 88 847 221T983 615Q1009 875 924 1013T672
1152Q503 1152 396 1014T261 616Q237 354 321 221T572 88ZM567 1491Q533 1491 516 1515T501 1571Q504 1600 525 1628T585 1656Q614 1656 636 1636T657 1578Q655 1536 627 1514T567 1491ZM843 1489Q811 1489 793 1514T778 1570Q781 1600 803 1627T862 1655Q886 1655
911 1637T935 1577Q933 1531 901 1510T843 1489Z" />
<glyph unicode="&#xd7;" horiz-adv-x="980" d="M150 140L73 213L453 526L446 461L144 763L226 832L527 530L457 529L831 843L907 767L529 456L536 521L838 220L756 151L454 452L525 453L150 140Z" />
<glyph unicode="&#xd8;" horiz-adv-x="1125" d="M561 -18Q428 -18 330 51T183 261T156 616Q175 831 249 973T437 1185T683 1256Q815 1256 914 1185T1063 972T1092 616Q1070 400 994 260T806 51T561 -18ZM572 88Q737 88 847 221T983 615Q1009 875 924 1013T672
1152Q503 1152 396 1014T261 616Q237 354 321 221T572 88Z" />
<glyph unicode="&#xd9;" horiz-adv-x="1144" d="M565 -18Q381 -18 281 93T200 435L278 1237H382L304 435Q287 251 362 168T577 85Q713 85 803 168T910 435L988 1237H1092L1013 435Q1000 282 939 181T782 31T565 -18ZM888 1377L503 1613L562 1718L928 1451L888 1377Z" />
<glyph unicode="&#xda;" horiz-adv-x="1144" d="M565 -18Q381 -18 281 93T200 435L278 1237H382L304 435Q287 251 362 168T577 85Q713 85 803 168T910 435L988 1237H1092L1013 435Q1000 282 939 181T782 31T565 -18ZM615 1386L585 1460L1002 1727L1044 1622L615 1386Z" />
<glyph unicode="&#xdb;" horiz-adv-x="1144" d="M565 -18Q381 -18 281 93T200 435L278 1237H382L304 435Q287 251 362 168T577 85Q713 85 803 168T910 435L988 1237H1092L1013 435Q1000 282 939 181T782 31T565 -18ZM454 1403L394 1459L717 1766L984 1459L915
1403L705 1626L454 1403Z" />
<glyph unicode="&#xdc;" horiz-adv-x="1144" d="M565 -18Q381 -18 281 93T200 435L278 1237H382L304 435Q287 251 362 168T577 85Q713 85 803 168T910 435L988 1237H1092L1013 435Q1000 282 939 181T782 31T565 -18ZM577 1491Q543 1491 526 1515T511 1571Q514
1600 535 1628T595 1656Q624 1656 646 1636T667 1578Q665 1536 637 1514T577 1491ZM853 1489Q821 1489 803 1514T788 1570Q791 1600 813 1627T872 1655Q896 1655 921 1637T945 1577Q943 1531 911 1510T853 1489Z" />
<glyph unicode="&#xdd;" horiz-adv-x="934" d="M415 0L462 505L128 1237H253L527 626L918 1237H1038L569 505L522 0H415ZM510 1386L480 1460L897 1727L939 1622L510 1386Z" />
<glyph unicode="&#xde;" horiz-adv-x="972" d="M187 0L303 1237H404L379 975L338 1020H625Q745 1020 821 972T931 840T953 643Q937 479 836 378T553 277H273L319 323L290 0H187ZM319 325L277 375H564Q690 375 763 447T848 643Q859 771 798 846T615 921H328L379
972L319 325Z" />
<glyph unicode="&#xdf;" horiz-adv-x="1078" d="M682 -20Q638 -20 585 -6T481 35L505 124Q548 102 594 89T677 75Q724 75 770 99T847 169T878 281Q878 340 853 384T791 465T717 535T655 606T630 688Q630 736 657 777T718 860T780 949T807 1057Q807 1134 756 1184T614
1235Q550 1235 496 1205T406 1106T357 919L271 0H172L259 932Q271 1061 318 1150T442 1286T619 1333Q694 1333 748 1311T837 1250T889 1166T906 1071Q906 1003 879 950T818 855T756 775T729 701Q729 666 754 634T817 567T892 491T954 398T980 278Q980 193 939 126T830
19T682 -20Z" />
<glyph unicode="&#xe0;" horiz-adv-x="984" d="M430 -18Q336 -18 275 23T188 128T167 260Q178 359 228 420T355 511T517 540Q579 540 645 525T769 481L782 617Q797 760 746 821T591 882Q533 882 482 864T398 804T360 697H243Q252 800 305 860T434 945T591 970Q739
970 820 888T883 615L825 0H737Q738 45 739 88T742 175Q694 76 609 29T430 -18ZM439 72Q518 72 592 112T715 228T761 408Q699 429 637 440T518 452Q423 452 355 410T276 260Q269 182 307 127T439 72ZM766 1088L381 1324L440 1429L806 1162L766 1088Z" />
<glyph unicode="&#xe1;" horiz-adv-x="984" d="M430 -18Q336 -18 275 23T188 128T167 260Q178 359 228 420T355 511T517 540Q579 540 645 525T769 481L782 617Q797 760 746 821T591 882Q533 882 482 864T398 804T360 697H243Q252 800 305 860T434 945T591 970Q739
970 820 888T883 615L825 0H737Q738 45 739 88T742 175Q694 76 609 29T430 -18ZM439 72Q518 72 592 112T715 228T761 408Q699 429 637 440T518 452Q423 452 355 410T276 260Q269 182 307 127T439 72ZM494 1097L464 1171L881 1438L923 1333L494 1097Z" />
<glyph unicode="&#xe2;" horiz-adv-x="984" d="M430 -18Q336 -18 275 23T188 128T167 260Q178 359 228 420T355 511T517 540Q579 540 645 525T769 481L782 617Q797 760 746 821T591 882Q533 882 482 864T398 804T360 697H243Q252 800 305 860T434 945T591 970Q739
970 820 888T883 615L825 0H737Q738 45 739 88T742 175Q694 76 609 29T430 -18ZM439 72Q518 72 592 112T715 228T761 408Q699 429 637 440T518 452Q423 452 355 410T276 260Q269 182 307 127T439 72ZM333 1114L273 1170L596 1477L863 1170L794 1114L584 1337L333
1114Z" />
<glyph unicode="&#xe3;" horiz-adv-x="984" d="M430 -18Q336 -18 275 23T188 128T167 260Q178 359 228 420T355 511T517 540Q579 540 645 525T769 481L782 617Q797 760 746 821T591 882Q533 882 482 864T398 804T360 697H243Q252 800 305 860T434 945T591 970Q739
970 820 888T883 615L825 0H737Q738 45 739 88T742 175Q694 76 609 29T430 -18ZM439 72Q518 72 592 112T715 228T761 408Q699 429 637 440T518 452Q423 452 355 410T276 260Q269 182 307 127T439 72ZM370 1175L329 1203Q361 1299 401 1342T490 1385Q511 1385 535
1374T614 1331Q668 1299 689 1289T729 1278Q759 1278 785 1301T837 1385L882 1350Q863 1292 837 1253T782 1195T723 1175Q701 1175 675 1188T586 1234Q533 1262 515 1270T480 1278Q452 1278 426 1256T370 1175Z" />
<glyph unicode="&#xe4;" horiz-adv-x="984" d="M430 -18Q336 -18 275 23T188 128T167 260Q178 359 228 420T355 511T517 540Q579 540 645 525T769 481L782 617Q797 760 746 821T591 882Q533 882 482 864T398 804T360 697H243Q252 800 305 860T434 945T591 970Q739
970 820 888T883 615L825 0H737Q738 45 739 88T742 175Q694 76 609 29T430 -18ZM439 72Q518 72 592 112T715 228T761 408Q699 429 637 440T518 452Q423 452 355 410T276 260Q269 182 307 127T439 72ZM455 1202Q421 1202 404 1226T389 1282Q392 1311 413 1339T473
1367Q502 1367 524 1347T545 1289Q543 1247 515 1225T455 1202ZM731 1200Q699 1200 681 1225T666 1281Q669 1311 691 1338T750 1366Q774 1366 799 1348T823 1288Q821 1242 789 1221T731 1200Z" />
<glyph unicode="&#xe5;" horiz-adv-x="984" d="M430 -18Q336 -18 275 23T188 128T167 260Q178 359 228 420T355 511T517 540Q579 540 645 525T769 481L782 617Q797 760 746 821T591 882Q533 882 482 864T398 804T360 697H243Q252 800 305 860T434 945T591 970Q739
970 820 888T883 615L825 0H737Q738 45 739 88T742 175Q694 76 609 29T430 -18ZM439 72Q518 72 592 112T715 228T761 408Q699 429 637 440T518 452Q423 452 355 410T276 260Q269 182 307 127T439 72ZM595 1092Q546 1092 505 1117T439 1183T414 1273Q414 1323 438
1364T504 1429T595 1454Q645 1454 686 1430T751 1364T776 1273Q776 1224 752 1183T686 1117T595 1092ZM595 1181Q634 1181 661 1208T688 1273Q688 1313 661 1339T595 1366Q556 1366 529 1340T502 1273Q502 1235 529 1208T595 1181Z" />
<glyph unicode="&#xe6;" horiz-adv-x="1525" d="M168 260Q175 352 225 414T351 508T512 540Q574 540 645 522T781 466L749 436L767 617Q782 763 733 822T588 882Q533 882 483 863T400 804T362 697H244Q253 802 307 861T438 945T588 970Q700 970 772 914T852 721L832
729Q888 844 978 907T1180 970Q1254 970 1310 943T1404 865T1459 749T1473 605Q1472 572 1468 532T1455 453H816L865 492Q851 374 869 280T942 131T1095 76Q1187 76 1252 127T1338 275H1447Q1424 178 1370 113T1242 15T1091 -18Q1004 -18 937 19T828 114T772 239H796Q734
113 629 48T422 -18Q346 -18 286 16T194 113T168 260ZM278 260Q271 182 308 127T436 72Q494 72 552 97T658 171T729 289T745 445L777 398Q707 422 640 437T513 452Q458 452 407 435T320 377T278 260ZM863 496L822 530H1369Q1381 624 1367 703T1306 830T1172 878Q1079
878 1014 823T911 681T863 496Z" />
<glyph unicode="&#xe7;" horiz-adv-x="911" d="M478 -18Q373 -18 291 41T166 211T137 477Q152 633 215 743T371 911T568 970Q632 970 683 949T773 891T836 803T871 694L766 675Q748 768 692 819T557 870Q482 870 416 824T303 690T246 477Q235 361 260 272T345
132T491 81Q588 81 654 140T727 309H837Q829 212 779 138T650 23T478 -18ZM305 -350L325 -293Q405 -336 467 -342T566 -327T602 -268Q603 -230 568 -202T482 -155T386 -126L442 45L524 40L470 -122L428 -67Q516 -89 579 -118T677 -184T711 -271Q711 -328 670 -362T564
-406T431 -402T305 -350Z" />
<glyph unicode="&#xe8;" horiz-adv-x="911" d="M470 -18Q357 -18 277 39T159 206T136 471Q151 626 209 738T358 910T560 970Q637 970 694 943T789 865T844 749T860 605Q859 572 855 532T842 453H194L243 484Q230 370 249 278T324 131T481 76Q573 76 638 127T725
275H834Q810 178 757 113T629 15T470 -18ZM243 512L207 530H803L754 518Q767 613 755 695T696 827T556 878Q465 878 400 827T295 693T243 512ZM730 1088L345 1324L404 1429L770 1162L730 1088Z" />
<glyph unicode="&#xe9;" horiz-adv-x="911" d="M470 -18Q357 -18 277 39T159 206T136 471Q151 626 209 738T358 910T560 970Q637 970 694 943T789 865T844 749T860 605Q859 572 855 532T842 453H194L243 484Q230 370 249 278T324 131T481 76Q573 76 638 127T725
275H834Q810 178 757 113T629 15T470 -18ZM243 512L207 530H803L754 518Q767 613 755 695T696 827T556 878Q465 878 400 827T295 693T243 512ZM458 1097L428 1171L845 1438L887 1333L458 1097Z" />
<glyph unicode="&#xea;" horiz-adv-x="911" d="M470 -18Q357 -18 277 39T159 206T136 471Q151 626 209 738T358 910T560 970Q637 970 694 943T789 865T844 749T860 605Q859 572 855 532T842 453H194L243 484Q230 370 249 278T324 131T481 76Q573 76 638 127T725
275H834Q810 178 757 113T629 15T470 -18ZM243 512L207 530H803L754 518Q767 613 755 695T696 827T556 878Q465 878 400 827T295 693T243 512ZM297 1114L237 1170L560 1477L827 1170L758 1114L548 1337L297 1114Z" />
<glyph unicode="&#xeb;" horiz-adv-x="911" d="M470 -18Q357 -18 277 39T159 206T136 471Q151 626 209 738T358 910T560 970Q637 970 694 943T789 865T844 749T860 605Q859 572 855 532T842 453H194L243 484Q230 370 249 278T324 131T481 76Q573 76 638 127T725
275H834Q810 178 757 113T629 15T470 -18ZM243 512L207 530H803L754 518Q767 613 755 695T696 827T556 878Q465 878 400 827T295 693T243 512ZM419 1202Q385 1202 368 1226T353 1282Q356 1311 377 1339T437 1367Q466 1367 488 1347T509 1289Q507 1247 479 1225T419
1202ZM695 1200Q663 1200 645 1225T630 1281Q633 1311 655 1338T714 1366Q738 1366 763 1348T787 1288Q785 1242 753 1221T695 1200Z" />
<glyph unicode="&#xec;" horiz-adv-x="510" d="M192 0L281 950H385L296 0H192ZM785 1088L400 1324L459 1429L825 1162L785 1088Z" />
<glyph unicode="&#xed;" horiz-adv-x="510" d="M192 0L281 950H385L296 0H192ZM513 1097L483 1171L900 1438L942 1333L513 1097Z" />
<glyph unicode="&#xee;" horiz-adv-x="510" d="M192 0L281 950H385L296 0H192ZM96 1114L36 1170L359 1477L626 1170L557 1114L347 1337L96 1114Z" />
<glyph unicode="&#xef;" horiz-adv-x="510" d="M192 0L281 950H385L296 0H192ZM474 1202Q440 1202 423 1226T408 1282Q411 1311 432 1339T492 1367Q521 1367 543 1347T564 1289Q562 1247 534 1225T474 1202ZM750 1200Q718 1200 700 1225T685 1281Q688 1311 710
1338T769 1366Q793 1366 818 1348T842 1288Q840 1242 808 1221T750 1200Z" />
<glyph unicode="&#xf0;" horiz-adv-x="1027" d="M460 -20Q378 -20 307 19T191 137T147 338Q147 451 185 542T288 699T429 799T585 834Q631 834 679 819T770 765T838 658T864 483H853Q884 729 851 921T732 1267T517 1547L604 1597Q732 1466 808 1330T917 1047T951
741Q951 535 906 390T788 154T629 22T460 -20ZM476 71Q573 71 644 131T753 284T792 478Q792 609 731 676T576 743Q484 743 412 685T298 534T256 339Q256 223 312 147T476 71ZM522 1035L487 1106L1064 1438L1101 1367L522 1035Z" />
<glyph unicode="&#xf1;" horiz-adv-x="1067" d="M187 0L276 948H364L358 751Q407 856 487 913T673 970Q772 970 840 922T940 782T958 559L906 0H806L858 559Q873 713 813 791T645 870Q511 870 431 758T334 462L291 0H187ZM412 1175L371 1203Q403 1299 443 1342T532
1385Q553 1385 577 1374T656 1331Q710 1299 731 1289T771 1278Q801 1278 827 1301T879 1385L924 1350Q905 1292 879 1253T824 1195T765 1175Q743 1175 717 1188T628 1234Q575 1262 557 1270T522 1278Q494 1278 468 1256T412 1175Z" />
<glyph unicode="&#xf2;" horiz-adv-x="963" d="M479 -18Q363 -18 281 38T160 205T136 475Q152 635 212 745T365 913T573 970Q690 970 772 912T892 743T915 475Q900 316 840 206T688 39T479 -18ZM484 80Q625 80 708 188T809 475Q827 655 766 763T563 871Q423 871
344 765T247 475Q236 358 256 269T333 130T484 80ZM768 1088L383 1324L442 1429L808 1162L768 1088Z" />
<glyph unicode="&#xf3;" horiz-adv-x="963" d="M479 -18Q363 -18 281 38T160 205T136 475Q152 635 212 745T365 913T573 970Q690 970 772 912T892 743T915 475Q900 316 840 206T688 39T479 -18ZM484 80Q625 80 708 188T809 475Q827 655 766 763T563 871Q423 871
344 765T247 475Q236 358 256 269T333 130T484 80ZM495 1097L465 1171L882 1438L924 1333L495 1097Z" />
<glyph unicode="&#xf4;" horiz-adv-x="963" d="M479 -18Q363 -18 281 38T160 205T136 475Q152 635 212 745T365 913T573 970Q690 970 772 912T892 743T915 475Q900 316 840 206T688 39T479 -18ZM484 80Q625 80 708 188T809 475Q827 655 766 763T563 871Q423 871
344 765T247 475Q236 358 256 269T333 130T484 80ZM334 1114L274 1170L597 1477L864 1170L795 1114L585 1337L334 1114Z" />
<glyph unicode="&#xf5;" horiz-adv-x="963" d="M479 -18Q363 -18 281 38T160 205T136 475Q152 635 212 745T365 913T573 970Q690 970 772 912T892 743T915 475Q900 316 840 206T688 39T479 -18ZM484 80Q625 80 708 188T809 475Q827 655 766 763T563 871Q423 871
344 765T247 475Q236 358 256 269T333 130T484 80ZM372 1175L331 1203Q363 1299 403 1342T492 1385Q513 1385 537 1374T616 1331Q670 1299 691 1289T731 1278Q761 1278 787 1301T839 1385L884 1350Q865 1292 839 1253T784 1195T725 1175Q703 1175 677 1188T588
1234Q535 1262 517 1270T482 1278Q454 1278 428 1256T372 1175Z" />
<glyph unicode="&#xf6;" horiz-adv-x="963" d="M479 -18Q363 -18 281 38T160 205T136 475Q152 635 212 745T365 913T573 970Q690 970 772 912T892 743T915 475Q900 316 840 206T688 39T479 -18ZM484 80Q625 80 708 188T809 475Q827 655 766 763T563 871Q423 871
344 765T247 475Q236 358 256 269T333 130T484 80ZM457 1202Q423 1202 406 1226T391 1282Q394 1311 415 1339T475 1367Q504 1367 526 1347T547 1289Q545 1247 517 1225T457 1202ZM733 1200Q701 1200 683 1225T668 1281Q671 1311 693 1338T752 1366Q776 1366 801
1348T825 1288Q823 1242 791 1221T733 1200Z" />
<glyph unicode="&#xf7;" horiz-adv-x="861" d="M311 537H1050L1036 442H297L311 537ZM456 665Q419 665 399 692T383 755Q387 792 412 817T475 842Q510 842 531 818T549 755Q545 720 519 693T456 665ZM364 143Q327 143 307 170T291 233Q295 270 320 295T383 320Q418
320 439 296T457 233Q453 198 427 171T364 143Z" />
<glyph unicode="&#xf8;" horiz-adv-x="963" d="M479 -18Q363 -18 281 38T160 205T136 475Q152 635 212 745T365 913T573 970Q690 970 772 912T892 743T915 475Q900 316 840 206T688 39T479 -18ZM484 80Q625 80 708 188T809 475Q827 655 766 763T563 871Q423 871
344 765T247 475Q236 358 256 269T333 130T484 80Z" />
<glyph unicode="&#xf9;" horiz-adv-x="1070" d="M477 -18Q378 -18 311 23T213 146T192 348L248 950H352L298 354Q283 220 334 152T499 83Q589 83 657 137T768 282T821 482L865 950H969L879 0H776L795 199Q742 97 660 40T477 -18ZM810 1088L425 1324L484 1429L850
1162L810 1088Z" />
<glyph unicode="&#xfa;" horiz-adv-x="1070" d="M477 -18Q378 -18 311 23T213 146T192 348L248 950H352L298 354Q283 220 334 152T499 83Q589 83 657 137T768 282T821 482L865 950H969L879 0H776L795 199Q742 97 660 40T477 -18ZM537 1097L507 1171L924 1438L966
1333L537 1097Z" />
<glyph unicode="&#xfb;" horiz-adv-x="1070" d="M477 -18Q378 -18 311 23T213 146T192 348L248 950H352L298 354Q283 220 334 152T499 83Q589 83 657 137T768 282T821 482L865 950H969L879 0H776L795 199Q742 97 660 40T477 -18ZM376 1114L316 1170L639 1477L906
1170L837 1114L627 1337L376 1114Z" />
<glyph unicode="&#xfc;" horiz-adv-x="1070" d="M477 -18Q378 -18 311 23T213 146T192 348L248 950H352L298 354Q283 220 334 152T499 83Q589 83 657 137T768 282T821 482L865 950H969L879 0H776L795 199Q742 97 660 40T477 -18ZM499 1202Q465 1202 448 1226T433
1282Q436 1311 457 1339T517 1367Q546 1367 568 1347T589 1289Q587 1247 559 1225T499 1202ZM775 1200Q743 1200 725 1225T710 1281Q713 1311 735 1338T794 1366Q818 1366 843 1348T867 1288Q865 1242 833 1221T775 1200Z" />
<glyph unicode="&#xfd;" horiz-adv-x="853" d="M164 -486Q112 -486 67 -467T-23 -413L-12 -304Q28 -347 70 -366T160 -385Q221 -385 264 -342T338 -232T390 -100L426 0L163 948H276L488 155L778 948H883L461 -197Q429 -284 386 -349T288 -450T164 -486ZM429 1097L399
1171L816 1438L858 1333L429 1097Z" />
<glyph unicode="&#xfe;" horiz-adv-x="1055" d="M144 -468L308 1254H413L366 763H345Q397 864 476 917T647 970Q747 970 827 911T949 742T978 477Q964 323 900 212T744 42T549 -18Q465 -18 402 22T306 137L248 -468H144ZM558 81Q626 81 693 126T808 259T869 477Q881
603 852 690T764 824T629 870Q564 870 502 835T397 731T344 556L328 386Q319 288 350 220T438 116T558 81Z" />
<glyph unicode="&#xff;" horiz-adv-x="853" d="M164 -486Q112 -486 67 -467T-23 -413L-12 -304Q28 -347 70 -366T160 -385Q221 -385 264 -342T338 -232T390 -100L426 0L163 948H276L488 155L778 948H883L461 -197Q429 -284 386 -349T288 -450T164 -486ZM390 1202Q356
1202 339 1226T324 1282Q327 1311 348 1339T408 1367Q437 1367 459 1347T480 1289Q478 1247 450 1225T390 1202ZM666 1200Q634 1200 616 1225T601 1281Q604 1311 626 1338T685 1366Q709 1366 734 1348T758 1288Q756 1242 724 1221T666 1200Z" />
<glyph unicode="&#x2013;" horiz-adv-x="805" d="M149 522L157 620H764L753 522H149Z" />
<glyph unicode="&#x2014;" horiz-adv-x="1265" d="M149 522L157 620H1223L1215 522H149Z" />
<glyph unicode="&#x2018;" horiz-adv-x="331" d="M245 879Q204 879 180 915T159 1005Q164 1045 183 1086T235 1163T319 1224L388 1184Q339 1155 307 1121T260 1044Q296 1043 316 1022T334 963Q330 929 306 904T245 879Z" />
<glyph unicode="&#x2019;" horiz-adv-x="331" d="M172 879L101 922Q150 951 183 984T231 1061Q197 1064 175 1085T154 1142Q157 1175 181 1199T242 1224Q271 1224 292 1209T323 1165T328 1098Q325 1060 307 1020T254 944T172 879Z" />
<glyph unicode="&#x201a;" horiz-adv-x="379" d="M327 -188L253 -147Q303 -123 337 -90T386 -10Q349 -8 327 13T309 73Q314 105 337 128T397 152Q426 152 445 136T475 91T482 27Q480 -7 463 -47T413 -124T327 -188Z" />
<glyph unicode="&#x201c;" horiz-adv-x="631" d="M499 879Q458 879 434 915T413 1005Q418 1045 437 1086T489 1163T573 1224L642 1184Q593 1155 561 1121T514 1044Q550 1043 570 1022T588 963Q584 929 560 904T499 879ZM245 879Q204 879 180 915T159 1005Q164
1045 183 1086T235 1163T319 1224L388 1184Q339 1155 307 1121T260 1044Q296 1043 316 1022T334 963Q330 929 306 904T245 879Z" />
<glyph unicode="&#x201d;" horiz-adv-x="635" d="M477 879L406 922Q455 951 488 984T536 1061Q502 1064 480 1085T459 1142Q462 1175 486 1199T547 1224Q576 1224 597 1209T628 1165T633 1098Q630 1060 612 1020T559 944T477 879ZM218 879L147 922Q196 951 229
984T277 1061Q243 1064 221 1085T200 1142Q203 1175 227 1199T288 1224Q317 1224 338 1209T369 1165T374 1098Q371 1060 353 1020T300 944T218 879Z" />
<glyph unicode="&#x201e;" horiz-adv-x="646" d="M339 -188L265 -147Q315 -123 349 -90T398 -10Q361 -8 339 13T321 73Q326 105 349 128T409 152Q438 152 457 136T487 91T494 27Q492 -7 475 -47T425 -124T339 -188ZM327 -188L253 -147Q303 -123 337 -90T386 -10Q349
-8 327 13T309 73Q314 105 337 128T397 152Q426 152 445 136T475 91T482 27Q480 -7 463 -47T413 -124T327 -188Z" />
<glyph unicode="&#x2022;" horiz-adv-x="432" d="M257 348Q189 348 153 397T124 512Q131 579 177 625T292 671Q355 671 394 627T427 512Q419 448 372 398T257 348Z" />
<glyph unicode="&#x2039;" horiz-adv-x="685" d="M489 98L142 525L610 953L698 900L248 497L247 552L584 149L489 98Z" />
<glyph unicode="&#x203a;" horiz-adv-x="685" d="M178 98L89 149L539 552L541 499L203 902L298 953L645 525L178 98Z" />
</font>
</defs>
</svg>
