<?xml version="1.0" standalone="no"?>
<!DOCTYPE svg PUBLIC "-//W3C//DTD SVG 1.1//EN" "http://www.w3.org/Graphics/SVG/1.1/DTD/svg11.dtd">
<svg xmlns="http://www.w3.org/2000/svg">
<defs >
<font id="Karla" horiz-adv-x="978" ><font-face
    font-family="Karla Medium"
    units-per-em="2000"
    panose-1="2 11 0 4 3 5 3 3 0 3"
    ascent="1834"
    descent="-504"
    alphabetic="0" />
<glyph unicode=" " horiz-adv-x="442" />
<glyph unicode="!" horiz-adv-x="514" d="M224 394L287 1290H476L372 394H224ZM259 -18Q203 -18 171 22T144 116Q149 172 188 212T284 252Q341 252 373 212T400 116Q394 61 355 22T259 -18Z" />
<glyph unicode="&quot;" horiz-adv-x="618" d="M493 909L513 1367H692L624 909H493ZM162 909L182 1367H361L293 909H162Z" />
<glyph unicode="#" horiz-adv-x="1173" d="M251 64L302 334H130L153 465H326L390 801H216L241 931H415L466 1199H632L581 931H841L893 1199H1057L1007 931H1185L1158 801H982L917 465H1096L1071 334H894L843 64H677L727 334H467L416 64H251ZM492 465H753L817 801H556L492
465Z" />
<glyph unicode="$" horiz-adv-x="1187" d="M509 -192L525 -20Q413 -8 326 41T191 177T156 391H330Q320 285 377 229T543 160L583 591L512 619Q368 673 296 748T235 959Q249 1099 355 1192T649 1298L665 1449H796L781 1296Q943 1280 1023 1187T1113 946H939Q933
1014 890 1062T765 1124L727 727L865 673Q989 624 1050 546T1099 338Q1090 251 1038 172T890 40T655 -23L640 -192H509ZM673 157Q780 167 836 221T901 343Q907 409 873 456T770 529L710 553L673 157ZM601 767L633 1127Q538 1119 485 1070T427 955Q421 892 451 855T551
788L601 767Z" />
<glyph unicode="%" horiz-adv-x="1340" d="M469 1301Q565 1301 630 1227T681 1007Q667 860 588 786T414 712Q351 712 300 745T222 843T205 1007Q214 1104 253 1169T349 1268T469 1301ZM457 1174Q410 1174 379 1134T338 1007Q329 918 354 879T426 840Q470 840 502
879T543 1007Q551 1094 527 1134T457 1174ZM196 0L1093 1277H1273L376 0H196ZM1052 565Q1147 565 1212 492T1263 271Q1249 123 1170 49T995 -25Q901 -25 837 49T786 271Q801 418 879 491T1052 565ZM1039 438Q994 438 962 398T921 271Q914 182 938 144T1008 105Q1053
105 1085 143T1125 271Q1136 358 1110 398T1039 438Z" />
<glyph unicode="&amp;" horiz-adv-x="1691" d="M623 -25Q492 -25 392 25T239 163T196 359Q209 494 302 570T559 676L534 703Q479 764 450 838T427 994Q435 1080 486 1149T624 1258T828 1299Q939 1299 1016 1258T1130 1149T1159 997Q1148 879 1067 790T825 631L1059
377Q1126 457 1183 556T1289 768L1404 694Q1355 571 1294 462T1161 265L1220 204Q1248 175 1274 161T1339 147Q1382 147 1418 183T1467 303H1629Q1609 150 1536 63T1337 -25Q1295 -25 1259 -15T1188 17T1119 70T1043 144Q952 64 847 20T623 -25ZM641 151Q722 151
796 180T937 262L653 573Q525 555 462 504T391 369Q382 279 446 215T641 151ZM735 730Q816 769 864 807T935 886T965 977Q970 1043 929 1087T813 1131Q726 1131 675 1082T618 965Q612 915 631 870T693 776L735 730Z" />
<glyph unicode="&apos;" horiz-adv-x="283" d="M152 897L172 1354H352L284 897H152Z" />
<glyph unicode="(" horiz-adv-x="679" d="M637 1481L754 1379Q641 1261 561 1140T433 890T372 625Q360 489 382 361T462 112T612 -127L475 -231Q364 -108 296 30T201 317T189 625Q213 862 324 1080T637 1481Z" />
<glyph unicode=")" horiz-adv-x="679" d="M159 -231L41 -127Q155 -10 236 111T364 361T424 625Q436 761 414 889T334 1139T184 1379L321 1481Q487 1298 558 1080T606 625Q591 467 536 318T387 30T159 -231Z" />
<glyph unicode="*" horiz-adv-x="739" d="M307 784L223 873L398 1044L201 1121L261 1244L436 1140L438 1387H566L523 1140L718 1246L755 1122L545 1045L686 873L586 784L467 989L307 784Z" />
<glyph unicode="+" horiz-adv-x="963" d="M485 982H662L624 575H985L969 407H607L570 0H394L431 407H70L86 575H448L485 982Z" />
<glyph unicode="," horiz-adv-x="416" d="M155 -244L32 -172Q90 -142 134 -102T197 -10Q152 -2 123 28T99 109Q105 160 143 196T237 232Q282 232 312 207T356 140T365 48Q360 -5 334 -60T263 -163T155 -244Z" />
<glyph unicode="-" horiz-adv-x="649" d="M123 507L140 677H637L621 507H123Z" />
<glyph unicode="." horiz-adv-x="353" d="M172 -18Q117 -18 85 21T58 118Q65 174 104 213T198 252Q252 252 285 215T314 118Q309 59 268 21T172 -18Z" />
<glyph unicode="/" horiz-adv-x="813" d="M84 -154L695 1475H875L262 -154H84Z" />
<glyph unicode="0" horiz-adv-x="1104" d="M547 -25Q409 -25 312 48T172 268T149 639Q169 862 241 1009T424 1228T675 1301Q812 1301 910 1229T1052 1009T1076 639Q1055 416 982 269T798 48T547 -25ZM565 155Q702 155 786 280T893 639Q915 872 854 997T657 1123Q523
1123 438 998T331 639Q308 406 369 281T565 155Z" />
<glyph unicode="1" horiz-adv-x="618" d="M427 1283H563L443 0H267L365 1050Q319 1021 270 1006T175 989L192 1179Q251 1188 310 1212T427 1283Z" />
<glyph unicode="2" horiz-adv-x="1065" d="M309 229L304 180H966L950 0H112L130 203Q141 312 178 387T278 512T430 598L671 699Q756 736 802 792T855 931Q865 1017 815 1073T665 1129Q569 1129 502 1080T414 934H219Q235 1055 298 1136T459 1259T679 1301Q793
1301 879 1253T1011 1119T1045 922Q1031 773 949 680T725 526L480 423Q398 389 357 345T309 229Z" />
<glyph unicode="3" horiz-adv-x="1091" d="M545 -25Q457 -25 377 2T236 82T144 214T123 397H310Q305 319 336 265T425 183T563 155Q680 155 752 217T833 371Q838 432 815 477T737 547T591 573H449L465 728H575Q691 728 763 781T844 927Q851 1011 801 1067T643
1123Q558 1123 489 1085T389 948H204Q242 1136 366 1218T655 1301Q774 1301 863 1256T999 1132T1036 949Q1027 850 970 778T813 669Q916 632 974 553T1022 355Q1011 243 949 157T783 23T545 -25Z" />
<glyph unicode="4" horiz-adv-x="1037" d="M632 0L658 296H70L84 445L760 1293H926L849 464H1048L1032 296H833L805 0H632ZM294 445H680L731 995L294 445Z" />
<glyph unicode="5" horiz-adv-x="1031" d="M518 -25Q401 -25 314 20T180 154T144 369H323Q314 262 375 209T535 155Q644 155 717 230T802 420Q812 527 752 582T561 638H232L344 1277H1007L990 1099H498L438 771Q483 779 533 784T622 789Q805 789 903 695T984 420Q973
294 911 193T748 34T518 -25Z" />
<glyph unicode="6" horiz-adv-x="1061" d="M557 -26Q416 -26 318 58T174 287T145 616Q166 833 240 986T432 1220T697 1301Q806 1301 884 1256T1004 1130T1042 941H854Q850 1025 810 1074T687 1123Q576 1123 491 1039T358 801T315 441Q338 568 392 641T520 746T671
777Q777 777 854 725T971 582T1000 374Q988 254 929 164T773 24T557 -26ZM574 155Q669 155 738 216T817 382Q827 489 769 549T617 610Q556 610 503 581T416 500T376 382Q367 278 424 217T574 155Z" />
<glyph unicode="7" horiz-adv-x="870" d="M92 0L733 1089H146L164 1277H958L940 1093L330 0H92Z" />
<glyph unicode="8" horiz-adv-x="1134" d="M563 -25Q421 -25 320 23T167 154T125 343Q137 465 219 542T420 637Q369 664 321 708T243 814T221 958Q231 1061 290 1138T450 1258T689 1301Q813 1301 906 1254T1048 1126T1087 941Q1078 841 1009 761T822 659L841 651Q962
598 1023 526T1072 329Q1062 225 998 146T824 21T563 -25ZM581 155Q723 155 803 201T889 321Q894 378 860 418T761 486L573 567Q464 558 390 499T309 362Q300 264 379 210T581 155ZM655 734Q751 736 823 789T905 929Q913 1017 849 1070T671 1123Q601 1123 542 1100T447
1038T405 950Q399 891 431 856T527 791L655 734Z" />
<glyph unicode="9" horiz-adv-x="1071" d="M519 -25Q402 -25 316 26T185 169T151 378H336Q329 275 382 215T531 155Q684 155 764 298T869 682Q872 717 873 748T873 815Q848 706 796 637T673 534T518 501Q413 501 336 552T219 694T191 903Q203 1023 262 1112T417
1251T631 1301Q766 1301 866 1222T1015 998T1046 661Q1026 450 961 297T785 59T519 -25ZM574 666Q634 666 686 696T773 777T814 894Q824 1000 766 1060T614 1121Q522 1121 454 1061T374 894Q363 787 421 727T574 666Z" />
<glyph unicode=":" horiz-adv-x="450" d="M283 629Q228 629 196 667T169 763Q175 819 213 859T307 899Q362 899 395 860T423 763Q418 706 378 668T283 629ZM223 31Q166 31 136 72T110 166Q115 222 153 261T248 301Q305 301 337 261T364 166Q359 109 319 70T223 31Z" />
<glyph unicode=";" horiz-adv-x="512" d="M207 -244L83 -172Q141 -142 185 -102T248 -10Q203 -3 175 29T150 109Q155 160 193 196T287 232Q355 232 389 179T415 48Q407 -35 352 -116T207 -244ZM336 635Q281 635 249 673T222 769Q227 824 264 864T359 905Q415 905
448 866T476 769Q471 713 431 674T336 635Z" />
<glyph unicode="&lt;" horiz-adv-x="860" d="M772 1188L875 1039L315 627L797 219L667 68L127 540L143 715L772 1188Z" />
<glyph unicode="=" horiz-adv-x="893" d="M177 383H787L771 213H161L177 383ZM215 784H825L809 614H200L215 784Z" />
<glyph unicode="&gt;" horiz-adv-x="860" d="M203 68L102 219L660 627L180 1039L309 1188L849 715L833 540L203 68Z" />
<glyph unicode="?" horiz-adv-x="913" d="M349 354L357 439Q366 531 389 585T456 678T566 755Q617 787 654 814T714 875T739 959Q744 1036 698 1079T558 1123Q458 1123 399 1075T323 946H138Q163 1105 274 1203T569 1301Q695 1301 778 1256T900 1132T932 956Q926
876 894 820T813 724T707 651Q647 614 610 587T555 523T531 422L525 354H349ZM405 -25Q346 -25 316 15T292 112Q298 168 336 204T433 241Q493 241 521 203T547 111Q542 51 503 13T405 -25Z" />
<glyph unicode="@" horiz-adv-x="1768" d="M963 -398Q763 -398 607 -335T346 -159T193 106T161 435Q179 626 256 785T458 1059T742 1238T1085 1301Q1245 1301 1372 1246T1585 1094T1710 867T1735 589Q1723 458 1679 356T1569 181T1427 72T1273 35Q1193 35 1146
71T1091 172L1086 204Q1046 129 989 82T838 35Q764 35 702 80T606 206T582 393Q592 496 633 583T739 736T882 838T1044 875Q1157 875 1217 800T1263 571L1234 288Q1230 233 1244 210T1293 186Q1325 186 1366 210T1446 283T1516 409T1556 589Q1570 741 1518 862T1352
1054T1068 1125Q919 1125 792 1071T569 920T413 696T339 421Q320 226 389 78T607 -154T979 -238L963 -398ZM886 193Q954 193 1002 236T1098 363L1117 569Q1125 643 1105 683T1025 723Q970 723 909 683T801 570T745 396Q735 299 775 246T886 193Z" />
<glyph unicode="A" horiz-adv-x="1079" d="M43 0L557 1277H775L1037 0H851L789 301H348L229 0H43ZM407 451H760L641 1043L407 451Z" />
<glyph unicode="B" horiz-adv-x="1142" d="M175 0L295 1277H743Q872 1277 953 1232T1069 1110T1095 941Q1085 833 1023 754T855 644Q921 630 969 589T1042 487T1059 352Q1054 289 1029 227T953 113T821 31T623 0H175ZM366 171H635Q750 171 806 223T870 362Q880
448 830 500T671 552H402L366 171ZM454 1109L418 722H683Q782 722 842 774T911 918Q919 1006 870 1057T719 1109H454Z" />
<glyph unicode="C" horiz-adv-x="1123" d="M579 -25Q427 -25 324 57T175 289T149 644Q169 858 247 1004T444 1226T705 1301Q897 1301 1000 1196T1125 922L931 882Q911 992 848 1058T688 1125Q605 1125 531 1071T405 910T338 644Q324 497 348 387T434 215T596 153Q721
153 799 226T889 418H1077Q1065 278 999 179T826 28T579 -25Z" />
<glyph unicode="D" horiz-adv-x="1211" d="M293 1277H649Q825 1277 947 1199T1127 977T1168 639Q1150 445 1064 302T841 79T529 0H173L293 1277ZM452 1101L366 175H545Q666 175 758 235T908 400T978 639Q991 773 954 877T834 1041T631 1101H452Z" />
<glyph unicode="E" horiz-adv-x="1032" d="M173 0L293 1277H1017L999 1109H452L416 725H930L915 557H400L364 171H912L897 0H173Z" />
<glyph unicode="F" horiz-adv-x="963" d="M175 0L295 1277H1007L989 1109H454L418 727H911L896 559H402L351 0H175Z" />
<glyph unicode="G" horiz-adv-x="1188" d="M583 -25Q444 -25 339 55T181 282T147 627Q163 789 216 914T352 1125T537 1255T753 1300Q900 1300 999 1231T1150 1011L969 957Q925 1040 865 1081T727 1123Q633 1123 549 1064T408 893T335 627Q322 487 352 381T448
215T613 155Q691 155 758 192T870 303T922 488Q924 504 923 518T917 560L969 506L651 517L663 644H1106L1047 0H904Q903 61 903 123T902 245L916 248Q871 119 789 47T583 -25Z" />
<glyph unicode="H" horiz-adv-x="1236" d="M175 0L295 1277H471L418 729H952L1005 1277H1182L1061 0H885L936 559H402L351 0H175Z" />
<glyph unicode="I" horiz-adv-x="525" d="M175 0L295 1277H471L351 0H175Z" />
<glyph unicode="J" horiz-adv-x="763" d="M26 58L45 257Q108 210 172 188T295 165Q382 165 425 221T479 383L563 1277H741L656 383Q642 237 592 147T466 16T293 -25Q215 -25 150 -2T26 58Z" />
<glyph unicode="K" horiz-adv-x="1136" d="M295 1277H473L421 719L957 1277H1199L642 704L1111 0H883L509 567L395 449L353 0H175L295 1277Z" />
<glyph unicode="L" horiz-adv-x="865" d="M175 0L295 1277H471L366 171H859L843 0H175Z" />
<glyph unicode="M" horiz-adv-x="1549" d="M175 0L295 1277H548L821 464L1249 1277H1495L1374 0H1197L1294 1054L1311 1052L849 150H733L433 1080L451 1078L351 0H175Z" />
<glyph unicode="N" horiz-adv-x="1260" d="M171 0L291 1277H489L968 257L933 260L1031 1277H1207L1087 0H902L408 1038L445 1035L348 0H171Z" />
<glyph unicode="O" horiz-adv-x="1195" d="M593 -25Q445 -25 338 49T179 270T149 639Q170 862 249 1009T449 1229T719 1301Q868 1301 976 1228T1136 1007T1168 639Q1146 415 1067 268T865 48T593 -25ZM611 153Q761 153 861 277T985 640Q1008 871 931 998T703 1125Q552
1125 453 998T331 639Q308 401 384 277T611 153Z" />
<glyph unicode="P" horiz-adv-x="1021" d="M170 0L290 1277H679Q807 1277 891 1229T1015 1092T1041 876Q1024 691 909 585T603 479H392L347 0H170ZM408 649H619Q727 649 789 712T859 876Q869 980 820 1044T661 1109H450L408 649Z" />
<glyph unicode="Q" horiz-adv-x="1203" d="M913 -347Q829 -347 763 -298T650 -157L582 -25Q437 -22 332 53T178 274T149 639Q170 862 249 1009T449 1229T719 1301Q868 1301 976 1228T1136 1007T1168 639Q1141 367 1030 208T756 -1L792 -71Q817 -114 847 -131T911
-151Q957 -151 999 -138T1090 -103L1070 -309Q1027 -330 989 -338T913 -347ZM611 153Q761 153 861 277T985 640Q1008 871 931 998T703 1125Q552 1125 453 998T331 639Q308 401 384 277T611 153Z" />
<glyph unicode="R" horiz-adv-x="1131" d="M175 0L295 1277H707Q909 1277 1005 1171T1085 892Q1071 751 990 654T766 524L1036 0H808L579 510H398L351 0H175ZM410 643H631Q754 643 823 708T902 876Q912 982 858 1045T691 1109H454L410 643Z" />
<glyph unicode="S" horiz-adv-x="1117" d="M555 -25Q438 -25 344 21T199 159T156 391H330Q322 310 353 258T441 180T569 155Q643 155 701 179T794 244T834 338Q841 410 806 453T692 527L485 619Q353 675 288 749T234 959Q250 1111 366 1206T675 1301Q860 1301
953 1206T1046 946H872Q867 1028 815 1075T659 1123Q557 1123 496 1075T426 953Q421 892 453 855T560 789L795 689Q916 639 978 556T1029 344Q1019 235 961 152T799 22T555 -25Z" />
<glyph unicode="T" horiz-adv-x="929" d="M376 0L480 1109H115L132 1277H1039L1022 1109H656L552 0H376Z" />
<glyph unicode="U" horiz-adv-x="1209" d="M601 -25Q391 -25 283 103T196 471L274 1277H450L372 471Q357 304 426 230T617 155Q740 155 823 229T922 471L1000 1277H1176L1099 471Q1084 311 1019 200T847 32T601 -25Z" />
<glyph unicode="V" horiz-adv-x="1052" d="M155 1277H341L547 245L953 1277H1138L617 0H432L155 1277Z" />
<glyph unicode="W" horiz-adv-x="1672" d="M151 1277H348L517 261L868 1169H987L1171 257L1565 1277H1762L1241 0H1055L895 769L585 0H401L151 1277Z" />
<glyph unicode="X" horiz-adv-x="1193" d="M74 0L538 635L193 1277H407L671 786L996 1277H1208L755 638L1117 0H896L623 481L289 0H74Z" />
<glyph unicode="Y" horiz-adv-x="1037" d="M425 0L474 526L144 1277H353L582 729L926 1277H1133L651 526L602 0H425Z" />
<glyph unicode="Z" horiz-adv-x="1098" d="M132 0L147 172L871 1095L234 1099L252 1277H1109L1092 1106L369 183L1004 179L988 0H132Z" />
<glyph unicode="[" horiz-adv-x="601" d="M132 -242L298 1519H697L680 1344H458L324 -66H546L531 -242H132Z" />
<glyph unicode="\" horiz-adv-x="813" d="M782 -153L172 1477H350L962 -153H782Z" />
<glyph unicode="]" horiz-adv-x="557" d="M-6 -242L11 -66H234L382 1344H159L177 1519H577L392 -242H-6Z" />
<glyph unicode="^" horiz-adv-x="875" d="M79 464L485 1189H625L891 464H696L531 956L275 464H79Z" />
<glyph unicode="_" horiz-adv-x="1343" d="M73 -1L88 169H1234L1218 -1H73Z" />
<glyph unicode="`" horiz-adv-x="602" d="M192 1588L276 1759L702 1494L642 1371L192 1588Z" />
<glyph unicode="a" horiz-adv-x="1029" d="M434 -25Q329 -25 261 18T162 129T139 276Q148 371 197 433T328 527T512 559Q575 559 636 547T752 513L763 623Q776 739 737 792T604 845Q550 845 507 828T437 775T405 688H211Q222 798 278 864T420 959T604 989Q781
989 868 899T938 617L880 0H728Q727 37 727 73T727 147Q677 61 604 18T434 -25ZM477 125Q545 125 603 158T699 250T740 389Q691 405 635 415T530 425Q449 425 391 392T325 276Q320 212 359 169T477 125Z" />
<glyph unicode="b" horiz-adv-x="1078" d="M593 -25Q509 -25 445 23T349 168L293 0H175L303 1367H480L428 831Q476 907 546 948T699 989Q795 989 871 937T991 788T1035 560Q1035 469 1008 367T927 176T789 31T593 -25ZM584 151Q654 151 705 187T789 283T839 410T855
542Q855 667 797 740T647 814Q590 814 536 784T445 695T401 553L390 431Q383 350 405 287T474 188T584 151Z" />
<glyph unicode="c" horiz-adv-x="940" d="M490 -25Q382 -25 295 37T163 213T132 483Q147 645 213 757T378 929T585 989Q662 989 720 962T819 888T881 782T907 661L729 650Q716 723 675 768T566 814Q507 814 453 778T360 668T311 483Q302 378 323 304T392 190T506
151Q591 151 641 199T699 334H877Q869 233 819 152T684 23T490 -25Z" />
<glyph unicode="d" horiz-adv-x="1087" d="M488 -25Q388 -25 310 29T186 182T140 410Q140 515 169 617T253 804T388 938T569 989Q655 989 716 950T812 833L863 1367H1040L911 0H767L759 157Q710 66 638 21T488 -25ZM528 151Q581 151 634 181T725 269T771 407L786
567Q788 576 788 581T788 594Q789 666 761 715T688 789T590 814Q519 814 468 778T384 683T337 557T321 430Q321 303 379 227T528 151Z" />
<glyph unicode="e" horiz-adv-x="940" d="M485 -25Q372 -25 287 37T160 212T132 481Q147 639 210 753T370 928T579 989Q668 989 731 954T834 859T889 721T899 557Q897 529 893 499T881 436H257L306 471Q294 376 309 299T372 178T501 133Q571 133 623 171T693 285H873Q850
190 795 121T660 13T485 -25ZM311 531L272 559H780L731 535Q742 611 733 679T685 790T567 833Q494 833 440 793T354 684T311 531Z" />
<glyph unicode="f" horiz-adv-x="637" d="M158 831L171 964H305L319 1094Q328 1196 369 1259T471 1353T601 1383Q640 1383 682 1377T765 1358L717 1206Q693 1216 668 1222T617 1229Q590 1229 564 1217T520 1176T495 1092L482 964H653L640 831H469L392 0H217L293 831H158Z" />
<glyph unicode="g" horiz-adv-x="1031" d="M441 -497Q307 -497 210 -455T62 -341T20 -180Q28 -97 81 -41T215 33Q166 65 143 109T124 207Q130 276 175 323T286 389Q244 436 223 499T209 640Q220 746 276 824T418 946T603 989Q666 989 720 972T815 923Q830 997
869 1051T967 1136T1094 1167L1063 977Q987 977 943 946T889 847Q915 805 927 753T935 640Q926 536 869 457T724 334T531 290Q490 290 449 300T371 328Q338 320 311 293T278 222Q273 178 303 151T417 123H731Q860 123 929 67T990 -100Q982 -200 912 -291T722 -439T441
-497ZM448 -341Q555 -341 635 -308T762 -223T813 -113Q816 -68 792 -42T718 -16H389Q304 -16 252 -61T196 -171Q192 -247 259 -294T448 -341ZM553 429Q615 429 659 457T730 533T761 640Q770 734 726 792T593 851Q502 851 447 792T383 640Q375 550 418 490T553 429Z"
/>
<glyph unicode="h" horiz-adv-x="1105" d="M175 0L303 1367H480L425 797Q478 890 553 939T722 989Q827 989 895 937T992 790T1009 565L956 0H781L833 565Q846 688 799 751T665 814Q594 814 538 774T446 657T395 467L351 0H175Z" />
<glyph unicode="i" horiz-adv-x="563" d="M386 1165Q334 1165 308 1197T284 1283Q289 1334 321 1367T407 1401Q460 1401 486 1369T509 1283Q504 1228 471 1197T386 1165ZM188 0L279 966H455L364 0H188Z" />
<glyph unicode="j" horiz-adv-x="583" d="M404 1165Q355 1165 327 1196T304 1283Q309 1337 342 1369T428 1401Q480 1401 507 1369T528 1283Q524 1230 491 1198T404 1165ZM53 -497Q-12 -497 -69 -479T-185 -429L-163 -259Q-119 -288 -70 -307T28 -326Q100 -326
142 -280T196 -123L299 968H475L371 -125Q359 -260 316 -341T206 -460T53 -497Z" />
<glyph unicode="k" horiz-adv-x="1025" d="M779 0L503 491L388 394L351 0H175L303 1367H480L408 601L824 964H1066L640 605L995 0H779Z" />
<glyph unicode="l" horiz-adv-x="525" d="M175 0L303 1367H480L351 0H175Z" />
<glyph unicode="m" horiz-adv-x="1695" d="M174 0L265 964H417Q418 920 418 876T419 787Q472 887 549 938T721 989Q832 989 901 931T997 769Q1050 883 1132 936T1316 989Q1421 989 1488 938T1584 791T1601 565L1549 0H1373L1425 565Q1436 686 1390 750T1255 814Q1183
814 1129 772T1042 650T996 452L955 0H779L831 565Q845 689 797 751T664 814Q554 814 481 718T391 443L350 0H174Z" />
<glyph unicode="n" horiz-adv-x="1103" d="M174 0L265 964H417L419 787Q472 887 549 938T721 989Q826 989 894 938T991 791T1007 565L955 0H779L831 565Q845 689 797 751T664 814Q554 814 481 718T391 443L350 0H174Z" />
<glyph unicode="o" horiz-adv-x="999" d="M498 -25Q380 -25 291 32T159 201T132 481Q148 650 213 763T377 932T594 989Q711 989 799 932T931 762T959 481Q942 314 877 202T714 32T498 -25ZM507 145Q618 145 691 232T781 481Q797 644 745 732T582 820Q472 820 400
733T312 481Q301 375 320 300T387 185T507 145Z" />
<glyph unicode="p" horiz-adv-x="1084" d="M129 -472L266 964H410Q411 929 413 894T415 825Q466 907 536 948T687 989Q789 989 872 929T1001 756T1031 483Q1017 323 950 210T787 36T584 -25Q507 -25 450 6T359 97L305 -472H129ZM580 151Q638 151 696 188T798 298T852
483Q862 588 838 661T763 774T644 814Q586 814 534 784T446 697T403 556L386 390Q380 314 403 261T473 180T580 151Z" />
<glyph unicode="q" horiz-adv-x="1074" d="M923 -497Q790 -458 742 -375T709 -142L735 141Q695 64 632 20T483 -25Q379 -25 294 36T164 210T133 483Q148 642 214 755T375 929T572 989Q655 989 720 944T819 810L873 964H990L884 -156Q878 -219 885 -255T917 -311T989
-351L923 -497ZM524 151Q578 151 629 179T716 261T758 390L776 571Q776 651 751 705T682 786T583 814Q515 814 458 775T363 662T313 483Q302 371 330 298T411 188T524 151Z" />
<glyph unicode="r" horiz-adv-x="716" d="M174 0L265 966H441L423 779Q470 883 534 932T677 982Q697 982 719 979T762 966L739 772Q713 779 686 783T633 788Q561 788 510 745T430 622T390 429L350 0H174Z" />
<glyph unicode="s" horiz-adv-x="947" d="M475 -25Q364 -25 283 13T159 122T125 289H291Q285 212 336 171T475 129Q563 129 617 167T679 264Q685 315 650 342T557 390L385 459Q285 497 234 563T192 723Q201 804 249 864T379 956T565 989Q731 989 812 912T886 718H717Q716
775 674 805T559 835Q500 835 462 818T402 773T376 715Q371 668 404 638T493 589L675 514Q771 479 826 419T873 264Q866 190 817 124T681 17T475 -25Z" />
<glyph unicode="t" horiz-adv-x="693" d="M450 -25Q377 -25 320 5T235 99T215 259L271 870L312 835H136L151 964H325L275 919L305 1225H481L451 919L411 964H711L697 835H397L446 870L389 263Q383 196 409 163T493 130Q523 130 557 138T635 164L647 26Q597 3 550
-11T450 -25Z" />
<glyph unicode="u" horiz-adv-x="1109" d="M479 -18Q384 -18 314 20T208 141T185 352L244 966H420L363 370Q353 262 395 208T524 153Q596 153 655 195T754 316T804 501L848 966H1024L934 0H757L774 182Q723 84 647 33T479 -18Z" />
<glyph unicode="v" horiz-adv-x="920" d="M118 964H319L478 200L781 964H983L557 0H361L118 964Z" />
<glyph unicode="w" horiz-adv-x="1333" d="M118 964H302L427 236L676 914H832L953 228L1217 964H1393L1018 0H845L723 627L488 0H315L118 964Z" />
<glyph unicode="x" horiz-adv-x="959" d="M37 0L416 481L128 966H345L543 629L796 966H1010L631 481L918 0H704L503 338L254 0H37Z" />
<glyph unicode="y" horiz-adv-x="889" d="M183 -497Q125 -497 72 -480T-36 -430L-19 -255Q25 -292 69 -309T160 -326Q208 -326 245 -294T312 -210T363 -96L399 0L138 964H337L504 233L767 964H946L508 -183Q468 -289 419 -358T312 -462T183 -497Z" />
<glyph unicode="z" horiz-adv-x="871" d="M99 0L113 159L654 805H173L190 964H867L850 805L320 159H789L775 0H99Z" />
<glyph unicode="{" horiz-adv-x="665" d="M625 -293Q473 -293 387 -231T268 -59T249 192L265 375Q274 460 264 493T219 527H181L199 721H236Q271 721 288 754T313 873L330 1056Q343 1198 396 1307T548 1479T799 1542L783 1367Q651 1367 586 1289T504 1053L487
865Q478 771 443 713T358 629L357 619Q402 595 426 536T440 383L423 194Q408 39 458 -40T642 -119L625 -293Z" />
<glyph unicode="|" horiz-adv-x="525" d="M151 -244L318 1521H494L327 -244H151Z" />
<glyph unicode="}" horiz-adv-x="715" d="M-37 -293L-21 -119Q111 -119 178 -40T258 195L275 383Q284 477 320 535T405 621V629Q367 651 344 697T320 816Q320 828 320 840T322 865L339 1054Q342 1086 342 1102T343 1129Q341 1248 289 1307T120 1367L137 1542Q271
1542 354 1492T477 1354T517 1149Q517 1127 517 1104T513 1056L497 873Q496 854 495 838T493 805Q493 761 504 741T543 721H581L563 527H526Q491 527 474 494T449 375L432 192Q419 51 366 -58T214 -230T-37 -293Z" />
<glyph unicode="~" horiz-adv-x="975" d="M235 427L144 484Q185 602 243 668T378 735Q414 735 455 722T560 679Q627 649 661 637T721 625Q795 625 848 739L938 671Q893 553 830 496T691 439Q663 439 622 452T515 495Q450 523 417 535T357 547Q325 547 295 520T235 427Z" />
<glyph unicode="&#xa0;" horiz-adv-x="442" />
<glyph unicode="&#xa1;" horiz-adv-x="514" d="M444 878L381 -18H192L296 878H444ZM409 1290Q465 1290 497 1250T524 1156Q519 1100 480 1060T384 1020Q327 1020 295 1060T268 1156Q274 1211 313 1250T409 1290Z" />
<glyph unicode="&#xa2;" horiz-adv-x="940" d="M489 950L530 1133H700L658 950H489ZM303 -162L344 20H515L473 -162H303ZM443 -25Q336 -25 249 37T117 213T85 483Q100 645 167 757T331 929T538 989Q615 989 673 962T772 888T835 782T861 661L682 650Q670 723 629
768T520 814Q460 814 406 778T314 668T264 483Q255 378 276 304T346 190T460 151Q544 151 594 199T652 334H831Q822 233 772 152T637 23T443 -25Z" />
<glyph unicode="&#xa3;" horiz-adv-x="1049" d="M38 0L54 175H107Q175 175 208 218T250 352L268 547H112L124 682H281L299 876Q313 1013 363 1108T497 1252T689 1301Q826 1301 903 1219T985 977H813Q808 1049 770 1086T673 1123Q594 1123 541 1064T475 876L456
682H774L762 547H444L427 364Q420 298 401 251T342 175H632Q720 175 763 214T825 337H1015Q994 180 904 90T616 0H38Z" />
<glyph unicode="&#xa4;" horiz-adv-x="1200" d="M570 223Q457 223 367 278T227 428T186 637Q194 750 256 843T416 993T629 1050Q743 1050 833 994T972 845T1013 637Q1005 522 943 428T782 279T570 223ZM190 165L95 270L320 479L417 374L190 165ZM932 163L756 356L867
461L1046 267L932 163ZM583 397Q650 397 706 429T799 516T839 637Q844 704 815 758T734 844T616 876Q549 876 493 843T401 756T360 637Q355 569 384 515T466 429T583 397ZM346 810L160 1011L272 1115L460 914L346 810ZM889 804L790 909L1004 1105L1101 1000L889
804Z" />
<glyph unicode="&#xa5;" horiz-adv-x="1037" d="M902 404H192L203 518H914L902 404ZM880 215H169L183 331H893L880 215ZM425 0L474 526L144 1277H353L582 729L926 1277H1133L651 526L602 0H425Z" />
<glyph unicode="&#xa6;" horiz-adv-x="525" d="M151 -244L225 541H401L327 -244H151ZM244 736L318 1521H494L420 736H244Z" />
<glyph unicode="&#xa7;" horiz-adv-x="970" d="M533 204L535 357Q621 361 675 400T735 496Q741 546 708 573T613 623L440 692Q341 730 290 795T248 955Q256 1037 305 1096T435 1188T621 1221Q788 1221 868 1144T941 951H773Q772 1007 730 1037T614 1068Q557 1068
518 1051T457 1006T432 948Q426 900 459 870T548 821L731 746Q827 711 883 651T928 496Q921 422 872 356T737 248T533 204ZM448 -215Q338 -215 257 -177T133 -68T99 99H265Q259 22 310 -19T449 -61Q537 -61 591 -23T653 74Q659 125 624 152T531 200L358 269Q259
307 208 373T166 533Q178 654 279 727T539 806L536 653Q448 647 402 610T350 525Q344 478 377 448T467 399L649 324Q745 289 800 229T846 74Q840 0 791 -66T655 -173T448 -215Z" />
<glyph unicode="&#xa8;" horiz-adv-x="633" d="M200 1663Q205 1714 238 1747T319 1780Q368 1780 397 1747T421 1663Q417 1616 381 1583T297 1549Q250 1549 223 1582T200 1663ZM524 1664Q529 1714 563 1747T644 1781Q692 1781 721 1748T745 1664Q741 1616 706 1583T622
1550Q576 1550 548 1583T524 1664Z" />
<glyph unicode="&#xa9;" horiz-adv-x="1399" d="M653 -12Q518 -12 406 38T213 178T95 386T71 638Q85 773 148 891T310 1098T532 1238T789 1289Q924 1289 1037 1239T1230 1099T1348 891T1372 638Q1358 504 1295 386T1133 179T911 39T653 -12ZM664 86Q778 86 882
129T1070 248T1208 424T1274 638Q1286 753 1253 853T1153 1029T989 1148T779 1191Q665 1191 561 1148T372 1030T235 854T169 638Q157 525 189 425T290 248T454 129T664 86ZM676 242Q583 242 522 291T432 430T416 645Q429 774 476 862T594 996T751 1042Q867 1042
929 978T1004 813L889 789Q876 855 838 895T741 936Q691 936 647 903T571 806T530 645Q521 556 536 490T588 386T686 349Q761 349 808 393T863 508H976Q969 424 930 365T825 274T676 242Z" />
<glyph unicode="&#xaa;" horiz-adv-x="1029" d="M434 -25Q329 -25 261 18T162 129T139 276Q148 371 197 433T328 527T512 559Q575 559 636 547T752 513L763 623Q776 739 737 792T604 845Q550 845 507 828T437 775T405 688H211Q222 798 278 864T420 959T604 989Q781
989 868 899T938 617L880 0H728Q727 37 727 73T727 147Q677 61 604 18T434 -25ZM477 125Q545 125 603 158T699 250T740 389Q691 405 635 415T530 425Q449 425 391 392T325 276Q320 212 359 169T477 125Z" />
<glyph unicode="&#xab;" horiz-adv-x="1219" d="M489 104L138 534L610 965L732 865L314 501L317 564L633 199L489 104ZM990 104L639 534L1111 965L1233 865L815 501L818 564L1134 199L990 104Z" />
<glyph unicode="&#xac;" horiz-adv-x="1200" d="M249 652H945L896 295H762L798 554L834 506H230L249 652Z" />
<glyph unicode="&#xad;" horiz-adv-x="1200" d="M123 507L140 677H637L621 507H123Z" />
<glyph unicode="&#xae;" horiz-adv-x="1399" d="M653 -12Q518 -12 406 38T213 178T95 386T71 638Q85 773 148 891T310 1098T532 1238T789 1289Q924 1289 1037 1239T1230 1099T1348 891T1372 638Q1358 504 1295 386T1133 179T911 39T653 -12ZM664 86Q778 86 882
129T1070 248T1208 424T1274 638Q1286 753 1253 853T1153 1029T989 1148T779 1191Q665 1191 561 1148T372 1030T235 854T169 638Q157 525 189 425T290 248T454 129T664 86ZM448 241L523 1040H781Q907 1040 967 974T1016 799Q1008 711 957 650T816 569L986 241H845L700
561H587L557 241H448ZM594 643H733Q810 643 853 683T903 789Q909 856 876 896T770 936H622L594 643Z" />
<glyph unicode="&#xaf;" horiz-adv-x="828" d="M252 1326H906L882 1168H228L252 1326Z" />
<glyph unicode="&#xb0;" horiz-adv-x="684" d="M428 986Q355 986 297 1022T208 1118T184 1253Q190 1327 231 1387T336 1483T473 1519Q547 1519 604 1483T693 1387T718 1253Q711 1179 670 1119T565 1022T428 986ZM437 1099Q500 1099 548 1144T602 1253Q608 1317
568 1360T463 1404Q399 1404 352 1359T297 1253Q291 1189 333 1144T437 1099Z" />
<glyph unicode="&#xb1;" horiz-adv-x="1033" d="M518 1088H694L669 805H961L945 637H652L628 355H452L478 637H186L201 805H493L518 1088ZM139 169H922L900 0H118L139 169Z" />
<glyph unicode="&#xb2;" horiz-adv-x="734" d="M294 642L291 612H698L689 501H173L184 626Q191 693 213 739T275 816T369 869L517 931Q569 954 597 988T630 1074Q636 1127 606 1161T513 1196Q454 1196 413 1166T359 1076H239Q249 1150 287 1200T386 1276T522 1302Q592
1302 645 1272T726 1190T747 1068Q738 977 688 920T550 825L399 761Q349 740 324 713T294 642Z" />
<glyph unicode="&#xb3;" horiz-adv-x="742" d="M430 486Q376 486 327 502T240 551T184 632T171 745H286Q283 697 302 664T357 614T441 596Q513 596 557 634T608 729Q611 767 597 794T549 838T459 854H371L381 949H449Q520 949 564 982T614 1071Q619 1123 588 1157T491
1192Q438 1192 396 1169T334 1084H221Q244 1200 320 1251T498 1302Q571 1302 626 1274T709 1198T733 1085Q727 1024 692 980T595 913Q659 890 695 842T724 719Q717 651 679 598T577 516T430 486Z" />
<glyph unicode="&#xb4;" horiz-adv-x="685" d="M274 1120L238 1243L714 1508L765 1337L274 1120Z" />
<glyph unicode="&#xb5;" horiz-adv-x="1109" d="M480 -18Q385 -18 315 20T209 141T186 352L245 966H421L364 370Q354 262 396 208T525 153Q597 153 656 195T755 316T805 501L849 966H1025L935 0H758L775 182Q724 84 648 33T480 -18ZM113 -401L243 966H419L287 -401H113Z" />
<glyph unicode="&#xb6;" horiz-adv-x="1200" d="M534 478Q321 478 217 583T132 876Q152 1064 279 1169T617 1275H1032L1014 1104H708L642 478H534ZM471 -252L630 1275H775L615 -252H471ZM759 -252L919 1275H1063L903 -252H759Z" />
<glyph unicode="&#xb7;" horiz-adv-x="354" d="M236 435Q181 435 149 474T122 571Q129 627 168 666T262 705Q316 705 349 668T378 571Q373 512 332 474T236 435Z" />
<glyph unicode="&#xb8;" horiz-adv-x="582" d="M13 -361L37 -287Q111 -324 167 -328T256 -314T289 -262Q290 -230 262 -206T189 -165T90 -135L151 66L248 55L193 -131L155 -72Q249 -90 311 -119T405 -187T436 -272Q436 -329 394 -364T285 -410T147 -410T13 -361Z" />
<glyph unicode="&#xb9;" horiz-adv-x="458" d="M342 1284H425L352 494H243L304 1140Q275 1122 245 1113T187 1103L197 1220Q233 1225 269 1240T342 1284Z" />
<glyph unicode="&#xba;" horiz-adv-x="999" d="M498 -25Q380 -25 291 32T159 201T132 481Q148 650 213 763T377 932T594 989Q711 989 799 932T931 762T959 481Q942 314 877 202T714 32T498 -25ZM507 145Q618 145 691 232T781 481Q797 644 745 732T582 820Q472
820 400 733T312 481Q301 375 320 300T387 185T507 145Z" />
<glyph unicode="&#xbb;" horiz-adv-x="1215" d="M214 104L91 199L509 564L507 505L190 870L334 965L685 534L214 104ZM711 104L588 199L1006 564L1004 505L687 870L831 965L1182 534L711 104Z" />
<glyph unicode="&#xbc;" horiz-adv-x="1746" d="M705 1402H791L716 600H605L667 1256Q638 1239 607 1230T548 1219L559 1337Q596 1343 632 1357T705 1402ZM287 -1L1246 1349H1382L421 -1H287ZM1346 0L1362 185H994L1003 278L1426 809H1529L1482 290H1606L1595
185H1471L1453 0H1346ZM1134 278H1375L1407 622L1134 278Z" />
<glyph unicode="&#xbd;" horiz-adv-x="1771" d="M705 1402H791L716 600H605L667 1256Q638 1239 607 1230T548 1219L559 1337Q596 1343 632 1357T705 1402ZM276 -1L1235 1349H1371L410 -1H276ZM1195 144L1192 112H1606L1595 0H1072L1084 127Q1093 230 1140 285T1271
374L1422 436Q1475 458 1504 494T1537 582Q1542 635 1511 670T1418 706Q1358 706 1316 675T1261 584H1139Q1149 660 1188 711T1289 787T1427 813Q1498 813 1552 783T1634 700T1655 576Q1646 484 1595 425T1455 329L1299 263Q1250 242 1225 214T1195 144Z" />
<glyph unicode="&#xbe;" horiz-adv-x="1931" d="M497 575Q424 575 361 605T261 694T233 839H350Q345 767 389 728T508 688Q581 688 625 726T677 823Q682 880 647 914T525 949H436L447 1046H516Q588 1046 633 1080T683 1170Q688 1222 657 1257T557 1293Q505 1293
462 1269T400 1183H284Q307 1301 385 1352T565 1404Q677 1404 744 1343T804 1184Q797 1123 762 1078T664 1009Q729 986 765 937T795 812Q788 743 749 689T646 605T497 575ZM484 -1L1443 1349H1579L618 -1H484ZM1531 0L1547 185H1179L1188 278L1611 809H1714L1667
290H1791L1780 185H1656L1638 0H1531ZM1319 278H1560L1592 622L1319 278Z" />
<glyph unicode="&#xbf;" horiz-adv-x="912" d="M630 895L622 810Q613 718 590 664T523 571T413 494Q362 462 325 435T265 374T240 290Q235 213 281 170T421 126Q521 126 580 174T656 303H841Q816 144 705 46T410 -52Q284 -52 201 -7T79 117T47 293Q53 373 85 429T166
525T272 598Q332 635 369 662T424 726T448 827L454 895H630ZM574 1274Q633 1274 663 1234T687 1137Q681 1081 643 1045T546 1008Q486 1008 458 1046T432 1138Q437 1198 476 1236T574 1274Z" />
<glyph unicode="&#xc0;" horiz-adv-x="1079" d="M43 0L557 1277H775L1037 0H851L789 301H348L229 0H43ZM407 451H760L641 1043L407 451ZM875 1398L426 1616L510 1787L936 1522L875 1398Z" />
<glyph unicode="&#xc1;" horiz-adv-x="1079" d="M43 0L557 1277H775L1037 0H851L789 301H348L229 0H43ZM407 451H760L641 1043L407 451ZM545 1434L509 1557L985 1822L1036 1651L545 1434Z" />
<glyph unicode="&#xc2;" horiz-adv-x="1079" d="M43 0L557 1277H775L1037 0H851L789 301H348L229 0H43ZM407 451H760L641 1043L407 451ZM430 1436L330 1533L706 1850L1026 1533L904 1436L688 1645L430 1436Z" />
<glyph unicode="&#xc3;" horiz-adv-x="1079" d="M43 0L557 1277H775L1037 0H851L789 301H348L229 0H43ZM407 451H760L641 1043L407 451ZM462 1499L396 1545Q430 1660 482 1718T595 1777Q620 1777 646 1766T721 1727Q765 1700 787 1688T830 1676Q859 1676 885 1698T937
1777L1007 1721Q987 1653 957 1603T890 1526T815 1499Q791 1499 762 1512T678 1556Q633 1582 615 1591T578 1600Q550 1600 522 1579T462 1499Z" />
<glyph unicode="&#xc4;" horiz-adv-x="1079" d="M43 0L557 1277H775L1037 0H851L789 301H348L229 0H43ZM407 451H760L641 1043L407 451ZM530 1532Q481 1532 454 1565T432 1645Q435 1692 468 1727T552 1763Q596 1763 626 1732T653 1650Q648 1596 611 1564T530 1532ZM854
1533Q807 1533 779 1565T756 1646Q760 1692 793 1728T876 1764Q919 1764 949 1734T976 1651Q972 1593 935 1563T854 1533Z" />
<glyph unicode="&#xc5;" horiz-adv-x="1079" d="M43 0L557 1277H775L1037 0H851L789 301H348L229 0H43ZM407 451H760L641 1043L407 451ZM687 1404Q627 1404 578 1434T500 1513T470 1621Q470 1681 499 1730T578 1809T687 1838Q747 1838 796 1809T874 1731T904 1621Q904
1563 875 1514T796 1434T687 1404ZM687 1537Q722 1537 747 1561T772 1621Q772 1658 747 1682T687 1707Q652 1707 627 1683T602 1621Q602 1586 627 1562T687 1537Z" />
<glyph unicode="&#xc6;" horiz-adv-x="1523" d="M43 0L560 1277H1504L1491 1109H890L963 1161L918 666L852 725H1419L1407 557H838L912 607L866 108L800 171H1405L1388 0H674L707 355L749 329H314L371 359L229 0H43ZM712 406L783 1158L823 1109H632L687 1158L392
413L370 480H761L712 406Z" />
<glyph unicode="&#xc7;" horiz-adv-x="1123" d="M579 -25Q427 -25 324 57T175 289T149 644Q169 858 247 1004T444 1226T705 1301Q897 1301 1000 1196T1125 922L931 882Q911 992 848 1058T688 1125Q605 1125 531 1071T405 910T338 644Q324 497 348 387T434 215T596
153Q721 153 799 226T889 418H1077Q1065 278 999 179T826 28T579 -25ZM410 -361L434 -287Q508 -324 564 -328T653 -314T686 -262Q687 -230 659 -206T586 -165T487 -135L548 66L645 55L590 -131L552 -72Q646 -90 708 -119T802 -187T833 -272Q833 -329 791 -364T682
-410T544 -410T410 -361Z" />
<glyph unicode="&#xc8;" horiz-adv-x="1032" d="M173 0L293 1277H1017L999 1109H452L416 725H930L915 557H400L364 171H912L897 0H173ZM852 1398L403 1616L487 1787L913 1522L852 1398Z" />
<glyph unicode="&#xc9;" horiz-adv-x="1032" d="M173 0L293 1277H1017L999 1109H452L416 725H930L915 557H400L364 171H912L897 0H173ZM522 1434L486 1557L962 1822L1013 1651L522 1434Z" />
<glyph unicode="&#xca;" horiz-adv-x="1032" d="M173 0L293 1277H1017L999 1109H452L416 725H930L915 557H400L364 171H912L897 0H173ZM407 1436L307 1533L683 1850L1003 1533L881 1436L665 1645L407 1436Z" />
<glyph unicode="&#xcb;" horiz-adv-x="1032" d="M173 0L293 1277H1017L999 1109H452L416 725H930L915 557H400L364 171H912L897 0H173ZM507 1532Q458 1532 431 1565T409 1645Q412 1692 445 1727T529 1763Q573 1763 603 1732T630 1650Q625 1596 588 1564T507 1532ZM831
1533Q784 1533 756 1565T733 1646Q737 1692 770 1728T853 1764Q896 1764 926 1734T953 1651Q949 1593 912 1563T831 1533Z" />
<glyph unicode="&#xcc;" horiz-adv-x="525" d="M175 0L295 1277H471L351 0H175ZM598 1398L149 1616L233 1787L659 1522L598 1398Z" />
<glyph unicode="&#xcd;" horiz-adv-x="525" d="M175 0L295 1277H471L351 0H175ZM269 1434L233 1557L709 1822L760 1651L269 1434Z" />
<glyph unicode="&#xce;" horiz-adv-x="525" d="M175 0L295 1277H471L351 0H175ZM153 1436L53 1533L429 1850L749 1533L627 1436L411 1645L153 1436Z" />
<glyph unicode="&#xcf;" horiz-adv-x="525" d="M175 0L295 1277H471L351 0H175ZM253 1532Q204 1532 177 1565T155 1645Q158 1692 191 1727T275 1763Q319 1763 349 1732T376 1650Q371 1596 334 1564T253 1532ZM577 1533Q530 1533 502 1565T479 1646Q483 1692 516
1728T599 1764Q642 1764 672 1734T699 1651Q695 1593 658 1563T577 1533Z" />
<glyph unicode="&#xd0;" horiz-adv-x="1211" d="M121 732H676L656 556H100L121 732ZM293 1277H649Q825 1277 947 1199T1127 977T1168 639Q1150 445 1064 302T841 79T529 0H173L293 1277ZM452 1101L366 175H545Q666 175 758 235T908 400T978 639Q991 773 954 877T834
1041T631 1101H452Z" />
<glyph unicode="&#xd1;" horiz-adv-x="1260" d="M171 0L291 1277H489L968 257L933 260L1031 1277H1207L1087 0H902L408 1038L445 1035L348 0H171ZM553 1499L487 1545Q521 1660 573 1718T686 1777Q711 1777 737 1766T812 1727Q856 1700 878 1688T921 1676Q950 1676
976 1698T1028 1777L1098 1721Q1078 1653 1048 1603T981 1526T906 1499Q882 1499 853 1512T769 1556Q724 1582 706 1591T669 1600Q641 1600 613 1579T553 1499Z" />
<glyph unicode="&#xd2;" horiz-adv-x="1195" d="M593 -25Q445 -25 338 49T179 270T149 639Q170 862 249 1009T449 1229T719 1301Q868 1301 976 1228T1136 1007T1168 639Q1146 415 1067 268T865 48T593 -25ZM611 153Q761 153 861 277T985 640Q1008 871 931 998T703
1125Q552 1125 453 998T331 639Q308 401 384 277T611 153ZM933 1398L484 1616L568 1787L994 1522L933 1398Z" />
<glyph unicode="&#xd3;" horiz-adv-x="1195" d="M593 -25Q445 -25 338 49T179 270T149 639Q170 862 249 1009T449 1229T719 1301Q868 1301 976 1228T1136 1007T1168 639Q1146 415 1067 268T865 48T593 -25ZM611 153Q761 153 861 277T985 640Q1008 871 931 998T703
1125Q552 1125 453 998T331 639Q308 401 384 277T611 153ZM603 1434L567 1557L1043 1822L1094 1651L603 1434Z" />
<glyph unicode="&#xd4;" horiz-adv-x="1195" d="M593 -25Q445 -25 338 49T179 270T149 639Q170 862 249 1009T449 1229T719 1301Q868 1301 976 1228T1136 1007T1168 639Q1146 415 1067 268T865 48T593 -25ZM611 153Q761 153 861 277T985 640Q1008 871 931 998T703
1125Q552 1125 453 998T331 639Q308 401 384 277T611 153ZM488 1436L388 1533L764 1850L1084 1533L962 1436L746 1645L488 1436Z" />
<glyph unicode="&#xd5;" horiz-adv-x="1195" d="M593 -25Q445 -25 338 49T179 270T149 639Q170 862 249 1009T449 1229T719 1301Q868 1301 976 1228T1136 1007T1168 639Q1146 415 1067 268T865 48T593 -25ZM611 153Q761 153 861 277T985 640Q1008 871 931 998T703
1125Q552 1125 453 998T331 639Q308 401 384 277T611 153ZM521 1499L455 1545Q489 1660 541 1718T654 1777Q679 1777 705 1766T780 1727Q824 1700 846 1688T889 1676Q918 1676 944 1698T996 1777L1066 1721Q1046 1653 1016 1603T949 1526T874 1499Q850 1499 821
1512T737 1556Q692 1582 674 1591T637 1600Q609 1600 581 1579T521 1499Z" />
<glyph unicode="&#xd6;" horiz-adv-x="1195" d="M593 -25Q445 -25 338 49T179 270T149 639Q170 862 249 1009T449 1229T719 1301Q868 1301 976 1228T1136 1007T1168 639Q1146 415 1067 268T865 48T593 -25ZM611 153Q761 153 861 277T985 640Q1008 871 931 998T703
1125Q552 1125 453 998T331 639Q308 401 384 277T611 153ZM588 1532Q539 1532 512 1565T490 1645Q493 1692 526 1727T610 1763Q654 1763 684 1732T711 1650Q706 1596 669 1564T588 1532ZM912 1533Q865 1533 837 1565T814 1646Q818 1692 851 1728T934 1764Q977 1764
1007 1734T1034 1651Q1030 1593 993 1563T912 1533Z" />
<glyph unicode="&#xd7;" horiz-adv-x="980" d="M173 113L48 238L396 528L392 465L105 752L240 864L527 577L459 578L806 868L932 742L582 454L587 517L874 230L739 118L452 405L521 404L173 113Z" />
<glyph unicode="&#xd8;" horiz-adv-x="1195" d="M593 -25Q445 -25 338 49T179 270T149 639Q170 862 249 1009T449 1229T719 1301Q868 1301 976 1228T1136 1007T1168 639Q1146 415 1067 268T865 48T593 -25ZM611 153Q761 153 861 277T985 640Q1008 871 931 998T703
1125Q552 1125 453 998T331 639Q308 401 384 277T611 153Z" />
<glyph unicode="&#xd9;" horiz-adv-x="1209" d="M601 -25Q391 -25 283 103T196 471L274 1277H450L372 471Q357 304 426 230T617 155Q740 155 823 229T922 471L1000 1277H1176L1099 471Q1084 311 1019 200T847 32T601 -25ZM941 1398L492 1616L576 1787L1002 1522L941
1398Z" />
<glyph unicode="&#xda;" horiz-adv-x="1209" d="M601 -25Q391 -25 283 103T196 471L274 1277H450L372 471Q357 304 426 230T617 155Q740 155 823 229T922 471L1000 1277H1176L1099 471Q1084 311 1019 200T847 32T601 -25ZM611 1434L575 1557L1051 1822L1102 1651L611
1434Z" />
<glyph unicode="&#xdb;" horiz-adv-x="1209" d="M601 -25Q391 -25 283 103T196 471L274 1277H450L372 471Q357 304 426 230T617 155Q740 155 823 229T922 471L1000 1277H1176L1099 471Q1084 311 1019 200T847 32T601 -25ZM496 1436L396 1533L772 1850L1092 1533L970
1436L754 1645L496 1436Z" />
<glyph unicode="&#xdc;" horiz-adv-x="1209" d="M601 -25Q391 -25 283 103T196 471L274 1277H450L372 471Q357 304 426 230T617 155Q740 155 823 229T922 471L1000 1277H1176L1099 471Q1084 311 1019 200T847 32T601 -25ZM596 1532Q547 1532 520 1565T498 1645Q501
1692 534 1727T618 1763Q662 1763 692 1732T719 1650Q714 1596 677 1564T596 1532ZM920 1533Q873 1533 845 1565T822 1646Q826 1692 859 1728T942 1764Q985 1764 1015 1734T1042 1651Q1038 1593 1001 1563T920 1533Z" />
<glyph unicode="&#xdd;" horiz-adv-x="1037" d="M425 0L474 526L144 1277H353L582 729L926 1277H1133L651 526L602 0H425ZM524 1434L488 1557L964 1822L1015 1651L524 1434Z" />
<glyph unicode="&#xde;" horiz-adv-x="1021" d="M170 0L290 1277H466L442 1022L401 1067H667Q795 1067 880 1019T1003 881T1029 666Q1013 480 898 374T591 268H336L376 316L347 0H170ZM382 379L338 438H608Q715 438 777 501T848 666Q858 769 807 833T650 898H381L436
962L382 379Z" />
<glyph unicode="&#xdf;" horiz-adv-x="1154" d="M729 -23Q678 -23 621 -10T508 31L531 194Q576 172 622 158T715 143Q764 143 808 162T879 219T907 312Q907 363 881 402T818 472T743 534T679 600T653 681Q653 731 682 770T748 848T814 930T843 1031Q843 1097 796
1141T656 1186Q590 1186 539 1160T456 1074T414 910L326 0H153L244 945Q258 1077 315 1168T463 1309T670 1358Q764 1358 830 1332T937 1263T997 1169T1016 1066Q1016 994 987 941T921 847T855 771T826 699Q826 666 852 637T916 578T991 509T1055 419T1081 295Q1081
204 1036 132T911 19T729 -23Z" />
<glyph unicode="&#xe0;" horiz-adv-x="1029" d="M434 -25Q329 -25 261 18T162 129T139 276Q148 371 197 433T328 527T512 559Q575 559 636 547T752 513L763 623Q776 739 737 792T604 845Q550 845 507 828T437 775T405 688H211Q222 798 278 864T420 959T604 989Q781
989 868 899T938 617L880 0H728Q727 37 727 73T727 147Q677 61 604 18T434 -25ZM477 125Q545 125 603 158T699 250T740 389Q691 405 635 415T530 425Q449 425 391 392T325 276Q320 212 359 169T477 125ZM806 1084L357 1302L441 1473L867 1208L806 1084Z" />
<glyph unicode="&#xe1;" horiz-adv-x="1029" d="M434 -25Q329 -25 261 18T162 129T139 276Q148 371 197 433T328 527T512 559Q575 559 636 547T752 513L763 623Q776 739 737 792T604 845Q550 845 507 828T437 775T405 688H211Q222 798 278 864T420 959T604 989Q781
989 868 899T938 617L880 0H728Q727 37 727 73T727 147Q677 61 604 18T434 -25ZM477 125Q545 125 603 158T699 250T740 389Q691 405 635 415T530 425Q449 425 391 392T325 276Q320 212 359 169T477 125ZM476 1120L440 1243L916 1508L967 1337L476 1120Z" />
<glyph unicode="&#xe2;" horiz-adv-x="1029" d="M434 -25Q329 -25 261 18T162 129T139 276Q148 371 197 433T328 527T512 559Q575 559 636 547T752 513L763 623Q776 739 737 792T604 845Q550 845 507 828T437 775T405 688H211Q222 798 278 864T420 959T604 989Q781
989 868 899T938 617L880 0H728Q727 37 727 73T727 147Q677 61 604 18T434 -25ZM477 125Q545 125 603 158T699 250T740 389Q691 405 635 415T530 425Q449 425 391 392T325 276Q320 212 359 169T477 125ZM361 1122L261 1219L637 1536L957 1219L835 1122L619 1331L361
1122Z" />
<glyph unicode="&#xe3;" horiz-adv-x="1029" d="M434 -25Q329 -25 261 18T162 129T139 276Q148 371 197 433T328 527T512 559Q575 559 636 547T752 513L763 623Q776 739 737 792T604 845Q550 845 507 828T437 775T405 688H211Q222 798 278 864T420 959T604 989Q781
989 868 899T938 617L880 0H728Q727 37 727 73T727 147Q677 61 604 18T434 -25ZM477 125Q545 125 603 158T699 250T740 389Q691 405 635 415T530 425Q449 425 391 392T325 276Q320 212 359 169T477 125ZM393 1185L327 1231Q361 1346 413 1404T526 1463Q551 1463
577 1452T652 1413Q696 1386 718 1374T761 1362Q790 1362 816 1384T868 1463L938 1407Q918 1339 888 1289T821 1212T746 1185Q722 1185 693 1198T609 1242Q564 1268 546 1277T509 1286Q481 1286 453 1265T393 1185Z" />
<glyph unicode="&#xe4;" horiz-adv-x="1029" d="M434 -25Q329 -25 261 18T162 129T139 276Q148 371 197 433T328 527T512 559Q575 559 636 547T752 513L763 623Q776 739 737 792T604 845Q550 845 507 828T437 775T405 688H211Q222 798 278 864T420 959T604 989Q781
989 868 899T938 617L880 0H728Q727 37 727 73T727 147Q677 61 604 18T434 -25ZM477 125Q545 125 603 158T699 250T740 389Q691 405 635 415T530 425Q449 425 391 392T325 276Q320 212 359 169T477 125ZM461 1218Q412 1218 385 1251T363 1331Q366 1378 399 1413T483
1449Q527 1449 557 1418T584 1336Q579 1282 542 1250T461 1218ZM785 1219Q738 1219 710 1251T687 1332Q691 1378 724 1414T807 1450Q850 1450 880 1420T907 1337Q903 1279 866 1249T785 1219Z" />
<glyph unicode="&#xe5;" horiz-adv-x="1029" d="M434 -25Q329 -25 261 18T162 129T139 276Q148 371 197 433T328 527T512 559Q575 559 636 547T752 513L763 623Q776 739 737 792T604 845Q550 845 507 828T437 775T405 688H211Q222 798 278 864T420 959T604 989Q781
989 868 899T938 617L880 0H728Q727 37 727 73T727 147Q677 61 604 18T434 -25ZM477 125Q545 125 603 158T699 250T740 389Q691 405 635 415T530 425Q449 425 391 392T325 276Q320 212 359 169T477 125ZM618 1090Q558 1090 509 1120T431 1199T401 1307Q401 1367
430 1416T509 1495T618 1524Q678 1524 727 1495T805 1417T835 1307Q835 1249 806 1200T727 1120T618 1090ZM618 1223Q653 1223 678 1247T703 1307Q703 1344 678 1368T618 1393Q583 1393 558 1369T533 1307Q533 1272 558 1248T618 1223Z" />
<glyph unicode="&#xe6;" horiz-adv-x="1554" d="M138 276Q146 366 195 429T326 525T509 559Q576 559 642 544T772 503L739 468L754 623Q767 740 729 792T604 845Q552 845 510 828T440 775T408 688H214Q223 798 280 864T422 959T602 989Q722 989 794 939T881 772L856
778Q919 878 1010 933T1205 989Q1290 989 1352 954T1453 859T1508 720T1512 557Q1510 528 1506 498T1494 436H875L924 475Q912 378 927 301T988 178T1114 133Q1185 133 1236 172T1306 285H1486Q1464 191 1408 121T1273 13T1106 -25Q1023 -25 958 8T846 96T778 220L805
221Q747 98 641 37T427 -25Q336 -25 269 14T167 121T138 276ZM328 276Q323 212 362 169T476 125Q529 125 576 147T659 208T716 303T736 422L758 381Q706 399 644 412T528 425Q479 425 435 411T362 365T328 276ZM928 523L888 559H1347Q1355 632 1343 694T1293 794T1182
833Q1108 833 1054 790T969 677T928 523Z" />
<glyph unicode="&#xe7;" horiz-adv-x="940" d="M490 -25Q382 -25 295 37T163 213T132 483Q147 645 213 757T378 929T585 989Q662 989 720 962T819 888T881 782T907 661L729 650Q716 723 675 768T566 814Q507 814 453 778T360 668T311 483Q302 378 323 304T392
190T506 151Q591 151 641 199T699 334H877Q869 233 819 152T684 23T490 -25ZM308 -361L332 -287Q406 -324 462 -328T551 -314T584 -262Q585 -230 557 -206T484 -165T385 -135L446 66L543 55L488 -131L450 -72Q544 -90 606 -119T700 -187T731 -272Q731 -329 689
-364T580 -410T442 -410T308 -361Z" />
<glyph unicode="&#xe8;" horiz-adv-x="940" d="M485 -25Q372 -25 287 37T160 212T132 481Q147 639 210 753T370 928T579 989Q668 989 731 954T834 859T889 721T899 557Q897 529 893 499T881 436H257L306 471Q294 376 309 299T372 178T501 133Q571 133 623 171T693
285H873Q850 190 795 121T660 13T485 -25ZM311 531L272 559H780L731 535Q742 611 733 679T685 790T567 833Q494 833 440 793T354 684T311 531ZM762 1084L313 1302L397 1473L823 1208L762 1084Z" />
<glyph unicode="&#xe9;" horiz-adv-x="940" d="M485 -25Q372 -25 287 37T160 212T132 481Q147 639 210 753T370 928T579 989Q668 989 731 954T834 859T889 721T899 557Q897 529 893 499T881 436H257L306 471Q294 376 309 299T372 178T501 133Q571 133 623 171T693
285H873Q850 190 795 121T660 13T485 -25ZM311 531L272 559H780L731 535Q742 611 733 679T685 790T567 833Q494 833 440 793T354 684T311 531ZM432 1120L396 1243L872 1508L923 1337L432 1120Z" />
<glyph unicode="&#xea;" horiz-adv-x="940" d="M485 -25Q372 -25 287 37T160 212T132 481Q147 639 210 753T370 928T579 989Q668 989 731 954T834 859T889 721T899 557Q897 529 893 499T881 436H257L306 471Q294 376 309 299T372 178T501 133Q571 133 623 171T693
285H873Q850 190 795 121T660 13T485 -25ZM311 531L272 559H780L731 535Q742 611 733 679T685 790T567 833Q494 833 440 793T354 684T311 531ZM573 1122L473 1219L849 1536L1169 1219L1047 1122L831 1331L573 1122Z" />
<glyph unicode="&#xeb;" horiz-adv-x="940" d="M485 -25Q372 -25 287 37T160 212T132 481Q147 639 210 753T370 928T579 989Q668 989 731 954T834 859T889 721T899 557Q897 529 893 499T881 436H257L306 471Q294 376 309 299T372 178T501 133Q571 133 623 171T693
285H873Q850 190 795 121T660 13T485 -25ZM311 531L272 559H780L731 535Q742 611 733 679T685 790T567 833Q494 833 440 793T354 684T311 531ZM417 1218Q368 1218 341 1251T319 1331Q322 1378 355 1413T439 1449Q483 1449 513 1418T540 1336Q535 1282 498 1250T417
1218ZM741 1219Q694 1219 666 1251T643 1332Q647 1378 680 1414T763 1450Q806 1450 836 1420T863 1337Q859 1279 822 1249T741 1219Z" />
<glyph unicode="&#xec;" horiz-adv-x="563" d="M188 0L279 966H455L364 0H188ZM829 1084L380 1302L464 1473L890 1208L829 1084Z" />
<glyph unicode="&#xed;" horiz-adv-x="563" d="M188 0L279 966H455L364 0H188ZM499 1120L463 1243L939 1508L990 1337L499 1120Z" />
<glyph unicode="&#xee;" horiz-adv-x="563" d="M188 0L279 966H455L364 0H188ZM128 1122L28 1219L404 1536L724 1219L602 1122L386 1331L128 1122Z" />
<glyph unicode="&#xef;" horiz-adv-x="563" d="M188 0L279 966H455L364 0H188ZM484 1218Q435 1218 408 1251T386 1331Q389 1378 422 1413T506 1449Q550 1449 580 1418T607 1336Q602 1282 565 1250T484 1218ZM808 1219Q761 1219 733 1251T710 1332Q714 1378 747
1414T830 1450Q873 1450 903 1420T930 1337Q926 1279 889 1249T808 1219Z" />
<glyph unicode="&#xf0;" horiz-adv-x="1063" d="M488 -23Q394 -23 313 19T182 147T132 369Q132 491 173 588T282 754T431 859T593 895Q641 895 692 880T788 825T860 716T888 538L876 540Q895 775 853 954T721 1276T505 1543L664 1628Q798 1489 875 1345T985 1053T1018
751Q1018 546 972 400T848 159T676 21T488 -23ZM503 125Q589 125 650 180T745 321T778 499Q778 624 724 683T590 743Q512 743 450 693T352 558T316 370Q316 259 363 192T503 125ZM537 1058L477 1170L1069 1505L1130 1392L537 1058Z" />
<glyph unicode="&#xf1;" horiz-adv-x="1103" d="M174 0L265 964H417L419 787Q472 887 549 938T721 989Q826 989 894 938T991 791T1007 565L955 0H779L831 565Q845 689 797 751T664 814Q554 814 481 718T391 443L350 0H174ZM431 1185L365 1231Q399 1346 451 1404T564
1463Q589 1463 615 1452T690 1413Q734 1386 756 1374T799 1362Q828 1362 854 1384T906 1463L976 1407Q956 1339 926 1289T859 1212T784 1185Q760 1185 731 1198T647 1242Q602 1268 584 1277T547 1286Q519 1286 491 1265T431 1185Z" />
<glyph unicode="&#xf2;" horiz-adv-x="999" d="M498 -25Q380 -25 291 32T159 201T132 481Q148 650 213 763T377 932T594 989Q711 989 799 932T931 762T959 481Q942 314 877 202T714 32T498 -25ZM507 145Q618 145 691 232T781 481Q797 644 745 732T582 820Q472
820 400 733T312 481Q301 375 320 300T387 185T507 145ZM825 1084L376 1302L460 1473L886 1208L825 1084Z" />
<glyph unicode="&#xf3;" horiz-adv-x="999" d="M498 -25Q380 -25 291 32T159 201T132 481Q148 650 213 763T377 932T594 989Q711 989 799 932T931 762T959 481Q942 314 877 202T714 32T498 -25ZM507 145Q618 145 691 232T781 481Q797 644 745 732T582 820Q472
820 400 733T312 481Q301 375 320 300T387 185T507 145ZM495 1120L459 1243L935 1508L986 1337L495 1120Z" />
<glyph unicode="&#xf4;" horiz-adv-x="999" d="M498 -25Q380 -25 291 32T159 201T132 481Q148 650 213 763T377 932T594 989Q711 989 799 932T931 762T959 481Q942 314 877 202T714 32T498 -25ZM507 145Q618 145 691 232T781 481Q797 644 745 732T582 820Q472
820 400 733T312 481Q301 375 320 300T387 185T507 145ZM380 1122L280 1219L656 1536L976 1219L854 1122L638 1331L380 1122Z" />
<glyph unicode="&#xf5;" horiz-adv-x="999" d="M498 -25Q380 -25 291 32T159 201T132 481Q148 650 213 763T377 932T594 989Q711 989 799 932T931 762T959 481Q942 314 877 202T714 32T498 -25ZM507 145Q618 145 691 232T781 481Q797 644 745 732T582 820Q472
820 400 733T312 481Q301 375 320 300T387 185T507 145ZM413 1185L347 1231Q381 1346 433 1404T546 1463Q571 1463 597 1452T672 1413Q716 1386 738 1374T781 1362Q810 1362 836 1384T888 1463L958 1407Q938 1339 908 1289T841 1212T766 1185Q742 1185 713 1198T629
1242Q584 1268 566 1277T529 1286Q501 1286 473 1265T413 1185Z" />
<glyph unicode="&#xf6;" horiz-adv-x="999" d="M498 -25Q380 -25 291 32T159 201T132 481Q148 650 213 763T377 932T594 989Q711 989 799 932T931 762T959 481Q942 314 877 202T714 32T498 -25ZM507 145Q618 145 691 232T781 481Q797 644 745 732T582 820Q472
820 400 733T312 481Q301 375 320 300T387 185T507 145ZM480 1218Q431 1218 404 1251T382 1331Q385 1378 418 1413T502 1449Q546 1449 576 1418T603 1336Q598 1282 561 1250T480 1218ZM804 1219Q757 1219 729 1251T706 1332Q710 1378 743 1414T826 1450Q869 1450
899 1420T926 1337Q922 1279 885 1249T804 1219Z" />
<glyph unicode="&#xf7;" horiz-adv-x="893" d="M317 606H1100L1078 436H296L317 606ZM487 728Q432 728 400 767T373 864Q380 920 419 959T513 998Q567 998 600 961T629 864Q624 805 583 767T487 728ZM380 58Q325 58 293 97T266 194Q273 250 312 289T406 328Q460
328 493 291T522 194Q517 135 476 97T380 58Z" />
<glyph unicode="&#xf8;" horiz-adv-x="999" d="M498 -25Q380 -25 291 32T159 201T132 481Q148 650 213 763T377 932T594 989Q711 989 799 932T931 762T959 481Q942 314 877 202T714 32T498 -25ZM507 145Q618 145 691 232T781 481Q797 644 745 732T582 820Q472
820 400 733T312 481Q301 375 320 300T387 185T507 145Z" />
<glyph unicode="&#xf9;" horiz-adv-x="1109" d="M479 -18Q384 -18 314 20T208 141T185 352L244 966H420L363 370Q353 262 395 208T524 153Q596 153 655 195T754 316T804 501L848 966H1024L934 0H757L774 182Q723 84 647 33T479 -18ZM846 1084L397 1302L481 1473L907
1208L846 1084Z" />
<glyph unicode="&#xfa;" horiz-adv-x="1109" d="M479 -18Q384 -18 314 20T208 141T185 352L244 966H420L363 370Q353 262 395 208T524 153Q596 153 655 195T754 316T804 501L848 966H1024L934 0H757L774 182Q723 84 647 33T479 -18ZM516 1120L480 1243L956 1508L1007
1337L516 1120Z" />
<glyph unicode="&#xfb;" horiz-adv-x="1109" d="M479 -18Q384 -18 314 20T208 141T185 352L244 966H420L363 370Q353 262 395 208T524 153Q596 153 655 195T754 316T804 501L848 966H1024L934 0H757L774 182Q723 84 647 33T479 -18ZM401 1122L301 1219L677 1536L997
1219L875 1122L659 1331L401 1122Z" />
<glyph unicode="&#xfc;" horiz-adv-x="1109" d="M479 -18Q384 -18 314 20T208 141T185 352L244 966H420L363 370Q353 262 395 208T524 153Q596 153 655 195T754 316T804 501L848 966H1024L934 0H757L774 182Q723 84 647 33T479 -18ZM501 1218Q452 1218 425 1251T403
1331Q406 1378 439 1413T523 1449Q567 1449 597 1418T624 1336Q619 1282 582 1250T501 1218ZM825 1219Q778 1219 750 1251T727 1332Q731 1378 764 1414T847 1450Q890 1450 920 1420T947 1337Q943 1279 906 1249T825 1219Z" />
<glyph unicode="&#xfd;" horiz-adv-x="889" d="M183 -497Q125 -497 72 -480T-36 -430L-19 -255Q25 -292 69 -309T160 -326Q208 -326 245 -294T312 -210T363 -96L399 0L138 964H337L504 233L767 964H946L508 -183Q468 -289 419 -358T312 -462T183 -497ZM407 1120L371
1243L847 1508L898 1337L407 1120Z" />
<glyph unicode="&#xfe;" horiz-adv-x="1084" d="M129 -472L297 1288H474L426 793H398Q448 892 524 940T687 989Q789 989 872 929T1001 755T1031 483Q1017 323 950 210T787 36T584 -25Q507 -25 450 6T359 97L305 -472H129ZM580 151Q638 151 696 188T798 298T852
483Q862 588 838 661T763 774T644 814Q587 814 534 785T446 698T403 556L387 390Q380 315 403 262T472 180T580 151Z" />
<glyph unicode="&#xff;" horiz-adv-x="889" d="M183 -497Q125 -497 72 -480T-36 -430L-19 -255Q25 -292 69 -309T160 -326Q208 -326 245 -294T312 -210T363 -96L399 0L138 964H337L504 233L767 964H946L508 -183Q468 -289 419 -358T312 -462T183 -497ZM392 1218Q343
1218 316 1251T294 1331Q297 1378 330 1413T414 1449Q458 1449 488 1418T515 1336Q510 1282 473 1250T392 1218ZM716 1219Q669 1219 641 1251T618 1332Q622 1378 655 1414T738 1450Q781 1450 811 1420T838 1337Q834 1279 797 1249T716 1219Z" />
<glyph unicode="&#x2013;" horiz-adv-x="898" d="M147 507L163 677H863L846 507H147Z" />
<glyph unicode="&#x2014;" horiz-adv-x="1343" d="M147 507L163 677H1309L1293 507H147Z" />
<glyph unicode="&#x2018;" horiz-adv-x="435" d="M285 798Q220 798 185 852T157 984Q163 1040 191 1095T266 1197T374 1277L491 1203Q432 1172 388 1132T325 1040Q370 1034 398 1004T422 923Q417 872 379 835T285 798Z" />
<glyph unicode="&#x2019;" horiz-adv-x="435" d="M237 798L122 873Q180 904 224 944T286 1036Q241 1043 213 1073T189 1154Q193 1206 231 1241T326 1277Q370 1277 400 1253T445 1186T453 1091Q448 1036 420 982T345 879T237 798Z" />
<glyph unicode="&#x201a;" horiz-adv-x="455" d="M373 -244L250 -172Q308 -142 352 -102T415 -10Q370 -2 341 28T317 109Q323 160 361 196T455 232Q500 232 530 207T574 140T583 48Q578 -5 552 -60T481 -163T373 -244Z" />
<glyph unicode="&#x201c;" horiz-adv-x="806" d="M634 798Q569 798 534 852T506 984Q512 1040 540 1095T615 1197T723 1277L840 1203Q781 1172 737 1132T674 1040Q719 1034 747 1004T771 923Q766 872 728 835T634 798ZM285 798Q220 798 185 852T157 984Q163 1040
191 1095T266 1197T374 1277L491 1203Q432 1172 388 1132T325 1040Q370 1034 398 1004T422 923Q417 872 379 835T285 798Z" />
<glyph unicode="&#x201d;" horiz-adv-x="811" d="M614 798L499 873Q557 904 601 944T663 1036Q618 1043 590 1073T566 1154Q570 1206 608 1241T703 1277Q747 1277 777 1253T822 1186T830 1091Q825 1036 797 982T722 879T614 798ZM256 798L141 873Q199 904 243
944T305 1036Q260 1043 232 1073T208 1154Q212 1206 250 1241T345 1277Q389 1277 419 1253T464 1186T472 1091Q467 1036 439 982T364 879T256 798Z" />
<glyph unicode="&#x201e;" horiz-adv-x="812" d="M474 -244L351 -172Q409 -142 453 -102T516 -10Q471 -2 442 28T418 109Q424 160 462 196T556 232Q601 232 631 207T675 140T684 48Q679 -5 653 -60T582 -163T474 -244ZM373 -244L250 -172Q308 -142 352 -102T415
-10Q370 -2 341 28T317 109Q323 160 361 196T455 232Q500 232 530 207T574 140T583 48Q578 -5 552 -60T481 -163T373 -244Z" />
<glyph unicode="&#x2022;" horiz-adv-x="541" d="M337 366Q237 366 178 437T130 615Q142 717 213 788T385 859Q483 859 544 791T596 615Q587 507 513 437T337 366Z" />
<glyph unicode="&#x2039;" horiz-adv-x="718" d="M489 104L138 534L610 965L732 865L314 501L317 564L633 199L489 104Z" />
<glyph unicode="&#x203a;" horiz-adv-x="718" d="M214 104L91 199L509 564L507 505L190 870L334 965L685 534L214 104Z" />
</font>
</defs>
</svg>
