<?xml version="1.0" encoding="UTF-8"?>
<svg width="36px" height="54px" viewBox="0 0 36 54" version="1.1" xmlns="http://www.w3.org/2000/svg" xmlns:xlink="http://www.w3.org/1999/xlink">
    <title>Guidelines</title>
    <g id="Page-1" stroke="none" stroke-width="1" fill="none" fill-rule="evenodd">
        <g id="Guidelines" transform="translate(1.000000, 8.000000)" fill="#F5F5F7" fill-rule="nonzero">
            <path d="M9.42982277,22.9627279 C9.54381027,22.8451697 9.69982795,22.7789228 9.86270116,22.7789228 C10.0255744,22.7789228 10.181592,22.8451697 10.2955795,22.9627279 C10.5354348,23.2080757 10.5354348,23.6027153 10.2955795,23.8480632 L9.25667142,24.9188639 L10.2955795,25.9896647 C10.5356079,26.2322107 10.5356079,26.6254553 10.2955795,26.8680013 C10.0555511,27.1105472 9.66638817,27.1105472 9.42635975,26.8680013 L8.38745162,25.8181966 L7.34854349,26.8680013 C7.23455599,26.9855595 7.07853831,27.0518064 6.9156651,27.0518064 C6.7527919,27.0518064 6.59677422,26.9855595 6.48278672,26.8680013 C6.24478714,26.6218864 6.24478714,26.2287809 6.48278672,25.982666 L7.52169485,24.9118652 L6.48278672,23.8410645 C6.24374069,23.5981082 6.24374069,23.2056842 6.48278672,22.9627279 C6.59605004,22.8464628 6.75074934,22.7809911 6.91220208,22.7809911 C7.07365482,22.7809911 7.22835411,22.8464628 7.34161744,22.9627279 L8.38052557,24.0125326 L9.41943369,22.9627279 L9.42982277,22.9627279 Z M8.95192504,7.69856771 C8.21780576,7.68352209 7.62785049,7.08273381 7.6186596,6.34082031 L7.6186596,5.8824056 L1.97738847,5.8824056 C1.86551142,5.88782729 1.77655437,5.97924092 1.77306987,6.09236654 L1.77306987,40.984375 C1.77492257,41.0976161 1.86532281,41.1889645 1.97738847,41.1908366 L32.0226115,41.1908366 C32.1346772,41.1889645 32.2250774,41.0976161 32.2269301,40.984375 L32.2269301,6.09236654 C32.2216962,5.98060491 32.1332131,5.89119375 32.0226115,5.88590495 L26.5025463,5.88590495 L26.5025463,6.34431966 C26.4913544,7.08887449 25.8957449,7.68917979 25.1588918,7.69856771 L8.95192504,7.69856771 Z M1.99124058,43 C0.89229933,42.9980738 0.0019062337,42.0983418 0,40.9878743 L0,6.09236654 C0.0019062337,4.98189907 0.89229933,4.08216711 1.99124058,4.08024089 L7.6186596,4.08024089 L7.6186596,3.65332031 C7.62246166,2.90175685 8.22547033,2.29398593 8.96924017,2.29207357 L11.3656549,2.29207357 L11.3656549,1.50472005 C11.3767869,0.679748329 12.0349128,0.0131695033 12.8512935,0 L21.1625586,0 C21.9795277,0.0131211224 22.6386753,0.67918214 22.6516602,1.50472005 L22.6516602,2.29557292 L25.1415767,2.29557292 C25.8839945,2.29940057 26.4849063,2.90661503 26.4886942,3.65681966 L26.4886942,4.08374023 L32.0087594,4.08374023 C33.1077007,4.08566646 33.9980938,4.98539842 34,6.09586589 L34,40.9878743 C33.9980938,42.0983418 33.1077007,42.9980738 32.0087594,43 L1.99124058,43 Z M27.0774088,34.6610514 C27.5746789,34.6610514 27.9777959,34.2537063 27.9777959,33.7512207 C27.9777959,33.2487351 27.5746789,32.84139 27.0774088,32.84139 L15.088409,32.84139 C14.591139,32.84139 14.188022,33.2487351 14.188022,33.7512207 C14.188022,34.2537063 14.591139,34.6610514 15.088409,34.6610514 L27.0774088,34.6610514 Z M27.0774088,17.1643066 C27.5746789,17.1643066 27.9777959,16.7569615 27.9777959,16.2544759 C27.9777959,15.7519903 27.5746789,15.3446452 27.0774088,15.3446452 L15.088409,15.3446452 C14.591139,15.3446452 14.188022,15.7519903 14.188022,16.2544759 C14.188022,16.7569615 14.591139,17.1643066 15.088409,17.1643066 L27.0774088,17.1643066 Z M27.0774088,25.7867025 C27.5746789,25.7867025 27.9777959,25.3793574 27.9777959,24.8768717 C27.9777959,24.3743861 27.5746789,23.967041 27.0774088,23.967041 L15.088409,23.967041 C14.591139,23.967041 14.188022,24.3743861 14.188022,24.8768717 C14.188022,25.3793574 14.591139,25.7867025 15.088409,25.7867025 L27.0774088,25.7867025 Z M6.52088002,33.7022298 C6.27511387,33.3311635 6.37356745,32.8290323 6.74078224,32.5806885 C7.10799703,32.3323446 7.60491627,32.4318308 7.85068242,32.8028971 L8.28702383,33.4572754 L10.0185374,31.3331706 C10.1991716,31.1106355 10.4835732,31.0023826 10.7646109,31.0491896 C11.0456487,31.0959966 11.2806262,31.2907524 11.3810298,31.5600945 C11.4814333,31.8294366 11.4320092,32.1324454 11.251375,32.3549805 L8.86188633,35.2944336 C8.80794498,35.3645423 8.74371424,35.4259065 8.67141984,35.4763997 C8.30500618,35.7239617 7.8094542,35.6253767 7.56325117,35.2559408 L6.52434304,33.7022298 L6.52088002,33.7022298 Z M6.73905072,16.0060221 C7.10654462,15.7581165 7.60317622,15.8566086 7.85068242,16.2264811 L8.28702383,16.8808594 L10.0185374,14.7567546 C10.1991716,14.5342195 10.4835732,14.4259665 10.7646109,14.4727736 C11.0456487,14.5195806 11.2806262,14.7143364 11.3810298,14.9836785 C11.4814333,15.2530206 11.4320092,15.5560294 11.251375,15.7785645 L8.86188633,18.7180176 C8.80347943,18.7879815 8.73452772,18.848209 8.65756773,18.8964844 C8.29115407,19.1440464 7.79560209,19.0454613 7.54939906,18.6760254 L6.51049094,17.1223145 L6.51049094,17.1223145 C6.26549854,16.7520577 6.36306034,16.2513081 6.72866164,16.0025228 L6.73905072,16.0060221 Z" id="Shape"></path>
        </g>
    </g>
</svg>