<?xml version="1.0" encoding="UTF-8"?>
<svg width="46px" height="54px" viewBox="0 0 46 54" version="1.1" xmlns="http://www.w3.org/2000/svg" xmlns:xlink="http://www.w3.org/1999/xlink">
    <title>icon-guidelines</title>
    <g id="Page-1" stroke="none" stroke-width="1" fill="none" fill-rule="evenodd">
        <g id="icon-guidelines" transform="translate(1.000000, 7.000000)" fill="#F5F5F7" fill-rule="nonzero">
            <path d="M44,0 L44,44 L0,44 L0,0 L44,0 Z M42.952,1.047 L1.047,1.047 L1.047,42.952 L42.952,42.952 L42.952,1.047 Z M38.2380952,6.23809524 L38.2380952,38.2380952 L6.23809524,38.2380952 L6.23809524,6.23809524 L38.2380952,6.23809524 Z M37.2675608,7.20713105 L7.20713105,7.20713105 L7.20713105,37.2675608 L37.2675608,37.2675608 L37.2675608,7.20713105 Z M0.153420257,0.153420257 C0.335251674,-0.0284111588 0.617505808,-0.0486146495 0.821653384,0.0928097854 L0.89419879,0.153420257 L43.8465797,43.1058012 C44.0511401,43.3103616 44.0511401,43.6420194 43.8465797,43.8465797 C43.6647483,44.0284112 43.3824942,44.0486146 43.1783466,43.9071902 L43.1058012,43.8465797 L0.153420257,0.89419879 C-0.0511400858,0.689638447 -0.0511400858,0.357980601 0.153420257,0.153420257 Z M43.4761905,22 C43.7654825,22 44,22.2345175 44,22.5238095 C44,22.780958 43.8147022,22.9948278 43.5703459,23.0391798 L43.4761905,23.047619 L0.523809524,23.047619 C0.234517512,23.047619 0,22.8131015 0,22.5238095 C0,22.2666611 0.185297787,22.0527912 0.429654099,22.0084393 L0.523809524,22 L43.4761905,22 Z M22.5238095,0 C22.780958,0 22.9948278,0.185297787 23.0391798,0.429654099 L23.047619,0.523809524 L23.047619,43.4761905 C23.047619,43.7654825 22.8131015,44 22.5238095,44 C22.2666611,44 22.0527912,43.8147022 22.0084393,43.5703459 L22,43.4761905 L22,0.523809524 C22,0.234517512 22.2345175,0 22.5238095,0 Z M22.2380952,6.23809524 C31.0746512,6.23809524 38.2380952,13.4015392 38.2380952,22.2380952 C38.2380952,31.0746512 31.0746512,38.2380952 22.2380952,38.2380952 C13.4015392,38.2380952 6.23809524,31.0746512 6.23809524,22.2380952 C6.23809524,13.4015392 13.4015392,6.23809524 22.2380952,6.23809524 Z M22.2380952,7.20779221 C13.9370881,7.20779221 7.20779221,13.9370881 7.20779221,22.2380952 C7.20779221,30.5391024 13.9370881,37.2683983 22.2380952,37.2683983 C30.5391024,37.2683983 37.2683983,30.5391024 37.2683983,22.2380952 C37.2683983,13.9370881 30.5391024,7.20779221 22.2380952,7.20779221 Z M43.1058012,0.153420257 C43.3103616,-0.0511400858 43.6420194,-0.0511400858 43.8465797,0.153420257 C44.0284112,0.335251674 44.0486146,0.617505808 43.9071902,0.821653384 L43.8465797,0.89419879 L0.89419879,43.8465797 C0.689638447,44.0511401 0.357980601,44.0511401 0.153420257,43.8465797 C-0.0284111588,43.6647483 -0.0486146495,43.3824942 0.0928097854,43.1783466 L0.153420257,43.1058012 L43.1058012,0.153420257 Z" id="Rectangle"></path>
        </g>
    </g>
</svg>