<?xml version="1.0" encoding="UTF-8"?>
<svg width="76px" height="54px" viewBox="0 0 76 54" version="1.1" xmlns="http://www.w3.org/2000/svg" xmlns:xlink="http://www.w3.org/1999/xlink">
    <title>multi_device__large</title>
    <g id="Page-1" stroke="none" stroke-width="1" fill="none" fill-rule="evenodd">
        <g id="mac_compare__cixm3zhf3k76_large">
            <rect id="Rectangle" x="0" y="0" width="76" height="54"></rect>
            <g id="Group" transform="translate(1.000000, 11.000000)" fill="#F5F5F7" fill-rule="nonzero">
                <path d="M63,26 L43,26 L43,36 L46,36 C46.3576182,35.9992934 46.6883924,36.1896133 46.8675073,36.4991438 C47.0466223,36.8086743 47.0468102,37.1902933 46.868,37.5 C46.6523904,37.8195049 46.3517382,38.0723576 46,38.23 C45.4595265,38.5286628 44.8972595,38.7860621 44.318,39 L52,39 L52,32 L63,32 M70,17 L70,1.5 C70,0.671572875 69.3284271,0 68.5,0 L23.5,0 C22.6715729,0 22,0.671572875 22,1.5 L22,14 L23,14 L23,1 L69,1 L69,17" id="Shape"></path>
                <path d="M42,16.5 C42.0476675,16.0894041 41.9050271,15.6795431 41.612742,15.387258 C41.3204569,15.0949729 40.9105959,14.9523325 40.5,15 L5.5,15 C5.08783037,14.945355 4.67371454,15.0857181 4.37971634,15.3797163 C4.08571814,15.6737145 3.94535499,16.0878304 4,16.5 L4,37 L0,37 C0.053,37.092 0.127,37.323 0.211,37.323 C1.63921936,38.1209294 3.2209418,38.6056728 4.851,38.745 C7.264,38.909 9.686,38.998 9.972,38.998 L11.387,38.998 C14.737,39 23,39 23,39 L36,39 C36,39 38.358,38.92 40.926,38.748 C42.5560322,38.6101703 44.1377378,38.1253276 45.565,37.326 C45.7353794,37.2561216 45.8851046,37.1439138 46,37 L42,37 L42,16.5 Z M40,37 L6,37 L6,17 L40,17 L40,37 Z" id="Shape"></path>
                <path d="M72.54996,18 L65.45004,18 C65.063483,18.0012605 64.6933034,18.1640379 64.4212473,18.4523866 C64.1491911,18.7407352 63.9976385,19.1309348 64.0000278,19.5368182 L64.0000278,37.4870455 C64.0075174,38.3230812 64.6537933,38.997424 65.45004,39 L72.54996,39 C73.3462067,38.997424 73.9924826,38.3230812 73.9999722,37.4870455 L73.9999722,19.5368182 C74.0023615,19.1309348 73.8508089,18.7407352 73.5787527,18.4523866 C73.3066966,18.1640379 72.936517,18.0012605 72.54996,18 Z M69.9454439,18.5584091 C70.0282857,18.5584091 70.0954422,18.6289242 70.0954422,18.7159091 C70.0954422,18.8028939 70.0282857,18.8734091 69.9454439,18.8734091 C69.8626021,18.8734091 69.7954456,18.8028939 69.7954456,18.7159091 C69.7954456,18.6289242 69.8626021,18.5584091 69.9454439,18.5584091 Z M68.5454597,18.5965909 L69.4545403,18.5965909 C69.5172993,18.5965909 69.5681754,18.6500115 69.5681754,18.7159091 C69.5681754,18.7818067 69.5172993,18.8352273 69.4545403,18.8352273 L68.5454597,18.8352273 C68.4827007,18.8352273 68.4318246,18.7818067 68.4318246,18.7159091 C68.4318246,18.6500115 68.4827007,18.5965909 68.5454597,18.5965909 Z M73.5454033,37.4870455 C73.5404149,38.0605773 73.0961975,38.5227273 72.54996,38.5227273 L65.45004,38.5227273 C64.9038025,38.5227273 64.4595851,38.0605773 64.4545967,37.4870455 L64.4545967,19.5368182 C64.4509475,19.2571342 64.5542111,18.9875834 64.7412899,18.7884575 C64.9283687,18.5893316 65.1836523,18.4772727 65.45004,18.4772727 L66.5000282,18.4772727 C66.625546,18.4772727 66.7272983,18.5841139 66.7272983,18.7159091 L66.7272983,18.9545455 C66.7272983,19.2181359 66.930803,19.4318182 67.1818387,19.4318182 L70.8181613,19.4318182 C71.069197,19.4318182 71.2727017,19.2181359 71.2727017,18.9545455 L71.2727017,18.7159091 C71.2727017,18.5841139 71.374454,18.4772727 71.4999718,18.4772727 L72.54996,18.4772727 C72.8163477,18.4772727 73.0716313,18.5893316 73.2587101,18.7884575 C73.4457889,18.9875834 73.5490525,19.2571342 73.5454033,19.5368182 L73.5454033,37.4870455 Z" id="Shape"></path>
            </g>
        </g>
        <g id="iphone_11_dark__di5n0jory1me_large" transform="translate(65.000000, 29.000000)"></g>
    </g>
</svg>