<?xml version="1.0" encoding="UTF-8"?>
<svg width="48px" height="54px" viewBox="0 0 48 54" version="1.1" xmlns="http://www.w3.org/2000/svg" xmlns:xlink="http://www.w3.org/1999/xlink">
    <title>prototyping</title>
    <g id="Page-1" stroke="none" stroke-width="1" fill="none" fill-rule="evenodd">
        <g id="iphone_xr_dark__ft3blnh7c6q2_large" transform="translate(1.000000, 7.000000)" fill="#F5F5F7" fill-rule="nonzero">
            <path d="M41.2559746,32.6071429 L33.295431,32.6071429 C32.2105859,32.6071429 31.3311452,33.4865835 31.3311452,34.5714286 L31.3311452,36.9285714 C31.3311452,38.0134165 32.2105859,38.8928571 33.295431,38.8928571 L41.2559746,38.8928571 C42.3408197,38.8928571 43.2202604,38.0134165 43.2202604,36.9285714 L43.2202604,34.5714286 C43.2202604,33.4865835 42.3408197,32.6071429 41.2559746,32.6071429 Z M33.295431,33.3928571 L41.2559746,33.3928571 C41.9068817,33.3928571 42.4345461,33.9205215 42.4345461,34.5714286 L42.4345461,36.9285714 C42.4345461,37.5794785 41.9068817,38.1071429 41.2559746,38.1071429 L33.295431,38.1071429 C32.6445239,38.1071429 32.1168595,37.5794785 32.1168595,36.9285714 L32.1168595,34.5714286 C32.1168595,33.9205215 32.6445239,33.3928571 33.295431,33.3928571 Z M12.7043725,5.89285714 L4.74382881,5.89285714 C3.65898377,5.89285714 2.7795431,6.77229781 2.7795431,7.85714286 L2.7795431,10.2142857 C2.7795431,11.2991308 3.65898377,12.1785714 4.74382881,12.1785714 L12.7043725,12.1785714 C13.7892175,12.1785714 14.6686582,11.2991308 14.6686582,10.2142857 L14.6686582,7.85714286 C14.6686582,6.77229781 13.7892175,5.89285714 12.7043725,5.89285714 Z M4.74382881,6.67857143 L12.7043725,6.67857143 C13.3552795,6.67857143 13.8829439,7.20623583 13.8829439,7.85714286 L13.8829439,10.2142857 C13.8829439,10.8651927 13.3552795,11.3928571 12.7043725,11.3928571 L4.74382881,11.3928571 C4.09292178,11.3928571 3.56525738,10.8651927 3.56525738,10.2142857 L3.56525738,7.85714286 C3.56525738,7.20623583 4.09292178,6.67857143 4.74382881,6.67857143 Z M20.6427589,8.25 C22.1052907,8.25 23.3011631,9.3917046 23.3877401,10.8324777 L23.3927589,11 L23.3927589,16.5 C23.3927589,17.5355339 24.1940674,18.3839122 25.2104476,18.4588979 L25.3570446,18.4642857 L33.685,18.464 L33.6856475,14.8928571 L41.6856475,18.8571429 L33.6856475,22.8214286 L33.685,19.249 L25.3570446,19.25 C23.8945127,19.25 22.6986403,18.1082954 22.6120634,16.6675223 L22.6070446,16.5 L22.6070446,11 C22.6070446,9.96446609 21.805736,9.11608783 20.7893558,9.04110206 L20.6427589,9.03571429 L14.676044,9.03571429 L14.676044,8.25 L20.6427589,8.25 Z M25.2803306,36.237591 C23.8180215,36.2120663 22.6422567,35.0496647 22.5808379,33.6076001 L22.5787435,33.4400157 L22.6747317,27.9408534 C22.6928043,26.9054772 21.906424,26.0432434 20.8915073,25.9505307 L20.7450267,25.9425853 L12.418039,25.7972372 L12.3553622,29.3681158 L4.42576698,25.2648146 L12.4937349,21.4407519 L12.4317391,25.0123568 L20.7587393,25.1569907 C22.2210484,25.1825154 23.3968132,26.3449169 23.458232,27.7869816 L23.4603264,27.954566 L23.3643381,33.4537283 C23.3462656,34.4891045 24.1326458,35.3513383 25.1475626,35.4440509 L25.2940432,35.4519963 L31.2598493,35.5561299 L31.2461367,36.3417245 L25.2803306,36.237591 Z M14.9183104,0 L2.53008746,0 C1.85560745,0.00207506051 1.20970338,0.27004886 0.735009015,0.744745249 C0.260314654,1.21944164 -0.00412049879,1.86181096 4.85588647e-05,2.53 L4.85588647e-05,32.0807143 C0.0131166438,33.4570452 1.14076451,34.5671878 2.53008746,34.5714286 L14.9183104,34.5714286 C16.3076334,34.5671878 17.4352812,33.4570452 17.4483493,32.0807143 L17.4483493,2.53 C17.4525184,1.86181096 17.1880832,1.21944164 16.7133888,0.744745249 C16.2386945,0.27004886 15.5927904,0.00207506051 14.9183104,0 Z M16.2521751,31.6366667 C16.2440197,32.5522368 15.517795,33.29 14.6247837,33.29 L3.01754434,33.29 C2.124533,33.29 1.39830826,32.5522368 1.39015291,31.6366667 L1.39015291,2.98142858 C1.38418713,2.53494894 1.55300667,2.10464554 1.85885077,1.78676662 C2.16469486,1.46888769 2.58204286,1.29 3.01754434,1.29 L4.7341079,1.29 C4.9393096,1.29 5.10565845,1.4605582 5.10565845,1.67095239 L5.10565845,2.05190477 C5.10565845,2.47269315 5.43835615,2.81380953 5.84875956,2.81380953 L11.7935684,2.81380953 C12.2039718,2.81380953 12.5366695,2.47269315 12.5366695,2.05190477 L12.5366695,1.67095239 C12.5366695,1.4605582 12.7030184,1.29 12.9082201,1.29 L14.6247837,1.29 C15.0602851,1.29 15.4776331,1.46888769 15.7834772,1.78676662 C16.0893213,2.10464554 16.2581409,2.53494894 16.2521751,2.98142858 L16.2521751,31.6366667 Z M43.4699125,9.42857143 L31.0816896,9.42857143 C30.4072096,9.43064649 29.7613055,9.69862029 29.2866112,10.1733167 C28.8119168,10.6480131 28.5474816,11.2903824 28.5516507,11.9585714 L28.5516507,41.5092857 C28.5647188,42.8856167 29.6923666,43.9957592 31.0816896,44 L43.4699125,44 C44.8592355,43.9957592 45.9868834,42.8856167 45.9999514,41.5092857 L45.9999514,11.9585714 C46.0041205,11.2903824 45.7396853,10.6480131 45.264991,10.1733167 C44.7902966,9.69862029 44.1443925,9.43064649 43.4699125,9.42857143 Z M39,11.17 C39.182254,11.17 39.33,11.317746 39.33,11.5 C39.33,11.682254 39.182254,11.83 39,11.83 C38.817746,11.83 38.67,11.682254 38.67,11.5 C38.67,11.317746 38.817746,11.17 39,11.17 Z M35.8,11.25 L38.2,11.25 C38.3656854,11.25 38.5,11.3619288 38.5,11.5 C38.5,11.6380712 38.3656854,11.75 38.2,11.75 L35.8,11.75 C35.6343146,11.75 35.5,11.6380712 35.5,11.5 C35.5,11.3619288 35.6343146,11.25 35.8,11.25 Z M10.5,1.67 C10.682254,1.67 10.83,1.81774603 10.83,2 C10.83,2.18225397 10.682254,2.33 10.5,2.33 C10.317746,2.33 10.17,2.18225397 10.17,2 C10.17,1.81774603 10.317746,1.67 10.5,1.67 Z M7.3,1.75 L9.7,1.75 C9.86568542,1.75 10,1.86192881 10,2 C10,2.13807119 9.86568542,2.25 9.7,2.25 L7.3,2.25 C7.13431458,2.25 7,2.13807119 7,2 C7,1.86192881 7.13431458,1.75 7.3,1.75 Z M44.7021751,41.0566667 C44.6940197,41.9722368 43.967795,42.71 43.0747837,42.71 L31.4675443,42.71 C30.574533,42.71 29.8483083,41.9722368 29.8401529,41.0566667 L29.8401529,12.4014286 C29.8341871,11.9549489 30.0030067,11.5246455 30.3088508,11.2067666 C30.6146949,10.8888877 31.0320429,10.71 31.4675443,10.71 L33.1841079,10.71 C33.3893096,10.71 33.5556585,10.8805582 33.5556585,11.0909524 L33.5556585,11.4719048 C33.5556585,11.8926931 33.8883562,12.2338095 34.2987596,12.2338095 L40.2435684,12.2338095 C40.6539718,12.2338095 40.9866695,11.8926931 40.9866695,11.4719048 L40.9866695,11.0909524 C40.9866695,10.8805582 41.1530184,10.71 41.3582201,10.71 L43.0747837,10.71 C43.5102851,10.71 43.9276331,10.8888877 44.2334772,11.2067666 C44.5393213,11.5246455 44.7081409,11.9549489 44.7021751,12.4014286 L44.7021751,41.0566667 Z" id="Shape"></path>
        </g>
    </g>
</svg>