<?xml version="1.0" encoding="UTF-8"?>
<svg width="43px" height="54px" viewBox="0 0 43 54" version="1.1" xmlns="http://www.w3.org/2000/svg" xmlns:xlink="http://www.w3.org/1999/xlink">
    <title>usability</title>
    <g id="Page-1" stroke="none" stroke-width="1" fill="none" fill-rule="evenodd">
        <g id="usability" transform="translate(2.500000, 9.000000)" fill="#F5F5F7" fill-rule="nonzero">
            <path d="M3.5625,16.8164062 C5.52682292,16.8164062 7.125,15.1998291 7.125,13.2128906 C7.125,12.9670258 7.10026042,12.7271042 7.05387366,12.4946899 L11.0619955,10.0623169 C11.3081543,10.3347702 11.5799805,10.5850144 11.875,10.8096084 L11.875,17.0228577 C11.5032878,16.8896026 11.1037435,16.8164062 10.6875,16.8164062 C8.72317708,16.8164062 7.125,18.4329834 7.125,20.4199219 L7.125,28.0392304 C7.125,29.6432953 7.74256183,31.1516418 8.86419271,32.2858735 C9.48484703,33.0960388 11.875,34.519928 11.875,37.8190842 L11.875,39.7988281 C11.875,40.4622879 12.4065918,41 13.0625,41 L29.6875,41 C30.3434082,41 30.875,40.4622879 30.875,39.7988281 L30.875,37.1024475 C30.875,34.8524399 31.8339681,33.2023926 31.8707682,33.1026077 C32.7731445,31.2777024 33.25,29.2341461 33.25,27.193718 L33.25,18.0175781 C33.25,16.0306396 31.6518229,14.4140625 29.6875,14.4140625 C29.223942,14.4140625 28.7811035,14.5050888 28.3744466,14.668686 C27.9625326,13.1396943 26.5780436,12.0117188 24.9375,12.0117188 C24.0258464,12.0117188 23.1933594,12.3598709 22.5625,12.931366 C21.9316406,12.3598709 21.0991536,12.0117188 20.1875,12.0117188 C19.7712566,12.0117188 19.3717122,12.0849151 19,12.2181702 L19,10.8096084 C19.9629882,10.076706 20.6785807,9.06634521 21.0604981,7.92742159 L30.9578776,9.17864229 C31.3079427,10.7964707 32.7344889,12.0117188 34.4375,12.0117188 C36.4018229,12.0117188 38,10.3951416 38,8.40820312 C38,6.42126465 36.4018229,4.8046875 34.4375,4.8046875 C33.0462077,4.8046875 31.8395345,5.61610409 31.2532064,6.79506685 L21.3558268,5.54353329 C21.1214193,2.4473877 18.5574707,0 15.4375,0 C12.1635254,0 9.5,2.69419096 9.5,6.00585938 C9.5,6.6949692 9.61875,7.36875151 9.8404785,8.00186918 L5.83019204,10.4358062 C5.21355796,9.91999052 4.42312827,9.609375 3.5625,9.609375 C1.59817708,9.609375 0,11.2259521 0,13.2128906 C0,15.1998291 1.59817708,16.8164062 3.5625,16.8164062 Z M34.56125,6.13 C35.8189078,6.13 36.8425,7.15983358 36.8425,8.42516006 C36.8425,9.69048655 35.8189078,10.7203201 34.56125,10.7203201 C33.3035922,10.7203201 32.28,9.69048655 32.28,8.42516006 C32.28,7.15983358 33.3035922,6.13 34.56125,6.13 Z M20.28125,13.46875 C20.9876058,13.46875 21.5625,14.0471497 21.5625,14.7578125 L21.5625,19.9140625 C21.5625,20.6260681 22.1360596,21.203125 22.84375,21.203125 C23.5514404,21.203125 24.125,20.6260681 24.125,19.9140625 L24.125,14.7578125 C24.125,14.0471497 24.6998942,13.46875 25.40625,13.46875 C26.1126058,13.46875 26.6875,14.0471497 26.6875,14.7578125 L26.6875,22.4921875 C26.6875,23.2041931 27.2610596,23.78125 27.96875,23.78125 C28.6764404,23.78125 29.25,23.2041931 29.25,22.4921875 L29.25,17.3359375 C29.25,16.6252747 29.8248942,16.046875 30.53125,16.046875 C31.2376058,16.046875 31.8125,16.6252747 31.8125,17.3359375 L31.8125,27.1835022 C31.8125,28.9750977 31.3914225,30.7693786 30.5949789,32.3719788 C30.5325846,32.5415039 29.25,34.6815491 29.25,37.8172607 L29.25,39.421875 L13.875,39.421875 L13.875,38.5863342 C13.875,33.79599 10.4539958,31.5992126 9.87576502,30.8254395 C9.14972335,30.0949707 8.75,29.1238098 8.75,28.0908814 L8.75,19.9140625 C8.75,19.2033997 9.32489423,18.625 10.03125,18.625 C10.7376058,18.625 11.3125,19.2033997 11.3125,19.9140625 L11.3125,25.0703125 C11.3125,25.7823181 11.8860596,26.359375 12.59375,26.359375 C13.3014404,26.359375 13.875,25.7823181 13.875,25.0703125 L13.875,7.0234375 C13.875,6.33190918 14.4191976,5.76760866 15.099528,5.73739622 L15.5356201,5.79211426 C16.0574625,5.95526119 16.4375,6.44537358 16.4375,7.0234375 L16.4375,19.9140625 C16.4375,20.6260681 17.0110596,21.203125 17.71875,21.203125 C18.4264404,21.203125 19,20.6260681 19,19.9140625 L19,14.7578125 C19,14.0471497 19.5748942,13.46875 20.28125,13.46875 Z M15.3125,1.578125 C17.5180556,1.578125 19.3125,3.31298828 19.3125,5.4453125 C19.3125,5.88943484 19.2315972,6.32348633 19.0819444,6.73135378 C18.5260417,5.22006223 17.0479167,4.17303462 15.3517361,4.1572571 C15.3451389,4.15692134 15.3388889,4.15692134 15.3322916,4.15658567 C15.3256945,4.15658567 15.3190972,4.15625 15.3125,4.15625 C13.5753472,4.15625 12.0940972,5.23248295 11.5430556,6.73135378 C11.3934028,6.32348633 11.3125,5.88943484 11.3125,5.4453125 C11.3125,3.31298828 13.1069444,1.578125 15.3125,1.578125 Z M3.58125,10.890625 C4.83890784,10.890625 5.8625,11.9204586 5.8625,13.1857851 C5.8625,14.4511115 4.83890784,15.4809451 3.58125,15.4809451 C2.32359216,15.4809451 1.3,14.4511115 1.3,13.1857851 C1.3,11.9204586 2.32359216,10.890625 3.58125,10.890625 Z" id="Shape"></path>
        </g>
    </g>
</svg>