<svg enable-background="new 0 0 25 54" viewBox="0 0 25 54" xmlns="http://www.w3.org/2000/svg"><path d="m24 28v-5h-1v-1.7c0-.8-.2-1.5-.6-2.2s-1.1-1.3-1.5-1.9c-.6-.9-1-1.9-1.3-3s-.2-2.3-.4-3.5c-.2-.8-.9-1.4-1.7-1.4-.9-.1-1.9-.2-2.8-.3s-2 0-3 0c-1.9 0-3.7.1-5.6.4-.5.2-1 .6-1.1 1.2-.1.5-.2 1.9-.3 2.6-.1 1.6-.8 3.2-1.9 4.4l-.5.5c-.8.9-1.3 2-1.3 3.2l-.1 17.4c0 1.2.5 2.4 1.5 3.2 1.3 1 2.1 2.5 2.3 4.1.2 1.2.1 2.3.3 3.5.2.6.7 1 1.3 1.1 2 .3 4 .5 6.1.4 1.9 0 3.7-.1 5.6-.4.6-.1 1-.6 1.2-1.1.1-.5-.1-3.2.8-4.8.3-.6 1.7-2.7 1.7-2.7s.2-.2.2-.3c.8-.8 1.2-1.9 1.2-3.1l-.1-10.6zm-2 10.7c.1 1.7-1.3 3.2-3 3.3h-14c-1.7-.1-3.1-1.6-3-3.3v-17.4c-.1-1.7 1.3-3.2 3-3.3h14c1.7.1 3.1 1.6 3 3.3z" fill="#f5f5f7"/></svg>