<svg id="Layer_3" data-name="Layer 3" xmlns="http://www.w3.org/2000/svg" viewBox="0 0 50 54"><defs><style>.cls-1{fill:none;}.cls-2{fill:#f5f5f7;}</style></defs><title>watch_nav_studio_dark_large</title><rect class="cls-1" width="50" height="54"/><path class="cls-2" d="M34.62,40.88A4.24,4.24,0,0,0,36,37.67V27h1V22H36V20.33a4.48,4.48,0,0,0-1.36-3.18l-.46-.51A7.47,7.47,0,0,1,32.3,12.2c-.1-.77-.19-2.09-.3-2.63a1.52,1.52,0,0,0-1.11-1.14A30,30,0,0,0,25,8a30,30,0,0,0-5.89.43A1.52,1.52,0,0,0,18,9.57c-.11.54-.2,1.86-.3,2.63a7.47,7.47,0,0,1-1.88,4.44l-.46.51A4.48,4.48,0,0,0,14,20.33V37.67a4.24,4.24,0,0,0,1.38,3.21A5.8,5.8,0,0,1,17.64,45c.18,1.16.05,2.33.28,3.46a1.64,1.64,0,0,0,1.26,1.11A33.33,33.33,0,0,0,25,50a33.33,33.33,0,0,0,5.82-.43,1.64,1.64,0,0,0,1.26-1.11c.23-1.13.1-2.3.28-3.46A5.8,5.8,0,0,1,34.62,40.88ZM31.8,41H18.2A3.2,3.2,0,0,1,15,37.8V20.2A3.2,3.2,0,0,1,18.2,17H31.8A3.2,3.2,0,0,1,35,20.2V37.8A3.2,3.2,0,0,1,31.8,41Zm4,1h1.46a.5.5,0,0,0,0-1h-.61A5.36,5.36,0,0,1,35.79,42Zm1.46-25a.5.5,0,0,0,0-1H35.79a5.36,5.36,0,0,1,.85,1ZM41.5,42a.5.5,0,0,0,0-1h-2a.5.5,0,0,0,0,1Zm4-25a.5.5,0,0,0,0-1h-2a.5.5,0,0,0,0,1Zm0,25a.5.5,0,0,0,0-1h-2a.5.5,0,0,0,0,1ZM47,19h3a5.16,5.16,0,0,0-3.31-4.74c0-.86,0-2,0-2.6a1.54,1.54,0,0,0-.87-1.38c-.47-.29-2.5-.4-5.27-.4s-4.8.11-5.27.4a1.54,1.54,0,0,0-.87,1.38,15.7,15.7,0,0,0-.24,2A4.72,4.72,0,0,0,35,15l.13,0H45.62a3.85,3.85,0,0,1,.78.21A4.5,4.5,0,0,1,48.83,18H37.05a5.86,5.86,0,0,1,.33,1H46V39H37.38a5.86,5.86,0,0,1-.33,1H48.83a4.5,4.5,0,0,1-2.43,2.79,3.85,3.85,0,0,1-.78.21H35.17L35,43a4.72,4.72,0,0,0-.92,1.4,15.7,15.7,0,0,0,.24,2,1.54,1.54,0,0,0,.87,1.38c.47.29,2.5.4,5.27.4s4.8-.11,5.27-.4a1.54,1.54,0,0,0,.87-1.38c.08-.63,0-1.74,0-2.6A5.16,5.16,0,0,0,50,39H47ZM35.11,14a11.51,11.51,0,0,1,.24-2.22c0-.44.16-.55.4-.65a21.55,21.55,0,0,1,4.75-.25,21.55,21.55,0,0,1,4.75.25c.24.1.35.21.4.65s0,.75,0,2.22ZM45.65,46.22c0,.44-.16.55-.4.65a21.55,21.55,0,0,1-4.75.25,21.55,21.55,0,0,1-4.75-.25c-.24-.1-.35-.21-.4-.65A11.51,11.51,0,0,1,35.11,44H45.68C45.64,45.47,45.7,45.83,45.65,46.22ZM41.5,17a.5.5,0,0,0,0-1h-2a.5.5,0,0,0,0,1ZM16,46.59a.68.68,0,0,1-.32.15,34.69,34.69,0,0,1-5.62.38,31.51,31.51,0,0,1-5.38-.38.57.57,0,0,1-.45-.31A9,9,0,0,1,4.11,45,11.36,11.36,0,0,0,4,43.41,5.65,5.65,0,0,0,2.32,40H13a5.13,5.13,0,0,1-.34-1H4V19h8.62A5.13,5.13,0,0,1,13,18H2.32A5.65,5.65,0,0,0,4,14.59,11.36,11.36,0,0,0,4.11,13a9,9,0,0,1,.13-1.42.57.57,0,0,1,.45-.31,31.51,31.51,0,0,1,5.38-.38,34.69,34.69,0,0,1,5.62.38.68.68,0,0,1,.32.15v-.05c0-.33,0-.68,0-1a1.29,1.29,0,0,0-.21-.06,36.07,36.07,0,0,0-5.78-.39,33.08,33.08,0,0,0-5.54.39,1.61,1.61,0,0,0-1.26,1c-.22,1-.1,2.09-.27,3.14A4.94,4.94,0,0,1,.75,18,3.22,3.22,0,0,0,0,19H3V39H0a3.22,3.22,0,0,0,.75,1A4.94,4.94,0,0,1,3,43.58c.17,1.05,0,2.12.27,3.14a1.61,1.61,0,0,0,1.26,1,33.08,33.08,0,0,0,5.54.39,36.07,36.07,0,0,0,5.78-.39,1.29,1.29,0,0,0,.21-.06c0-.35,0-.7,0-1Z"/></svg>