<svg viewBox="0 0 68 54" xmlns="http://www.w3.org/2000/svg"><g fill="#f5f5f7"><path d="m63.76 26.27c0-.18.08-.36.13-.52a2.8 2.8 0 0 0 -.08-2.12l-.15-.32a2.4 2.4 0 0 0 -.11-.23c0-.08-.09-.16-.12-.23a17.65 17.65 0 0 0 -1-1.53c-.35-.45-.69-.87-1-1.24s-.67-.69-1-1l-.43-.35c-.15-.11-.28-.23-.4-.33l-.36-.26c-.28-.2-.57-.39-.86-.58a.53.53 0 0 0 -.75.16.54.54 0 0 0 .15.75l.14.09.17.12.11.07.12.08.27.19c.1.08.21.16.32.26l.37.29.41.36a11.07 11.07 0 0 1 .88.91 10.72 10.72 0 0 1 .94 1.16 12.69 12.69 0 0 1 .91 1.41l.1.2a1.62 1.62 0 0 1 .1.18c.06.14.12.28.17.42a8.79 8.79 0 0 1 .31.91c0 .16.1.32.18.53a2.64 2.64 0 0 0 .46.74s.01-.08.02-.12z"/><path d="m38.7 23.24a.9.9 0 0 0 .52-.08 1.09 1.09 0 0 0 .37-.29 3.25 3.25 0 0 0 .21-.37l.09-.19.21-.41.21-.42.26-.42c.1-.16.21-.32.32-.47a10.2 10.2 0 0 1 .79-1c.14-.17.32-.33.49-.5s.36-.34.56-.51a13.26 13.26 0 0 1 1.34-1l.38-.24.39-.22.1-.06.11-.06.22-.11.22-.12.11-.06c.29-.13.59-.26.91-.38a9.18 9.18 0 0 1 1-.32 13.56 13.56 0 0 1 2.11-.5 15.61 15.61 0 0 1 5.56.22 10.51 10.51 0 0 1 2 .66c.25.11.5.24.74.37a15.63 15.63 0 0 1 6.34 6.74 3 3 0 0 1 .1 2.3c0 .16-.09.33-.12.51a4.87 4.87 0 0 0 .15 2.44c0 .25.14.68.17.95a18.78 18.78 0 0 1 -.94 8.21.67.67 0 0 0 0 .12.55.55 0 0 0 .34.7.49.49 0 0 0 .67-.31 18.23 18.23 0 0 0 1.1-8.89c0-.31-.1-.58-.15-.83a4.89 4.89 0 0 1 -.06-2.14c0-.15.07-.29.11-.45a4.21 4.21 0 0 0 -.21-3.11 17 17 0 0 0 -6.84-7.32c-.27-.16-.54-.3-.82-.44a13.42 13.42 0 0 0 -2.4-.84 17.56 17.56 0 0 0 -5.83-.25 14.6 14.6 0 0 0 -4.45 1.27l-.12.06h-.06-.07l-.23.11-.22.12-.11.05-.11.06-.46.25-.42.26a13.92 13.92 0 0 0 -1.51 1.08c-.23.18-.44.37-.64.55l-.29.28-.28.27c-.09.09-.17.18-.26.26l-.24.27c-.16.16-.3.33-.44.49a2.69 2.69 0 0 0 -.27.32c-.25.3-.47.61-.7.92l-.1.14-.32.46c-.06.09-.11.17-.16.23a1.4 1.4 0 0 0 -.21.55s0 .06 0 .09a.94.94 0 0 0 .85.95z"/><path d="m9.51 17.68c-.29.19-.57.38-.86.59l-.35.26-.4.33c-.14.11-.28.24-.44.38s-.62.6-1 1-.68.79-1 1.25a14.46 14.46 0 0 0 -1 1.53 2.42 2.42 0 0 0 -.12.23 1.55 1.55 0 0 0 -.12.22l-.14.33a2.69 2.69 0 0 0 -.08 2.07c0 .16.09.34.12.53v.11a2.81 2.81 0 0 0 .46-.74c.07-.2.12-.36.17-.53.1-.33.2-.62.31-.9s.11-.29.17-.42a.77.77 0 0 1 .1-.18l.1-.2a12.35 12.35 0 0 1 .91-1.42 11.77 11.77 0 0 1 .99-1.12c.31-.34.6-.64.88-.9l.41-.36.38-.34.33-.26.25-.14.11-.08.11-.07.17-.12.14-.09a.53.53 0 0 0 .15-.75.55.55 0 0 0 -.75-.21z"/><path d="m2.23 29.55a18.56 18.56 0 0 0 1.09 8.89.5.5 0 0 0 .68.31.56.56 0 0 0 .34-.7v-.13a18.6 18.6 0 0 1 -1-8.2c0-.27.13-.7.18-.95a5 5 0 0 0 .15-2.44q-.06-.27-.12-.51a3 3 0 0 1 .09-2.3 15.67 15.67 0 0 1 6.36-6.74c.24-.13.49-.26.74-.37a10.67 10.67 0 0 1 2-.66 15.24 15.24 0 0 1 5.54-.22 13.83 13.83 0 0 1 2.02.47q.49.15 1 .33c.32.12.62.24.91.38l.1.05h.05.05l.22.12.22.11.11.06.1.06.38.22.38.24a12.06 12.06 0 0 1 1.33 1c.21.17.39.34.57.51s.34.33.49.5a10 10 0 0 1 .78 1c.11.15.22.31.32.47s.17.28.25.42.15.28.22.42a4 4 0 0 0 .21.41l.09.19a2.22 2.22 0 0 0 .21.37 1 1 0 0 0 .36.29.91.91 0 0 0 .52.08 1 1 0 0 0 .66-.37 1 1 0 0 0 .19-.58.28.28 0 0 0 0-.09 1.26 1.26 0 0 0 -.21-.55l-.16-.23-.37-.41-.1-.14c-.22-.31-.45-.62-.69-.92l-.27-.32c-.14-.16-.28-.33-.44-.49l-.24-.27-.26-.26-.28-.31-.29-.29c-.2-.18-.4-.37-.64-.55a12.86 12.86 0 0 0 -1.5-1.08l-.42-.26-.45-.25-.12-.06-.11-.05-.22-.12-.25-.1h-.07-.06l-.13-.06a14.47 14.47 0 0 0 -4.43-1.27 17.09 17.09 0 0 0 -5.8.25 12.8 12.8 0 0 0 -2.39.84c-.28.13-.56.28-.83.43a17.12 17.12 0 0 0 -6.78 7.28 4.21 4.21 0 0 0 -.18 3.14c0 .16.08.3.11.45a4.89 4.89 0 0 1 -.06 2.14c-.05.27-.11.51-.15.82z"/><path d="m29.13 40.88a.91.91 0 0 0 -.52.09.94.94 0 0 0 -.36.29 2.22 2.22 0 0 0 -.21.37l-.09.19a3.17 3.17 0 0 0 -.21.41l-.21.42-.26.42c-.1.16-.21.32-.32.47a10 10 0 0 1 -.78 1c-.15.17-.32.33-.49.5s-.36.34-.56.5a13.3 13.3 0 0 1 -1.34 1l-.37.24-.41.22-.1.06-.11.05-.22.12-.22.11h-.11q-.44.21-.9.39a10 10 0 0 1 -1 .32 12.51 12.51 0 0 1 -2.11.41c-.36.05-.74.07-1.11.09h-1.21a13.73 13.73 0 0 1 -2.36-.3 12.6 12.6 0 0 1 -4.55-1.89 14.63 14.63 0 0 1 -3.67-3.61 18.68 18.68 0 0 1 -2-3.61 1.19 1.19 0 0 1 -.45-.53 19.11 19.11 0 0 1 -1.11-9.13c0-.32.1-.59.15-.86a4.32 4.32 0 0 0 .08-1.94 1.36 1.36 0 0 0 0-.17 5.62 5.62 0 0 0 -1 1.49c-.84 2.52-.51 5.78.08 8.38 0 .23.1.46.16.68.13.52.32 1 .49 1.55a19 19 0 0 0 2.54 4.87 16.23 16.23 0 0 0 4 4 14.25 14.25 0 0 0 5 2.17 15.59 15.59 0 0 0 2.59.34h.63.62c.43 0 .84 0 1.24-.08a14.16 14.16 0 0 0 4.43-1.2l.13-.05h.06.07l.22-.12.22-.11h.11l.12-.07.45-.25.42-.25a14.15 14.15 0 0 0 1.5-1.08c.24-.18.44-.37.64-.55l.29-.28.28-.27.26-.27.24-.26c.16-.16.3-.33.44-.49l.27-.32c.24-.3.47-.61.69-.92l.1-.14.32-.46.16-.24a1.18 1.18 0 0 0 .21-.54.28.28 0 0 0 0-.09 1 1 0 0 0 -.85-1z"/><path d="m38.82 39.88a1.89 1.89 0 0 1 1.55.76 3.47 3.47 0 0 1 .32.54l.09.18.18.35a3 3 0 0 0 .54-1.71v-16a3 3 0 0 0 -.5-1.65c-.07.16-.15.3-.22.44l-.07.14a4.19 4.19 0 0 1 -.3.52 2 2 0 0 1 -.74.61 1.88 1.88 0 0 1 -.84.19h-.25a2 2 0 0 1 -1.72-1.95v-.18a2.36 2.36 0 0 1 .24-.75 3 3 0 0 0 -1.61 2.63v16a3 3 0 0 0 1.51 2.59 2.21 2.21 0 0 1 -.15-.55v-.2a2 2 0 0 1 .39-1.17 2 2 0 0 1 1.34-.78zm-.33-13.88a2 2 0 1 1 -2 2 2 2 0 0 1 2-2zm-2 11v-4a2 2 0 0 1 4 0v4a2 2 0 0 1 -4 0z"/><path d="m66.93 28a5.94 5.94 0 0 0 -.93-1.49 1.36 1.36 0 0 0 0 .17 4.47 4.47 0 0 0 0 1.94c.06.27.11.54.15.86a18.8 18.8 0 0 1 -1.12 9.13 1.08 1.08 0 0 1 -.45.53 17.69 17.69 0 0 1 -2 3.61 14.67 14.67 0 0 1 -3.68 3.61 12.76 12.76 0 0 1 -4.56 1.93 12.92 12.92 0 0 1 -2.37.3h-1.17c-.37 0-.75 0-1.12-.09a12.51 12.51 0 0 1 -2.11-.41 9.18 9.18 0 0 1 -1-.32c-.32-.12-.62-.25-.91-.39h-.11l-.22-.11-.33-.21-.1-.05-.1-.06-.39-.22-.38-.24a13.3 13.3 0 0 1 -1.34-1c-.2-.16-.38-.34-.56-.5s-.35-.33-.49-.5a8.85 8.85 0 0 1 -.79-1c-.11-.15-.22-.31-.32-.47l-.26-.42a4.11 4.11 0 0 1 -.21-.42l-.21-.41-.09-.19a3.28 3.28 0 0 0 -.22-.37.94.94 0 0 0 -.36-.29.9.9 0 0 0 -.52-.09 1 1 0 0 0 -.66.38 1 1 0 0 0 -.19.57s0 .07 0 .1a1.22 1.22 0 0 0 .21.54l.16.23c.1.16.21.31.32.46l.1.14a10.6 10.6 0 0 0 .7.92 3.92 3.92 0 0 0 .27.33c.14.15.28.33.44.49l.24.26.26.27.28.27.29.27c.2.18.41.38.64.56a13.88 13.88 0 0 0 1.51 1.07l.42.26.46.25.11.06.11.06.22.11.23.12h.07.06l.12.05a14.28 14.28 0 0 0 4.45 1.2c.41 0 .81.07 1.24.08h.62l.66.12a16.69 16.69 0 0 0 2.6-.34 14.3 14.3 0 0 0 5-2.17 16.14 16.14 0 0 0 4-4 19.28 19.28 0 0 0 2.55-4.88c.17-.51.36-1 .49-1.54.06-.22.11-.45.17-.68.65-2.63 1.01-5.8.12-8.39z"/><path d="m30.66 21.24a2.18 2.18 0 0 1 .3.85v.2a1.95 1.95 0 0 1 -1.73 1.95h-.23a1.88 1.88 0 0 1 -.84-.19 2 2 0 0 1 -.71-.57 4 4 0 0 1 -.32-.54l-.13-.17-.14-.27a2.92 2.92 0 0 0 -.4 1.5v16a3 3 0 0 0 .43 1.55l.12-.22.05-.1a4.57 4.57 0 0 1 .33-.57 2.09 2.09 0 0 1 .73-.61 2 2 0 0 1 .84-.18h.25a1.94 1.94 0 0 1 1.32.76 2 2 0 0 1 .4 1.19v.18a2.08 2.08 0 0 1 -.21.69 3 3 0 0 0 1.76-2.69v-16a3 3 0 0 0 -1.82-2.76z"/><circle cx="38.49" cy="28" r="1"/><path d="m38.49 32a1 1 0 0 0 -1 1v4a1 1 0 0 0 2 0v-4a1 1 0 0 0 -1-1z"/></g></svg>