<svg viewBox="0 0 27 54" xmlns="http://www.w3.org/2000/svg"><path d="m0 0h27v54h-27z" fill="none"/><path d="m6.3 22.5a5.81 5.81 0 0 0 -4.2 1.6l-1.5 1.5a1.87 1.87 0 0 0 -.5 1.4v2.4a2.2 2.2 0 0 0 .1.8 3 3 0 0 0 .4.8 1.79 1.79 0 0 0 .5.7 6.92 6.92 0 0 0 5.2 2.4 6.11 6.11 0 0 0 6.3-5.8 6.11 6.11 0 0 0 -6.3-5.8zm-3.5 7.5a.47.47 0 0 1 -.5.5h-.2a.47.47 0 0 1 -.5-.5v-3.4a.47.47 0 0 1 .5-.5h.2a.47.47 0 0 1 .5.5zm5.7-.8h-1.7a.92.92 0 0 1 -.9-1 .9.9 0 0 1 .9-.9h1.8a.92.92 0 0 1 .9 1 1 1 0 0 1 -1 .9zm-2 19.31a1.45 1.45 0 0 0 1.4 1.49h1.7a1.46 1.46 0 0 0 1.4-1.5v-14.5a8.94 8.94 0 0 1 -4.5 1.5zm19.9-22.91-1.5-1.5a5.43 5.43 0 0 0 -4.2-1.6 6.11 6.11 0 0 0 -6.3 5.8 6.11 6.11 0 0 0 6.3 5.8 6.59 6.59 0 0 0 5.2-2.4c.2-.2.3-.5.5-.7a2 2 0 0 0 .4-.8 2.2 2.2 0 0 0 .1-.8v-2.4a1.87 1.87 0 0 0 -.5-1.4zm-6.2 3.6h-1.8a1 1 0 0 1 0-2h1.8a.92.92 0 0 1 .9 1 .83.83 0 0 1 -.9 1zm5.2.8a.47.47 0 0 1 -.5.5h-.2a.47.47 0 0 1 -.5-.5v-3.4a.47.47 0 0 1 .5-.5h.2a.47.47 0 0 1 .5.5zm-9.4 18.6a1.47 1.47 0 0 0 1.5 1.5h1.5a1.47 1.47 0 0 0 1.5-1.5v-13.1a7.38 7.38 0 0 1 -4.5-1.5z" fill="#f5f5f7"/></svg>