<svg viewBox="0 0 15 54" xmlns="http://www.w3.org/2000/svg"><path d="m.62 9.24h.63a1.24 1.24 0 0 1 1.25 1.23v19.77a5 5 0 0 0 10 0v-19.77c0-.68 0-1.23 1.25-1.23h.63a.62.62 0 0 0 0-1.24h-13.76a.62.62 0 0 0 0 1.24zm6.88 6a1.24 1.24 0 1 1 -1.25 1.24 1.24 1.24 0 0 1 1.25-1.23zm0 5.1a1.24 1.24 0 1 1 -1.25 1.24 1.25 1.25 0 0 1 1.25-1.23zm0 4.94a1.24 1.24 0 1 1 -1.25 1.24 1.25 1.25 0 0 1 1.25-1.23zm6.88 23.47h-.63c-1.25 0-1.25-.55-1.25-1.23v-13.62a6.24 6.24 0 0 1 -10 0v13.63a1.24 1.24 0 0 1 -1.25 1.23h-.63a.62.62 0 1 0 0 1.24h13.76a.62.62 0 1 0 0-1.24z" fill="#f5f5f7"/></svg>