<svg enable-background="new 0 0 25 54" viewBox="0 0 25 54" xmlns="http://www.w3.org/2000/svg"><path d="m23 23v-1.7c0-1.4-.6-2.6-1.5-3.4-.2-.2-.3-.4-.5-.6-.2-.3-.4-.5-.7-.8-.8-1-1.2-2-1.3-3.3 0-.5 0-1.1 0-1.6 0-.3.1-.7 0-1-.1-.6-.5-.9-1.2-1.1-.2-.1-.9-.1-1.2-.1-.2.5-.7.9-1.3.9-.7 0-1.3-.5-1.4-1.1-.8 0-1.6 0-2.2 0-.5 0-1.1 0-1.7 0-.1.7-.7 1.2-1.4 1.2-.6 0-1.2-.4-1.3-1-.5-.1-.9 0-1.1 0-.6.2-1.1.6-1.2 1.2-.1.5.1 3.2-.8 4.8-.2.4-1 1.5-1.4 2.2-.1.2-.5.6-.6.7-.7.7-1.2 1.6-1.2 3v17.3c0 1.2.1 2.2.8 3 .2.1.4.4.4.4.3.3 1.1 1.3 1.1 1.3.3.3.5.8.9 1.3.9 1.6.7 4.2.8 4.8s.5.9 1.2 1.1c.2.1.9.2 1.2.2.2-.5.7-.8 1.3-.8.7 0 1.2.5 1.4 1.1.8 0 1.6.1 2.3.1h1.6c.2-.6.7-1.1 1.4-1.1.6 0 1.1.4 1.3.9.5-.1.9-.1 1.2-.2.6-.2 1-.6 1.2-1.1.1-.5-.1-3.2.8-4.8.3-.6 1.7-2.7 1.7-2.7s.2-.4.4-.6c.6-.8 1-1.8 1-2.9v-10.6h1v-5zm-7.7-11.3c.8 0 1.4.6 1.4 1.4s-.6 1.4-1.4 1.4-1.4-.6-1.4-1.4.6-1.4 1.4-1.4zm-3.3-2.1c.8 0 1.4.6 1.4 1.4s-.6 1.4-1.4 1.4-1.4-.6-1.4-1.4.6-1.4 1.4-1.4zm0 4.3c.8 0 1.4.6 1.4 1.4s-.6 1.4-1.4 1.4-1.4-.6-1.4-1.4.6-1.4 1.4-1.4zm-3.4-2.2c.8 0 1.4.6 1.4 1.4s-.6 1.4-1.4 1.4-1.4-.6-1.4-1.4.6-1.4 1.4-1.4zm0 36.7c-.8 0-1.4-.6-1.4-1.4s.6-1.4 1.4-1.4 1.4.6 1.4 1.4c.1.8-.6 1.4-1.4 1.4zm3.4 2.1c-.8 0-1.4-.6-1.4-1.4s.6-1.4 1.4-1.4 1.4.6 1.4 1.4-.6 1.4-1.4 1.4zm0-4.3c-.8 0-1.4-.6-1.4-1.4s.6-1.4 1.4-1.4 1.4.6 1.4 1.4-.6 1.4-1.4 1.4zm3.3 2.2c-.8 0-1.4-.6-1.4-1.4s.6-1.4 1.4-1.4 1.4.6 1.4 1.4c.1.8-.6 1.4-1.4 1.4zm6.7-9.8c0 1.8-1.3 3.4-3 3.4h-14c-1.6 0-3-1.6-3-3.4v-17.3c0-1.8 1.4-3.3 3.1-3.3h14c1.7 0 3 1.5 3 3.3v17.3z" fill="#f5f5f7"/></svg>