<svg viewBox="0 0 23 54" xmlns="http://www.w3.org/2000/svg"><path d="m22 22v-1.67a4.55 4.55 0 0 0 -.93-2.82c-.32-.41-.71-.78-1-1.19a13.22 13.22 0 0 1 -1-1.43 5.85 5.85 0 0 1 -.92-2.62 19.63 19.63 0 0 1 -.15-2.27 2 2 0 0 0 0-.43 1.48 1.48 0 0 0 -1.16-1.11 33.51 33.51 0 0 0 -6.07-.46 28 28 0 0 0 -5.59.43 1.53 1.53 0 0 0 -1.18 1.14c-.11.54.14 3.17-.79 4.76-.31.56-1.67 2.67-1.67 2.67a4.46 4.46 0 0 0 -1.54 3.33v17.34a5 5 0 0 0 1.27 3.41c.47.59 1.1 1.25 1.1 1.25a7.17 7.17 0 0 1 .95 1.37c.93 1.59.56 4.23.67 4.76a1.48 1.48 0 0 0 1.16 1.11 34.69 34.69 0 0 0 6.18.43 27.91 27.91 0 0 0 5.58-.43 1.52 1.52 0 0 0 1.16-1.14c.12-.54-.14-3.17.8-4.76.32-.56 1.66-2.67 1.66-2.67a4.44 4.44 0 0 0 1.47-3.33v-10.67h1v-5zm-17.89-7.16a9.52 9.52 0 0 0 .89-4.45 5.19 5.19 0 0 1 0-.63c0-.17.12-.3.5-.42a30.49 30.49 0 0 1 5.31-.34 36 36 0 0 1 5.71.33c.44.14.48.28.5.4s0 .32 0 .6a9.82 9.82 0 0 0 .86 4.5 9 9 0 0 0 .8 1.17c-.07 0-15.31 0-15.34 0a7.18 7.18 0 0 0 .77-1.16zm13.89 28.32a9.65 9.65 0 0 0 -.87 4.45 5.19 5.19 0 0 1 0 .63c0 .17-.12.3-.5.42a30.41 30.41 0 0 1 -5.31.34 37.23 37.23 0 0 1 -5.8-.33c-.44-.14-.48-.28-.5-.4s0-.32 0-.6a9.69 9.69 0 0 0 -.86-4.5 11.33 11.33 0 0 0 -.84-1.17h15.4a9.21 9.21 0 0 0 -.72 1.16zm3-5.49a3.12 3.12 0 0 1 -2.94 3.33h-14a3.23 3.23 0 0 1 -3.06-3.33v-17.46a3.19 3.19 0 0 1 3.06-3.21h14a3.09 3.09 0 0 1 2.94 3.21z" fill="#f5f5f7"/></svg>