<svg viewBox="0 0 51 54" xmlns="http://www.w3.org/2000/svg"><path d="m41.85 26.08c0-.78 0-1.44 0-1.84 0-4.67-7.33-8.32-16.43-8.32s-16.42 3.65-16.42 8.32v1.91c-4.8 2.49-8.5 6.12-8.5 10.17 0 7.51 11.19 13.6 25 13.6s25-6.09 25-13.6c0-4.08-3.77-7.75-8.65-10.24zm-16.29-9.08c8.36 0 15.14 3.26 15.14 7.28a4.77 4.77 0 0 1 -1.88 3.52 9.76 9.76 0 0 1 -1 .73l-.22.15c-.33.2-.67.4-1 .58a1.4 1.4 0 0 1 -.17.09l-.91.45v-.23a2.54 2.54 0 0 0 -2.52-2.65h-10.5v-1h-4v1h-.45a2.54 2.54 0 0 0 -2.55 2.61v.2c-.28-.13-.63-.27-.93-.42-.05 0 0-.06-.1-.09l-.25-.13-.74-.45-.21-.15a9.44 9.44 0 0 1 -1-.73 4.73 4.73 0 0 1 -1.88-3.52c.03-4.02 6.81-7.24 15.17-7.24zm8.94 12.53v9.41c0 .86-.67 2-1.55 2h-14.9c-.88 0-1.55-1.12-1.55-2v-9.41a1.58 1.58 0 0 1 1.55-1.61h14.95a1.58 1.58 0 0 1 1.5 1.61zm-9 19c-12.77.03-23.56-5.53-23.56-12.21 0-3.32 2.44-6.44 7.06-8.67v5c0 2.81 2.29 5.29 6.49 6.79a2.94 2.94 0 0 0 2.55 2.52h14.96a2.92 2.92 0 0 0 2.55-2.57c4.25-1.5 6.48-4 6.48-6.74 0-.9 0-3.06-.1-5 4.7 2.24 7.18 5.35 7.18 8.73-.05 6.62-10.84 12.18-23.61 12.18z" fill="#f5f5f7"/></svg>