<svg viewBox="0 0 23 54" xmlns="http://www.w3.org/2000/svg"><path d="m23 27v-5h-1v-1.67a4.24 4.24 0 0 0 -.6-2.16c-.4-.69-1.11-1.27-1.54-1.93a9.76 9.76 0 0 1 -1.31-3c-.27-1.15-.18-2.34-.42-3.5a1.76 1.76 0 0 0 -1.68-1.4 48.2 48.2 0 0 0 -5.45-.34 29.47 29.47 0 0 0 -5.89.43 1.53 1.53 0 0 0 -1.11 1.14c-.11.54-.2 1.87-.3 2.63a7.46 7.46 0 0 1 -1.88 4.44l-.46.51a4.46 4.46 0 0 0 -1.36 3.18v17.34a4.18 4.18 0 0 0 1.39 3.2 5.84 5.84 0 0 1 2.25 4.13c.18 1.16 0 2.34.28 3.46a1.62 1.62 0 0 0 1.27 1.11 28.54 28.54 0 0 0 5.81.43 29 29 0 0 0 5.85-.43 1.53 1.53 0 0 0 1.15-1.14c.11-.54-.15-3.17.79-4.76.33-.56 1.74-2.67 1.74-2.67s.15-.22.19-.26a4.53 4.53 0 0 0 1.28-3.07v-10.67zm-2 10.67a3.21 3.21 0 0 1 -3 3.33h-14a3.21 3.21 0 0 1 -3-3.33v-17.34a3.21 3.21 0 0 1 3-3.33h14a3.21 3.21 0 0 1 3 3.33z" fill="#f5f5f7"/></svg>