<svg enable-background="new 0 0 36 54" viewBox="0 0 36 54" xmlns="http://www.w3.org/2000/svg"><path d="m0 0h36v54h-36z" fill="none"/><path d="m9.4 29c0-7.7 3-14.3 6.5-17.5 0-.6.1-1 .1-1.4-3 .6-6.9 1.4-7.2 1.5-4.6 1.4-8.3 8.7-8.3 17.4 0 9 3.9 16.5 8.8 17.4.2 0 3.6.8 6.7 1.4 0-.3 0-.8-.1-1.4-3.5-3.1-6.5-9.7-6.5-17.4zm25.6-7v-1.7c0-1.6-.8-3-2-3.7v-1.7c0-.6-.4-.9-1-.9h-1c-.1-1.9-.1-3.8-.2-4.2-.1-.8-.5-1.2-1.1-1.5-1-.4-10.3-.5-11.3 0-.6.3-1 .9-1.1 1.7-.1.3-.1 2.1-.2 4h-.9c-.6 0-1.1.4-1.1.9v1.7c-1.2.8-2 2.1-2 3.7v17.3c0 1.6.8 3 2 3.8v1.5c0 .6.5 1.1 1.1 1.1h.8c.1 1.9.1 3.6.2 4 .1.8.5 1.4 1.1 1.7 1 .4 10.3.4 11.3 0 .6-.3 1-.7 1.1-1.5.1-.4.1-2.2.2-4.2h1.1c.6 0 1-.5 1-1.1v-1.6c1.2-.8 2-2.1 2-3.7v-10.6h1v-5zm-3.5-6.9c.3 0 .5.1.5.4v.7c-.3-.2-.6-.2-1-.2 0-.3 0-.6 0-.9zm-15.5.4c0-.3.3-.4.6-.4h.4v.9c-.3 0-.7.1-1 .1zm.6 27.6c-.3 0-.6-.3-.6-.6v-.6c.3.1.7.1 1 .1v1.1zm15.4-.6c0 .3-.2.6-.5.6h-.5c0-.3 0-.8 0-1.1.4 0 .6-.1 1-.2zm2-4.8c0 1.8-1.3 3.3-3 3.3h-14c-1.7 0-3.1-1.5-3.1-3.3v-17.4c0-1.8 1.4-3.3 3.1-3.3h14c1.9 0 3 1.5 3 3.3z" fill="#f5f5f7"/></svg>