<?xml version="1.0" encoding="utf-8"?>
<!-- Generator: Adobe Illustrator 24.0.0, SVG Export Plug-In . SVG Version: 6.00 Build 0)  -->
<svg version="1.1" xmlns="http://www.w3.org/2000/svg" xmlns:xlink="http://www.w3.org/1999/xlink" x="0px" y="0px" width="35px"
	 height="54px" viewBox="0 0 35 54" style="enable-background:new 0 0 35 54;" xml:space="preserve">
<g id="Light">
	<g>
		<path id="Fitness-2_2_" style="fill-rule:evenodd;clip-rule:evenodd;fill:#F5F5F7;" d="M17.5,16.5c-9.39,0-17,7.61-17,17
			s7.61,17,17,17s17-7.61,17-17S26.89,16.5,17.5,16.5z M19.65,24.5c0.89,0.02,1.61,0.76,1.59,1.65c-0.02,0.89-0.76,1.61-1.65,1.59
			C18.71,27.72,18,27,18,26.12c0.01-0.9,0.74-1.63,1.64-1.62C19.64,24.5,19.65,24.5,19.65,24.5z M24.81,31.98l-2.93,1.21
			c-0.36,0.14-0.77,0.02-1-0.29l-1.33-1.92l-0.77,2.73c0,0,3.09,2,3.22,2.09s0.3,0.28,0.31,0.48s-0.1,0.37-0.25,0.5l-3.34,2.82
			c-0.16,0.13-0.35,0.2-0.55,0.2c-0.24,0-0.47-0.1-0.63-0.28c-0.29-0.32-0.27-0.81,0.05-1.1c0.01-0.01,0.02-0.02,0.03-0.03l2.42-2
			l-2.91-1.46l-1.53,3.6c-0.03,0.08-0.06,0.15-0.1,0.18l-3.34,3.21c-0.16,0.15-0.37,0.24-0.59,0.24c-0.22,0-0.43-0.08-0.59-0.24
			c-0.31-0.29-0.33-0.78-0.04-1.09c0.01-0.01,0.03-0.03,0.04-0.04l3.19-3.07l2.33-8.21l-1.68,0.13l-0.33,2.57
			c-0.06,0.41-0.42,0.71-0.83,0.7h-0.1c-0.45-0.05-0.78-0.45-0.73-0.9l0.42-3.22c0.06-0.38,0.37-0.68,0.76-0.7l4-0.32
			c0.9-0.08,1.77,0.33,2.3,1.06l1.55,2.67l2.29-1c0.42-0.18,0.91,0.01,1.1,0.43c0.17,0.4-0.01,0.87-0.41,1.04
			C24.83,31.97,24.82,31.98,24.81,31.98z"/>
		<rect style="fill:none;" width="35" height="54"/>
	</g>
</g>
<g id="Layer_2">
</g>
</svg>
