<svg viewBox="0 0 35 54" xmlns="http://www.w3.org/2000/svg"><path d="m16.3 36.64c0 2.85-1.49 4.66-3.86 4.66s-3.87-1.81-3.87-4.66 1.49-4.64 3.87-4.64 3.86 1.77 3.86 4.64zm-2.88-9.39c0 .39.33.62.79.62a1 1 0 0 0 1.1-1v-.37l-1 .07c-.63.08-.89.29-.89.68zm21.08 5.75a16.87 16.87 0 0 1 -17 17 17 17 0 0 1 0-34 16.87 16.87 0 0 1 17 17zm-14.5-6.66a2 2 0 0 0 2 2.22 1.67 1.67 0 0 0 1.82-1.43h-.82a.92.92 0 0 1 -1 .72c-.7 0-1.13-.57-1.13-1.51s.43-1.47 1.13-1.47a1 1 0 0 1 1 .73h.82a1.68 1.68 0 0 0 -1.82-1.45 1.94 1.94 0 0 0 -2 2.19zm-4.67-.77v.37l-1.17.06c-1 .07-1.59.51-1.59 1.27a1.28 1.28 0 0 0 1.43 1.28 1.42 1.42 0 0 0 1.28-.67h.07v.6h.8v-2.91c0-.89-.6-1.42-1.66-1.42s-1.66.47-1.74 1.18h.81c.09-.31.42-.48.89-.48s.86.26.86.72zm-9.09-1.33 1.17 4.24h.86l.88-3.17h.07l.87 3.17h.91l1.16-4.24h-.84l-.76 3.27h-.06l-.88-3.27h-.8l-.88 3.27h-.09l-.76-3.27zm11.55 12.39c0-3.69-2.06-6-5.35-6s-5.36 2.32-5.36 6 2.06 6 5.36 6 5.35-2.31 5.35-6zm1-8.13a3.15 3.15 0 0 0 .46 0v-.67a1.67 1.67 0 0 1 -.32 0c-.42 0-.6-.2-.6-.65v-2.26h.92v-.67h-.92v-1.08h-.84v1.08h-.68v.67h.68v2.44c.03.82.4 1.14 1.33 1.14zm8.66 10.64c0-1.64-1-2.61-3.38-3.14l-1.29-.28c-1.59-.35-2.21-1-2.21-1.9 0-1.18 1.12-1.89 2.57-1.89a2.36 2.36 0 0 1 2.65 2h1.45c-.06-2-1.74-3.36-4.06-3.36s-4.1 1.35-4.1 3.27c0 1.65 1 2.7 3.34 3.21l1.28.28c1.62.36 2.26 1 2.26 2 0 1.14-1.14 2-2.72 2s-2.83-.76-3-2h-1.42c.14 2 1.83 3.32 4.37 3.32s4.29-1.36 4.29-3.51zm1-13.41a1.4 1.4 0 0 0 -1.45-1.57 1.32 1.32 0 0 0 -1.3.75h-.06v-2.34h-.84v5.91h.84v-2.48a1 1 0 0 1 1.07-1.1c.6 0 .91.35.91 1v2.55h.84z" fill="#f5f5f7"/></svg>