<?xml version="1.0" encoding="utf-8"?>
<!-- Generator: Adobe Illustrator 24.0.0, SVG Export Plug-In . SVG Version: 6.00 Build 0)  -->
<svg version="1.1" xmlns="http://www.w3.org/2000/svg" xmlns:xlink="http://www.w3.org/1999/xlink" x="0px" y="0px" width="23px"
	 height="54px" viewBox="0 0 23 54" style="enable-background:new 0 0 23 54;" xml:space="preserve">
<g id="Light">
	<g>
		<path style="fill:#F5F5F7;" d="M10.2,47.08c0.3,0.26,0.55,0.15,0.57-0.25v-0.37c-0.01-0.45-0.2-0.88-0.52-1.19l-1.2-1.06
			c-0.3-0.26-0.55-0.15-0.56,0.25v0.36C8.5,45.26,8.68,45.69,9,46L10.2,47.08z M7.5,44.24l-1.24,1c-0.33,0.31-0.53,0.73-0.55,1.18
			v0.37c0,0.4,0.25,0.52,0.55,0.26l1.25-1c0.33-0.31,0.52-0.73,0.55-1.18V44.5C8.06,44.1,7.81,44,7.5,44.24z M5.28,46.83v-0.37
			c-0.01-0.45-0.2-0.88-0.52-1.19l-1.2-1.06c0,0-0.06,0-0.09-0.05C3.54,44.44,3.6,44.72,3.64,45c0.06,0.41,0.09,0.82,0.1,1.23
			l1,0.85C5,47.34,5.26,47.23,5.28,46.83z M17.24,45.28c-0.33,0.31-0.53,0.73-0.55,1.18v0.37c0,0.4,0.25,0.52,0.55,0.26l0.86-0.72
			c0.05-0.74,0.2-1.47,0.45-2.17h-0.07L17.24,45.28z M13,44.24l-1.24,1c-0.33,0.31-0.53,0.73-0.55,1.18v0.37
			c0,0.4,0.25,0.52,0.55,0.26l1.25-1c0.33-0.31,0.52-0.73,0.55-1.18V44.5C13.55,44.1,13.3,44,13,44.24z M9,46.66
			c-0.31-0.25-0.56-0.13-0.56,0.26v0.37c0.03,0.45,0.23,0.87,0.56,1.18l1.25,1c0.3,0.26,0.55,0.14,0.55-0.25v-0.37
			c-0.02-0.45-0.22-0.87-0.55-1.18L9,46.66z M8.49,49.4v0.37c0,0.06,0,0.11,0,0.17c0.51,0,1,0,1.52,0.05l-1-0.84
			C8.75,48.89,8.5,49,8.49,49.4z M7.5,49.18l-0.76,0.64c0.4,0,0.84,0.08,1.3,0.1c0-0.04,0-0.07,0-0.11v-0.37
			C8.06,49.05,7.81,48.93,7.5,49.18z M8,47.29v-0.37c0-0.39-0.26-0.5-0.56-0.24l-1.19,1.06c-0.32,0.31-0.51,0.74-0.52,1.19v0.37
			c0,0.4,0.27,0.51,0.57,0.25l1.21-1.06C7.82,48.17,8,47.74,8,47.29z M3.77,46.88c0.01,0.53,0.06,1.06,0.15,1.58
			c0.18,0.58,0.67,1.01,1.27,1.11l0,0c0.08-0.08,0.12-0.2,0.11-0.31v-0.37c-0.02-0.45-0.22-0.87-0.55-1.18L3.77,46.88z M16.77,49
			v0.37c-0.02,0.08-0.02,0.16,0,0.24l0,0c0.61-0.11,1.1-0.57,1.23-1.18c0-0.21,0-0.71,0-1.34l-0.77,0.69
			C16.92,48.11,16.75,48.55,16.77,49z M14.5,46.66c-0.31-0.25-0.56-0.13-0.56,0.26v0.37c0.02,0.45,0.22,0.87,0.55,1.18l1.25,1
			c0.3,0.26,0.55,0.14,0.55-0.25v-0.37c-0.02-0.45-0.22-0.87-0.55-1.18L14.5,46.66z M14.5,44.22c-0.31-0.25-0.56-0.14-0.56,0.26
			v0.37c0.04,0.44,0.23,0.85,0.55,1.15l1.25,1c0.3,0.25,0.55,0.14,0.55-0.26v-0.37c-0.02-0.45-0.22-0.87-0.55-1.18L14.5,44.22z
			 M14,49.4v0.37c0,0.05,0,0.1,0,0.15l1.32-0.1l-0.76-0.67C14.24,48.89,14,49,14,49.4z M13,49.18L12,50c0.49,0,1,0,1.5-0.05
			c0-0.04,0-0.09,0-0.13v-0.37C13.55,49.05,13.3,48.93,13,49.18z M13.52,47.29v-0.37c0-0.39-0.26-0.5-0.56-0.24l-1.21,1.06
			c-0.32,0.31-0.51,0.74-0.52,1.19v0.37c0,0.4,0.27,0.51,0.57,0.25l1.2-1.06C13.32,48.17,13.51,47.74,13.52,47.29z M10.2,10.76
			L9,11.82C8.68,12.13,8.49,12.55,8.48,13v0.37c0,0.39,0.26,0.5,0.56,0.24l1.21-1.06c0.32-0.31,0.51-0.74,0.52-1.19V11
			C10.75,10.61,10.5,10.5,10.2,10.76z M7.5,13.6c0.31,0.25,0.56,0.14,0.56-0.26V13c-0.03-0.45-0.23-0.87-0.55-1.18l-1.25-1
			c-0.3-0.25-0.55-0.14-0.55,0.26v0.37c0.02,0.45,0.22,0.87,0.55,1.18L7.5,13.6z M4.77,12.57c0.32-0.31,0.51-0.74,0.52-1.19V11
			c0-0.4-0.27-0.51-0.57-0.25l-1,0.88c0,0.2,0,0.39-0.07,0.56c-0.06,0.53-0.17,1.05-0.33,1.56c0.09-0.02,0.17-0.07,0.24-0.13
			L4.77,12.57z M18.48,13.6c0.06,0.05,0.13,0.09,0.2,0.11c0-0.14-0.09-0.29-0.13-0.44c-0.11-0.53-0.18-1.06-0.21-1.6l-1.1-0.92
			c-0.3-0.25-0.55-0.14-0.55,0.26v0.37c0.02,0.45,0.22,0.87,0.55,1.18L18.48,13.6z M13,13.6c0.31,0.25,0.56,0.14,0.56-0.26V13
			c-0.02-0.46-0.22-0.89-0.56-1.21l-1.25-1c-0.3-0.25-0.55-0.14-0.55,0.26v0.37c0.02,0.45,0.22,0.87,0.55,1.18L13,13.6z M9,11.18
			l1.24-1C10.57,9.87,10.77,9.45,10.8,9V8.58c0-0.39-0.25-0.51-0.55-0.25L9,9.37c-0.33,0.31-0.53,0.73-0.55,1.18v0.37
			C8.45,11.31,8.7,11.43,9,11.18z M9.05,8.69L9.82,8H8.48v0.39C8.5,8.84,8.75,9,9.05,8.69z M8.06,8.4V8.08L6.9,8.15l0.6,0.51
			C7.81,8.91,8.06,8.8,8.06,8.4z M7.46,11.16c0.3,0.27,0.55,0.15,0.56-0.24v-0.37C8.01,10.1,7.83,9.67,7.51,9.36L6.31,8.3
			C6.27,8.27,6.23,8.25,6.19,8.23H5.81C5.77,8.31,5.74,8.4,5.74,8.49v0.37c0.01,0.45,0.2,0.88,0.52,1.19L7.46,11.16z M5.31,9V8.58
			c0.01-0.06,0.01-0.13,0-0.19H5.14C4.56,8.53,4.12,8.99,4,9.57c-0.06,0.3-0.11,0.84-0.17,1.38l1-0.81C5.12,9.83,5.29,9.43,5.31,9z
			 M18.28,10.94c-0.03-0.39-0.08-0.78-0.15-1.17c-0.13-0.68-0.66-1.2-1.34-1.32c0,0,0,0,0,0.05v0.37c0.01,0.45,0.2,0.88,0.52,1.2
			L18.28,10.94z M14.5,11.18l1.24-1c0.33-0.31,0.53-0.73,0.55-1.18V8.58c0.02-0.08,0.02-0.16,0-0.24l-0.45-0.05h-0.06l-1.25,1
			C14.2,9.6,14,10.02,13.98,10.47v0.37C13.94,11.31,14.19,11.43,14.5,11.18z M14.5,13.62l1.24-1c0.33-0.31,0.53-0.73,0.55-1.18V11
			c0-0.4-0.25-0.51-0.55-0.26l-1.25,1c-0.34,0.33-0.54,0.78-0.55,1.26v0.37C13.94,13.76,14.19,13.88,14.5,13.62z M14.54,8.69
			l0.54-0.47L14,8.12v0.32C14,8.84,14.24,9,14.54,8.69z M13.55,8.4V8.09c-0.43,0-0.87-0.05-1.31-0.06l0.75,0.63
			C13.3,8.91,13.55,8.8,13.55,8.4z M13,11.16c0.3,0.27,0.55,0.15,0.56-0.24v-0.37c-0.02-0.46-0.22-0.89-0.56-1.19L11.8,8.3
			c-0.3-0.27-0.56-0.16-0.57,0.24v0.37c0.01,0.45,0.2,0.88,0.52,1.19L13,11.16z M22,22v-1.66c0-1.93-1.28-3.62-3.13-4.15
			c0.09-0.08,0.14-0.21,0.13-0.33v-0.37c-0.01-0.45-0.2-0.88-0.52-1.19l-1.2-1.06c-0.3-0.26-0.56-0.15-0.57,0.24v0.37
			c0.01,0.45,0.2,0.88,0.52,1.2l1.17,1c-0.24-0.04-0.49-0.07-0.74-0.07h-3l1.1-0.92c0.33-0.31,0.53-0.73,0.55-1.18v-0.37
			c0-0.4-0.25-0.51-0.55-0.26l-1.25,1c-0.33,0.31-0.52,0.73-0.55,1.18v0.37c0,0.07,0.01,0.14,0.04,0.2h-0.49
			c0.01-0.05,0.01-0.09,0-0.14v-0.37c-0.01-0.45-0.19-0.88-0.51-1.19l-1.2-1.06c-0.3-0.26-0.56-0.15-0.57,0.24v0.37
			c0.01,0.45,0.2,0.88,0.52,1.2L12.84,16H9.15l1.1-0.92c0.33-0.31,0.53-0.73,0.55-1.18v-0.37c0-0.4-0.25-0.51-0.55-0.26L9,14.31
			c-0.33,0.31-0.52,0.73-0.55,1.18v0.37c-0.01,0.05-0.01,0.09,0,0.14H8c0.01-0.05,0.01-0.09,0-0.14v-0.37
			c-0.01-0.45-0.19-0.87-0.51-1.19l-1.18-1.06c-0.3-0.26-0.55-0.15-0.57,0.24v0.37c0.01,0.45,0.2,0.88,0.52,1.2L7.34,16h-3
			c-0.26,0-0.52,0.03-0.77,0.08l1.19-1c0.33-0.31,0.53-0.73,0.55-1.18v-0.37c0-0.4-0.25-0.51-0.55-0.26l-1.25,1
			C3.19,14.6,3.01,15.03,3,15.49v0.37c-0.01,0.13,0.04,0.26,0.14,0.34C1.29,16.73,0.01,18.41,0,20.34v17.32c0,1.88,1.21,3.54,3,4.11
			C2.99,41.85,2.99,41.92,3,42v0.37c0.03,0.45,0.22,0.87,0.55,1.18l1.25,1c0.3,0.26,0.55,0.14,0.55-0.26v-0.37
			c-0.02-0.45-0.22-0.87-0.55-1.18l-1-0.82c0.18,0.03,0.37,0.05,0.56,0.06h2.8l-0.91,0.79C5.92,43.1,5.74,43.54,5.73,44v0.37
			c0,0.39,0.27,0.5,0.57,0.24l1.21-1.06C7.82,43.23,8,42.8,8,42.35V42h0.43v0.35C8.46,42.8,8.67,43.22,9,43.53l1.25,1
			c0.3,0.26,0.55,0.14,0.55-0.26V43.9c-0.02-0.45-0.22-0.87-0.55-1.18L9.34,42h3.31l-0.91,0.79c-0.32,0.32-0.51,0.75-0.52,1.2v0.37
			c0,0.39,0.27,0.5,0.57,0.24L13,43.54c0.32-0.31,0.51-0.74,0.52-1.19V42h0.43v0.35c0.03,0.45,0.22,0.87,0.55,1.18l1.25,1
			c0.3,0.26,0.55,0.14,0.55-0.26V43.9c-0.02-0.45-0.22-0.87-0.55-1.18L14.83,42h3c0.13,0,0.25,0,0.38,0l-0.95,0.83
			c-0.32,0.32-0.51,0.75-0.52,1.2v0.37c0,0.39,0.27,0.5,0.57,0.24l1.2-1.06c0.32-0.33,0.5-0.77,0.49-1.23V42
			c0.01-0.06,0.01-0.11,0-0.17c1.78-0.52,3-2.15,3-4V27h1v-5H22z M21,22v15.8c-0.01,1.77-1.43,3.19-3.2,3.2H4.34
			C2.5,40.99,1.01,39.5,1,37.66V20.34C1.01,18.5,2.5,17.01,4.34,17h13.32c1.84,0.01,3.33,1.5,3.34,3.34V22z"/>
		<rect style="fill:none;" width="23" height="54"/>
	</g>
</g>
<g id="Layer_2">
</g>
</svg>
