<?xml version="1.0" encoding="UTF-8"?>
<svg width="53px" height="54px" viewBox="0 0 53 54" version="1.1" xmlns="http://www.w3.org/2000/svg" xmlns:xlink="http://www.w3.org/1999/xlink">
    <title>wireframing</title>
    <g id="Page-1" stroke="none" stroke-width="1" fill="none" fill-rule="evenodd">
        <g id="wireframing" transform="translate(1.000000, 7.000000)" fill="#F5F5F7" fill-rule="nonzero">
            <g id="Group">
                <path d="M50.4137931,7.21311475 L0.586206897,7.21311475 C0.26262069,7.21311475 0,6.88996721 0,6.49180328 L0,0.721311475 C0,0.323147541 0.26262069,0 0.586206897,0 L50.4137931,0 C50.7379655,0 51,0.323147541 51,0.721311475 L51,6.49180328 C51,6.88996721 50.7379655,7.21311475 50.4137931,7.21311475 Z M1.17241379,5.7704918 L49.8275862,5.7704918 L49.8275862,1.44262295 L1.17241379,1.44262295 L1.17241379,5.7704918 Z" id="Shape"></path>
                <path d="M50.4137931,44 L0.586206897,44 C0.26262069,44 0,43.6775738 0,43.2786885 L0,6.49180328 C0,6.09363934 0.26262069,5.7704918 0.586206897,5.7704918 L50.4137931,5.7704918 C50.7379655,5.7704918 51,6.09363934 51,6.49180328 L51,43.2786885 C51,43.6775738 50.7379655,44 50.4137931,44 Z M1.17241379,42.5573768 L49.8275862,42.5573768 L49.8275862,6.21311475 L1.17241379,6.21311475 L1.17241379,42.5573768 Z" id="Shape"></path>
                <ellipse id="Oval" cx="41.4051724" cy="3.60655738" rx="1.0862069" ry="1.08196721"></ellipse>
                <ellipse id="Oval" cx="44.3017241" cy="3.60655738" rx="1.0862069" ry="1.08196721"></ellipse>
                <ellipse id="Oval" cx="47.1982759" cy="3.60655738" rx="1.0862069" ry="1.08196721"></ellipse>
                <path d="M14.4827586,44 L0.724137931,44 C0.324413793,44 0,43.6775738 0,43.2786885 L0,6.49180328 C0,6.09363934 0.324413793,5.7704918 0.724137931,5.7704918 L14.4827586,5.7704918 C14.8824828,5.7704918 15.2068966,6.09363934 15.2068966,6.49180328 L15.2068966,43.2786885 C15.2068966,43.6775738 14.8824828,44 14.4827586,44 Z M1.44827586,42.557377 L13.7586207,42.557377 L13.7586207,7.21311475 L1.44827586,7.21311475 L1.44827586,42.557377 Z" id="Shape"></path>
            </g>
            <path d="M10.3,17 L4.7,17 C4.3136,17 4,16.7013333 4,16.3333333 L4,11.6666667 C4,11.2986667 4.3136,11 4.7,11 L10.3,11 C10.6864,11 11,11.2986667 11,11.6666667 L11,16.3333333 C11,16.7013333 10.6864,17 10.3,17 Z M5.4,15.6666667 L9.6,15.6666667 L9.6,12.3333333 L5.4,12.3333333 L5.4,15.6666667 Z" id="Shape"></path>
            <path d="M10.3,26 L4.7,26 C4.3136,26 4,25.702 4,25.3333333 L4,20.6666667 C4,20.2986667 4.3136,20 4.7,20 L10.3,20 C10.6864,20 11,20.2986667 11,20.6666667 L11,25.3333333 C11,25.702 10.6864,26 10.3,26 Z M5.4,24.6666667 L9.6,24.6666667 L9.6,21.3333333 L5.4,21.3333333 L5.4,24.6666667 Z" id="Shape"></path>
            <path d="M10.3,36 L4.7,36 C4.3136,36 4,35.702 4,35.3333333 L4,30.6666667 C4,30.298 4.3136,30 4.7,30 L10.3,30 C10.6864,30 11,30.298 11,30.6666667 L11,35.3333333 C11,35.702 10.6864,36 10.3,36 Z M5.4,34.6666667 L9.6,34.6666667 L9.6,31.3333333 L5.4,31.3333333 L5.4,34.6666667 Z" id="Shape"></path>
            <g id="Group" transform="translate(21.000000, 14.000000)">
                <path d="M23.4666667,19 L0.533333333,19 C0.238933333,19 0,18.7426364 0,18.4242424 L0,0.575757576 C0,0.257939394 0.238933333,0 0.533333333,0 L23.4666667,0 C23.7616,0 24,0.257939394 24,0.575757576 L24,18.4242424 C24,18.7426364 23.7616,19 23.4666667,19 Z M1.06666667,17.8484848 L22.9333333,17.8484848 L22.9333333,1.15151515 L1.06666667,1.15151515 L1.06666667,17.8484848 Z" id="Shape"></path>
                <path d="M20.9855194,19 C20.8206363,19 20.6594763,18.9162456 20.5546957,18.7592793 L14.6907059,9.89009674 L11.1494411,14.1258445 C11.0377461,14.2599687 10.8739267,14.3308378 10.7101073,14.3120956 C10.5446922,14.2956961 10.3962974,14.1949565 10.3080051,14.040333 L4.91153884,4.58955511 L0.840520429,7.78159399 C0.601173907,7.96960215 0.26874818,7.90751846 0.0985462084,7.64454131 C-0.0716557635,7.38097847 -0.0158082415,7.01550466 0.2230064,6.8274965 L4.75303826,3.27525506 C4.87217964,3.18154383 5.02217013,3.14698781 5.16471428,3.17744396 C5.30832219,3.20848581 5.43384614,3.30395413 5.51203268,3.44042111 L10.8382906,12.768203 L14.3481744,8.57052544 C14.4556144,8.4410868 14.6024136,8.37138907 14.7699562,8.38251727 C14.9289886,8.39305979 15.075256,8.48091407 15.1693989,8.62265231 L21.4152794,18.0693303 C21.5881408,18.3311361 21.5360164,18.6971956 21.2982656,18.8875465 C21.2035907,18.9636869 21.0940232,19 20.9855194,19 Z" id="Path"></path>
                <path d="M17.6,7.15 C16.2763294,7.15 15.2,6.07310588 15.2,4.75 C15.2,3.42689412 16.2763294,2.35 17.6,2.35 C18.9236706,2.35 20,3.42689412 20,4.75 C20,6.07310588 18.9236706,7.15 17.6,7.15 Z M17.6,3.47941176 C16.8997647,3.47941176 16.3294118,4.0492 16.3294118,4.75 C16.3294118,5.4508 16.8997647,6.02058824 17.6,6.02058824 C18.3002353,6.02058824 18.8705882,5.4508 18.8705882,4.75 C18.8705882,4.0492 18.3002353,3.47941176 17.6,3.47941176 Z" id="Shape"></path>
            </g>
        </g>
    </g>
</svg>