<svg xmlns="http://www.w3.org/2000/svg" viewBox="0 0 36 56">
<path d="M28,10H8a8,8,0,0,0-8,8V38a8,8,0,0,0,8,8H28a8,8,0,0,0,8-8V18A8,8,0,0,0,28,10Zm6,28a6.0068,6.0068,0,0,1-6,6H8a6.0068,6.0068,0,0,1-6-6V18a6.0068,6.0068,0,0,1,6-6H28a6.0068,6.0068,0,0,1,6,6Z" fill="#86868b"/><path d="M27.9082,20.77148a7.66375,7.66375,0,0,0-9.8164,0l-.0459.03824L18,20.848l-.0459-.03824-.0459-.03824a7.66375,7.66375,0,0,0-9.8164,0,5.14247,5.14247,0,0,0-.5459.467A1.55727,1.55727,0,0,0,7,22.1499V35.50732a1.4989,1.4989,0,0,0,2.1709,1.3418l.64746-.32373.64746-.32373a5.84652,5.84652,0,0,1,2.54742-.62055,5.07807,5.07807,0,0,1,2.52094.62055c.29574.16419.701.44287,1.13784.68051A2.97428,2.97428,0,0,0,18,37.31641a2.97428,2.97428,0,0,0,1.328-.43424c.43689-.23764.8421-.51632,1.13784-.68051a5.07807,5.07807,0,0,1,2.52094-.62055,5.84652,5.84652,0,0,1,2.54742.62055l.64746.32373.64746.32373A1.4981,1.4981,0,0,0,29,35.50732V22.1499a1.57242,1.57242,0,0,0-.5459-.90594A5.35323,5.35323,0,0,0,27.9082,20.77148ZM13,33.60742a7.671,7.671,0,0,0-3.42871.80518L9,34.69824V22.61816l.373-.31054a5.66272,5.66272,0,0,1,7.2539,0l.373.31054V34.69824l-.57129-.28564A7.671,7.671,0,0,0,13,33.60742Zm14,1.09082-.57129-.28564a7.705,7.705,0,0,0-6.85742,0L19,34.69824V22.61816l.373-.31054a5.66272,5.66272,0,0,1,7.2539,0l.373.31054Z" fill="#86868b"/></svg>