<svg xmlns="http://www.w3.org/2000/svg" viewBox="0 0 38 56">
	<path fill="#6e6e73" d="M7.354,11.163c.248.008,1,.031,1.926,1.378L13.251,18.3a1.868,1.868,0,0,1-.159,2.731l-1.42,1.44a3.087,3.087,0,0,0-.539,3.853,24.852,24.852,0,0,0,4.27,5.144,36.8,36.8,0,0,0,5.231,4.378l.036.022.036.02a3.24,3.24,0,0,0,1.586.429,3.124,3.124,0,0,0,2.24-.972l1.44-1.421a1.988,1.988,0,0,1,1.374-.677,2.557,2.557,0,0,1,1.37.516l5.759,3.972c.9.614,1.351,1.24,1.351,1.861a3.853,3.853,0,0,1-1.215,2.452l-.036.039-.034.041c-.03.036-.063.071-.1.108-.063.068-.127.138-.192.213a7.39,7.39,0,0,1-6.008,2.388c-4.914,0-11.08-3.338-16.918-9.157-5.816-5.8-9.152-11.992-9.152-16.993a7.38,7.38,0,0,1,2.414-5.952l.028-.026.027-.027c.045-.045.087-.092.122-.122l.11-.078.1-.092a3.822,3.822,0,0,1,2.381-1.225h0m0-2A5.632,5.632,0,0,0,3.606,10.93a3.014,3.014,0,0,0-.377.337A9.32,9.32,0,0,0,.174,18.686c0,5.575,3.591,12.28,9.74,18.41,6.11,6.09,12.776,9.741,18.33,9.74a9.4,9.4,0,0,0,7.5-3.055c.118-.139.238-.258.337-.377A5.722,5.722,0,0,0,37.826,39.6,4.3,4.3,0,0,0,35.6,36.084l-5.753-3.968a4.421,4.421,0,0,0-2.505-.869,3.923,3.923,0,0,0-2.771,1.246l-1.448,1.428a1.177,1.177,0,0,1-.835.4,1.262,1.262,0,0,1-.614-.177,35.085,35.085,0,0,1-4.861-4.087,23.61,23.61,0,0,1-3.947-4.721,1.106,1.106,0,0,1,.218-1.448l1.428-1.448a3.85,3.85,0,0,0,.377-5.277l-3.968-5.753A4.422,4.422,0,0,0,7.415,9.164Z"/>
</svg>
