<svg xmlns="http://www.w3.org/2000/svg" viewBox="0 0 50 56">
	<path fill="#6e6e73" d="M4,42c-1.975,0-2-.613-2-1.2,0-3.676,4.262-8.994,11.969-8.994a14.065,14.065,0,0,1,6.317,1.413,15.287,15.287,0,0,1,1.544-1.346,16.616,16.616,0,0,0-7.861-2.067C7.361,29.81,0,34.325,0,40.8c0,2.115,1.337,3.187,3.975,3.187H18.032A4.844,4.844,0,0,1,17.106,42Z"/>
	<path fill="#6e6e73" d="M13.962,27.9c3.765,0,6.714-3.209,6.714-7.306a6.941,6.941,0,0,0-6.714-7.134,6.472,6.472,0,0,0-4.6,1.956,7.256,7.256,0,0,0-2.1,5.195C7.264,24.628,10.269,27.9,13.962,27.9Zm-4.7-7.3a5.27,5.27,0,0,1,1.517-3.777,4.485,4.485,0,0,1,3.183-1.367,4.943,4.943,0,0,1,4.714,5.134c0,2.976-2.07,5.306-4.714,5.306-2.591,0-4.7-2.374-4.7-5.292Z"/>
	<path fill="#6e6e73" d="M34.487,29.686a18.4,18.4,0,0,0-10.892,3.3,13.778,13.778,0,0,0-1.533,1.293,9.352,9.352,0,0,0-3.088,6.513,3.463,3.463,0,0,0,.2,1.177c.428,1.2,1.587,1.874,3.463,2,.217.015.428.033.663.033H45.671C48.544,44,50,42.92,50,40.79,50,35.427,43.767,29.686,34.487,29.686ZM45.671,42H23.3c-.3,0-.562-.012-.792-.033-1.534-.14-1.537-.708-1.537-1.177a7.635,7.635,0,0,1,2.608-5.167,12.18,12.18,0,0,1,1.569-1.273,16.3,16.3,0,0,1,9.335-2.664c8.7,0,13.513,5.383,13.513,9.1C48,41.329,48,42,45.671,42Z"/>
	<path fill="#6e6e73" d="M34.479,26.995c4.2,0,7.493-3.555,7.493-8.094A7.713,7.713,0,0,0,34.479,11a7.25,7.25,0,0,0-5.155,2.188A8,8,0,0,0,27,18.919C27,23.372,30.357,26.995,34.479,26.995ZM29,18.912A6.018,6.018,0,0,1,30.74,14.6,5.266,5.266,0,0,1,34.479,13a5.714,5.714,0,0,1,5.493,5.9c0,3.417-2.413,6.094-5.493,6.094-3.02,0-5.476-2.727-5.476-6.078Z"/>
</svg>
