<svg width="33" height="37" xmlns="http://www.w3.org/2000/svg" version="1.1">
    <!-- Generator: Sketch 39.1 (31720) - http://www.bohemiancoding.com/sketch -->
    <title>N</title>
    <desc>sulu.rocks</desc>
    <g>
        <g fill-rule="evenodd" fill="none" id="Rock-it_Main">
            <g transform="rotate(-70 -12.299 33.0982)" fill="#FFFFFF" id="Mobile-Portrait-Copy-2">
                <path transform="rotate(-13 11.8101 55.2473) translate(-41.3783 -40.5098)" id="Z"
                      d="m48.64712,102.88453c0.19565,-0.86086 0.86086,-1.01738 1.1739,-1.48694c1.09565,-1.83911 2.81737,-3.13041 4.14779,-4.77387c2.50432,-3.01301 5.67385,-5.36081 8.64774,-7.82601c1.76085,-1.44781 3.59996,-2.93475 5.90863,-3.59996c0.50869,-0.15652 0.7826,-0.46956 0.66521,-1.01738c-0.23478,-1.5652 -1.52607,-2.54345 -2.30867,-3.79561c-0.15652,-0.27391 -0.50869,-0.03913 -0.74347,0.19565c-0.58695,0.62608 -1.25216,1.25216 -2.15215,1.36955c-1.09564,0.15652 -2.19128,0.31304 -3.28693,0.31304c-2.19128,0.07826 -4.38256,0.43043 -6.57384,0.62608c-3.36519,0.27391 -6.65211,1.64346 -10.13468,0.93912c0.07826,1.21303 0.70434,2.19128 1.13477,3.24779c0.23478,0.58695 0.54782,0.7826 1.13477,0.74347c1.29129,-0.07826 2.58258,-0.15652 3.79561,-0.54782c2.23042,-0.70434 4.53909,-0.82173 6.7695,-1.52607c0.27391,-0.07826 0.58695,-0.07826 0.74347,0.27391c-0.27391,0.66521 -0.70434,1.29129 -1.21303,1.83911c-1.36955,1.52607 -2.93475,2.89563 -4.3043,4.46083c-3.40432,3.913 -7.5521,7.19993 -10.33033,11.69988c-0.70434,1.13477 -1.83912,1.40868 -3.05215,1.09564c-0.58695,-0.15652 -1.13477,-0.07826 -1.68259,-0.03913c-0.89999,0.07826 -0.97825,0.31304 -0.74347,1.05651c0.19565,0.58695 1.44781,1.09564 0.23478,1.91737c-0.03913,0 0.03913,0.23478 0.11739,0.31304c1.13477,1.25217 2.23041,2.54346 4.14778,2.50433c0.70435,0 1.48695,-0.3913 2.11303,0.31304c0.19565,0.15652 0.50869,0.03913 0.62608,-0.15652c1.09564,-1.87825 3.1304,-2.30868 4.93038,-3.01302c5.32169,-1.99563 10.99554,-2.3478 16.55201,-3.09127c1.87824,-0.23478 3.63909,-0.46956 5.28255,-1.52607c-0.27391,-1.25216 -1.09564,-1.72172 -2.3478,-1.87824c-1.33042,-0.15652 -2.62171,-0.19565 -3.95213,-0.15652c-0.82173,0.03913 -1.52607,0.58695 -2.38693,0.50869c-1.95651,-0.19565 -3.87388,0.50869 -5.86951,0.50869c-2.30867,0.03913 -4.57821,0.70434 -7.04341,0.50869l0,0z"/>
            </g>
        </g>
    </g>
</svg>
