<?xml version="1.0" encoding="UTF-8"?>
<svg width="46px" height="34px" viewBox="0 0 46 34" version="1.1" xmlns="http://www.w3.org/2000/svg" xmlns:xlink="http://www.w3.org/1999/xlink">
    <!-- Generator: Sketch 59.1 (86144) - https://sketch.com -->
    <title>Shape</title>
    <desc>Created with Sketch.</desc>
    <g id="Page-1" stroke="none" stroke-width="1" fill="none" fill-rule="evenodd">
        <g id="sulu" transform="translate(-1.000000, 0.000000)" fill="#FFFFFF" fill-rule="nonzero">
            <g transform="translate(1.000000, 0.000000)" id="Shape">
                <path d="M45.0028043,19.165898 C45.4544037,18.4878922 45.228604,17.6968853 44.551205,17.2448814 L33.9386208,9.8998179 C33.2612218,9.44781399 32.6967227,8.54380617 32.5838229,7.75279933 L31.793524,0.972740678 C31.6806242,0.18173383 31.0032252,-0.157269102 30.3258262,0.0687328527 L0.971869982,9.33481301 C0.181571162,9.56081497 -0.157128333,10.3518218 0.0686713311,11.0298277 L5.71366291,26.6239626 C5.93946257,27.3019684 6.84266123,28.0929753 7.52006022,28.2059762 L34.1644205,33.6300232 C34.9547193,33.7430241 35.857918,33.4040212 36.3095173,32.7260153 L45.0028043,19.165898 L45.0028043,19.165898 Z M20.8422404,12.2728384 C20.390641,12.8378433 19.3745426,13.2898472 18.5842437,13.0638453 L6.16526224,10.5778238 C5.37496342,10.4648228 5.37496342,10.1258198 6.16526224,9.8998179 L26.9388313,3.3457612 C27.7291301,3.11975925 27.9549298,3.45876218 27.5033304,4.02376707 L20.8422404,12.2728384 L20.8422404,12.2728384 Z M29.3097277,4.58877196 C29.7613271,4.02376707 30.2129264,4.13676805 30.3258262,4.81477391 L32.8096225,27.8669733 C32.9225223,28.6579802 32.5838229,28.7709811 32.1322235,28.0929753 L22.5357378,15.5498668 C22.0841385,14.9848619 22.0841385,13.9678531 22.5357378,13.4028482 L29.3097277,4.58877196 L29.3097277,4.58877196 Z M3.00406695,12.9508443 C2.77826729,12.2728384 3.11696678,11.8208345 3.9072656,11.9338355 L18.4713439,14.9848619 C19.2616427,15.0978629 20.2777412,15.7758687 20.7293405,16.3408736 L31.2290249,30.0139919 C31.6806242,30.5789968 31.4548245,31.0310007 30.6645257,30.8049987 L9.10065786,26.5109616 C8.31035904,26.3979606 7.52006022,25.6069538 7.29426055,24.9289479 L3.00406695,12.9508443 L3.00406695,12.9508443 Z M33.2612218,13.0638453 C33.148322,12.2728384 33.5999213,12.0468365 34.2773203,12.4988404 L41.9545089,17.8098863 C42.6319079,18.2618902 42.7448077,19.165898 42.4061082,19.7309029 L35.9708178,29.674989 C35.5192185,30.3529948 35.180519,30.2399938 35.0676192,29.448987 L33.2612218,13.0638453 L33.2612218,13.0638453 Z"></path>
            </g>
        </g>
    </g>
</svg>